<svg xmlns="http://www.w3.org/2000/svg" width="24" height="25" viewBox="0 0 24 25" fill="none">
    <path d="M5.99958 20.5004L14.8686 11.6314C15.2646 11.2354 15.4627 11.0373 15.691 10.9632C15.8918 10.8979 16.1082 10.8979 16.309 10.9632C16.5373 11.0373 16.7354 11.2354 17.1314 11.6314L21.4053 15.9053M10.5 9C10.5 10.1046 9.60457 11 8.5 11C7.39543 11 6.5 10.1046 6.5 9C6.5 7.89543 7.39543 7 8.5 7C9.60457 7 10.5 7.89543 10.5 9ZM22 12.5C22 18.0228 17.5228 22.5 12 22.5C6.47715 22.5 2 18.0228 2 12.5C2 6.97715 6.47715 2.5 12 2.5C17.5228 2.5 22 6.97715 22 12.5Z" stroke="#B1B1B1" stroke-width="2" stroke-linecap="round" stroke-linejoin="round" fill="var(--BG2, #171717)"/>
</svg>