<svg width="16" height="16" viewBox="0 0 16 16" fill="none" xmlns="http://www.w3.org/2000/svg">
<g id="trash-01">
<path id="Icon (Stroke)" fill-rule="evenodd" clip-rule="evenodd" d="M7.44101 0.666749H8.55907C8.9105 0.666737 9.21368 0.666726 9.46339 0.687129C9.72696 0.708663 9.9891 0.756207 10.2414 0.884736C10.6177 1.07648 10.9236 1.38244 11.1154 1.75877C11.2439 2.01102 11.2915 2.27317 11.313 2.53673C11.3313 2.76058 11.3332 3.02739 11.3334 3.33342H14C14.3682 3.33342 14.6667 3.63189 14.6667 4.00008C14.6667 4.36827 14.3682 4.66675 14 4.66675H13.3334V11.4943C13.3334 12.0309 13.3334 12.4738 13.3039 12.8346C13.2733 13.2094 13.2076 13.5538 13.0427 13.8774C12.7871 14.3792 12.3791 14.7871 11.8773 15.0428C11.5538 15.2076 11.2093 15.2733 10.8346 15.304C10.4738 15.3334 10.0309 15.3334 9.49426 15.3334H6.50582C5.96918 15.3334 5.52628 15.3334 5.16549 15.304C4.79076 15.2733 4.44629 15.2076 4.12273 15.0428C3.62097 14.7871 3.21302 14.3792 2.95736 13.8774C2.7925 13.5538 2.72679 13.2094 2.69617 12.8346C2.66669 12.4738 2.6667 12.0309 2.66671 11.4943L2.66671 4.66675H2.00004C1.63185 4.66675 1.33337 4.36827 1.33337 4.00008C1.33337 3.63189 1.63185 3.33342 2.00004 3.33342H4.66673C4.66691 3.02739 4.6688 2.76058 4.68709 2.53673C4.70862 2.27317 4.75616 2.01102 4.88469 1.75877C5.07644 1.38244 5.3824 1.07648 5.75873 0.884736C6.01098 0.756207 6.27313 0.708663 6.53669 0.687129C6.7864 0.666726 7.08958 0.666737 7.44101 0.666749ZM4.00004 4.66675V11.4667C4.00004 12.0378 4.00056 12.426 4.02507 12.7261C4.04895 13.0183 4.09224 13.1678 4.14537 13.2721C4.2732 13.523 4.47717 13.7269 4.72805 13.8548C4.83232 13.9079 4.98179 13.9512 5.27407 13.975C5.57413 13.9996 5.96232 14.0001 6.53337 14.0001H9.46671C10.0378 14.0001 10.426 13.9996 10.726 13.975C11.0183 13.9512 11.1678 13.9079 11.272 13.8548C11.5229 13.7269 11.7269 13.523 11.8547 13.2721C11.9078 13.1678 11.9511 13.0183 11.975 12.7261C11.9995 12.426 12 12.0378 12 11.4667V4.66675H4.00004ZM9.99999 3.33342H6.00009C6.00038 3.02335 6.00242 2.8114 6.01599 2.64531C6.03079 2.4642 6.05591 2.39705 6.0727 2.36409C6.13662 2.23865 6.23861 2.13666 6.36405 2.07275C6.39701 2.05595 6.46416 2.03083 6.64526 2.01603C6.83416 2.0006 7.08234 2.00008 7.46671 2.00008H8.53337C8.91774 2.00008 9.16593 2.0006 9.35482 2.01603C9.53592 2.03083 9.60307 2.05595 9.63603 2.07275C9.76148 2.13666 9.86346 2.23865 9.92738 2.36409C9.94417 2.39705 9.96929 2.4642 9.98409 2.64531C9.99766 2.8114 9.9997 3.02335 9.99999 3.33342ZM6.66671 7.00008C7.0349 7.00008 7.33337 7.29856 7.33337 7.66675V11.0001C7.33337 11.3683 7.0349 11.6667 6.66671 11.6667C6.29852 11.6667 6.00004 11.3683 6.00004 11.0001V7.66675C6.00004 7.29856 6.29852 7.00008 6.66671 7.00008ZM9.33337 7.00008C9.70156 7.00008 10 7.29856 10 7.66675V11.0001C10 11.3683 9.70156 11.6667 9.33337 11.6667C8.96518 11.6667 8.66671 11.3683 8.66671 11.0001V7.66675C8.66671 7.29856 8.96518 7.00008 9.33337 7.00008Z" fill="#111111"/>
</g>
</svg>
