<svg width="20" height="20" viewBox="0 0 20 20" fill="none" xmlns="http://www.w3.org/2000/svg">
<g clip-path="url(#clip0_5101_48216)">
<path d="M7.05306 7.05375L4.10679 4.10748M4.10679 15.8926L7.05308 12.9463M12.9456 12.9463L15.8919 15.8926M15.8919 4.10744L12.9456 7.05373M18.3327 10C18.3327 14.6024 14.6017 18.3334 9.99935 18.3334C5.39698 18.3334 1.66602 14.6024 1.66602 10C1.66602 5.39765 5.39698 1.66669 9.99935 1.66669C14.6017 1.66669 18.3327 5.39765 18.3327 10ZM14.166 10C14.166 12.3012 12.3005 14.1667 9.99935 14.1667C7.69816 14.1667 5.83268 12.3012 5.83268 10C5.83268 7.69883 7.69816 5.83335 9.99935 5.83335C12.3005 5.83335 14.166 7.69883 14.166 10Z" stroke="#078BB9" stroke-width="1.66667" stroke-linecap="round" stroke-linejoin="round"/>
</g>
<defs>
<clipPath id="clip0_5101_48216">
<rect width="20" height="20" fill="white"/>
</clipPath>
</defs>
</svg>
