<svg width="16" height="16" viewBox="0 0 16 16" fill="none" xmlns="http://www.w3.org/2000/svg">
<path opacity="0.6" d="M8.78267 3.91545C8.72755 3.78258 8.71307 3.63635 8.74106 3.49526C8.76906 3.35416 8.83826 3.22454 8.93993 3.12278L11.8488 0.213896C11.9164 0.146281 11.9966 0.0926421 12.0848 0.0560453C12.1731 0.0194484 12.2678 0.000612686 12.3633 0.000612695C12.4589 0.000612703 12.5535 0.0194484 12.6418 0.0560453C12.7301 0.0926422 12.8103 0.146282 12.8778 0.213896L15.7867 3.12278C15.8885 3.22448 15.9579 3.35411 15.986 3.49526C16.0141 3.6364 15.9997 3.78271 15.9446 3.91566C15.8895 4.04861 15.7962 4.16223 15.6765 4.24213C15.5568 4.32203 15.4161 4.36462 15.2722 4.36451L13.0905 4.36451L13.0905 15.2728C13.0905 15.4657 13.0139 15.6507 12.8775 15.787C12.7412 15.9234 12.5562 16 12.3633 16C12.1705 16 11.9855 15.9234 11.8491 15.787C11.7127 15.6507 11.6361 15.4657 11.6361 15.2728L11.6361 4.36451L9.45444 4.36451C9.31061 4.36448 9.17002 4.3218 9.05045 4.24187C8.93087 4.16193 8.83769 4.04834 8.78267 3.91545ZM0.213285 12.8784L3.12217 15.7873C3.18971 15.8549 3.26991 15.9086 3.35819 15.9452C3.44648 15.9818 3.54111 16.0006 3.63668 16.0006C3.73224 16.0006 3.82687 15.9818 3.91516 15.9452C4.00344 15.9086 4.08365 15.8549 4.15118 15.7873L7.06007 12.8784C7.16189 12.7767 7.23124 12.6471 7.25935 12.506C7.28745 12.3648 7.27305 12.2185 7.21796 12.0856C7.16287 11.9526 7.06958 11.839 6.94988 11.7591C6.83018 11.6792 6.68947 11.6366 6.54556 11.6367L4.3639 11.6367L4.3639 0.728404C4.3639 0.535533 4.28728 0.350561 4.1509 0.214181C4.01452 0.0778006 3.82955 0.00118342 3.63668 0.0011834C3.44381 0.00118339 3.25883 0.0778005 3.12245 0.214181C2.98607 0.350561 2.90946 0.535533 2.90946 0.728404L2.90946 11.6367L0.727794 11.6367C0.58388 11.6366 0.443168 11.6792 0.323472 11.7591C0.203776 11.839 0.110479 11.9526 0.0553898 12.0856C0.000301053 12.2185 -0.014102 12.3648 0.0140054 12.506C0.0421127 12.6471 0.111466 12.7767 0.213285 12.8784Z" fill="white"/>
</svg>
