<svg width="21" height="21" viewBox="0 0 21 21" fill="none" xmlns="http://www.w3.org/2000/svg">
<path d="M9.77273 3.95455V8.31818C9.77273 8.70395 9.61948 9.07392 9.3467 9.3467C9.07392 9.61948 8.70395 9.77273 8.31818 9.77273H3.95455C3.56878 9.77273 3.19881 9.61948 2.92603 9.3467C2.65325 9.07392 2.5 8.70395 2.5 8.31818V3.95455C2.5 3.56878 2.65325 3.19881 2.92603 2.92603C3.19881 2.65325 3.56878 2.5 3.95455 2.5H8.31818C8.70395 2.5 9.07392 2.65325 9.3467 2.92603C9.61948 3.19881 9.77273 3.56878 9.77273 3.95455ZM17.0455 2.5H12.6818C12.296 2.5 11.9261 2.65325 11.6533 2.92603C11.3805 3.19881 11.2273 3.56878 11.2273 3.95455V8.31818C11.2273 8.70395 11.3805 9.07392 11.6533 9.3467C11.9261 9.61948 12.296 9.77273 12.6818 9.77273H17.0455C17.4312 9.77273 17.8012 9.61948 18.074 9.3467C18.3468 9.07392 18.5 8.70395 18.5 8.31818V3.95455C18.5 3.56878 18.3468 3.19881 18.074 2.92603C17.8012 2.65325 17.4312 2.5 17.0455 2.5ZM8.31818 11.2273H3.95455C3.56878 11.2273 3.19881 11.3805 2.92603 11.6533C2.65325 11.9261 2.5 12.296 2.5 12.6818V17.0455C2.5 17.4312 2.65325 17.8012 2.92603 18.074C3.19881 18.3468 3.56878 18.5 3.95455 18.5H8.31818C8.70395 18.5 9.07392 18.3468 9.3467 18.074C9.61948 17.8012 9.77273 17.4312 9.77273 17.0455V12.6818C9.77273 12.296 9.61948 11.9261 9.3467 11.6533C9.07392 11.3805 8.70395 11.2273 8.31818 11.2273ZM17.0455 11.2273H12.6818C12.296 11.2273 11.9261 11.3805 11.6533 11.6533C11.3805 11.9261 11.2273 12.296 11.2273 12.6818V17.0455C11.2273 17.4312 11.3805 17.8012 11.6533 18.074C11.9261 18.3468 12.296 18.5 12.6818 18.5H17.0455C17.4312 18.5 17.8012 18.3468 18.074 18.074C18.3468 17.8012 18.5 17.4312 18.5 17.0455V12.6818C18.5 12.296 18.3468 11.9261 18.074 11.6533C17.8012 11.3805 17.4312 11.2273 17.0455 11.2273Z" fill="white"/>
</svg>
