 <svg
                width="70"
                height="70"
                viewBox="0 0 70 70"
                fill="none"
                xmlns="http://www.w3.org/2000/svg"
              >
                <path
                  d="M35.7059 27.5066C35.3155 27.1268 34.6814 27.1268 34.291 27.5066L30.2928 31.3957C29.9024 31.7755 29.9024 32.3922 30.2928 32.772C30.6833 33.1519 31.3174 33.1519 31.7078 32.772L34.0005 30.5419L34.0005 41.8051C34.0005 42.3429 34.4471 42.7773 35 42.7773C35.5529 42.7773 35.9995 42.3429 35.9995 41.8051L35.9995 30.5419L38.2922 32.772C38.6826 33.1519 39.3167 33.1519 39.7072 32.772C40.0976 32.3922 40.0976 31.7755 39.7072 31.3957L35.709 27.5066L35.7059 27.5066Z"
                  fill="white"
                ></path>
                <rect
                  x="0.5"
                  y="69.5"
                  width="69"
                  height="69"
                  transform="rotate(-90 0.5 69.5)"
                  stroke="white"
                  stroke-opacity="0.2"
                ></rect>
              </svg>