<svg viewBox="0 0 650 700" fill="none" xmlns="http://www.w3.org/2000/svg">
<path fill-rule="evenodd" clip-rule="evenodd" d="M574.993 274.93H74.9932V624.93C74.9932 638.193 80.279 650.909 89.6361 660.277C99.029 669.666 111.743 674.93 124.993 674.93C220.779 674.93 429.207 674.93 524.993 674.93C538.243 674.93 550.957 669.666 560.35 660.277C569.707 650.909 574.993 638.193 574.993 624.93C574.993 517.624 574.993 274.93 574.993 274.93Z" fill="#8CD1EA"/>
<path fill-rule="evenodd" clip-rule="evenodd" d="M625.016 199.918C625.016 186.113 613.831 174.918 600.031 174.918C502.402 174.918 147.629 174.918 50.0001 174.918C36.2001 174.918 25.0146 186.113 25.0146 199.918C25.0146 215.186 25.0146 234.649 25.0146 249.918C25.0146 263.723 36.2001 274.918 50.0001 274.918C147.629 274.918 502.402 274.918 600.031 274.918C613.831 274.918 625.016 263.723 625.016 249.918C625.016 234.649 625.016 215.186 625.016 199.918Z" fill="#8CD1EA"/>
<path fill-rule="evenodd" clip-rule="evenodd" d="M183.872 118.674C165.617 88.7961 176.463 50.5474 208.081 33.2974C239.7 16.0474 280.177 26.2961 298.432 56.174C316.687 86.0518 319.069 145.951 287.451 163.201C255.832 180.451 202.127 148.552 183.872 118.674Z" fill="#8CD1EA"/>
<path fill-rule="evenodd" clip-rule="evenodd" d="M466.128 118.674C484.383 88.7961 473.537 50.5474 441.919 33.2974C410.3 16.0474 369.823 26.2961 351.568 56.174C333.313 86.0518 330.931 145.951 362.549 163.201C394.168 180.451 447.873 148.552 466.128 118.674Z" fill="#8CD1EA"/>
<path fill-rule="evenodd" clip-rule="evenodd" d="M176.875 149.93H50C22.375 149.93 0 172.305 0 199.93V249.93C0 277.555 22.375 299.93 50 299.93V624.93C50 644.83 57.8999 663.905 71.9749 677.955C86.0249 692.03 105.1 699.93 125 699.93H525C544.9 699.93 563.975 692.03 578.025 677.955C592.1 663.905 600 644.83 600 624.93V299.93C627.625 299.93 650 277.555 650 249.93V199.93C650 172.305 627.625 149.93 600 149.93H473.125C478.875 143.955 483.75 137.805 487.475 131.705C513.175 89.6552 498.425 35.6303 453.9 11.3553C410.6 -12.2697 355.25 2.23035 330.25 43.1554C328.375 46.2304 326.6 49.5552 325 53.1052C323.4 49.5552 321.625 46.2304 319.75 43.1554C294.75 2.23035 239.4 -12.2697 196.1 11.3553C151.575 35.6303 136.825 89.6552 162.525 131.705C166.25 137.805 171.125 143.955 176.875 149.93ZM550 299.93V624.93C550 631.555 547.375 637.93 542.675 642.605C538 647.305 531.625 649.93 525 649.93H400V299.93H550ZM350 299.93H300V649.93H350V299.93ZM250 649.93H125C118.375 649.93 112 647.305 107.325 642.605C102.625 637.93 100 631.555 100 624.93V299.93H250V649.93ZM250 199.93H50V249.93H250V199.93ZM300 249.93V199.93H350V249.93H300ZM400 199.93V249.93H600V199.93H400ZM444.8 105.655C436.35 119.48 417.8 133.53 399.225 139.955C390.4 143.03 381.5 145.055 374.525 141.255C368.175 137.805 365.85 130.155 364.375 122.155C361.075 104.28 364.7 82.6552 372.9 69.2052C384.4 50.3802 410.025 44.3802 429.95 55.2552C448.675 65.4552 455.6 87.9553 444.8 105.655ZM205.2 105.655C194.4 87.9553 201.325 65.4552 220.05 55.2552C239.975 44.3802 265.6 50.3802 277.1 69.2052C285.3 82.6552 288.925 104.28 285.625 122.155C284.15 130.155 281.825 137.805 275.475 141.255C268.5 145.055 259.6 143.03 250.775 139.955C232.2 133.53 213.65 119.48 205.2 105.655Z" fill="#0784B5"/>
</svg>
