<svg width="16" height="17" viewBox="0 0 16 17" fill="none" xmlns="http://www.w3.org/2000/svg">
<path d="M1.33301 8.60905H14.6663M1.33301 8.60905C1.33301 12.2909 4.31778 15.2757 7.99967 15.2757M1.33301 8.60905C1.33301 4.92715 4.31778 1.94238 7.99967 1.94238M14.6663 8.60905C14.6663 12.2909 11.6816 15.2757 7.99967 15.2757M14.6663 8.60905C14.6663 4.92715 11.6816 1.94238 7.99967 1.94238M7.99967 1.94238C9.66719 3.76795 10.6148 6.13707 10.6663 8.60905C10.6148 11.081 9.66719 13.4501 7.99967 15.2757M7.99967 1.94238C6.33215 3.76795 5.38451 6.13707 5.33301 8.60905C5.38451 11.081 6.33215 13.4501 7.99967 15.2757" stroke="#E9E9E9" stroke-width="1.33333" stroke-linecap="round" stroke-linejoin="round"/>
</svg>
