<svg width="674" height="613" viewBox="0 0 674 613" fill="none" xmlns="http://www.w3.org/2000/svg">
<path opacity="0.2" d="M299.284 462.665C308.805 476.27 303.887 490.807 287.442 495.213L260.034 502.557C244.959 506.597 225.21 498.669 217.059 484.697L136.486 359.406C126.966 345.8 131.883 331.264 148.328 326.857L175.736 319.513C190.811 315.474 210.56 323.401 218.711 337.374L299.284 462.665Z" fill="#231F20"/>
<path opacity="0.2" d="M309.422 533.387C318.943 546.993 314.025 561.53 297.58 565.936L270.172 573.28C255.097 577.319 242.397 579.254 232.876 565.648L145.254 430.496C135.733 416.89 140.651 402.353 157.096 397.947L184.504 390.603C199.578 386.564 219.328 394.491 227.478 408.464L309.422 533.387Z" fill="#231F20"/>
<path d="M291.94 435.256C301.461 448.862 296.543 463.399 280.098 467.805L252.69 475.149C237.616 479.188 217.866 471.261 209.716 457.288L129.143 331.998C119.622 318.392 124.539 303.855 140.984 299.449L168.392 292.105C183.467 288.066 203.217 295.993 211.367 309.966L291.94 435.256Z" fill="#8CD1EA"/>
<path d="M302.077 505.979C311.598 519.585 306.68 534.122 290.235 538.528L262.827 545.872C247.753 549.911 230.842 547.098 221.321 533.493L137.909 403.088C128.388 389.482 133.306 374.945 149.751 370.539L177.159 363.195C192.234 359.156 211.983 367.083 220.134 381.056L302.077 505.979Z" fill="#0784B5"/>
<path opacity="0.2" d="M572.223 198.586L534.034 56.0633C531.097 45.1 518.933 38.0775 507.97 41.0151C497.007 43.9527 489.984 56.116 492.922 67.0792L496.594 80.7833C467.403 125.325 433.759 191.623 300.83 227.241L150.085 267.633L122.677 274.977L95.2685 282.321C80.194 286.36 71.1652 301.999 75.2044 317.073C60.1299 321.113 51.101 336.751 55.1402 351.825L77.1722 434.05C81.2114 449.124 96.8499 458.153 111.924 454.114C115.964 469.189 131.602 478.217 146.676 474.178L160.381 470.506L174.085 466.834L201.493 459.49L352.238 419.098C485.167 383.48 547.452 424.074 595.003 448.052L599.043 463.127C601.98 474.09 614.144 481.113 625.107 478.175C636.07 475.237 643.092 463.074 640.155 452.111L601.599 308.218C616.673 304.179 625.702 288.541 621.663 273.466L606.975 218.65C602.936 203.575 587.297 194.546 572.223 198.586Z" fill="#231F20"/>
<path d="M614.32 246.059C618.359 261.133 609.33 276.772 594.256 280.811L484.623 310.187C469.549 314.226 453.91 305.197 449.871 290.123L435.183 235.307C431.144 220.232 440.173 204.594 455.247 200.554L564.88 171.178C579.954 167.139 595.593 176.168 599.632 191.243L614.32 246.059Z" fill="#E0E0D1"/>
<path d="M234.278 362.578C238.317 377.653 229.288 393.291 214.214 397.331L104.581 426.707C89.5067 430.746 73.8683 421.717 69.8291 406.642L47.7971 324.418C43.7579 309.343 52.7868 293.705 67.8613 289.666L177.494 260.29C192.568 256.251 208.207 265.279 212.246 280.354L234.278 362.578Z" fill="#0784B5"/>
<path d="M501.02 37.0021C468.353 79.5375 444.231 159.441 293.486 199.833L115.333 247.569L153.037 443.098L344.894 391.69C495.639 351.298 556.481 408.435 606.039 428.939L501.02 37.0021Z" fill="white"/>
<path d="M194.149 432.083C194.149 432.083 181.815 435.388 166.741 439.427L139.333 446.771C124.258 450.81 108.62 441.781 104.581 426.707L67.8606 289.666C63.8214 274.591 72.8503 258.953 87.9247 254.914L115.333 247.57C130.407 243.531 142.741 240.226 142.741 240.226L194.149 432.083Z" fill="#8CD1EA"/>
<path d="M632.811 424.703C635.749 435.666 628.726 447.83 617.763 450.767C606.8 453.705 594.637 446.682 591.699 435.719L485.578 39.6713C482.641 28.7081 489.663 16.5448 500.626 13.6072C511.59 10.6696 523.753 17.6921 526.691 28.6554L632.811 424.703Z" fill="#0784B5"/>
</svg>
