<svg width="36" height="36" viewBox="0 0 36 36" fill="none" xmlns="http://www.w3.org/2000/svg">
<path d="M16.5 6H11.7C9.17976 6 7.91965 6 6.95704 6.49047C6.11031 6.9219 5.4219 7.61031 4.99047 8.45704C4.5 9.41965 4.5 10.6798 4.5 13.2V21C4.5 22.395 4.5 23.0924 4.65333 23.6647C5.06944 25.2176 6.2824 26.4306 7.83531 26.8467C8.40756 27 9.10504 27 10.5 27V30.5033C10.5 31.3025 10.5 31.7022 10.6638 31.9074C10.8063 32.0859 11.0224 32.1898 11.2508 32.1895C11.5134 32.1892 11.8255 31.9396 12.4496 31.4403L16.0278 28.5777C16.7588 27.993 17.1243 27.7006 17.5312 27.4927C17.8923 27.3082 18.2766 27.1734 18.6738 27.0919C19.1215 27 19.5895 27 20.5256 27H22.8C25.3202 27 26.5804 27 27.543 26.5095C28.3897 26.0781 29.0781 25.3897 29.5095 24.543C30 23.5804 30 22.3202 30 19.8V19.5M30.182 5.81802C31.9393 7.57538 31.9393 10.4246 30.182 12.182C28.4246 13.9393 25.5754 13.9393 23.818 12.182C22.0607 10.4246 22.0607 7.57538 23.818 5.81802C25.5754 4.06066 28.4246 4.06066 30.182 5.81802Z" stroke="#E9E9E9" stroke-width="3" stroke-linecap="round" stroke-linejoin="round"/>
</svg>
