<svg width="16" height="18" viewBox="0 0 16 18" fill="none" xmlns="http://www.w3.org/2000/svg">
<path d="M15.6558 4.7793C15.5056 4.85708 15.3306 4.87204 15.1694 4.82089C15.0082 4.76974 14.8738 4.65667 14.7959 4.50652C14.1869 3.30334 13.265 2.28642 12.1272 1.5626C12.0563 1.51787 11.9949 1.45962 11.9465 1.39116C11.8981 1.32271 11.8636 1.24539 11.8451 1.16362C11.8266 1.08185 11.8244 0.997241 11.8386 0.914613C11.8527 0.831985 11.8831 0.75296 11.9278 0.68205C11.9725 0.61114 12.0308 0.549733 12.0992 0.501336C12.1677 0.452939 12.245 0.418499 12.3268 0.399983C12.4085 0.381467 12.4931 0.379238 12.5758 0.393422C12.6584 0.407606 12.7374 0.437926 12.8083 0.482651C14.1344 1.33172 15.2112 2.51777 15.9285 3.91949C16.0063 4.0697 16.0213 4.24464 15.9701 4.40586C15.919 4.56709 15.8059 4.70141 15.6558 4.7793ZM0.63781 4.85109C0.754708 4.85104 0.869347 4.81888 0.969212 4.75811C1.06908 4.69735 1.15033 4.61032 1.2041 4.50652C1.81315 3.30334 2.73503 2.28642 3.87286 1.5626C4.01607 1.47227 4.11753 1.32875 4.15493 1.16362C4.19232 0.998486 4.16259 0.82526 4.07226 0.68205C3.98194 0.53884 3.83842 0.437378 3.67329 0.399983C3.50815 0.362589 3.33492 0.392325 3.19172 0.482651C1.86563 1.33172 0.788859 2.51777 0.0715166 3.91949C0.0211386 4.01674 -0.00336262 4.12531 0.000370963 4.23476C0.00410455 4.34422 0.0359472 4.45087 0.0928345 4.54445C0.149722 4.63803 0.229739 4.7154 0.325185 4.7691C0.420631 4.82281 0.528293 4.85104 0.63781 4.85109ZM15.4811 13.1413C15.5941 13.3352 15.6541 13.5554 15.6548 13.7798C15.6556 14.0042 15.5972 14.2248 15.4855 14.4194C15.3738 14.6141 15.2127 14.7758 15.0186 14.8883C14.8244 15.0008 14.604 15.0602 14.3796 15.0603H11.1254C10.979 15.7815 10.5877 16.4299 10.0179 16.8957C9.44806 17.3614 8.73476 17.6158 7.99883 17.6158C7.2629 17.6158 6.5496 17.3614 5.97979 16.8957C5.40998 16.4299 5.0187 15.7815 4.87225 15.0603H1.61806C1.39379 15.0599 1.1736 15.0003 0.979665 14.8877C0.785732 14.7751 0.624905 14.6133 0.513384 14.4188C0.401864 14.2242 0.343589 14.0037 0.344429 13.7794C0.345269 13.5551 0.405195 13.335 0.518171 13.1413C1.23681 11.901 1.61806 10.1376 1.61806 8.04147C1.61806 6.34919 2.29031 4.72621 3.48694 3.52959C4.68357 2.33296 6.30654 1.6607 7.99883 1.6607C9.69112 1.6607 11.3141 2.33296 12.5107 3.52959C13.7073 4.72621 14.3796 6.34919 14.3796 8.04147C14.3796 10.1368 14.7609 11.9002 15.4811 13.1413ZM9.80299 15.0603H6.19467C6.32686 15.4331 6.5713 15.7558 6.89437 15.984C7.21744 16.2123 7.60328 16.3348 7.99883 16.3348C8.39438 16.3348 8.78022 16.2123 9.10329 15.984C9.42636 15.7558 9.6708 15.4331 9.80299 15.0603Z" fill="white"/>
</svg>
