<svg width="20" height="20" viewBox="0 0 20 20" fill="none" xmlns="http://www.w3.org/2000/svg">
<g id="pie-chart-01" clip-path="url(#clip0_4782_26684)">
<path id="Icon" d="M17.6747 13.2416C17.1445 14.4954 16.3153 15.6002 15.2596 16.4594C14.2038 17.3186 12.9537 17.9062 11.6184 18.1706C10.2831 18.4351 8.90337 18.3684 7.59981 17.9765C6.29624 17.5845 5.10854 16.8792 4.14053 15.9222C3.17253 14.9652 2.4537 13.7856 2.04688 12.4866C1.64006 11.1876 1.55765 9.80872 1.80685 8.4705C2.05605 7.13229 2.62926 5.8755 3.47639 4.81C4.32351 3.7445 5.41875 2.90274 6.66635 2.35831M17.6987 6.81095C18.0323 7.61633 18.2369 8.46778 18.3064 9.33401C18.3235 9.54801 18.3321 9.65501 18.2896 9.7514C18.2541 9.83191 18.1838 9.9081 18.1064 9.94992C18.0137 9.99998 17.8979 9.99998 17.6664 9.99998H10.6664C10.433 9.99998 10.3163 9.99998 10.2272 9.95456C10.1488 9.91462 10.085 9.85087 10.0451 9.77247C9.99968 9.68334 9.99968 9.56667 9.99968 9.33331V2.33331C9.99968 2.10175 9.99968 1.98598 10.0497 1.8933C10.0916 1.81588 10.1678 1.74555 10.2483 1.71005C10.3447 1.66756 10.4516 1.67614 10.6656 1.6933C11.5319 1.76274 12.3833 1.96738 13.1887 2.30098C14.1998 2.71977 15.1184 3.3336 15.8922 4.10742C16.6661 4.88124 17.2799 5.7999 17.6987 6.81095Z" stroke="#078BB9" stroke-width="1.66667" stroke-linecap="round" stroke-linejoin="round"/>
</g>
<defs>
<clipPath id="clip0_4782_26684">
<rect width="20" height="20" fill="white"/>
</clipPath>
</defs>
</svg>
