<svg width="20" height="20" viewBox="0 0 20 20" fill="none" xmlns="http://www.w3.org/2000/svg">
<g id="receipt-check">
<path id="Icon" d="M7.50065 8.75L9.16732 10.4167L12.9173 6.66667M16.6673 17.5V6.5C16.6673 5.09987 16.6673 4.3998 16.3948 3.86502C16.1552 3.39462 15.7727 3.01217 15.3023 2.77248C14.7675 2.5 14.0674 2.5 12.6673 2.5H7.33398C5.93385 2.5 5.23379 2.5 4.69901 2.77248C4.2286 3.01217 3.84615 3.39462 3.60647 3.86502C3.33398 4.3998 3.33398 5.09987 3.33398 6.5V17.5L5.62565 15.8333L7.70898 17.5L10.0007 15.8333L12.2923 17.5L14.3757 15.8333L16.6673 17.5Z" stroke="#078BB9" stroke-width="1.66667" stroke-linecap="round" stroke-linejoin="round"/>
</g>
</svg>
