<svg width="20" height="20" viewBox="0 0 20 20" fill="none" xmlns="http://www.w3.org/2000/svg">
<g id="shopping-bag-01">
<path id="Icon" d="M4.6 2.20002L3.3 3.93335C3.04251 4.27667 2.91377 4.44833 2.91676 4.59201C2.91936 4.71705 2.97799 4.83431 3.07646 4.91142C3.18962 5.00002 3.40419 5.00002 3.83333 5.00002H16.1667C16.5958 5.00002 16.8104 5.00002 16.9235 4.91142C17.022 4.83431 17.0806 4.71705 17.0832 4.59201C17.0862 4.44833 16.9575 4.27667 16.7 3.93335L15.4 2.20002M4.6 2.20002C4.74667 2.00447 4.82 1.90669 4.91294 1.83617C4.99525 1.77371 5.08846 1.7271 5.18782 1.69872C5.3 1.66669 5.42222 1.66669 5.66667 1.66669H14.3333C14.5778 1.66669 14.7 1.66669 14.8122 1.69872C14.9115 1.7271 15.0047 1.77371 15.0871 1.83617C15.18 1.90669 15.2533 2.00447 15.4 2.20002M4.6 2.20002L3.03333 4.28891C2.83545 4.55275 2.73651 4.68468 2.66625 4.82996C2.6039 4.95887 2.55843 5.09528 2.53096 5.23582C2.5 5.3942 2.5 5.5591 2.5 5.88891L2.5 15.6667C2.5 16.6001 2.5 17.0668 2.68166 17.4233C2.84144 17.7369 3.09641 17.9919 3.41002 18.1517C3.76654 18.3334 4.23325 18.3334 5.16667 18.3334L14.8333 18.3334C15.7668 18.3334 16.2335 18.3334 16.59 18.1517C16.9036 17.9919 17.1586 17.7369 17.3183 17.4233C17.5 17.0668 17.5 16.6001 17.5 15.6667V5.88891C17.5 5.5591 17.5 5.3942 17.469 5.23582C17.4416 5.09528 17.3961 4.95887 17.3338 4.82996C17.2635 4.68468 17.1646 4.55275 16.9667 4.28891L15.4 2.20002M13.3333 8.33335C13.3333 9.21741 12.9821 10.0653 12.357 10.6904C11.7319 11.3155 10.8841 11.6667 10 11.6667C9.11595 11.6667 8.2681 11.3155 7.64298 10.6904C7.01786 10.0653 6.66667 9.21741 6.66667 8.33335" stroke="#B1B1B1" stroke-width="1.66667" stroke-linecap="round" stroke-linejoin="round"/>
</g>
</svg>
