<svg width="20" height="20" viewBox="0 0 20 20" fill="none" xmlns="http://www.w3.org/2000/svg">
<g id="wallet-01">
<path id="Icon" d="M18.3327 7.08331H1.66602M1.66602 10.4166H4.62158C5.07174 10.4166 5.29682 10.4166 5.51446 10.4554C5.70764 10.4899 5.8961 10.5469 6.07594 10.6254C6.27855 10.7139 6.46583 10.8387 6.84038 11.0884L7.32498 11.4115C7.69954 11.6612 7.88682 11.7861 8.08943 11.8745C8.26926 11.953 8.45772 12.0101 8.6509 12.0445C8.86855 12.0833 9.09363 12.0833 9.54378 12.0833H10.4549C10.9051 12.0833 11.1302 12.0833 11.3478 12.0445C11.541 12.0101 11.7294 11.953 11.9093 11.8745C12.1119 11.7861 12.2992 11.6612 12.6737 11.4115L13.1583 11.0884C13.5329 10.8387 13.7202 10.7139 13.9228 10.6254C14.1026 10.5469 14.2911 10.4899 14.4842 10.4554C14.7019 10.4166 14.927 10.4166 15.3771 10.4166H18.3327M1.66602 5.99998L1.66602 14C1.66602 14.9334 1.66602 15.4001 1.84767 15.7566C2.00746 16.0702 2.26243 16.3252 2.57603 16.485C2.93255 16.6666 3.39926 16.6666 4.33268 16.6666L15.666 16.6666C16.5994 16.6666 17.0661 16.6666 17.4227 16.485C17.7363 16.3252 17.9912 16.0702 18.151 15.7566C18.3327 15.4001 18.3327 14.9334 18.3327 14V5.99998C18.3327 5.06656 18.3327 4.59985 18.151 4.24333C17.9912 3.92973 17.7363 3.67476 17.4227 3.51497C17.0661 3.33331 16.5994 3.33331 15.666 3.33331L4.33268 3.33331C3.39926 3.33331 2.93255 3.33331 2.57603 3.51497C2.26243 3.67476 2.00746 3.92973 1.84767 4.24333C1.66602 4.59985 1.66602 5.06656 1.66602 5.99998Z" stroke="#078BB9" stroke-width="1.66667" stroke-linecap="round" stroke-linejoin="round"/>
</g>
</svg>
