<svg width="607" height="114" viewBox="0 0 607 114" fill="none" xmlns="http://www.w3.org/2000/svg">
<path d="M906 -224.895L862.859 -181.626M741.094 -87.9211V-130.526C741.094 -148.199 755.421 -162.526 773.094 -162.526H825.712M741.094 -87.9211H681.665M741.094 -87.9211L813.128 -15.8875C819.129 -9.88631 827.268 -6.51489 835.755 -6.51489H904.745C913.232 -6.51489 921.372 -9.88631 927.373 -15.8875L955.358 -43.8726C967.855 -56.3694 967.855 -76.6306 955.358 -89.1274L918 -126.485L862.859 -181.626M642.308 -87.9211V-188.553C642.308 -206.226 627.981 -220.553 610.308 -220.553H530.041C521.538 -220.553 513.384 -217.168 507.38 -211.147L478.121 -181.801C472.117 -175.779 463.964 -172.395 455.46 -172.395H382.157M642.308 -87.9211L600.423 -45.9122C587.919 -33.3708 567.606 -33.3708 555.101 -45.9122L539.42 -61.6404C526.915 -74.1819 506.602 -74.1819 494.098 -61.6404L443.555 -10.9474M642.308 -87.9211H681.665M382.157 -172.395V-107.859C382.157 -99.3882 378.799 -91.2632 372.818 -85.2648L298.72 -10.9474M382.157 -172.395H313.283M298.72 -10.9474V69.9737M298.72 -10.9474H443.555M298.72 -10.9474L225.516 -84.3684M298.72 69.9737H226.818C209.145 69.9737 194.818 55.6468 194.818 37.9737V37.0166C194.818 28.5461 191.459 20.4211 185.479 14.4227L115.71 -55.5526M298.72 69.9737L332.241 103.594C338.245 109.616 346.399 113 354.902 113H411.555C429.228 113 443.555 98.6731 443.555 81V-10.9474M115.71 -55.5526L137.75 -84.3684M115.71 -55.5526L53.9889 -117.878C33.9813 -138.081 48.2923 -172.395 76.7262 -172.395H137.75M137.75 -172.395C137.75 -138.018 137.75 -118.745 137.75 -84.3684M137.75 -172.395L225.516 -84.3684M137.75 -172.395H313.283M443.555 -10.9474L501.334 49.5477C513.849 62.6505 534.736 62.7586 547.386 49.786L681.665 -87.9211M225.516 -84.3684H137.75M225.516 -84.3684L313.283 -172.395M681.665 -87.9211V-229.583C681.665 -258.115 716.181 -272.382 736.326 -252.177L825.712 -162.526M825.712 -162.526H830.533C839.037 -162.526 847.19 -165.911 853.194 -171.932L862.859 -181.626M918 -184.5L977.127 -125.373C983.129 -119.372 986.5 -111.232 986.5 -102.745V-66.5" stroke="#202020"/>
<rect x="444" y="43" width="1" height="20" transform="rotate(180 444 43)" fill="url(#paint0_linear_3801_3901)"/>
<defs>
<linearGradient id="paint0_linear_3801_3901" x1="445.444" y1="-21.6667" x2="442.396" y2="-21.6454" gradientUnits="userSpaceOnUse">
<stop stop-color="#009BD2"/>
<stop offset="1" stop-color="#3B6B7C"/>
</linearGradient>
</defs>
</svg>
