<svg width="515" height="174" viewBox="0 0 515 174" fill="none" xmlns="http://www.w3.org/2000/svg">
<g clip-path="url(#clip0_3801_3910)">
<path d="M738 -163.895L694.859 -120.626M573.094 -26.9211V-69.5263C573.094 -87.1995 587.421 -101.526 605.094 -101.526H657.712M573.094 -26.9211H513.665M573.094 -26.9211L645.128 45.1125C651.129 51.1137 659.268 54.4851 667.755 54.4851H736.745C745.232 54.4851 753.372 51.1137 759.373 45.1125L787.358 17.1274C799.855 4.63063 799.855 -15.6306 787.358 -28.1274L750 -65.4851L694.859 -120.626M474.308 -26.9211V-127.553C474.308 -145.226 459.981 -159.553 442.308 -159.553H362.041C353.538 -159.553 345.384 -156.168 339.38 -150.147L310.121 -120.801C304.117 -114.779 295.964 -111.395 287.46 -111.395H214.157M474.308 -26.9211L432.423 15.0878C419.919 27.6292 399.606 27.6292 387.101 15.0878L371.42 -0.640434C358.915 -13.1819 338.602 -13.1819 326.098 -0.640413L275.555 50.0526M474.308 -26.9211H513.665M214.157 -111.395V-46.8587C214.157 -38.3882 210.799 -30.2632 204.818 -24.2648L130.72 50.0526M214.157 -111.395H145.283M130.72 50.0526V130.974M130.72 50.0526H275.555M130.72 50.0526L57.5163 -23.3684M130.72 130.974H58.8178C41.1447 130.974 26.8178 116.647 26.8178 98.9737V98.0166C26.8178 89.5461 23.4594 81.4211 17.4787 75.4227L-52.2899 5.44736M130.72 130.974L164.241 164.594C170.245 170.616 178.399 174 186.902 174H243.555C261.228 174 275.555 159.673 275.555 142V50.0526M-52.2899 5.44736L-30.25 -23.3684M-52.2899 5.44736L-114.011 -56.8778C-134.019 -77.0812 -119.708 -111.395 -91.2738 -111.395H-30.25M-30.25 -111.395C-30.25 -77.0183 -30.25 -57.7448 -30.25 -23.3684M-30.25 -111.395L57.5163 -23.3684M-30.25 -111.395H145.283M275.555 50.0526L333.334 110.548C345.849 123.651 366.736 123.759 379.386 110.786L513.665 -26.9211M57.5163 -23.3684H-30.25M57.5163 -23.3684L145.283 -111.395M513.665 -26.9211V-168.583C513.665 -197.115 548.181 -211.382 568.326 -191.177L657.712 -101.526M657.712 -101.526H662.533C671.037 -101.526 679.19 -104.911 685.194 -110.932L694.859 -120.626M750 -123.5L809.127 -64.3728C815.129 -58.3717 818.5 -50.2323 818.5 -41.7454V-5.5" stroke="#202020"/>
<rect x="276" y="104" width="1" height="20" transform="rotate(180 276 104)" fill="url(#paint0_linear_3801_3910)"/>
<rect x="101.925" y="20.7175" width="1" height="20" transform="rotate(135 101.925 20.7175)" fill="url(#paint1_linear_3801_3910)"/>
<circle cx="131" cy="50" r="3.5" transform="rotate(180 131 50)" fill="#202020" stroke="#202020"/>
</g>
<defs>
<linearGradient id="paint0_linear_3801_3910" x1="277.444" y1="39.3333" x2="274.396" y2="39.3546" gradientUnits="userSpaceOnUse">
<stop stop-color="#009BD2"/>
<stop offset="1" stop-color="#3B6B7C"/>
</linearGradient>
<linearGradient id="paint1_linear_3801_3910" x1="103.369" y1="-43.9491" x2="100.321" y2="-43.9279" gradientUnits="userSpaceOnUse">
<stop stop-color="#009BD2"/>
<stop offset="1" stop-color="#3B6B7C"/>
</linearGradient>
<clipPath id="clip0_3801_3910">
<rect width="683" height="420" fill="white" transform="translate(-168 -246)"/>
</clipPath>
</defs>
</svg>
