<svg width="533" height="335" viewBox="0 0 533 335" fill="none" xmlns="http://www.w3.org/2000/svg">
<mask id="mask0_1079_1990" style="mask-type:luminance" maskUnits="userSpaceOnUse" x="0" y="0" width="533" height="335">
<path d="M508 0H25C11.1929 0 0 11.1929 0 25V309.957C0 323.764 11.1929 334.957 25 334.957H508C521.807 334.957 533 323.764 533 309.956V25C533 11.1929 521.807 0 508 0Z" fill="white"/>
</mask>
<g mask="url(#mask0_1079_1990)">
<path d="M312.599 178.194V222.855C312.599 236.206 301.799 247.046 288.498 247.046H244.004C230.703 247.046 219.903 236.206 219.903 222.855V178.194C219.903 164.843 230.703 154.002 244.004 154.002H288.498C301.799 154.002 312.599 164.843 312.599 178.194Z" fill="#F6F9FC"/>
<path d="M312.599 178.194V222.855C312.599 236.206 301.799 247.046 288.498 247.046H244.004C230.703 247.046 219.903 236.206 219.903 222.855V178.194C219.903 164.843 230.703 154.002 244.004 154.002H288.498C301.799 154.002 312.599 164.843 312.599 178.194Z" stroke="#151515" stroke-opacity="0.08"/>
<path d="M312.599 178.194V222.855C312.599 236.206 301.799 247.046 288.498 247.046H244.004C230.703 247.046 219.903 236.206 219.903 222.855V178.194C219.903 164.843 230.703 154.002 244.004 154.002H288.498C301.799 154.002 312.599 164.843 312.599 178.194Z" stroke="url(#paint0_linear_1079_1990)"/>
<path d="M193.7 179.002V222.084C193.7 234.963 183.282 245.42 170.451 245.42H127.53C114.699 245.42 104.281 234.963 104.281 222.084V179.002C104.281 166.122 114.699 155.666 127.53 155.666H170.451C183.282 155.666 193.7 166.122 193.7 179.002Z" fill="#F6F9FC"/>
<path d="M193.7 179.002V222.084C193.7 234.963 183.282 245.42 170.451 245.42H127.53C114.699 245.42 104.281 234.963 104.281 222.084V179.002C104.281 166.122 114.699 155.666 127.53 155.666H170.451C183.282 155.666 193.7 166.122 193.7 179.002Z" stroke="url(#paint1_linear_1079_1990)" stroke-width="0.964651"/>
<path d="M193.7 179.002V222.084C193.7 234.963 183.282 245.42 170.451 245.42H127.53C114.699 245.42 104.281 234.963 104.281 222.084V179.002C104.281 166.122 114.699 155.666 127.53 155.666H170.451C183.282 155.666 193.7 166.122 193.7 179.002Z" fill="#F6F9FC"/>
<path d="M193.7 179.002V222.084C193.7 234.963 183.282 245.42 170.451 245.42H127.53C114.699 245.42 104.281 234.963 104.281 222.084V179.002C104.281 166.122 114.699 155.666 127.53 155.666H170.451C183.282 155.666 193.7 166.122 193.7 179.002Z" stroke="url(#paint2_linear_1079_1990)" stroke-width="0.964651"/>
<path d="M197.104 61.9482V108.31C197.104 122.169 185.893 133.422 172.085 133.422H125.897C112.09 133.422 100.879 122.169 100.879 108.31V61.9482C100.879 48.0888 112.09 36.8359 125.897 36.8359H172.085C185.893 36.8359 197.104 48.0888 197.104 61.9482Z" fill="#F6F9FC"/>
<path d="M197.104 61.9482V108.31C197.104 122.169 185.893 133.422 172.085 133.422H125.897C112.09 133.422 100.879 122.169 100.879 108.31V61.9482C100.879 48.0888 112.09 36.8359 125.897 36.8359H172.085C185.893 36.8359 197.104 48.0888 197.104 61.9482Z" stroke="#151515" stroke-opacity="0.08" stroke-width="1.03807"/>
<path d="M82.1613 177.323V223.684C82.1613 237.543 70.9505 248.796 57.1428 248.796H10.955C-2.8527 248.796 -14.0635 237.543 -14.0635 223.684V177.323C-14.0635 163.463 -2.8527 152.211 10.955 152.211H57.1428C70.9505 152.211 82.1613 163.463 82.1613 177.323Z" fill="#F6F9FC"/>
<path d="M82.1613 177.323V223.684C82.1613 237.543 70.9505 248.796 57.1428 248.796H10.955C-2.8527 248.796 -14.0635 237.543 -14.0635 223.684V177.323C-14.0635 163.463 -2.8527 152.211 10.955 152.211H57.1428C70.9505 152.211 82.1613 163.463 82.1613 177.323Z" stroke="#151515" stroke-opacity="0.08" stroke-width="1.03807"/>
<path d="M78.43 63.7893V106.556C78.43 119.341 68.0885 129.721 55.3514 129.721H12.7447C0.00757217 129.721 -10.334 119.341 -10.334 106.556V63.7893C-10.334 51.0044 0.00757217 40.624 12.7447 40.624H55.3514C68.0885 40.624 78.43 51.0044 78.43 63.7893Z" fill="#F6F9FC"/>
<path d="M78.43 63.7893V106.556C78.43 119.341 68.0885 129.721 55.3514 129.721H12.7447C0.00757217 129.721 -10.334 119.341 -10.334 106.556V63.7893C-10.334 51.0044 0.00757217 40.624 12.7447 40.624H55.3514C68.0885 40.624 78.43 51.0044 78.43 63.7893Z" stroke="#151515" stroke-opacity="0.08" stroke-width="0.957585"/>
<path d="M78.43 294.099V336.866C78.43 349.651 68.0885 360.031 55.3514 360.031H12.7447C0.00757217 360.031 -10.334 349.651 -10.334 336.866V294.099C-10.334 281.314 0.00757217 270.934 12.7447 270.934H55.3514C68.0885 270.934 78.43 281.314 78.43 294.099Z" fill="#F6F9FC"/>
<path d="M78.43 294.099V336.866C78.43 349.651 68.0885 360.031 55.3514 360.031H12.7447C0.00757217 360.031 -10.334 349.651 -10.334 336.866V294.099C-10.334 281.314 0.00757217 270.934 12.7447 270.934H55.3514C68.0885 270.934 78.43 281.314 78.43 294.099Z" stroke="#151515" stroke-opacity="0.08" stroke-width="0.957585"/>
<path d="M542.37 63.7893V106.556C542.37 119.341 532.029 129.721 519.292 129.721H476.685C463.948 129.721 453.606 119.341 453.606 106.556V63.7893C453.606 51.0044 463.948 40.624 476.685 40.624H519.292C532.029 40.624 542.37 51.0044 542.37 63.7893Z" fill="#F6F9FC"/>
<path d="M542.37 63.7893V106.556C542.37 119.341 532.029 129.721 519.292 129.721H476.685C463.948 129.721 453.606 119.341 453.606 106.556V63.7893C453.606 51.0044 463.948 40.624 476.685 40.624H519.292C532.029 40.624 542.37 51.0044 542.37 63.7893Z" stroke="#151515" stroke-opacity="0.08" stroke-width="0.957585"/>
<path d="M542.37 294.099V336.866C542.37 349.651 532.029 360.031 519.292 360.031H476.685C463.948 360.031 453.606 349.651 453.606 336.866V294.099C453.606 281.314 463.948 270.934 476.685 270.934H519.292C532.029 270.934 542.37 281.314 542.37 294.099Z" fill="#F6F9FC"/>
<path d="M542.37 294.099V336.866C542.37 349.651 532.029 360.031 519.292 360.031H476.685C463.948 360.031 453.606 349.651 453.606 336.866V294.099C453.606 281.314 463.948 270.934 476.685 270.934H519.292C532.029 270.934 542.37 281.314 542.37 294.099Z" stroke="#151515" stroke-opacity="0.08" stroke-width="0.957585"/>
<path d="M197.104 292.258V338.619C197.104 352.479 185.893 363.732 172.085 363.732H125.897C112.09 363.732 100.879 352.479 100.879 338.619V292.258C100.879 278.399 112.09 267.146 125.897 267.146H172.085C185.893 267.146 197.104 278.399 197.104 292.258Z" fill="#F6F9FC"/>
<path d="M197.104 292.258V338.619C197.104 352.479 185.893 363.732 172.085 363.732H125.897C112.09 363.732 100.879 352.479 100.879 338.619V292.258C100.879 278.399 112.09 267.146 125.897 267.146H172.085C185.893 267.146 197.104 278.399 197.104 292.258Z" stroke="#151515" stroke-opacity="0.08" stroke-width="1.03807"/>
<path d="M428.379 61.9482V108.31C428.379 122.169 417.168 133.422 403.361 133.422H357.173C343.365 133.422 332.154 122.169 332.154 108.31V61.9482C332.154 48.0888 343.365 36.8359 357.173 36.8359H403.361C417.168 36.8359 428.379 48.0888 428.379 61.9482Z" fill="#F6F9FC"/>
<path d="M428.379 61.9482V108.31C428.379 122.169 417.168 133.422 403.361 133.422H357.173C343.365 133.422 332.154 122.169 332.154 108.31V61.9482C332.154 48.0888 343.365 36.8359 357.173 36.8359H403.361C417.168 36.8359 428.379 48.0888 428.379 61.9482Z" stroke="#151515" stroke-opacity="0.08" stroke-width="1.03807"/>
<path d="M546.102 177.323V223.684C546.102 237.543 534.891 248.796 521.083 248.796H474.895C461.088 248.796 449.877 237.543 449.877 223.684V177.323C449.877 163.463 461.088 152.21 474.895 152.21H521.083C534.891 152.21 546.102 163.463 546.102 177.323Z" fill="#F6F9FC"/>
<path d="M546.102 177.323V223.684C546.102 237.543 534.891 248.796 521.083 248.796H474.895C461.088 248.796 449.877 237.543 449.877 223.684V177.323C449.877 163.463 461.088 152.21 474.895 152.21H521.083C534.891 152.21 546.102 163.463 546.102 177.323Z" stroke="#151515" stroke-opacity="0.08" stroke-width="1.03807"/>
<path d="M428.379 292.258V338.619C428.379 352.479 417.168 363.732 403.361 363.732H357.173C343.365 363.732 332.154 352.479 332.154 338.619V292.258C332.154 278.399 343.365 267.146 357.173 267.146H403.361C417.168 267.146 428.379 278.399 428.379 292.258Z" fill="#F6F9FC"/>
<path d="M428.379 292.258V338.619C428.379 352.479 417.168 363.732 403.361 363.732H357.173C343.365 363.732 332.154 352.479 332.154 338.619V292.258C332.154 278.399 343.365 267.146 357.173 267.146H403.361C417.168 267.146 428.379 278.399 428.379 292.258Z" stroke="#151515" stroke-opacity="0.08" stroke-width="1.03807"/>
<path d="M427.293 179.002V222.084C427.293 234.963 416.875 245.42 404.044 245.42H361.123C348.292 245.42 337.874 234.963 337.874 222.084V179.002C337.874 166.122 348.292 155.666 361.123 155.666H404.044C416.875 155.666 427.293 166.122 427.293 179.002Z" fill="#F6F9FC"/>
<path d="M427.293 179.002V222.084C427.293 234.963 416.875 245.42 404.044 245.42H361.123C348.292 245.42 337.874 234.963 337.874 222.084V179.002C337.874 166.122 348.292 155.666 361.123 155.666H404.044C416.875 155.666 427.293 166.122 427.293 179.002Z" stroke="#151515" stroke-opacity="0.08" stroke-width="0.964651"/>
<path d="M310.746 63.6282V106.71C310.746 119.589 300.328 130.046 287.497 130.046H244.576C231.745 130.046 221.327 119.589 221.327 106.71V63.6282C221.327 50.749 231.745 40.292 244.576 40.292H287.497C300.328 40.292 310.746 50.749 310.746 63.6282Z" fill="#F6F9FC"/>
<path d="M310.746 63.6282V106.71C310.746 119.589 300.328 130.046 287.497 130.046H244.576C231.745 130.046 221.327 119.589 221.327 106.71V63.6282C221.327 50.749 231.745 40.292 244.576 40.292H287.497C300.328 40.292 310.746 50.749 310.746 63.6282Z" stroke="#151515" stroke-opacity="0.08" stroke-width="0.964651"/>
<path d="M310.746 296.236V339.318C310.746 352.198 300.328 362.655 287.497 362.655H244.576C231.745 362.655 221.327 352.198 221.327 339.318V296.236C221.327 283.357 231.745 272.9 244.576 272.9H287.497C300.328 272.9 310.746 283.357 310.746 296.236Z" fill="#F6F9FC"/>
<path d="M310.746 296.236V339.318C310.746 352.198 300.328 362.655 287.497 362.655H244.576C231.745 362.655 221.327 352.198 221.327 339.318V296.236C221.327 283.357 231.745 272.9 244.576 272.9H287.497C300.328 272.9 310.746 283.357 310.746 296.236Z" stroke="#151515" stroke-opacity="0.08" stroke-width="0.964651"/>
<path opacity="0.5" d="M23.5954 -2.79102C37.0577 -2.79102 47.9711 8.12235 47.9711 21.5847V317.727C47.9711 331.189 37.0577 342.103 23.5954 342.103C10.1331 342.103 -0.780273 331.189 -0.780273 317.727V21.5847C-0.780273 8.12234 10.1331 -2.79102 23.5954 -2.79102Z" fill="url(#paint3_linear_1079_1990)"/>
<path opacity="0.5" d="M487.32 344.261C473.513 344.261 462.32 333.068 462.32 319.261V24.3672C462.32 10.5601 473.513 -0.632812 487.32 -0.632812H508.464C522.271 -0.632812 533.464 10.5601 533.464 24.3672V319.261C533.464 333.068 522.271 344.261 508.464 344.261H487.32Z" fill="url(#paint4_linear_1079_1990)"/>
<path opacity="0.5" d="M-2.95508 271.292C-2.95508 257.485 8.2378 246.292 22.0449 246.292H510.03C523.837 246.292 535.03 257.485 535.03 271.292V309.957C535.03 323.764 523.837 334.957 510.03 334.957H22.0449C8.23782 334.957 -2.95508 323.764 -2.95508 309.957V271.292Z" fill="url(#paint5_linear_1079_1990)"/>
</g>
<path d="M147.915 56.1436L122.698 70.782V100L147.915 114.638L173.131 100V70.782L147.915 56.1436ZM147.915 56.1436L122.698 70.782V100L147.915 114.638L173.131 100V70.782L147.915 56.1436Z" fill="white"/>
<path d="M157.85 103.149H154.248L149.948 99.184V97.1428L154.422 92.8854V86.1202L160.232 82.3294L166.856 87.345L157.85 103.149ZM142.976 92.5355L143.615 86.1785L141.465 80.5215H154.306L152.156 86.1785L152.737 92.5355H147.798H142.976ZM145.939 99.184L141.64 103.208H137.979L128.915 87.4033L135.597 82.446L141.465 86.1785V92.9437L145.939 97.2011V99.184ZM137.921 68.7991H157.792L160.174 78.9468H135.597L137.921 68.7991ZM147.915 56.1436L122.698 70.782V100L147.915 114.638L173.131 100V70.782L147.915 56.1436Z" fill="#03316C"/>
<mask id="mask1_1079_1990" style="mask-type:luminance" maskUnits="userSpaceOnUse" x="352" y="56" width="59" height="59">
<path d="M410.666 56.1436H352.389V114.639H410.666V56.1436Z" fill="white"/>
</mask>
<g mask="url(#mask1_1079_1990)">
<path d="M355.105 78.5145L375.53 58.5819C377.137 57.0112 379.303 56.1421 381.551 56.1655C383.8 56.189 385.947 57.1032 387.52 58.707L408.479 80.0906C409.185 80.8102 409.742 81.6617 410.119 82.5964C410.495 83.5311 410.683 84.5308 410.672 85.5381C410.662 86.5455 410.452 87.5409 410.056 88.4673C409.66 89.3938 409.085 90.2332 408.363 90.9376L386.276 112.479C384.845 113.876 382.917 114.649 380.915 114.629C378.913 114.608 377.002 113.795 375.599 112.368L354.984 91.3363C353.3 89.6188 352.366 87.3043 352.389 84.9005C352.412 82.4967 353.388 80.2001 355.105 78.5145Z" fill="#0031D2"/>
<path d="M358.089 70.7409L383.62 57.9424C385.628 56.9396 387.951 56.7727 390.082 57.4784C392.212 58.184 393.975 59.7045 394.984 61.7064L408.423 88.4207C409.33 90.2384 409.479 92.3411 408.837 94.2682C408.195 96.1953 406.814 97.7897 404.997 98.7023L377.419 112.563C375.629 113.459 373.557 113.61 371.656 112.984C369.755 112.357 368.18 111.004 367.276 109.22L354.046 82.9185C353.51 81.8538 353.19 80.6942 353.104 79.5061C353.017 78.3179 353.166 77.1243 353.542 75.9935C353.917 74.8628 354.512 73.8169 355.292 72.9157C356.072 72.0144 357.023 71.2754 358.089 70.7409Z" fill="#BBFFFF"/>
<path d="M408.776 90.4699L409.041 90.1408C408.906 89.5518 408.702 88.9808 408.433 88.4396L399.775 71.228L387.065 58.2671C386.621 57.8734 386.138 57.5269 385.622 57.2334C384.921 57.3831 384.242 57.6215 383.602 57.9427L368.307 65.6144L365.624 68.2381L353.317 80.9208C353.476 81.6126 353.716 82.2832 354.032 82.9187L361.771 98.2668L375.548 112.317L375.609 112.373C375.609 112.373 376.012 112.776 376.319 113.017C376.7 112.89 377.071 112.736 377.428 112.553L395.37 103.551L408.776 90.4467V90.4699Z" fill="#006EE3"/>
<path d="M387.576 84.0866V93.8536H375.158V76.6652H387.576V80.763L392.45 77.9539V75.6825C392.449 74.6625 392.043 73.6846 391.32 72.9633C390.598 72.242 389.619 71.8363 388.597 71.835H374.346C373.269 71.835 372.236 72.2624 371.474 73.023C370.712 73.7837 370.284 74.8154 370.284 75.8911V94.994C370.287 96.0849 370.722 97.1305 371.494 97.9019C372.267 98.6734 373.314 99.1078 374.406 99.1103H387.771C389.012 99.1103 390.202 98.618 391.08 97.7417C391.957 96.8654 392.45 95.6769 392.45 94.4377V81.2775L387.576 84.0866Z" fill="white"/>
</g>
<mask id="mask2_1079_1990" style="mask-type:luminance" maskUnits="userSpaceOnUse" x="122" y="173" width="51" height="53">
<path d="M172.759 173.39H122.698V225.645H172.759V173.39Z" fill="white"/>
</mask>
<g mask="url(#mask2_1079_1990)">
<path d="M170.142 209.565L167.119 219.824L161.185 218.195L170.142 209.565Z" fill="#E4761B" stroke="#E4761B" stroke-width="5.94955"/>
<path d="M161.185 218.195L166.908 210.323L170.142 209.565L161.185 218.195Z" fill="#E4761B" stroke="#E4761B" stroke-width="5.94955"/>
<path d="M165.693 201.831L170.141 209.566L166.908 210.324L165.693 201.831ZM165.693 201.831L168.555 199.841L170.141 209.566L165.693 201.831Z" fill="#F6851B"/>
<path d="M165.693 201.831L170.141 209.566M165.693 201.831L166.908 210.324L170.141 209.566M165.693 201.831L168.555 199.841L170.141 209.566" stroke="#F6851B" stroke-width="5.94955"/>
<path d="M162.051 195.986L170.277 192.603L169.868 194.456L162.051 195.986ZM169.608 196.682L162.051 195.986L169.868 194.456L169.608 196.682Z" fill="#763D16"/>
<path d="M162.051 195.986L170.277 192.603L169.868 194.456M162.051 195.986L169.868 194.456M162.051 195.986L169.608 196.682L169.868 194.456" stroke="#763D16" stroke-width="5.94955"/>
<path d="M169.608 196.682L168.555 199.841L162.051 195.986L169.608 196.682ZM171.256 193.387L169.868 194.456L170.277 192.603L171.256 193.387ZM169.608 196.682L169.868 194.456L170.971 195.377L169.608 196.682Z" fill="#763D16"/>
<path d="M169.608 196.682L168.555 199.841L162.051 195.986L169.608 196.682ZM169.608 196.682L169.868 194.456M169.608 196.682L170.971 195.377L169.868 194.456M169.868 194.456L171.256 193.387L170.277 192.603L169.868 194.456Z" stroke="#763D16" stroke-width="5.94955"/>
<path d="M154.804 215.696L156.86 216.355L161.184 218.195L154.804 215.696Z" fill="#E2761B" stroke="#E2761B" stroke-width="5.94955"/>
<path d="M168.556 199.84L169.609 196.681L170.513 197.378L168.556 199.84ZM168.556 199.84L160.02 197.017L162.051 195.985L168.556 199.84Z" fill="#763D16"/>
<path d="M168.556 199.84L169.609 196.681L170.513 197.378L168.556 199.84ZM168.556 199.84L160.02 197.017L162.051 195.985L168.556 199.84Z" stroke="#763D16" stroke-width="5.94955"/>
<path d="M164.083 186.299L162.051 195.986L160.02 197.018L164.083 186.299Z" fill="#763D16" stroke="#763D16" stroke-width="5.94955"/>
<path d="M170.277 192.603L162.051 195.986L164.083 186.299L170.277 192.603Z" fill="#763D16" stroke="#763D16" stroke-width="5.94955"/>
<path d="M164.083 186.299L172.669 185.304L170.278 192.603L164.083 186.299Z" fill="#763D16" stroke="#763D16" stroke-width="5.94955"/>
<path d="M168.556 199.841L165.694 201.831L160.02 197.018L168.556 199.841Z" fill="#F6851B" stroke="#F6851B" stroke-width="5.94955"/>
<path d="M172.297 178.326L172.669 185.303L164.083 186.297L172.297 178.326Z" fill="#763D16" stroke="#763D16" stroke-width="5.94955"/>
<path d="M172.297 178.326L155.138 190.849L154.915 182.355L172.297 178.326Z" fill="#E2761B" stroke="#E2761B" stroke-width="5.94955"/>
<path d="M142.153 181.337L154.914 182.356L155.137 190.85L142.153 181.337Z" fill="#F6851B" stroke="#F6851B" stroke-width="5.94955"/>
<path d="M160.02 197.018L155.139 190.85L164.084 186.299L160.02 197.018Z" fill="#763D16" stroke="#763D16" stroke-width="5.94955"/>
<path d="M160.02 197.018L165.694 201.831L157.728 202.714L160.02 197.018Z" fill="#E4761B" stroke="#E4761B" stroke-width="5.94955"/>
<path d="M157.728 202.714L155.139 190.85L160.02 197.018L157.728 202.714Z" fill="#E4761B" stroke="#E4761B" stroke-width="5.94955"/>
<path d="M164.084 186.297L155.139 190.849L172.298 178.326L164.084 186.297Z" fill="#763D16" stroke="#763D16" stroke-width="5.94955"/>
<path d="M142.266 217.996L146.317 222.237L140.804 217.2L142.266 217.996Z" fill="#C0AD9E" stroke="#C0AD9E" stroke-width="5.94955"/>
<path d="M161.185 218.195L163.105 210.871L166.908 210.323L161.185 218.195Z" fill="#CD6116" stroke="#CD6116" stroke-width="5.94955"/>
<path d="M125.837 197.589L132.849 190.19L126.741 196.706L125.837 197.589Z" fill="#E2761B" stroke="#E2761B" stroke-width="5.94955"/>
<path d="M166.907 210.324L163.104 210.872L165.693 201.831L166.907 210.324ZM155.137 190.85L148.311 190.626L142.153 181.337L155.137 190.85Z" fill="#F6851B" stroke="#F6851B" stroke-width="5.94955"/>
<path d="M165.695 201.831L163.105 210.872L162.895 206.457L165.695 201.831Z" fill="#E4751F" stroke="#E4751F" stroke-width="5.94955"/>
<path d="M157.728 202.714L165.694 201.831L162.894 206.457L157.728 202.714Z" fill="#CD6116" stroke="#CD6116" stroke-width="5.94955"/>
<path d="M148.312 190.626L155.138 190.85L157.727 202.714L148.312 190.626Z" fill="#F6851B" stroke="#F6851B" stroke-width="5.94955"/>
<path d="M148.311 190.626L129.888 173.514L142.153 181.337L148.311 190.626ZM142.141 220.596L126.134 225.571L122.938 213.321L142.141 220.596Z" fill="#E4761B" stroke="#E4761B" stroke-width="5.94955"/>
<path d="M128.216 200.649L134.262 195.886L139.329 197.068L128.216 200.649Z" fill="#763D16" stroke="#763D16" stroke-width="5.94955"/>
<path d="M139.33 197.068L134.263 195.886L136.976 184.645L139.33 197.068Z" fill="#763D16" stroke="#763D16" stroke-width="5.94955"/>
<path d="M126.742 196.707L134.263 195.886L128.217 200.649L126.742 196.707Z" fill="#763D16" stroke="#763D16" stroke-width="5.94955"/>
<path d="M162.894 206.457L159.772 204.878L157.728 202.714L162.894 206.457Z" fill="#CD6116" stroke="#CD6116" stroke-width="5.94955"/>
<path d="M126.741 196.707L126.208 193.884L134.261 195.887L126.741 196.707Z" fill="#763D16" stroke="#763D16" stroke-width="5.94955"/>
<path d="M159.127 208.434L159.771 204.878L162.893 206.457L159.127 208.434Z" fill="#233447" stroke="#233447" stroke-width="5.94955"/>
<path d="M163.104 210.872L159.127 208.434L162.893 206.457L163.104 210.872Z" fill="#F6851B" stroke="#F6851B" stroke-width="5.94955"/>
<path d="M134.261 195.886L126.208 193.884L125.552 191.509L134.261 195.886ZM136.975 184.645L134.261 195.886L125.552 191.509L136.975 184.645ZM136.975 184.645L148.311 190.626L139.329 197.068L136.975 184.645Z" fill="#763D16"/>
<path d="M134.261 195.886L126.208 193.884L125.552 191.509M134.261 195.886L125.552 191.509M134.261 195.886L136.975 184.645M125.552 191.509L136.975 184.645M136.975 184.645L148.311 190.626L139.329 197.068L136.975 184.645Z" stroke="#763D16" stroke-width="5.94955"/>
<path d="M139.33 197.068L148.312 190.626L152.314 202.9L139.33 197.068ZM152.314 202.9L139.9 202.639L139.33 197.068L152.314 202.9Z" fill="#E4761B"/>
<path d="M139.33 197.068L148.312 190.626L152.314 202.9M139.33 197.068L152.314 202.9M139.33 197.068L139.9 202.639L152.314 202.9" stroke="#E4761B" stroke-width="5.94955"/>
<path d="M128.216 200.649L139.329 197.068L139.899 202.639L128.216 200.649ZM157.727 202.714L152.313 202.9L148.311 190.626L157.727 202.714Z" fill="#F6851B" stroke="#F6851B" stroke-width="5.94955"/>
<path d="M159.772 204.878L159.128 208.434L157.728 202.714L159.772 204.878Z" fill="#CD6116" stroke="#CD6116" stroke-width="5.94955"/>
<path d="M129.889 173.514L148.312 190.626L136.975 184.645L129.889 173.514Z" fill="#763D16" stroke="#763D16" stroke-width="5.94955"/>
<path d="M122.938 213.321L138.474 212.675L142.141 220.596L122.938 213.321Z" fill="#E4761B" stroke="#E4761B" stroke-width="5.94955"/>
<path d="M142.142 220.596L138.475 212.675L146.106 212.302L142.142 220.596Z" fill="#CD6116" stroke="#CD6116" stroke-width="5.94955"/>
<path d="M159.127 208.433L163.104 210.871L165.297 216.056L159.127 208.433ZM139.898 202.638L122.938 213.32L128.215 200.648L139.898 202.638ZM138.474 212.674L122.938 213.32L139.898 202.638L138.474 212.674ZM157.727 202.713L158.743 206.419L153.836 206.705L157.727 202.713ZM153.836 206.705L152.313 202.899L157.727 202.713L153.836 206.705Z" fill="#F6851B"/>
<path d="M139.898 202.638L122.938 213.32M139.898 202.638L128.215 200.648L122.938 213.32M139.898 202.638L138.474 212.674L122.938 213.32M157.727 202.713L158.743 206.419L153.836 206.705M157.727 202.713L153.836 206.705M157.727 202.713L152.313 202.899L153.836 206.705M159.127 208.433L163.104 210.871L165.297 216.056L159.127 208.433Z" stroke="#F6851B" stroke-width="5.94955"/>
<path d="M146.317 222.238L142.142 220.596L156.662 223.046L146.317 222.238Z" fill="#C0AD9E" stroke="#C0AD9E" stroke-width="5.94955"/>
<path d="M128.216 200.649L125.837 197.59L126.741 196.707L128.216 200.649Z" fill="#763D16" stroke="#763D16" stroke-width="5.94955"/>
<path d="M158.31 221.231L156.662 223.046L142.142 220.596L158.31 221.231Z" fill="#D7C1B3" stroke="#D7C1B3" stroke-width="5.94955"/>
<path d="M159.09 216.779L142.142 220.596L146.106 212.302L159.09 216.779Z" fill="#E4761B" stroke="#E4761B" stroke-width="5.94955"/>
<path d="M142.142 220.595L159.09 216.778L158.31 221.23L142.142 220.595Z" fill="#D7C1B3" stroke="#D7C1B3" stroke-width="5.94955"/>
<path d="M125.553 191.508L124.995 181.945L136.976 184.644L125.553 191.508ZM126.742 196.706L125.094 195.027L126.209 193.883L126.742 196.706Z" fill="#763D16" stroke="#763D16" stroke-width="5.94955"/>
<path d="M149.538 205.362L152.313 202.899L151.917 208.918L149.538 205.362Z" fill="#CD6116" stroke="#CD6116" stroke-width="5.94955"/>
<path d="M152.314 202.899L149.539 205.362L145.5 207.463L152.314 202.899Z" fill="#CD6116" stroke="#CD6116" stroke-width="5.94955"/>
<path d="M165.297 216.057L164.541 215.498L159.127 208.434L165.297 216.057Z" fill="#F6851B" stroke="#F6851B" stroke-width="5.94955"/>
<path d="M145.498 207.464L139.898 202.639L152.313 202.9L145.498 207.464Z" fill="#CD6116" stroke="#CD6116" stroke-width="5.94955"/>
<path d="M151.917 208.918L152.312 202.899L153.837 206.705L151.917 208.918Z" fill="#E4751F" stroke="#E4751F" stroke-width="5.94955"/>
<path d="M124.548 192.454L125.551 191.509L126.208 193.884L124.548 192.454Z" fill="#763D16" stroke="#763D16" stroke-width="5.94955"/>
<path d="M151.918 208.918L145.5 207.463L149.539 205.362L151.918 208.918Z" fill="#233447" stroke="#233447" stroke-width="5.94955"/>
<path d="M136.976 184.645L124.995 181.946L129.889 173.514L136.976 184.645Z" fill="#763D16" stroke="#763D16" stroke-width="5.94955"/>
<path d="M156.661 223.045L157.343 224.911L146.316 222.237L156.661 223.045Z" fill="#C0AD9E" stroke="#C0AD9E" stroke-width="5.94955"/>
<path d="M146.107 212.302L145.5 207.464L151.918 208.919L146.107 212.302Z" fill="#F6851B" stroke="#F6851B" stroke-width="5.94955"/>
<path d="M139.898 202.639L145.498 207.464L146.105 212.302L139.898 202.639Z" fill="#E4751F" stroke="#E4751F" stroke-width="5.94955"/>
<path d="M153.837 206.706L158.744 206.42L164.542 215.498L153.837 206.706ZM139.899 202.639L146.106 212.302L138.475 212.675L139.899 202.639Z" fill="#F6851B" stroke="#F6851B" stroke-width="5.94955"/>
<path d="M153.837 206.706L159.933 216.02L151.917 208.919L153.837 206.706Z" fill="#E4751F" stroke="#E4751F" stroke-width="5.94955"/>
<path d="M151.917 208.919L159.933 216.02L159.09 216.779L151.917 208.919Z" fill="#F6851B" stroke="#F6851B" stroke-width="5.94955"/>
<path d="M159.089 216.779L146.105 212.302L151.916 208.919L159.089 216.779ZM164.541 215.498L159.932 216.02L153.836 206.706L164.541 215.498Z" fill="#F6851B" stroke="#F6851B" stroke-width="5.94955"/>
<path d="M165.756 219.875L163.774 223.867L157.344 224.912L165.756 219.875ZM157.344 224.912L156.662 223.046L158.31 221.231L157.344 224.912Z" fill="#C0AD9E"/>
<path d="M157.344 224.912L163.774 223.867L165.756 219.875L157.344 224.912ZM157.344 224.912L156.662 223.046L158.31 221.231L157.344 224.912Z" stroke="#C0AD9E" stroke-width="5.94955"/>
<path d="M158.309 221.231L159.523 220.746L157.343 224.912L158.309 221.231ZM157.343 224.912L159.523 220.746L165.755 219.875L157.343 224.912Z" fill="#C0AD9E"/>
<path d="M159.523 220.746L158.309 221.231L157.343 224.912M159.523 220.746L157.343 224.912M159.523 220.746L165.755 219.875L157.343 224.912" stroke="#C0AD9E" stroke-width="5.94955"/>
<path d="M164.542 215.498L166.066 216.43L161.433 216.99L164.542 215.498Z" fill="#161616" stroke="#161616" stroke-width="5.94955"/>
<path d="M161.432 216.99L159.933 216.02L164.541 215.498L161.432 216.99ZM160.899 217.724L166.536 217.04L165.756 219.875L160.899 217.724Z" fill="#161616" stroke="#161616" stroke-width="5.94955"/>
<path d="M165.757 219.875L159.525 220.746L160.9 217.724L165.757 219.875ZM159.525 220.746L158.311 221.231L159.091 216.779L159.525 220.746ZM159.091 216.779L159.934 216.02L161.433 216.99L159.091 216.779ZM166.066 216.43L166.537 217.04L160.9 217.724L166.066 216.43Z" fill="#161616"/>
<path d="M159.525 220.746L165.757 219.875L160.9 217.724M159.525 220.746L160.9 217.724M159.525 220.746L158.311 221.231L159.091 216.779M159.525 220.746L159.091 216.779M160.9 217.724L166.537 217.04L166.066 216.43L160.9 217.724ZM159.091 216.779L159.934 216.02L161.433 216.99L159.091 216.779Z" stroke="#161616" stroke-width="5.94955"/>
<path d="M160.899 217.724L161.431 216.99L166.065 216.43L160.899 217.724ZM159.09 216.779L160.899 217.724L159.523 220.746L159.09 216.779Z" fill="#161616"/>
<path d="M160.899 217.724L161.431 216.99L166.065 216.43L160.899 217.724ZM160.899 217.724L159.09 216.779L159.523 220.746L160.899 217.724Z" stroke="#161616" stroke-width="5.94955"/>
<path d="M161.431 216.989L160.899 217.723L159.09 216.778L161.431 216.989Z" fill="#161616" stroke="#161616" stroke-width="5.94955"/>
</g>
<path fill-rule="evenodd" clip-rule="evenodd" d="M381.345 175.361C395.17 175.361 406.375 186.608 406.375 200.485C406.375 214.362 395.17 225.609 381.345 225.609C367.519 225.609 356.314 214.362 356.314 200.485C356.314 186.608 367.519 175.361 381.345 175.361Z" fill="url(#paint6_radial_1079_1990)"/>
<path d="M372.223 194.763C377.258 189.827 385.432 189.827 390.467 194.763L391.074 195.362C391.328 195.607 391.328 196.01 391.074 196.255L389.001 198.287C388.874 198.414 388.668 198.414 388.541 198.287L387.71 197.472C384.19 194.027 378.5 194.027 374.98 197.472L374.09 198.346C373.963 198.473 373.758 198.473 373.63 198.346L371.558 196.314C371.303 196.069 371.303 195.666 371.558 195.421L372.223 194.763ZM394.76 198.964L396.608 200.77C396.862 201.015 396.862 201.417 396.608 201.663L388.287 209.818C388.033 210.064 387.622 210.064 387.378 209.818L381.472 204.028C381.413 203.969 381.306 203.969 381.247 204.028L375.342 209.818C375.087 210.064 374.677 210.064 374.432 209.818L366.082 201.663C365.828 201.417 365.828 201.015 366.082 200.77L367.93 198.964C368.184 198.719 368.595 198.719 368.84 198.964L374.745 204.754C374.804 204.813 374.911 204.813 374.97 204.754L380.876 198.964C381.13 198.719 381.54 198.719 381.785 198.964L387.691 204.754C387.749 204.813 387.857 204.813 387.915 204.754L393.821 198.964C394.095 198.719 394.505 198.719 394.76 198.964Z" fill="white"/>
<path d="M245.007 88.2381V65.8529C245.007 59.8676 251.511 58.3188 255.113 61.9211C257.657 64.4652 260.86 71.1794 264.491 71.1794C258.442 76.625 245.007 88.2381 245.007 88.2381Z" fill="#8CD1EA"/>
<path d="M245.007 91.3851C245.007 91.3851 272.656 67.493 274.765 65.3764C279.727 60.4144 288.929 63.1898 288.929 71.5369V79.5827C288.929 79.5827 282.755 84.8461 281.304 85.9324C279.853 87.0188 276.945 86.1777 276.104 84.4817C275.263 82.7856 274.289 80.1224 270.777 80.1224C268.479 80.1224 266.944 82.8207 264.484 88.4695C260.005 98.758 257.587 107.589 251.777 107.589C247.18 107.589 245 103.475 245 100.931V91.371L245.007 91.3851Z" fill="#8CD1EA"/>
<path d="M269.691 99.2275L288.93 82.8906V104.554C288.93 107.217 287.36 110 284.213 110C281.066 110 279.538 110.154 276.048 104.491C273.714 100.713 269.698 99.2275 269.698 99.2275H269.691Z" fill="#8CD1EA"/>
<mask id="mask3_1079_1990" style="mask-type:luminance" maskUnits="userSpaceOnUse" x="242" y="173" width="50" height="50">
<path d="M292 173H242V223H292V173Z" fill="white"/>
</mask>
<g mask="url(#mask3_1079_1990)">
<path d="M257.074 194.01L266.784 184.301L276.499 194.016L282.149 188.366L266.784 173L251.424 188.36L257.074 194.01Z" fill="#F3BA2F"/>
<path d="M253.084 197.999L247.435 192.349L241.784 197.999L247.434 203.649L253.084 197.999Z" fill="#F3BA2F"/>
<path d="M257.074 201.99L266.784 211.699L276.499 201.985L282.152 207.632L282.15 207.635L266.784 223L251.424 207.64L251.416 207.632L257.074 201.99Z" fill="#F3BA2F"/>
<path d="M286.135 203.652L291.785 198.002L286.135 192.352L280.485 198.002L286.135 203.652Z" fill="#F3BA2F"/>
<path d="M272.515 197.997H272.517L266.784 192.264L262.547 196.501L262.06 196.988L261.056 197.992L261.048 198L261.056 198.008L266.784 203.736L272.517 198.003L272.52 198L272.515 197.997Z" fill="#F3BA2F"/>
</g>
<defs>
<linearGradient id="paint0_linear_1079_1990" x1="235.159" y1="208.881" x2="230.16" y2="187.821" gradientUnits="userSpaceOnUse">
<stop offset="0.01" stop-opacity="0"/>
<stop offset="0.23" stop-color="#534A7E" stop-opacity="0.5"/>
<stop offset="0.46" stop-color="#A594FD"/>
<stop offset="0.73" stop-color="#534A7E" stop-opacity="0.5"/>
<stop offset="1" stop-opacity="0"/>
</linearGradient>
<linearGradient id="paint1_linear_1079_1990" x1="95.9233" y1="169.085" x2="130.889" y2="214.159" gradientUnits="userSpaceOnUse">
<stop stop-color="white" stop-opacity="0.15"/>
<stop offset="0.5" stop-color="#808080" stop-opacity="0.075"/>
<stop offset="1" stop-opacity="0"/>
</linearGradient>
<linearGradient id="paint2_linear_1079_1990" x1="95.9233" y1="169.085" x2="130.889" y2="214.159" gradientUnits="userSpaceOnUse">
<stop stop-color="white" stop-opacity="0.15"/>
<stop offset="0.5" stop-color="#808080" stop-opacity="0.075"/>
<stop offset="1" stop-opacity="0"/>
</linearGradient>
<linearGradient id="paint3_linear_1079_1990" x1="5.8696" y1="169.656" x2="48.3382" y2="169.656" gradientUnits="userSpaceOnUse">
<stop stop-color="white"/>
<stop offset="0.5" stop-color="white" stop-opacity="0.5"/>
<stop offset="1" stop-color="white" stop-opacity="0"/>
</linearGradient>
<linearGradient id="paint4_linear_1079_1990" x1="523.76" y1="171.814" x2="461.784" y2="171.814" gradientUnits="userSpaceOnUse">
<stop stop-color="white"/>
<stop offset="0.5" stop-color="white" stop-opacity="0.5"/>
<stop offset="1" stop-color="white" stop-opacity="0"/>
</linearGradient>
<linearGradient id="paint5_linear_1079_1990" x1="266.037" y1="322.862" x2="266.037" y2="245.624" gradientUnits="userSpaceOnUse">
<stop stop-color="white"/>
<stop offset="0.5" stop-color="white" stop-opacity="0.5"/>
<stop offset="1" stop-color="white" stop-opacity="0"/>
</linearGradient>
<radialGradient id="paint6_radial_1079_1990" cx="0" cy="0" r="1" gradientUnits="userSpaceOnUse" gradientTransform="translate(356.315 200.486) scale(50.0608 50.2486)">
<stop stop-color="#5D9DF6"/>
<stop offset="1" stop-color="#006FFF"/>
</radialGradient>
</defs>
</svg>
