<svg width="517" height="414" viewBox="0 0 517 414" fill="none" xmlns="http://www.w3.org/2000/svg">
<path d="M25 1H492C505.255 1 516 11.7452 516 25V389C516 402.255 505.255 413 492 413H25C11.7452 413 1 402.255 1 389V25C1 11.7452 11.7452 1 25 1Z" fill="url(#paint0_radial_1079_1396)" stroke="url(#paint1_linear_1079_1396)"/>
<path d="M35.0801 38.9998V30.1318H36.4601V38.9998H35.0801ZM39.6877 38.9998H38.3677V32.5318H39.6637V33.4438C39.8557 33.1078 40.1317 32.8438 40.4917 32.6518C40.8517 32.4598 41.2597 32.3638 41.7157 32.3638C42.4277 32.3638 43.0277 32.5958 43.5157 33.0598C44.0117 33.5318 44.2597 34.1998 44.2597 35.0638V38.9998H42.9277V35.4358C42.9277 34.8518 42.7877 34.3998 42.5077 34.0798C42.2277 33.7518 41.8517 33.5878 41.3797 33.5878C40.8837 33.5878 40.4757 33.7638 40.1557 34.1158C39.8437 34.4598 39.6877 34.9078 39.6877 35.4598V38.9998ZM48.9154 39.1438C47.9074 39.1438 47.0874 38.8278 46.4554 38.1958C45.8154 37.5558 45.4954 36.7478 45.4954 35.7718C45.4954 34.7878 45.8194 33.9758 46.4674 33.3358C47.1234 32.6958 47.9554 32.3758 48.9634 32.3758C49.6114 32.3758 50.2034 32.5318 50.7394 32.8438C51.2834 33.1558 51.6834 33.5758 51.9394 34.1038L50.8474 34.7158C50.6474 34.3718 50.3794 34.0998 50.0434 33.8998C49.7154 33.6918 49.3594 33.5878 48.9754 33.5878C48.3594 33.5878 47.8474 33.7958 47.4394 34.2118C47.0314 34.6358 46.8274 35.1558 46.8274 35.7718C46.8274 36.3718 47.0274 36.8838 47.4274 37.3078C47.8194 37.7238 48.3194 37.9318 48.9274 37.9318C49.3114 37.9318 49.6794 37.8278 50.0314 37.6198C50.3834 37.4118 50.6434 37.1478 50.8114 36.8278L51.9034 37.4638C51.6394 37.9678 51.2354 38.3758 50.6914 38.6878C50.1554 38.9918 49.5634 39.1438 48.9154 39.1438ZM52.679 35.7598C52.679 34.8238 52.999 34.0238 53.639 33.3598C54.287 32.6958 55.107 32.3638 56.099 32.3638C57.091 32.3638 57.907 32.6958 58.547 33.3598C59.195 34.0158 59.519 34.8158 59.519 35.7598C59.519 36.7198 59.195 37.5278 58.547 38.1838C57.915 38.8398 57.099 39.1678 56.099 39.1678C55.107 39.1678 54.287 38.8398 53.639 38.1838C52.999 37.5198 52.679 36.7118 52.679 35.7598ZM58.187 35.7598C58.187 35.1678 57.983 34.6598 57.575 34.2358C57.183 33.8038 56.691 33.5878 56.099 33.5878C55.515 33.5878 55.019 33.8038 54.611 34.2358C54.211 34.6598 54.011 35.1678 54.011 35.7598C54.011 36.3598 54.211 36.8718 54.611 37.2958C55.019 37.7198 55.515 37.9318 56.099 37.9318C56.683 37.9318 57.175 37.7198 57.575 37.2958C57.983 36.8718 58.187 36.3598 58.187 35.7598ZM68.4283 32.3518C69.2043 32.3518 69.8283 32.6038 70.3003 33.1078C70.7803 33.5958 71.0203 34.2718 71.0203 35.1358V38.9998H69.7003V35.3518C69.7003 34.7918 69.5683 34.3598 69.3043 34.0558C69.0403 33.7438 68.6803 33.5878 68.2243 33.5878C67.7443 33.5878 67.3523 33.7518 67.0483 34.0798C66.7523 34.4078 66.6043 34.8438 66.6043 35.3878V38.9998H65.2843V35.3758C65.2843 34.8238 65.1483 34.3878 64.8763 34.0678C64.6123 33.7478 64.2523 33.5878 63.7963 33.5878C63.3163 33.5878 62.9243 33.7558 62.6203 34.0918C62.3163 34.4198 62.1643 34.8598 62.1643 35.4118V38.9998H60.8443V32.5318H62.1403V33.4678C62.3323 33.1238 62.6003 32.8518 62.9443 32.6518C63.2883 32.4518 63.6723 32.3518 64.0963 32.3518C64.5363 32.3598 64.9363 32.4678 65.2963 32.6758C65.6563 32.8838 65.9203 33.1718 66.0883 33.5398C66.3123 33.1798 66.6323 32.8918 67.0483 32.6758C67.4723 32.4598 67.9323 32.3518 68.4283 32.3518ZM78.7411 35.6398C78.7411 35.8478 78.7251 36.0598 78.6931 36.2758H73.6411C73.7371 36.7958 73.9651 37.2078 74.3251 37.5118C74.6931 37.8158 75.1811 37.9678 75.7891 37.9678C76.1571 37.9678 76.5411 37.9038 76.9411 37.7758C77.3491 37.6478 77.6971 37.4798 77.9851 37.2718L78.5371 38.2438C77.7291 38.8438 76.7971 39.1438 75.7411 39.1438C74.6051 39.1438 73.7411 38.8118 73.1491 38.1478C72.5651 37.4838 72.2731 36.6838 72.2731 35.7478C72.2731 34.7718 72.5771 33.9678 73.1851 33.3358C73.8011 32.6958 74.5971 32.3758 75.5731 32.3758C76.5091 32.3758 77.2691 32.6678 77.8531 33.2518C78.4451 33.8438 78.7411 34.6398 78.7411 35.6398ZM75.5731 33.5158C75.0771 33.5158 74.6531 33.6718 74.3011 33.9838C73.9571 34.2878 73.7371 34.6918 73.6411 35.1958H77.4091C77.3531 34.6918 77.1531 34.2878 76.8091 33.9838C76.4731 33.6718 76.0611 33.5158 75.5731 33.5158ZM81.9479 39.1558C81.4359 39.1558 80.9599 39.0398 80.5199 38.8078C80.0799 38.5758 79.7279 38.2398 79.4639 37.7998L80.3159 37.0318C80.5079 37.3438 80.7519 37.5878 81.0479 37.7638C81.3519 37.9318 81.6599 38.0158 81.9719 38.0158C82.2839 38.0158 82.5399 37.9398 82.7399 37.7878C82.9399 37.6278 83.0399 37.4358 83.0399 37.2118C83.0399 36.8918 82.8559 36.6438 82.4879 36.4678C82.3919 36.4118 82.1319 36.3038 81.7079 36.1438C81.2759 35.9598 81.0039 35.8358 80.8919 35.7718C80.2039 35.4118 79.8599 34.8798 79.8599 34.1758C79.8599 33.6398 80.0599 33.1958 80.4599 32.8438C80.8759 32.4918 81.4119 32.3158 82.0679 32.3158C82.9879 32.3158 83.6959 32.6478 84.1919 33.3118L83.4239 34.1278C83.0399 33.6558 82.5679 33.4198 82.0079 33.4198C81.7439 33.4198 81.5319 33.4878 81.3719 33.6238C81.2199 33.7598 81.1439 33.9278 81.1439 34.1278C81.1439 34.4478 81.3239 34.6838 81.6839 34.8358L82.3439 35.1118C82.7679 35.2878 83.0719 35.4238 83.2559 35.5198C83.9919 35.9038 84.3599 36.4478 84.3599 37.1518C84.3599 37.7198 84.1359 38.1958 83.6879 38.5798C83.2399 38.9638 82.6599 39.1558 81.9479 39.1558Z" fill="black" fill-opacity="0.8"/>
<path d="M44.9001 61.8001C44.9001 62.9068 44.5601 63.8468 43.8801 64.6201C43.2001 65.3801 42.2934 65.8801 41.1601 66.1201V68.2401H38.8801V66.2001C36.9468 65.8934 35.5134 64.9001 34.5801 63.2201L36.4601 61.5001C36.8201 62.1801 37.2934 62.7134 37.8801 63.1001C38.4801 63.4734 39.1201 63.6601 39.8001 63.6601C40.4401 63.6601 40.9468 63.5001 41.3201 63.1801C41.7068 62.8601 41.9001 62.4534 41.9001 61.9601C41.9001 61.2934 41.4534 60.7401 40.5601 60.3001L39.2601 59.6601C38.4068 59.2468 37.8068 58.9201 37.4601 58.6801C36.0601 57.7601 35.3601 56.5801 35.3601 55.1401C35.3601 54.0734 35.6934 53.1734 36.3601 52.4401C37.0268 51.7068 37.9068 51.2468 39.0001 51.0601V49.1401H41.2801V51.0801C42.5334 51.2934 43.6401 51.9334 44.6001 53.0001L43.0401 54.9201C42.0934 53.9734 41.1068 53.5001 40.0801 53.5001C39.5201 53.5001 39.0668 53.6401 38.7201 53.9201C38.3868 54.2001 38.2201 54.5734 38.2201 55.0401C38.2201 55.3734 38.3334 55.6668 38.5601 55.9201C38.7868 56.1601 39.1468 56.4268 39.6401 56.7201C39.8534 56.8534 40.3534 57.1134 41.1401 57.5001C41.9401 57.8868 42.5201 58.1868 42.8801 58.4001C44.2268 59.2668 44.9001 60.4001 44.9001 61.8001ZM51.7193 50.9601C53.506 50.9601 54.8727 51.6201 55.8193 52.9401C56.766 54.2734 57.2393 56.0001 57.2393 58.1201C57.2393 59.2134 57.1127 60.2401 56.8593 61.2001C56.6193 62.1468 56.2527 63.0068 55.7593 63.7801C55.266 64.5401 54.6127 65.1401 53.7993 65.5801C52.986 66.0201 52.0527 66.2401 50.9993 66.2401C49.4127 66.2401 48.0727 65.8134 46.9793 64.9601L47.9993 62.9001C48.906 63.5268 49.8593 63.8401 50.8593 63.8401C52.0193 63.8401 52.9127 63.4068 53.5393 62.5401C54.1793 61.6734 54.5527 60.5468 54.6593 59.1601C54.2993 59.6401 53.8127 60.0201 53.1993 60.3001C52.586 60.5668 51.9193 60.7001 51.1993 60.7001C49.8393 60.7001 48.7127 60.2534 47.8193 59.3601C46.9393 58.4534 46.4993 57.3201 46.4993 55.9601C46.4993 54.5068 46.986 53.3134 47.9593 52.3801C48.946 51.4334 50.1993 50.9601 51.7193 50.9601ZM54.1993 55.8801C54.1993 55.1468 53.9527 54.5334 53.4593 54.0401C52.9793 53.5468 52.386 53.3001 51.6793 53.3001C50.9593 53.3001 50.3527 53.5468 49.8593 54.0401C49.3793 54.5201 49.1393 55.1401 49.1393 55.9001C49.1393 56.6201 49.3793 57.2201 49.8593 57.7001C50.3393 58.1668 50.9393 58.4001 51.6593 58.4001C52.3793 58.4001 52.9793 58.1601 53.4593 57.6801C53.9527 57.2001 54.1993 56.6001 54.1993 55.8801ZM65.0398 66.2401C63.7198 66.2401 62.5998 65.8734 61.6798 65.1401C60.7598 64.3934 60.0998 63.4601 59.6998 62.3401C59.2998 61.2201 59.0998 59.9734 59.0998 58.6001C59.0998 57.2268 59.2998 55.9801 59.6998 54.8601C60.0998 53.7401 60.7598 52.8134 61.6798 52.0801C62.5998 51.3334 63.7198 50.9601 65.0398 50.9601C65.8398 50.9601 66.5731 51.1001 67.2398 51.3801C67.9065 51.6601 68.4665 52.0401 68.9198 52.5201C69.3731 52.9868 69.7531 53.5468 70.0598 54.2001C70.3798 54.8534 70.6131 55.5468 70.7598 56.2801C70.9065 57.0134 70.9798 57.7868 70.9798 58.6001C70.9798 59.4134 70.9065 60.1868 70.7598 60.9201C70.6131 61.6534 70.3798 62.3468 70.0598 63.0001C69.7531 63.6534 69.3731 64.2201 68.9198 64.7001C68.4665 65.1668 67.9065 65.5401 67.2398 65.8201C66.5731 66.1001 65.8398 66.2401 65.0398 66.2401ZM65.0398 63.6801C66.1198 63.6801 66.9198 63.2134 67.4398 62.2801C67.9731 61.3468 68.2398 60.1201 68.2398 58.6001C68.2398 57.0934 67.9731 55.8734 67.4398 54.9401C66.8931 53.9934 66.0931 53.5201 65.0398 53.5201C63.9865 53.5201 63.1865 53.9934 62.6398 54.9401C62.1065 55.8734 61.8398 57.0934 61.8398 58.6001C61.8398 60.1201 62.1065 61.3468 62.6398 62.2801C63.1731 63.2134 63.9731 63.6801 65.0398 63.6801ZM74.1182 63.2801C74.5982 63.2801 74.9982 63.4534 75.3182 63.8001C75.6382 64.1334 75.7982 64.5601 75.7982 65.0801C75.7982 66.4934 74.8182 67.8268 72.8582 69.0801L72.0782 68.0201L72.8782 67.3801C73.3582 67.0201 73.7116 66.6334 73.9382 66.2201H73.8782C73.5049 66.2201 73.1849 66.0868 72.9182 65.8201C72.6516 65.5401 72.5182 65.2068 72.5182 64.8201C72.5182 64.3801 72.6716 64.0134 72.9782 63.7201C73.2982 63.4268 73.6782 63.2801 74.1182 63.2801ZM83.2624 66.2401C81.9424 66.2401 80.8224 65.8734 79.9024 65.1401C78.9824 64.3934 78.3224 63.4601 77.9224 62.3401C77.5224 61.2201 77.3224 59.9734 77.3224 58.6001C77.3224 57.2268 77.5224 55.9801 77.9224 54.8601C78.3224 53.7401 78.9824 52.8134 79.9024 52.0801C80.8224 51.3334 81.9424 50.9601 83.2624 50.9601C84.0624 50.9601 84.7958 51.1001 85.4624 51.3801C86.1291 51.6601 86.6891 52.0401 87.1424 52.5201C87.5958 52.9868 87.9758 53.5468 88.2824 54.2001C88.6024 54.8534 88.8358 55.5468 88.9824 56.2801C89.1291 57.0134 89.2024 57.7868 89.2024 58.6001C89.2024 59.4134 89.1291 60.1868 88.9824 60.9201C88.8358 61.6534 88.6024 62.3468 88.2824 63.0001C87.9758 63.6534 87.5958 64.2201 87.1424 64.7001C86.6891 65.1668 86.1291 65.5401 85.4624 65.8201C84.7958 66.1001 84.0624 66.2401 83.2624 66.2401ZM83.2624 63.6801C84.3424 63.6801 85.1424 63.2134 85.6624 62.2801C86.1958 61.3468 86.4624 60.1201 86.4624 58.6001C86.4624 57.0934 86.1958 55.8734 85.6624 54.9401C85.1158 53.9934 84.3158 53.5201 83.2624 53.5201C82.2091 53.5201 81.4091 53.9934 80.8624 54.9401C80.3291 55.8734 80.0624 57.0934 80.0624 58.6001C80.0624 60.1201 80.3291 61.3468 80.8624 62.2801C81.3958 63.2134 82.1958 63.6801 83.2624 63.6801ZM96.9734 66.2401C95.6534 66.2401 94.5334 65.8734 93.6134 65.1401C92.6934 64.3934 92.0334 63.4601 91.6334 62.3401C91.2334 61.2201 91.0334 59.9734 91.0334 58.6001C91.0334 57.2268 91.2334 55.9801 91.6334 54.8601C92.0334 53.7401 92.6934 52.8134 93.6134 52.0801C94.5334 51.3334 95.6534 50.9601 96.9734 50.9601C97.7734 50.9601 98.5067 51.1001 99.1734 51.3801C99.84 51.6601 100.4 52.0401 100.853 52.5201C101.307 52.9868 101.687 53.5468 101.993 54.2001C102.313 54.8534 102.547 55.5468 102.693 56.2801C102.84 57.0134 102.913 57.7868 102.913 58.6001C102.913 59.4134 102.84 60.1868 102.693 60.9201C102.547 61.6534 102.313 62.3468 101.993 63.0001C101.687 63.6534 101.307 64.2201 100.853 64.7001C100.4 65.1668 99.84 65.5401 99.1734 65.8201C98.5067 66.1001 97.7734 66.2401 96.9734 66.2401ZM96.9734 63.6801C98.0534 63.6801 98.8534 63.2134 99.3734 62.2801C99.9067 61.3468 100.173 60.1201 100.173 58.6001C100.173 57.0934 99.9067 55.8734 99.3734 54.9401C98.8267 53.9934 98.0267 53.5201 96.9734 53.5201C95.92 53.5201 95.12 53.9934 94.5734 54.9401C94.04 55.8734 93.7734 57.0934 93.7734 58.6001C93.7734 60.1201 94.04 61.3468 94.5734 62.2801C95.1067 63.2134 95.9067 63.6801 96.9734 63.6801ZM110.684 66.2401C109.364 66.2401 108.244 65.8734 107.324 65.1401C106.404 64.3934 105.744 63.4601 105.344 62.3401C104.944 61.2201 104.744 59.9734 104.744 58.6001C104.744 57.2268 104.944 55.9801 105.344 54.8601C105.744 53.7401 106.404 52.8134 107.324 52.0801C108.244 51.3334 109.364 50.9601 110.684 50.9601C111.484 50.9601 112.218 51.1001 112.884 51.3801C113.551 51.6601 114.111 52.0401 114.564 52.5201C115.018 52.9868 115.398 53.5468 115.704 54.2001C116.024 54.8534 116.258 55.5468 116.404 56.2801C116.551 57.0134 116.624 57.7868 116.624 58.6001C116.624 59.4134 116.551 60.1868 116.404 60.9201C116.258 61.6534 116.024 62.3468 115.704 63.0001C115.398 63.6534 115.018 64.2201 114.564 64.7001C114.111 65.1668 113.551 65.5401 112.884 65.8201C112.218 66.1001 111.484 66.2401 110.684 66.2401ZM110.684 63.6801C111.764 63.6801 112.564 63.2134 113.084 62.2801C113.618 61.3468 113.884 60.1201 113.884 58.6001C113.884 57.0934 113.618 55.8734 113.084 54.9401C112.538 53.9934 111.738 53.5201 110.684 53.5201C109.631 53.5201 108.831 53.9934 108.284 54.9401C107.751 55.8734 107.484 57.0934 107.484 58.6001C107.484 60.1201 107.751 61.3468 108.284 62.2801C108.818 63.2134 109.618 63.6801 110.684 63.6801Z" fill="black"/>
<path d="M173.088 39.1318C171.8 39.1318 170.72 38.7078 169.848 37.8598C168.968 37.0038 168.528 35.9158 168.528 34.5958C168.528 33.2518 168.976 32.1478 169.872 31.2838C170.768 30.4118 171.852 29.9758 173.124 29.9758C173.916 29.9758 174.656 30.1518 175.344 30.5038C176.024 30.8478 176.556 31.3078 176.94 31.8838L175.956 32.7718C175.228 31.8038 174.296 31.3198 173.16 31.3198C172.264 31.3198 171.504 31.6318 170.88 32.2558C170.264 32.8878 169.956 33.6678 169.956 34.5958C169.956 35.5318 170.26 36.2998 170.868 36.8998C171.484 37.4998 172.244 37.7998 173.148 37.7998C174.324 37.7998 175.276 37.3198 176.004 36.3598L176.988 37.2238C176.564 37.8078 176.008 38.2718 175.32 38.6158C174.632 38.9598 173.888 39.1318 173.088 39.1318ZM179.453 29.9038V38.9998H178.133V29.9038H179.453ZM181.853 31.6798C181.597 31.6798 181.381 31.5958 181.205 31.4278C181.029 31.2518 180.941 31.0358 180.941 30.7798C180.941 30.5318 181.029 30.3238 181.205 30.1558C181.381 29.9878 181.597 29.9038 181.853 29.9038C182.101 29.9038 182.309 29.9878 182.477 30.1558C182.645 30.3238 182.729 30.5318 182.729 30.7798C182.729 31.0358 182.645 31.2518 182.477 31.4278C182.309 31.5958 182.101 31.6798 181.853 31.6798ZM182.489 32.5318V38.9998H181.169V32.5318H182.489ZM187.228 39.1438C186.22 39.1438 185.4 38.8278 184.768 38.1958C184.128 37.5558 183.808 36.7478 183.808 35.7718C183.808 34.7878 184.132 33.9758 184.78 33.3358C185.436 32.6958 186.268 32.3758 187.276 32.3758C187.924 32.3758 188.516 32.5318 189.052 32.8438C189.596 33.1558 189.996 33.5758 190.252 34.1038L189.16 34.7158C188.96 34.3718 188.692 34.0998 188.356 33.8998C188.028 33.6918 187.672 33.5878 187.288 33.5878C186.672 33.5878 186.16 33.7958 185.752 34.2118C185.344 34.6358 185.14 35.1558 185.14 35.7718C185.14 36.3718 185.34 36.8838 185.74 37.3078C186.132 37.7238 186.632 37.9318 187.24 37.9318C187.624 37.9318 187.992 37.8278 188.344 37.6198C188.696 37.4118 188.956 37.1478 189.124 36.8278L190.216 37.4638C189.952 37.9678 189.548 38.3758 189.004 38.6878C188.468 38.9918 187.876 39.1438 187.228 39.1438ZM197.303 38.9998H195.599L193.271 36.0598L192.707 36.5758V38.9998H191.387V29.9038H192.707V35.0278L195.431 32.5318H197.171L194.195 35.2198L197.303 38.9998ZM199.835 39.1558C199.323 39.1558 198.847 39.0398 198.407 38.8078C197.967 38.5758 197.615 38.2398 197.351 37.7998L198.203 37.0318C198.395 37.3438 198.639 37.5878 198.935 37.7638C199.239 37.9318 199.547 38.0158 199.859 38.0158C200.171 38.0158 200.427 37.9398 200.627 37.7878C200.827 37.6278 200.927 37.4358 200.927 37.2118C200.927 36.8918 200.743 36.6438 200.375 36.4678C200.279 36.4118 200.019 36.3038 199.595 36.1438C199.163 35.9598 198.891 35.8358 198.779 35.7718C198.091 35.4118 197.747 34.8798 197.747 34.1758C197.747 33.6398 197.947 33.1958 198.347 32.8438C198.763 32.4918 199.299 32.3158 199.955 32.3158C200.875 32.3158 201.583 32.6478 202.079 33.3118L201.311 34.1278C200.927 33.6558 200.455 33.4198 199.895 33.4198C199.631 33.4198 199.419 33.4878 199.259 33.6238C199.107 33.7598 199.031 33.9278 199.031 34.1278C199.031 34.4478 199.211 34.6838 199.571 34.8358L200.23 35.1118C200.655 35.2878 200.959 35.4238 201.143 35.5198C201.879 35.9038 202.247 36.4478 202.247 37.1518C202.247 37.7198 202.023 38.1958 201.575 38.5798C201.127 38.9638 200.547 39.1558 199.835 39.1558Z" fill="black" fill-opacity="0.42"/>
<path d="M167.98 54.84L172.46 51.22H174.5V66H171.82V54.86L169.4 56.76L167.98 54.84ZM178.743 63.28C179.223 63.28 179.623 63.4533 179.943 63.8C180.263 64.1333 180.423 64.56 180.423 65.08C180.423 66.4933 179.443 67.8267 177.483 69.08L176.703 68.02L177.503 67.38C177.983 67.02 178.336 66.6333 178.563 66.22H178.503C178.13 66.22 177.81 66.0867 177.543 65.82C177.276 65.54 177.143 65.2067 177.143 64.82C177.143 64.38 177.296 64.0133 177.603 63.72C177.923 63.4267 178.303 63.28 178.743 63.28ZM187.989 56.46C189.362 56.46 190.495 56.9067 191.389 57.8C192.295 58.7067 192.749 59.84 192.749 61.2C192.749 62.6267 192.255 63.8133 191.269 64.76C190.282 65.7067 189.029 66.18 187.509 66.18C185.695 66.18 184.309 65.5133 183.349 64.18C182.389 62.8333 181.909 61.1267 181.909 59.06C181.909 57.6333 182.129 56.3267 182.569 55.14C183.009 53.94 183.715 52.9467 184.689 52.16C185.675 51.36 186.862 50.96 188.249 50.96C189.782 50.96 191.115 51.3867 192.249 52.24L191.089 54.3C190.262 53.6867 189.369 53.38 188.409 53.38C187.582 53.38 186.875 53.6267 186.289 54.12C185.195 55.0267 184.602 56.3933 184.509 58.22C185.229 57.0467 186.389 56.46 187.989 56.46ZM187.509 63.82C188.229 63.82 188.835 63.5733 189.329 63.08C189.822 62.5867 190.069 61.9733 190.069 61.24C190.069 60.52 189.829 59.9267 189.349 59.46C188.869 58.9933 188.269 58.76 187.549 58.76C186.815 58.76 186.202 59 185.709 59.48C185.215 59.9467 184.969 60.54 184.969 61.26C184.969 61.98 185.215 62.5867 185.709 63.08C186.202 63.5733 186.802 63.82 187.509 63.82ZM198.587 66.24C196.934 66.24 195.354 65.7533 193.847 64.78L195.007 62.58C196.22 63.34 197.374 63.72 198.467 63.72C199.254 63.72 199.874 63.54 200.327 63.18C200.794 62.8067 201.027 62.32 201.027 61.72C201.027 61.12 200.8 60.6333 200.347 60.26C199.894 59.8867 199.3 59.7 198.567 59.7H196.687V57.26H198.347C199.067 57.26 199.64 57.0867 200.067 56.74C200.494 56.38 200.707 55.92 200.707 55.36C200.707 54.8 200.5 54.3533 200.087 54.02C199.687 53.6867 199.167 53.52 198.527 53.52C197.62 53.52 196.614 53.9133 195.507 54.7L194.187 52.74C194.76 52.1933 195.454 51.76 196.267 51.44C197.094 51.12 197.947 50.96 198.827 50.96C200.147 50.96 201.254 51.3333 202.147 52.08C203.04 52.8133 203.487 53.7267 203.487 54.82C203.487 55.5933 203.254 56.28 202.787 56.88C202.32 57.48 201.714 57.9067 200.967 58.16V58.24C201.86 58.44 202.567 58.8733 203.087 59.54C203.607 60.1933 203.867 60.9733 203.867 61.88C203.867 63.1467 203.374 64.1933 202.387 65.02C201.414 65.8333 200.147 66.24 198.587 66.24ZM210.797 50.96C212.584 50.96 213.951 51.62 214.897 52.94C215.844 54.2733 216.317 56 216.317 58.12C216.317 59.2133 216.191 60.24 215.937 61.2C215.697 62.1467 215.331 63.0067 214.837 63.78C214.344 64.54 213.691 65.14 212.877 65.58C212.064 66.02 211.131 66.24 210.077 66.24C208.491 66.24 207.151 65.8133 206.057 64.96L207.077 62.9C207.984 63.5267 208.937 63.84 209.937 63.84C211.097 63.84 211.991 63.4067 212.617 62.54C213.257 61.6733 213.631 60.5467 213.737 59.16C213.377 59.64 212.891 60.02 212.277 60.3C211.664 60.5667 210.997 60.7 210.277 60.7C208.917 60.7 207.791 60.2533 206.897 59.36C206.017 58.4533 205.577 57.32 205.577 55.96C205.577 54.5067 206.064 53.3133 207.037 52.38C208.024 51.4333 209.277 50.96 210.797 50.96ZM213.277 55.88C213.277 55.1467 213.031 54.5333 212.537 54.04C212.057 53.5467 211.464 53.3 210.757 53.3C210.037 53.3 209.431 53.5467 208.937 54.04C208.457 54.52 208.217 55.14 208.217 55.9C208.217 56.62 208.457 57.22 208.937 57.7C209.417 58.1667 210.017 58.4 210.737 58.4C211.457 58.4 212.057 58.16 212.537 57.68C213.031 57.2 213.277 56.6 213.277 55.88Z" fill="black" fill-opacity="0.6"/>
<path d="M271.42 39.1438C270.764 39.1438 270.156 38.9918 269.596 38.6878C269.036 38.3758 268.6 37.9398 268.288 37.3798L269.224 36.4798C269.464 36.9198 269.776 37.2558 270.16 37.4878C270.552 37.7198 270.972 37.8358 271.42 37.8358C271.868 37.8358 272.232 37.7198 272.512 37.4878C272.792 37.2558 272.932 36.9678 272.932 36.6238C272.932 36.1758 272.64 35.7958 272.056 35.4838C271.912 35.4118 271.612 35.2798 271.156 35.0878C270.676 34.8638 270.336 34.6958 270.136 34.5838C269.24 34.0478 268.792 33.3318 268.792 32.4358C268.792 31.7318 269.048 31.1478 269.56 30.6838C270.08 30.2118 270.752 29.9758 271.576 29.9758C272.696 29.9758 273.596 30.3998 274.276 31.2478L273.424 32.1958C272.936 31.5878 272.324 31.2838 271.588 31.2838C271.196 31.2838 270.876 31.3838 270.628 31.5838C270.388 31.7758 270.268 32.0358 270.268 32.3638C270.268 32.7878 270.516 33.1398 271.012 33.4198C271.276 33.5638 271.608 33.7278 272.008 33.9118C272.472 34.1118 272.836 34.2878 273.1 34.4398C274.004 34.9358 274.456 35.6398 274.456 36.5518C274.456 37.3038 274.172 37.9278 273.604 38.4238C273.036 38.9038 272.308 39.1438 271.42 39.1438ZM276.474 31.6798C276.218 31.6798 276.002 31.5958 275.826 31.4278C275.65 31.2518 275.562 31.0358 275.562 30.7798C275.562 30.5318 275.65 30.3238 275.826 30.1558C276.002 29.9878 276.218 29.9038 276.474 29.9038C276.722 29.9038 276.93 29.9878 277.098 30.1558C277.266 30.3238 277.35 30.5318 277.35 30.7798C277.35 31.0358 277.266 31.2518 277.098 31.4278C276.93 31.5958 276.722 31.6798 276.474 31.6798ZM277.11 32.5318V38.9998H275.79V32.5318H277.11ZM283.877 33.3598V32.5318H285.149V38.3398C285.149 39.3798 284.829 40.2078 284.189 40.8238C283.549 41.4398 282.701 41.7478 281.645 41.7478C280.573 41.7478 279.609 41.4398 278.753 40.8238L279.329 39.8038C280.041 40.3158 280.805 40.5718 281.621 40.5718C282.301 40.5718 282.841 40.3798 283.241 39.9958C283.641 39.6198 283.841 39.1278 283.841 38.5198V38.0518C283.273 38.6918 282.549 39.0118 281.669 39.0118C280.725 39.0118 279.949 38.6958 279.341 38.0638C278.733 37.4318 278.429 36.6398 278.429 35.6878C278.429 34.7358 278.745 33.9478 279.377 33.3238C280.009 32.6918 280.793 32.3758 281.729 32.3758C282.585 32.3758 283.301 32.7038 283.877 33.3598ZM281.837 37.8358C282.437 37.8358 282.933 37.6318 283.325 37.2238C283.717 36.8238 283.913 36.3158 283.913 35.6998C283.913 35.0758 283.717 34.5678 283.325 34.1758C282.925 33.7758 282.429 33.5758 281.837 33.5758C281.253 33.5758 280.761 33.7798 280.361 34.1878C279.969 34.5798 279.773 35.0838 279.773 35.6998C279.773 36.3238 279.969 36.8358 280.361 37.2358C280.761 37.6358 281.253 37.8358 281.837 37.8358ZM288.172 38.9998H286.852V32.5318H288.148V33.4438C288.34 33.1078 288.616 32.8438 288.976 32.6518C289.336 32.4598 289.744 32.3638 290.2 32.3638C290.912 32.3638 291.512 32.5958 292 33.0598C292.496 33.5318 292.744 34.1998 292.744 35.0638V38.9998H291.412V35.4358C291.412 34.8518 291.272 34.3998 290.992 34.0798C290.712 33.7518 290.336 33.5878 289.864 33.5878C289.368 33.5878 288.96 33.7638 288.64 34.1158C288.328 34.4598 288.172 34.9078 288.172 35.4598V38.9998ZM299.008 36.2998H294.28V35.0518H299.008V36.2998ZM303.381 39.1558C302.517 39.1558 301.829 38.9038 301.317 38.3998C300.805 37.8958 300.549 37.2118 300.549 36.3478V32.5318H301.869V36.3358C301.869 36.8238 302.001 37.2118 302.265 37.4998C302.537 37.7878 302.909 37.9318 303.381 37.9318C303.861 37.9318 304.233 37.7918 304.497 37.5118C304.761 37.2318 304.893 36.8398 304.893 36.3358V32.5318H306.225V36.3478C306.225 37.2278 305.973 37.9158 305.469 38.4118C304.965 38.9078 304.269 39.1558 303.381 39.1558ZM311.38 32.3758C312.3 32.3758 313.064 32.7038 313.672 33.3598C314.288 34.0238 314.596 34.8278 314.596 35.7718C314.596 36.7078 314.288 37.5078 313.672 38.1718C313.064 38.8278 312.296 39.1558 311.368 39.1558C310.456 39.1558 309.72 38.8038 309.16 38.0998V41.6638H307.84V32.5318H309.16V33.4678C309.744 32.7398 310.484 32.3758 311.38 32.3758ZM313.264 35.7598C313.264 35.1518 313.072 34.6398 312.688 34.2238C312.304 33.7998 311.804 33.5878 311.188 33.5878C310.572 33.5878 310.072 33.7998 309.688 34.2238C309.312 34.6478 309.124 35.1598 309.124 35.7598C309.124 36.3758 309.312 36.8958 309.688 37.3198C310.072 37.7358 310.572 37.9438 311.188 37.9438C311.804 37.9438 312.304 37.7358 312.688 37.3198C313.072 36.9038 313.264 36.3838 313.264 35.7598ZM317.811 39.1558C317.299 39.1558 316.823 39.0398 316.383 38.8078C315.943 38.5758 315.591 38.2398 315.327 37.7998L316.179 37.0318C316.371 37.3438 316.615 37.5878 316.911 37.7638C317.215 37.9318 317.523 38.0158 317.835 38.0158C318.147 38.0158 318.403 37.9398 318.603 37.7878C318.803 37.6278 318.903 37.4358 318.903 37.2118C318.903 36.8918 318.719 36.6438 318.351 36.4678C318.255 36.4118 317.995 36.3038 317.571 36.1438C317.139 35.9598 316.867 35.8358 316.755 35.7718C316.067 35.4118 315.723 34.8798 315.723 34.1758C315.723 33.6398 315.923 33.1958 316.323 32.8438C316.739 32.4918 317.275 32.3158 317.931 32.3158C318.851 32.3158 319.559 32.6478 320.055 33.3118L319.287 34.1278C318.903 33.6558 318.431 33.4198 317.871 33.4198C317.607 33.4198 317.395 33.4878 317.235 33.6238C317.083 33.7598 317.007 33.9278 317.007 34.1278C317.007 34.4478 317.187 34.6838 317.547 34.8358L318.207 35.1118C318.631 35.2878 318.935 35.4238 319.119 35.5198C319.855 35.9038 320.223 36.4478 320.223 37.1518C320.223 37.7198 319.999 38.1958 319.551 38.5798C319.103 38.9638 318.523 39.1558 317.811 39.1558Z" fill="black" fill-opacity="0.42"/>
<path d="M273.04 66.24C271.387 66.24 269.807 65.7533 268.3 64.78L269.46 62.58C270.673 63.34 271.827 63.72 272.92 63.72C273.707 63.72 274.327 63.54 274.78 63.18C275.247 62.8067 275.48 62.32 275.48 61.72C275.48 61.12 275.253 60.6333 274.8 60.26C274.347 59.8867 273.753 59.7 273.02 59.7H271.14V57.26H272.8C273.52 57.26 274.093 57.0867 274.52 56.74C274.947 56.38 275.16 55.92 275.16 55.36C275.16 54.8 274.953 54.3533 274.54 54.02C274.14 53.6867 273.62 53.52 272.98 53.52C272.073 53.52 271.067 53.9133 269.96 54.7L268.64 52.74C269.213 52.1933 269.907 51.76 270.72 51.44C271.547 51.12 272.4 50.96 273.28 50.96C274.6 50.96 275.707 51.3333 276.6 52.08C277.493 52.8133 277.94 53.7267 277.94 54.82C277.94 55.5933 277.707 56.28 277.24 56.88C276.773 57.48 276.167 57.9067 275.42 58.16V58.24C276.313 58.44 277.02 58.8733 277.54 59.54C278.06 60.1933 278.32 60.9733 278.32 61.88C278.32 63.1467 277.827 64.1933 276.84 65.02C275.867 65.8333 274.6 66.24 273.04 66.24ZM289.05 60.2H290.65V62.5H289.05V66H286.49V62.5H279.89L279.35 60.76L287.15 51.22H289.05V60.2ZM286.49 55.32L282.53 60.2H286.49V55.32ZM297.417 56.44C298.844 56.44 300.024 56.8867 300.957 57.78C301.917 58.6733 302.397 59.8267 302.397 61.24C302.397 62.68 301.897 63.8733 300.897 64.82C299.884 65.7667 298.57 66.24 296.957 66.24C295.197 66.24 293.564 65.6867 292.057 64.58L293.157 62.4C294.397 63.28 295.624 63.72 296.837 63.72C297.677 63.72 298.357 63.4867 298.877 63.02C299.397 62.5533 299.657 61.96 299.657 61.24C299.657 60.5467 299.404 59.9733 298.897 59.52C298.404 59.0533 297.77 58.82 296.997 58.82C296.01 58.82 295.17 59.1667 294.477 59.86L292.857 58.62L293.677 51.22H301.397V53.72H295.717L295.337 56.86C295.977 56.58 296.67 56.44 297.417 56.44Z" fill="black" fill-opacity="0.6"/>
<path d="M397.5 43C399.433 43 401 41.433 401 39.5C401 37.567 399.433 36 397.5 36C395.567 36 394 37.567 394 39.5C394 41.433 395.567 43 397.5 43Z" fill="#535353"/>
<path d="M411.72 36.588H413.76C414.405 36.588 414.893 36.772 415.224 37.14C415.56 37.5027 415.728 37.9427 415.728 38.46C415.728 38.972 415.555 39.4093 415.208 39.772C414.867 40.1293 414.357 40.308 413.68 40.308H412.64V42.5H411.72V36.588ZM412.64 39.46H413.704C414.045 39.46 414.312 39.364 414.504 39.172C414.696 38.9747 414.792 38.732 414.792 38.444C414.792 38.156 414.704 37.9187 414.528 37.732C414.352 37.5453 414.109 37.452 413.8 37.452H412.64V39.46ZM417.393 42.5H416.513V38.188H417.353V38.804C417.609 38.3187 418.017 38.076 418.577 38.076C418.759 38.076 418.929 38.1 419.089 38.148L419.009 39.004C418.865 38.9507 418.708 38.924 418.537 38.924C418.191 38.924 417.913 39.0413 417.705 39.276C417.497 39.5107 417.393 39.8493 417.393 40.292V42.5ZM423.585 40.26C423.585 40.3987 423.574 40.54 423.553 40.684H420.185C420.249 41.0307 420.401 41.3053 420.641 41.508C420.886 41.7107 421.212 41.812 421.617 41.812C421.862 41.812 422.118 41.7693 422.385 41.684C422.657 41.5987 422.889 41.4867 423.081 41.348L423.449 41.996C422.91 42.396 422.289 42.596 421.585 42.596C420.828 42.596 420.252 42.3747 419.857 41.932C419.468 41.4893 419.273 40.956 419.273 40.332C419.273 39.6813 419.476 39.1453 419.881 38.724C420.292 38.2973 420.822 38.084 421.473 38.084C422.097 38.084 422.604 38.2787 422.993 38.668C423.388 39.0627 423.585 39.5933 423.585 40.26ZM421.473 38.844C421.142 38.844 420.86 38.948 420.625 39.156C420.396 39.3587 420.249 39.628 420.185 39.964H422.697C422.66 39.628 422.526 39.3587 422.297 39.156C422.073 38.948 421.798 38.844 421.473 38.844ZM425.992 41.268L427.224 38.188H428.192L426.304 42.492H425.664L423.776 38.188H424.752L425.992 41.268ZM429.313 37.62C429.143 37.62 428.999 37.564 428.881 37.452C428.764 37.3347 428.705 37.1907 428.705 37.02C428.705 36.8547 428.764 36.716 428.881 36.604C428.999 36.492 429.143 36.436 429.313 36.436C429.479 36.436 429.617 36.492 429.729 36.604C429.841 36.716 429.897 36.8547 429.897 37.02C429.897 37.1907 429.841 37.3347 429.729 37.452C429.617 37.564 429.479 37.62 429.313 37.62ZM429.737 38.188V42.5H428.857V38.188H429.737ZM430.617 40.34C430.617 39.716 430.83 39.1827 431.257 38.74C431.689 38.2973 432.235 38.076 432.897 38.076C433.558 38.076 434.102 38.2973 434.529 38.74C434.961 39.1773 435.177 39.7107 435.177 40.34C435.177 40.98 434.961 41.5187 434.529 41.956C434.107 42.3933 433.563 42.612 432.897 42.612C432.235 42.612 431.689 42.3933 431.257 41.956C430.83 41.5133 430.617 40.9747 430.617 40.34ZM434.289 40.34C434.289 39.9453 434.153 39.6067 433.881 39.324C433.619 39.036 433.291 38.892 432.897 38.892C432.507 38.892 432.177 39.036 431.905 39.324C431.638 39.6067 431.505 39.9453 431.505 40.34C431.505 40.74 431.638 41.0813 431.905 41.364C432.177 41.6467 432.507 41.788 432.897 41.788C433.286 41.788 433.614 41.6467 433.881 41.364C434.153 41.0813 434.289 40.74 434.289 40.34ZM437.892 42.604C437.316 42.604 436.858 42.436 436.516 42.1C436.175 41.764 436.004 41.308 436.004 40.732V38.188H436.884V40.724C436.884 41.0493 436.972 41.308 437.148 41.5C437.33 41.692 437.578 41.788 437.892 41.788C438.212 41.788 438.46 41.6947 438.636 41.508C438.812 41.3213 438.9 41.06 438.9 40.724V38.188H439.788V40.732C439.788 41.3187 439.62 41.7773 439.284 42.108C438.948 42.4387 438.484 42.604 437.892 42.604ZM442.137 42.604C441.796 42.604 441.478 42.5267 441.185 42.372C440.892 42.2173 440.657 41.9933 440.481 41.7L441.049 41.188C441.177 41.396 441.34 41.5587 441.537 41.676C441.74 41.788 441.945 41.844 442.153 41.844C442.361 41.844 442.532 41.7933 442.665 41.692C442.798 41.5853 442.865 41.4573 442.865 41.308C442.865 41.0947 442.742 40.9293 442.497 40.812C442.433 40.7747 442.26 40.7027 441.977 40.596C441.689 40.4733 441.508 40.3907 441.433 40.348C440.974 40.108 440.745 39.7533 440.745 39.284C440.745 38.9267 440.878 38.6307 441.145 38.396C441.422 38.1613 441.78 38.044 442.217 38.044C442.83 38.044 443.302 38.2653 443.633 38.708L443.121 39.252C442.865 38.9373 442.55 38.78 442.177 38.78C442.001 38.78 441.86 38.8253 441.753 38.916C441.652 39.0067 441.601 39.1187 441.601 39.252C441.601 39.4653 441.721 39.6227 441.961 39.724L442.401 39.908C442.684 40.0253 442.886 40.116 443.009 40.18C443.5 40.436 443.745 40.7987 443.745 41.268C443.745 41.6467 443.596 41.964 443.297 42.22C442.998 42.476 442.612 42.604 442.137 42.604ZM449.16 40.06L447.704 41.652H450.144V42.5H446.4V41.732L448.28 39.732L448.728 39.236C448.84 39.108 448.938 38.9507 449.024 38.764C449.114 38.5773 449.16 38.4093 449.16 38.26C449.16 37.9933 449.064 37.7747 448.872 37.604C448.685 37.428 448.45 37.34 448.168 37.34C447.709 37.34 447.242 37.5613 446.768 38.004L446.264 37.348C446.85 36.772 447.498 36.484 448.208 36.484C448.752 36.484 449.197 36.6493 449.544 36.98C449.896 37.3107 450.072 37.74 450.072 38.268C450.072 38.8067 449.768 39.404 449.16 40.06ZM453.059 42.596C452.424 42.596 451.907 42.436 451.507 42.116C451.107 41.796 450.907 41.3907 450.907 40.9C450.907 40.5693 451.011 40.2653 451.219 39.988C451.427 39.7053 451.704 39.5 452.051 39.372V39.356C451.774 39.2227 451.555 39.0413 451.395 38.812C451.235 38.5827 451.155 38.3267 451.155 38.044C451.155 37.5907 451.331 37.2173 451.683 36.924C452.03 36.6307 452.488 36.484 453.059 36.484C453.624 36.484 454.078 36.6307 454.419 36.924C454.771 37.2173 454.947 37.5907 454.947 38.044C454.947 38.3267 454.867 38.5853 454.707 38.82C454.547 39.0493 454.326 39.228 454.043 39.356V39.38C454.395 39.5027 454.675 39.7027 454.883 39.98C455.091 40.2573 455.195 40.564 455.195 40.9C455.195 41.3907 454.995 41.796 454.595 42.116C454.206 42.436 453.694 42.596 453.059 42.596ZM453.795 38.764C453.982 38.5987 454.075 38.388 454.075 38.132C454.075 37.876 453.979 37.6653 453.787 37.5C453.6 37.3347 453.355 37.252 453.051 37.252C452.742 37.252 452.491 37.3347 452.299 37.5C452.107 37.6653 452.011 37.876 452.011 38.132C452.011 38.388 452.107 38.5987 452.299 38.764C452.491 38.9293 452.742 39.012 453.051 39.012C453.36 39.012 453.608 38.9293 453.795 38.764ZM453.059 41.788C453.416 41.788 453.71 41.6947 453.939 41.508C454.168 41.316 454.283 41.0733 454.283 40.78C454.283 40.492 454.168 40.2573 453.939 40.076C453.715 39.8947 453.419 39.804 453.051 39.804C452.683 39.804 452.384 39.8947 452.155 40.076C451.931 40.2573 451.819 40.492 451.819 40.78C451.819 41.0733 451.934 41.316 452.163 41.508C452.392 41.6947 452.691 41.788 453.059 41.788ZM461.443 38.788V36.436H462.331V42.5H461.459V41.9C461.086 42.3693 460.603 42.604 460.011 42.604C459.387 42.604 458.872 42.388 458.467 41.956C458.056 41.5133 457.851 40.9747 457.851 40.34C457.851 39.7107 458.056 39.1773 458.467 38.74C458.872 38.3027 459.384 38.084 460.003 38.084C460.574 38.084 461.054 38.3187 461.443 38.788ZM461.507 40.34C461.507 39.9347 461.379 39.5933 461.123 39.316C460.867 39.0333 460.534 38.892 460.123 38.892C459.712 38.892 459.379 39.0333 459.123 39.316C458.867 39.5933 458.739 39.9347 458.739 40.34C458.739 40.756 458.867 41.1027 459.123 41.38C459.379 41.6573 459.712 41.796 460.123 41.796C460.534 41.796 460.867 41.6573 461.123 41.38C461.379 41.1027 461.507 40.756 461.507 40.34ZM466.834 38.788V38.188H467.682V42.5H466.834V41.908C466.445 42.372 465.954 42.604 465.362 42.604C464.738 42.604 464.224 42.3853 463.818 41.948C463.413 41.5107 463.21 40.9667 463.21 40.316C463.21 39.6707 463.413 39.1373 463.818 38.716C464.224 38.2947 464.738 38.084 465.362 38.084C465.954 38.084 466.445 38.3187 466.834 38.788ZM465.482 41.796C465.882 41.796 466.216 41.6547 466.482 41.372C466.744 41.0947 466.874 40.7507 466.874 40.34C466.874 39.9347 466.744 39.5933 466.482 39.316C466.216 39.0333 465.882 38.892 465.482 38.892C465.072 38.892 464.738 39.0333 464.482 39.316C464.226 39.5933 464.098 39.9373 464.098 40.348C464.098 40.7587 464.226 41.1027 464.482 41.38C464.738 41.6573 465.072 41.796 465.482 41.796ZM470.626 41.3L471.73 38.188H472.698L470.914 42.892C470.722 43.3987 470.498 43.764 470.242 43.988C469.986 44.2173 469.674 44.332 469.306 44.332C469.002 44.332 468.757 44.2707 468.57 44.148L468.698 43.388C468.906 43.4787 469.085 43.524 469.234 43.524C469.581 43.524 469.863 43.2787 470.082 42.788L470.218 42.468L468.346 38.188H469.362L470.626 41.3ZM474.481 42.604C474.139 42.604 473.822 42.5267 473.529 42.372C473.235 42.2173 473.001 41.9933 472.825 41.7L473.393 41.188C473.521 41.396 473.683 41.5587 473.881 41.676C474.083 41.788 474.289 41.844 474.497 41.844C474.705 41.844 474.875 41.7933 475.009 41.692C475.142 41.5853 475.209 41.4573 475.209 41.308C475.209 41.0947 475.086 40.9293 474.841 40.812C474.777 40.7747 474.603 40.7027 474.321 40.596C474.033 40.4733 473.851 40.3907 473.777 40.348C473.318 40.108 473.089 39.7533 473.089 39.284C473.089 38.9267 473.222 38.6307 473.489 38.396C473.766 38.1613 474.123 38.044 474.561 38.044C475.174 38.044 475.646 38.2653 475.977 38.708L475.465 39.252C475.209 38.9373 474.894 38.78 474.521 38.78C474.345 38.78 474.203 38.8253 474.097 38.916C473.995 39.0067 473.945 39.1187 473.945 39.252C473.945 39.4653 474.065 39.6227 474.305 39.724L474.745 39.908C475.027 40.0253 475.23 40.116 475.353 40.18C475.843 40.436 476.089 40.7987 476.089 41.268C476.089 41.6467 475.939 41.964 475.641 42.22C475.342 42.476 474.955 42.604 474.481 42.604Z" fill="black" fill-opacity="0.42"/>
<path d="M397.5 60C399.433 60 401 58.433 401 56.5C401 54.567 399.433 53 397.5 53C395.567 53 394 54.567 394 56.5C394 58.433 395.567 60 397.5 60Z" fill="#0784B5"/>
<path d="M412.824 59.596C412.115 59.596 411.533 59.3453 411.08 58.844L411.6 58.156C411.92 58.5293 412.317 58.716 412.792 58.716C413.144 58.716 413.424 58.604 413.632 58.38C413.84 58.1507 413.944 57.8387 413.944 57.444V53.588H414.872V57.484C414.872 58.1667 414.68 58.6893 414.296 59.052C413.917 59.4147 413.427 59.596 412.824 59.596ZM417.892 59.604C417.316 59.604 416.858 59.436 416.516 59.1C416.175 58.764 416.004 58.308 416.004 57.732V55.188H416.884V57.724C416.884 58.0493 416.972 58.308 417.148 58.5C417.33 58.692 417.578 58.788 417.892 58.788C418.212 58.788 418.46 58.6947 418.636 58.508C418.812 58.3213 418.9 58.06 418.9 57.724V55.188H419.788V57.732C419.788 58.3187 419.62 58.7773 419.284 59.108C418.948 59.4387 418.484 59.604 417.892 59.604ZM421.745 59.5H420.865V55.188H421.729V55.796C421.857 55.572 422.041 55.396 422.281 55.268C422.521 55.14 422.793 55.076 423.097 55.076C423.572 55.076 423.972 55.2307 424.297 55.54C424.628 55.8547 424.793 56.3 424.793 56.876V59.5H423.905V57.124C423.905 56.7347 423.812 56.4333 423.625 56.22C423.438 56.0013 423.188 55.892 422.873 55.892C422.542 55.892 422.27 56.0093 422.057 56.244C421.849 56.4733 421.745 56.772 421.745 57.14V59.5ZM429.281 59.596C428.631 59.596 428.012 59.4013 427.425 59.012L427.833 58.268C428.34 58.588 428.812 58.748 429.249 58.748C429.596 58.748 429.871 58.6653 430.073 58.5C430.276 58.3293 430.377 58.1053 430.377 57.828C430.377 57.5507 430.273 57.3267 430.065 57.156C429.857 56.98 429.588 56.892 429.257 56.892H428.521V56.06H429.225C429.535 56.06 429.785 55.98 429.977 55.82C430.169 55.66 430.265 55.4493 430.265 55.188C430.265 54.932 430.172 54.7267 429.985 54.572C429.799 54.4173 429.564 54.34 429.281 54.34C428.887 54.34 428.468 54.5053 428.025 54.836L427.561 54.188C427.78 53.9693 428.049 53.7987 428.369 53.676C428.695 53.548 429.028 53.484 429.369 53.484C429.897 53.484 430.335 53.6333 430.681 53.932C431.028 54.2307 431.201 54.5987 431.201 55.036C431.201 55.3507 431.108 55.6307 430.921 55.876C430.735 56.116 430.489 56.284 430.185 56.38V56.412C430.548 56.4973 430.831 56.6707 431.033 56.932C431.236 57.188 431.337 57.5 431.337 57.868C431.337 58.3693 431.145 58.7853 430.761 59.116C430.383 59.436 429.889 59.596 429.281 59.596ZM431.75 55.012L433.47 53.588H434.182V59.5H433.27V54.828L432.246 55.66L431.75 55.012ZM440.547 57.7H437.395V56.868H440.547V57.7ZM444.582 59.596C443.872 59.596 443.291 59.3453 442.838 58.844L443.358 58.156C443.678 58.5293 444.075 58.716 444.55 58.716C444.902 58.716 445.182 58.604 445.39 58.38C445.598 58.1507 445.702 57.8387 445.702 57.444V53.588H446.63V57.484C446.63 58.1667 446.438 58.6893 446.054 59.052C445.675 59.4147 445.184 59.596 444.582 59.596ZM449.65 59.604C449.074 59.604 448.615 59.436 448.274 59.1C447.933 58.764 447.762 58.308 447.762 57.732V55.188H448.642V57.724C448.642 58.0493 448.73 58.308 448.906 58.5C449.087 58.692 449.335 58.788 449.65 58.788C449.97 58.788 450.218 58.6947 450.394 58.508C450.57 58.3213 450.658 58.06 450.658 57.724V55.188H451.546V57.732C451.546 58.3187 451.378 58.7773 451.042 59.108C450.706 59.4387 450.242 59.604 449.65 59.604ZM453.503 53.436V59.5H452.623V53.436H453.503ZM458.047 59.596C457.396 59.596 456.778 59.4013 456.191 59.012L456.599 58.268C457.106 58.588 457.578 58.748 458.015 58.748C458.362 58.748 458.636 58.6653 458.839 58.5C459.042 58.3293 459.143 58.1053 459.143 57.828C459.143 57.5507 459.039 57.3267 458.831 57.156C458.623 56.98 458.354 56.892 458.023 56.892H457.287V56.06H457.991C458.3 56.06 458.551 55.98 458.743 55.82C458.935 55.66 459.031 55.4493 459.031 55.188C459.031 54.932 458.938 54.7267 458.751 54.572C458.564 54.4173 458.33 54.34 458.047 54.34C457.652 54.34 457.234 54.5053 456.791 54.836L456.327 54.188C456.546 53.9693 456.815 53.7987 457.135 53.676C457.46 53.548 457.794 53.484 458.135 53.484C458.663 53.484 459.1 53.6333 459.447 53.932C459.794 54.2307 459.967 54.5987 459.967 55.036C459.967 55.3507 459.874 55.6307 459.687 55.876C459.5 56.116 459.255 56.284 458.951 56.38V56.412C459.314 56.4973 459.596 56.6707 459.799 56.932C460.002 57.188 460.103 57.5 460.103 57.868C460.103 58.3693 459.911 58.7853 459.527 59.116C459.148 59.436 458.655 59.596 458.047 59.596ZM464.3 59.332C463.985 59.508 463.628 59.596 463.228 59.596C462.828 59.596 462.471 59.508 462.156 59.332C461.612 59.0173 461.233 58.4573 461.02 57.652C460.94 57.284 460.9 56.9133 460.9 56.54C460.9 56.1613 460.94 55.7933 461.02 55.436C461.1 55.0787 461.236 54.7507 461.428 54.452C461.625 54.1533 461.868 53.9187 462.156 53.748C462.465 53.572 462.823 53.484 463.228 53.484C463.628 53.484 463.985 53.572 464.3 53.748C464.86 54.0573 465.236 54.6173 465.428 55.428C465.62 56.1693 465.62 56.9107 465.428 57.652C465.236 58.4627 464.86 59.0227 464.3 59.332ZM463.228 58.732C463.703 58.732 464.055 58.5293 464.284 58.124C464.519 57.7133 464.636 57.1853 464.636 56.54C464.636 55.9 464.519 55.3747 464.284 54.964C464.049 54.5533 463.697 54.348 463.228 54.348C462.759 54.348 462.407 54.5533 462.172 54.964C461.943 55.3693 461.828 55.8947 461.828 56.54C461.817 57.18 461.929 57.7053 462.164 58.116C462.404 58.5213 462.759 58.7267 463.228 58.732Z" fill="black" fill-opacity="0.42"/>
<path d="M34 86L477 86.2007" stroke="black" stroke-opacity="0.08"/>
<path d="M34 86L128 86.2007" stroke="black"/>
<path d="M63.0703 125.667L476.999 125.867" stroke="url(#paint2_linear_1079_1396)"/>
<path d="M63.0703 183.863L476.999 184.064" stroke="url(#paint3_linear_1079_1396)"/>
<path d="M63.0703 242.06L476.999 242.26" stroke="url(#paint4_linear_1079_1396)"/>
<g opacity="0.92322">
<path d="M62.8711 311.695L87.8489 247.046C89.1262 243.74 92.5649 239.471 95.5229 237.519L124.939 218.104C127.897 216.152 132.678 216.185 135.609 218.178L165.124 238.248C168.055 240.241 172.585 239.947 175.234 237.592L216.205 201.173C218.854 198.819 222.303 199.475 223.902 202.638L255.836 265.828C257.435 268.991 261.503 272.338 264.915 273.297L296.098 282.063C299.509 283.022 303.73 281.315 305.517 278.255L320.715 252.221C322.502 249.16 326.826 246.832 330.365 247.026L361.489 248.732C365.028 248.926 368.221 246.224 368.616 242.701L378.424 155.126C378.819 151.604 382.012 148.585 385.551 148.388L416.074 146.692C419.612 146.496 424.665 144.457 427.349 142.143L469.043 106.201" stroke="url(#paint5_linear_1079_1396)" stroke-width="2" stroke-linecap="round" stroke-linejoin="round" stroke-dasharray="8 8"/>
</g>
<path d="M63.0703 302.664L476.999 302.865" stroke="url(#paint6_linear_1079_1396)"/>
<path d="M36.9865 128.281C36.4052 128.281 35.9252 128.118 35.5465 127.793L35.7625 127.417C36.1092 127.699 36.5119 127.841 36.9705 127.841C37.3119 127.841 37.6079 127.753 37.8585 127.577C38.1145 127.395 38.3065 127.155 38.4345 126.857C38.5679 126.558 38.6612 126.243 38.7145 125.913C38.7679 125.577 38.7892 125.225 38.7785 124.857H38.7545C38.6639 125.203 38.4612 125.494 38.1465 125.729C37.8372 125.958 37.4852 126.073 37.0905 126.073C36.5785 126.073 36.1412 125.891 35.7785 125.529C35.4265 125.166 35.2505 124.71 35.2505 124.161C35.2505 123.601 35.4319 123.131 35.7945 122.753C36.1572 122.374 36.6212 122.185 37.1865 122.185C37.8532 122.185 38.3625 122.451 38.7145 122.985C39.0665 123.513 39.2425 124.203 39.2425 125.057C39.2425 125.483 39.1972 125.886 39.1065 126.265C39.0212 126.638 38.8905 126.979 38.7145 127.289C38.5439 127.593 38.3092 127.835 38.0105 128.017C37.7119 128.193 37.3705 128.281 36.9865 128.281ZM37.1465 125.633C37.5412 125.633 37.8825 125.489 38.1705 125.201C38.4639 124.907 38.6105 124.555 38.6105 124.145C38.6105 123.745 38.4692 123.39 38.1865 123.081C37.9039 122.777 37.5572 122.625 37.1465 122.625C36.7519 122.625 36.4185 122.771 36.1465 123.065C35.8745 123.353 35.7385 123.715 35.7385 124.153C35.7385 124.579 35.8719 124.934 36.1385 125.217C36.4105 125.494 36.7465 125.633 37.1465 125.633ZM42.3434 128.297C41.9647 128.297 41.6234 128.206 41.3194 128.025C41.0207 127.843 40.7887 127.598 40.6234 127.289C40.3034 126.686 40.1434 126.003 40.1434 125.241C40.1434 124.473 40.3034 123.793 40.6234 123.201C40.7887 122.886 41.0207 122.638 41.3194 122.457C41.6234 122.275 41.9647 122.185 42.3434 122.185C42.7327 122.185 43.0741 122.275 43.3674 122.457C43.6661 122.638 43.8981 122.886 44.0634 123.201C44.3834 123.793 44.5434 124.473 44.5434 125.241C44.5434 126.003 44.3834 126.686 44.0634 127.289C43.8981 127.598 43.6661 127.843 43.3674 128.025C43.0741 128.206 42.7327 128.297 42.3434 128.297ZM41.0874 127.129C41.3861 127.603 41.8047 127.841 42.3434 127.841C42.8821 127.841 43.3007 127.603 43.5994 127.129C43.8981 126.654 44.0474 126.025 44.0474 125.241C44.0474 124.462 43.8981 123.835 43.5994 123.361C43.3007 122.881 42.8821 122.641 42.3434 122.641C41.8047 122.641 41.3861 122.881 41.0874 123.361C40.7941 123.83 40.6474 124.457 40.6474 125.241C40.6474 126.025 40.7941 126.654 41.0874 127.129ZM50.0641 128.201H49.4401L47.1441 125.433L46.2961 126.425V128.201H45.8081V122.289H46.2961V125.745L49.2481 122.289H49.8401L47.4721 125.081L50.0641 128.201Z" fill="#525252"/>
<path d="M37.4104 186.273C36.7438 186.273 36.2318 186.006 35.8744 185.473C35.5171 184.939 35.3384 184.254 35.3384 183.417C35.3384 183.001 35.3838 182.603 35.4744 182.225C35.5704 181.846 35.7091 181.505 35.8904 181.201C36.0771 180.891 36.3224 180.646 36.6264 180.465C36.9304 180.278 37.2744 180.185 37.6584 180.185C38.2184 180.185 38.6931 180.347 39.0824 180.673L38.8584 181.041C38.5171 180.763 38.1251 180.625 37.6824 180.625C37.3518 180.625 37.0558 180.715 36.7944 180.897C36.5331 181.078 36.3304 181.323 36.1864 181.633C35.9091 182.23 35.7864 182.883 35.8184 183.593H35.8424C35.9331 183.251 36.1331 182.963 36.4424 182.729C36.7518 182.499 37.1038 182.385 37.4984 182.385C38.0211 182.385 38.4584 182.566 38.8104 182.929C39.1624 183.291 39.3384 183.75 39.3384 184.305C39.3384 184.865 39.1571 185.334 38.7944 185.713C38.4371 186.086 37.9758 186.273 37.4104 186.273ZM37.4424 185.825C37.8371 185.825 38.1704 185.681 38.4424 185.393C38.7198 185.099 38.8584 184.737 38.8584 184.305C38.8584 183.883 38.7224 183.531 38.4504 183.249C38.1838 182.966 37.8504 182.825 37.4504 182.825C37.0504 182.825 36.7038 182.971 36.4104 183.265C36.1224 183.553 35.9784 183.902 35.9784 184.313C35.9784 184.713 36.1198 185.067 36.4024 185.377C36.6851 185.675 37.0318 185.825 37.4424 185.825ZM42.3431 186.297C41.9644 186.297 41.6231 186.206 41.3191 186.025C41.0204 185.843 40.7884 185.598 40.6231 185.289C40.3031 184.686 40.1431 184.003 40.1431 183.241C40.1431 182.473 40.3031 181.793 40.6231 181.201C40.7884 180.886 41.0204 180.638 41.3191 180.457C41.6231 180.275 41.9644 180.185 42.3431 180.185C42.7324 180.185 43.0738 180.275 43.3671 180.457C43.6658 180.638 43.8978 180.886 44.0631 181.201C44.3831 181.793 44.5431 182.473 44.5431 183.241C44.5431 184.003 44.3831 184.686 44.0631 185.289C43.8978 185.598 43.6658 185.843 43.3671 186.025C43.0738 186.206 42.7324 186.297 42.3431 186.297ZM41.0871 185.129C41.3858 185.603 41.8044 185.841 42.3431 185.841C42.8818 185.841 43.3004 185.603 43.5991 185.129C43.8978 184.654 44.0471 184.025 44.0471 183.241C44.0471 182.462 43.8978 181.835 43.5991 181.361C43.3004 180.881 42.8818 180.641 42.3431 180.641C41.8044 180.641 41.3858 180.881 41.0871 181.361C40.7938 181.83 40.6471 182.457 40.6471 183.241C40.6471 184.025 40.7938 184.654 41.0871 185.129ZM50.0638 186.201H49.4398L47.1438 183.433L46.2958 184.425V186.201H45.8078V180.289H46.2958V183.745L49.2478 180.289H49.8398L47.4718 183.081L50.0638 186.201Z" fill="#525252"/>
<path d="M39.5671 242.177H40.2311V242.625H39.5671V244.201H39.0791V242.625H36.2231L36.1431 242.321L39.2711 238.289H39.5671V242.177ZM39.0791 239.257L36.8071 242.177H39.0791V239.257ZM42.7791 240.409C43.3177 240.409 43.7657 240.585 44.1231 240.937C44.4804 241.289 44.6591 241.75 44.6591 242.321C44.6591 242.907 44.4671 243.385 44.0831 243.753C43.7044 244.115 43.2244 244.297 42.643 244.297C41.9977 244.297 41.4057 244.054 40.8671 243.569L41.1311 243.201C41.6057 243.627 42.1044 243.841 42.6271 243.841C43.0697 243.841 43.4377 243.699 43.7311 243.417C44.0191 243.139 44.1631 242.774 44.1631 242.321C44.1631 241.883 44.0297 241.531 43.7631 241.265C43.4964 240.998 43.1551 240.865 42.7391 240.865C42.2377 240.865 41.8191 241.073 41.4831 241.489L41.1311 241.313L41.4351 238.289H44.2591V238.729H41.8431L41.6191 240.801C41.9284 240.539 42.3151 240.409 42.7791 240.409ZM50.0638 244.201H49.4398L47.1438 241.433L46.2958 242.425V244.201H45.8078V238.289H46.2958V241.745L49.2478 238.289H49.8398L47.4718 241.081L50.0638 244.201Z" fill="#525252"/>
<path d="M37.3196 305.297C36.6956 305.297 36.1222 305.097 35.5996 304.697L35.8476 304.305C36.3222 304.662 36.8129 304.841 37.3196 304.841C37.7462 304.841 38.0876 304.729 38.3436 304.505C38.6049 304.275 38.7356 303.977 38.7356 303.609C38.7356 303.241 38.6102 302.947 38.3596 302.729C38.1089 302.51 37.7489 302.401 37.2796 302.401H36.6476V301.961H37.2316C37.6849 301.961 38.0289 301.843 38.2636 301.609C38.4982 301.374 38.6156 301.097 38.6156 300.777C38.6156 300.441 38.4982 300.169 38.2636 299.961C38.0342 299.747 37.7356 299.641 37.3676 299.641C36.8342 299.641 36.3729 299.835 35.9836 300.225L35.7116 299.889C35.9089 299.675 36.1569 299.505 36.4556 299.377C36.7596 299.249 37.0689 299.185 37.3836 299.185C37.9009 299.185 38.3169 299.334 38.6316 299.633C38.9516 299.931 39.1116 300.299 39.1116 300.737C39.1116 301.067 39.0182 301.361 38.8316 301.617C38.6502 301.867 38.4076 302.041 38.1036 302.137V302.169C38.4502 302.249 38.7249 302.419 38.9276 302.681C39.1302 302.942 39.2316 303.254 39.2316 303.617C39.2316 304.102 39.0529 304.505 38.6956 304.825C38.3382 305.139 37.8796 305.297 37.3196 305.297ZM42.3435 305.297C41.9648 305.297 41.6235 305.206 41.3195 305.025C41.0208 304.843 40.7888 304.598 40.6235 304.289C40.3035 303.686 40.1435 303.003 40.1435 302.241C40.1435 301.473 40.3035 300.793 40.6235 300.201C40.7888 299.886 41.0208 299.638 41.3195 299.457C41.6235 299.275 41.9648 299.185 42.3435 299.185C42.7328 299.185 43.0742 299.275 43.3675 299.457C43.6662 299.638 43.8982 299.886 44.0635 300.201C44.3835 300.793 44.5435 301.473 44.5435 302.241C44.5435 303.003 44.3835 303.686 44.0635 304.289C43.8982 304.598 43.6662 304.843 43.3675 305.025C43.0742 305.206 42.7328 305.297 42.3435 305.297ZM41.0875 304.129C41.3862 304.603 41.8048 304.841 42.3435 304.841C42.8822 304.841 43.3008 304.603 43.5995 304.129C43.8982 303.654 44.0475 303.025 44.0475 302.241C44.0475 301.462 43.8982 300.835 43.5995 300.361C43.3008 299.881 42.8822 299.641 42.3435 299.641C41.8048 299.641 41.3862 299.881 41.0875 300.361C40.7942 300.83 40.6475 301.457 40.6475 302.241C40.6475 303.025 40.7942 303.654 41.0875 304.129ZM50.0642 305.201H49.4402L47.1442 302.433L46.2962 303.425V305.201H45.8082V299.289H46.2962V302.745L49.2482 299.289H49.8402L47.4722 302.081L50.0642 305.201Z" fill="#525252"/>
<path d="M66 313.201L69.8056 313.187C73.6111 313.173 81.2222 313.144 88.8333 306.45C96.4444 299.756 104.056 286.395 111.667 274.551C119.278 262.707 126.889 252.38 134.5 247.513C142.111 242.646 149.722 243.24 157.333 251.008C164.944 258.776 172.556 273.718 180.167 277.547C187.778 281.375 195.389 274.091 203 261.234C210.611 248.376 218.222 229.947 225.833 228.511C233.444 227.076 241.056 242.635 248.667 244.355C256.278 246.075 263.889 233.955 271.5 226.402C279.111 218.849 286.722 215.863 294.333 206.909C301.944 197.954 309.556 183.032 317.167 175.369C324.778 167.706 332.389 167.303 340 164.832C347.611 162.361 355.222 157.822 362.833 165.052C370.444 172.281 378.056 191.279 385.667 196.574C393.278 201.869 400.889 193.462 408.5 189.599C416.111 185.735 423.722 186.415 431.333 184.675C438.944 182.934 446.556 178.774 454.167 168.459C461.778 158.143 469.389 141.672 473.194 133.436L477 125.201" stroke="#0784B5" stroke-width="2"/>
<g filter="url(#filter0_d_1079_1396)">
<path d="M318 181C321.314 181 324 178.314 324 175C324 171.686 321.314 169 318 169C314.686 169 312 171.686 312 175C312 178.314 314.686 181 318 181Z" fill="#0784B5"/>
</g>
<path d="M492 0.5H25C11.469 0.5 0.5 11.469 0.5 25V389C0.5 402.531 11.469 413.5 25 413.5H492C505.531 413.5 516.5 402.531 516.5 389V25C516.5 11.469 505.531 0.5 492 0.5Z" stroke="url(#paint7_linear_1079_1396)"/>
<defs>
<filter id="filter0_d_1079_1396" x="302" y="159" width="32" height="32" filterUnits="userSpaceOnUse" color-interpolation-filters="sRGB">
<feFlood flood-opacity="0" result="BackgroundImageFix"/>
<feColorMatrix in="SourceAlpha" type="matrix" values="0 0 0 0 0 0 0 0 0 0 0 0 0 0 0 0 0 0 127 0" result="hardAlpha"/>
<feOffset/>
<feGaussianBlur stdDeviation="5"/>
<feComposite in2="hardAlpha" operator="out"/>
<feColorMatrix type="matrix" values="0 0 0 0 1 0 0 0 0 1 0 0 0 0 1 0 0 0 0.2 0"/>
<feBlend mode="normal" in2="BackgroundImageFix" result="effect1_dropShadow_1079_1396"/>
<feBlend mode="normal" in="SourceGraphic" in2="effect1_dropShadow_1079_1396" result="shape"/>
</filter>
<radialGradient id="paint0_radial_1079_1396" cx="0" cy="0" r="1" gradientUnits="userSpaceOnUse" gradientTransform="translate(136.53 59.5033) scale(333.45 306.542)">
<stop stop-color="#F6F9FC"/>
<stop offset="0.5" stop-color="#FBFCFE"/>
<stop offset="1" stop-color="white"/>
</radialGradient>
<linearGradient id="paint1_linear_1079_1396" x1="143.217" y1="169.112" x2="59.7963" y2="-4.09716" gradientUnits="userSpaceOnUse">
<stop stop-opacity="0"/>
<stop offset="0.17" stop-opacity="0.05"/>
<stop offset="0.33" stop-opacity="0.1"/>
</linearGradient>
<linearGradient id="paint2_linear_1079_1396" x1="220.063" y1="149.146" x2="446.193" y2="149.146" gradientUnits="userSpaceOnUse">
<stop stop-opacity="0.08"/>
<stop offset="0.5" stop-opacity="0.04"/>
<stop offset="1" stop-opacity="0"/>
</linearGradient>
<linearGradient id="paint3_linear_1079_1396" x1="220.063" y1="207.341" x2="382.064" y2="207.341" gradientUnits="userSpaceOnUse">
<stop stop-opacity="0.07"/>
<stop offset="0.5" stop-opacity="0.035"/>
<stop offset="1" stop-opacity="0"/>
</linearGradient>
<linearGradient id="paint4_linear_1079_1396" x1="220.063" y1="265.539" x2="343.47" y2="265.539" gradientUnits="userSpaceOnUse">
<stop stop-opacity="0.06"/>
<stop offset="0.5" stop-opacity="0.03"/>
<stop offset="1" stop-opacity="0"/>
</linearGradient>
<linearGradient id="paint5_linear_1079_1396" x1="87.3096" y1="281.254" x2="453.136" y2="107.173" gradientUnits="userSpaceOnUse">
<stop offset="0.18" stop-opacity="0.1"/>
<stop offset="0.59" stop-opacity="0.2"/>
<stop offset="1" stop-opacity="0.3"/>
</linearGradient>
<linearGradient id="paint6_linear_1079_1396" x1="220.063" y1="326.142" x2="304.581" y2="326.142" gradientUnits="userSpaceOnUse">
<stop stop-opacity="0.05"/>
<stop offset="0.5" stop-opacity="0.025"/>
<stop offset="1" stop-opacity="0"/>
</linearGradient>
<linearGradient id="paint7_linear_1079_1396" x1="142.994" y1="169.02" x2="59.3457" y2="-4.57675" gradientUnits="userSpaceOnUse">
<stop stop-color="white" stop-opacity="0"/>
<stop offset="0.17" stop-color="white" stop-opacity="0.05"/>
<stop offset="0.33" stop-color="white" stop-opacity="0.1"/>
</linearGradient>
</defs>
</svg>
