<svg width="453" height="278" viewBox="0 0 453 278" fill="none" xmlns="http://www.w3.org/2000/svg">
<g clip-path="url(#clip0_1093_2368)">
<mask id="mask0_1093_2368" style="mask-type:luminance" maskUnits="userSpaceOnUse" x="0" y="0" width="453" height="278">
<path d="M433 0H20C8.9543 0 0 8.9543 0 20V258C0 269.046 8.9543 278 20 278H433C444.046 278 453 269.046 453 258V20C453 8.9543 444.046 0 433 0Z" fill="white"/>
</mask>
<g mask="url(#mask0_1093_2368)">
<path d="M433 0H20C8.9543 0 0 8.9543 0 20V258C0 269.046 8.9543 278 20 278H433C444.046 278 453 269.046 453 258V20C453 8.9543 444.046 0 433 0Z" fill="url(#paint0_radial_1093_2368)"/>
<path d="M25 56H428" stroke="black" stroke-opacity="0.08" stroke-width="0.9984"/>
<mask id="mask1_1093_2368" style="mask-type:luminance" maskUnits="userSpaceOnUse" x="25" y="71" width="30" height="30">
<path d="M55 71H25V101H55V71Z" fill="white"/>
</mask>
<g mask="url(#mask1_1093_2368)">
<path d="M55 86C55 77.7157 48.2843 71 40 71C31.7157 71 25 77.7157 25 86C25 94.2843 31.7157 101 40 101C48.2843 101 55 94.2843 55 86Z" fill="#0052FF"/>
<path d="M40.0039 91.2734C37.0904 91.2734 34.7305 88.9136 34.7305 86C34.7305 83.0864 37.0904 80.7266 40.0039 80.7266C42.6143 80.7266 44.7808 82.6294 45.1983 85.1211H50.5113C50.063 79.707 45.5322 75.4531 40.0039 75.4531C34.1812 75.4531 29.457 80.1772 29.457 86C29.457 91.8228 34.1812 96.5469 40.0039 96.5469C45.5322 96.5469 50.063 92.293 50.5113 86.8789H45.1939C44.7764 89.3706 42.6143 91.2734 40.0039 91.2734Z" fill="white"/>
</g>
<path d="M69.6859 81.6209C68.5126 81.6209 67.5226 81.2322 66.7159 80.4549C65.9092 79.6702 65.5059 78.6729 65.5059 77.4629C65.5059 76.2309 65.9166 75.2189 66.7379 74.4269C67.5592 73.6276 68.5529 73.2279 69.7189 73.2279C70.4596 73.2279 71.1416 73.3929 71.7649 73.7229C72.3882 74.0382 72.8759 74.4672 73.2279 75.0099L72.4139 75.6919C71.7246 74.7606 70.8336 74.2949 69.7409 74.2949C68.8756 74.2949 68.1422 74.5956 67.5409 75.1969C66.9396 75.7982 66.6389 76.5572 66.6389 77.4739C66.6389 78.3686 66.9322 79.1092 67.5189 79.6959C68.1056 80.2752 68.8426 80.5649 69.7299 80.5649C70.2726 80.5649 70.7786 80.4439 71.2479 80.2019C71.7172 79.9599 72.1206 79.6226 72.4579 79.1899L73.2499 79.8609C72.8612 80.4036 72.3516 80.8326 71.7209 81.1479C71.0976 81.4632 70.4192 81.6209 69.6859 81.6209ZM77.0822 81.6429C76.1802 81.6429 75.4359 81.3459 74.8492 80.7519C74.2699 80.1506 73.9802 79.4136 73.9802 78.5409C73.9802 77.6682 74.2699 76.9386 74.8492 76.3519C75.4285 75.7506 76.1729 75.4499 77.0822 75.4499C77.9769 75.4499 78.7139 75.7506 79.2932 76.3519C79.8799 76.9606 80.1732 77.6902 80.1732 78.5409C80.1732 79.4062 79.8799 80.1432 79.2932 80.7519C78.7065 81.3459 77.9695 81.6429 77.0822 81.6429ZM79.1172 78.5409C79.1172 77.9616 78.9192 77.4666 78.5232 77.0559C78.1272 76.6379 77.6469 76.4289 77.0822 76.4289C76.5175 76.4289 76.0372 76.6379 75.6412 77.0559C75.2452 77.4666 75.0472 77.9616 75.0472 78.5409C75.0472 79.1276 75.2452 79.6299 75.6412 80.0479C76.0372 80.4659 76.5175 80.6749 77.0822 80.6749C77.6469 80.6749 78.1272 80.4659 78.5232 80.0479C78.9192 79.6299 79.1172 79.1276 79.1172 78.5409ZM81.983 74.7679C81.763 74.7679 81.5797 74.6982 81.433 74.5589C81.2864 74.4122 81.213 74.2289 81.213 74.0089C81.213 73.7962 81.2864 73.6202 81.433 73.4809C81.5797 73.3416 81.763 73.2719 81.983 73.2719C82.1884 73.2719 82.3644 73.3452 82.511 73.4919C82.6577 73.6312 82.731 73.8036 82.731 74.0089C82.731 74.2289 82.6577 74.4122 82.511 74.5589C82.3644 74.6982 82.1884 74.7679 81.983 74.7679ZM82.489 75.6039V81.4999H81.433V75.6039H82.489ZM85.1853 81.4999H84.1293V75.6039H85.1633V76.4399C85.5373 75.7799 86.1607 75.4499 87.0333 75.4499C87.6933 75.4499 88.247 75.6626 88.6943 76.0879C89.1417 76.5132 89.3653 77.1256 89.3653 77.9249V81.4999H88.3203V78.2219C88.3203 77.6572 88.181 77.2172 87.9023 76.9019C87.631 76.5866 87.268 76.4289 86.8133 76.4289C86.3367 76.4289 85.9443 76.5976 85.6363 76.9349C85.3357 77.2796 85.1853 77.7122 85.1853 78.2329V81.4999ZM94.0641 75.4609C94.9001 75.4609 95.5968 75.7616 96.1541 76.3629C96.7188 76.9642 97.0011 77.6939 97.0011 78.5519C97.0011 79.4099 96.7188 80.1432 96.1541 80.7519C95.5895 81.3459 94.8891 81.6429 94.0531 81.6429C93.2025 81.6429 92.5131 81.3092 91.9851 80.6419V81.4999H90.9291V73.1729H91.9851V76.4949C92.5205 75.8056 93.2135 75.4609 94.0641 75.4609ZM93.9321 80.6529C94.5335 80.6529 95.0138 80.4512 95.3731 80.0479C95.7471 79.6446 95.9341 79.1422 95.9341 78.5409C95.9341 77.9616 95.7471 77.4666 95.3731 77.0559C95.0138 76.6526 94.5335 76.4509 93.9321 76.4509C93.3235 76.4509 92.8395 76.6526 92.4801 77.0559C92.1208 77.4592 91.9411 77.9542 91.9411 78.5409C91.9411 79.1422 92.1208 79.6446 92.4801 80.0479C92.8395 80.4512 93.3235 80.6529 93.9321 80.6529ZM102.941 76.4619V75.6039H103.953V81.4999H102.941V80.6639C102.413 81.3166 101.72 81.6429 100.862 81.6429C100.011 81.6429 99.3071 81.3422 98.7498 80.7409C98.1925 80.1396 97.9138 79.3952 97.9138 78.5079C97.9138 77.6206 98.1925 76.8946 98.7498 76.3299C99.3071 75.7506 100.011 75.4609 100.862 75.4609C101.698 75.4609 102.391 75.7946 102.941 76.4619ZM103.007 78.5409C103.007 77.9469 102.82 77.4482 102.446 77.0449C102.072 76.6342 101.584 76.4289 100.983 76.4289C100.382 76.4289 99.8975 76.6342 99.5308 77.0449C99.1641 77.4556 98.9808 77.9579 98.9808 78.5519C98.9808 79.1459 99.1641 79.6482 99.5308 80.0589C99.8975 80.4696 100.382 80.6749 100.983 80.6749C101.584 80.6749 102.072 80.4696 102.446 80.0589C102.82 79.6556 103.007 79.1496 103.007 78.5409ZM107.242 81.6319C106.788 81.6319 106.362 81.5219 105.966 81.3019C105.578 81.0819 105.273 80.7666 105.053 80.3559L105.812 79.7729C105.974 80.0736 106.186 80.3046 106.45 80.4659C106.722 80.6272 106.997 80.7079 107.275 80.7079C107.583 80.7079 107.833 80.6309 108.023 80.4769C108.221 80.3156 108.32 80.1212 108.32 79.8939C108.32 79.5786 108.141 79.3292 107.781 79.1459C107.686 79.0946 107.44 78.9846 107.044 78.8159C106.678 78.6619 106.436 78.5519 106.318 78.4859C105.717 78.1559 105.416 77.6792 105.416 77.0559C105.416 76.5792 105.592 76.1869 105.944 75.8789C106.289 75.5636 106.755 75.4059 107.341 75.4059C107.723 75.4059 108.082 75.4866 108.419 75.6479C108.757 75.8092 109.021 76.0402 109.211 76.3409L108.54 76.9789C108.218 76.5242 107.796 76.2969 107.275 76.2969C107.019 76.2969 106.813 76.3666 106.659 76.5059C106.505 76.6379 106.428 76.8066 106.428 77.0119C106.428 77.3199 106.593 77.5509 106.923 77.7049L107.572 77.9909C107.924 78.1302 108.188 78.2512 108.364 78.3539C109.032 78.6912 109.365 79.1862 109.365 79.8389C109.365 80.3449 109.167 80.7702 108.771 81.1149C108.368 81.4596 107.858 81.6319 107.242 81.6319ZM116.065 78.4419C116.065 78.5152 116.054 78.6949 116.032 78.9809H111.335C111.431 79.5016 111.651 79.9122 111.995 80.2129C112.34 80.5136 112.809 80.6639 113.403 80.6639C113.755 80.6639 114.118 80.6052 114.492 80.4879C114.866 80.3632 115.189 80.2019 115.46 80.0039L115.911 80.8069C115.603 81.0416 115.222 81.2396 114.767 81.4009C114.313 81.5549 113.851 81.6319 113.381 81.6319C112.846 81.6319 112.369 81.5439 111.951 81.3679C111.541 81.1919 111.214 80.9536 110.972 80.6529C110.73 80.3522 110.547 80.0222 110.422 79.6629C110.298 79.3036 110.235 78.9259 110.235 78.5299C110.235 77.6499 110.51 76.9166 111.06 76.3299C111.618 75.7506 112.336 75.4609 113.216 75.4609C114.052 75.4609 114.734 75.7286 115.262 76.2639C115.798 76.7992 116.065 77.5252 116.065 78.4419ZM111.335 78.0679H114.976C114.947 77.5619 114.767 77.1586 114.437 76.8579C114.115 76.5499 113.708 76.3959 113.216 76.3959C112.74 76.3959 112.329 76.5536 111.984 76.8689C111.64 77.1769 111.423 77.5766 111.335 78.0679Z" fill="black"/>
<path opacity="0.4" d="M66.0229 95.4999V87.3709H67.1229V95.4999H66.0229ZM75.7596 89.4499C76.471 89.4499 77.043 89.6809 77.4756 90.1429C77.901 90.5902 78.1136 91.2062 78.1136 91.9909V95.4999H77.0576V92.1559C77.0576 91.6059 76.9293 91.1806 76.6726 90.8799C76.4233 90.5792 76.0786 90.4289 75.6386 90.4289C75.1766 90.4289 74.799 90.5902 74.5056 90.9129C74.2123 91.2356 74.0656 91.6572 74.0656 92.1779V95.4999H73.0206V92.1779C73.0206 91.6279 72.8923 91.1989 72.6356 90.8909C72.379 90.5829 72.0306 90.4289 71.5906 90.4289C71.1286 90.4289 70.7473 90.5939 70.4466 90.9239C70.1533 91.2466 70.0066 91.6719 70.0066 92.1999V95.4999H68.9506V89.6039H69.9846V90.4729C70.1606 90.1429 70.4026 89.8899 70.7106 89.7139C71.026 89.5306 71.378 89.4426 71.7666 89.4499C72.17 89.4499 72.5403 89.5489 72.8776 89.7469C73.215 89.9376 73.4606 90.2052 73.6146 90.5499C73.8126 90.2126 74.1024 89.9449 74.4837 89.7469C74.8724 89.5489 75.2976 89.4499 75.7596 89.4499ZM82.8176 89.4609C83.6609 89.4609 84.3612 89.7616 84.9186 90.3629C85.4832 90.9716 85.7656 91.7012 85.7656 92.5519C85.7656 93.4099 85.4832 94.1432 84.9186 94.7519C84.3612 95.3459 83.6572 95.6429 82.8066 95.6429C81.9486 95.6429 81.2519 95.3092 80.7166 94.6419V97.9309H79.6606V89.6039H80.7166V90.4949C81.2666 89.8056 81.9669 89.4609 82.8176 89.4609ZM84.7096 92.5409C84.7096 91.9469 84.5226 91.4482 84.1486 91.0449C83.7746 90.6342 83.2869 90.4289 82.6856 90.4289C82.0842 90.4289 81.5966 90.6342 81.2226 91.0449C80.8559 91.4556 80.6726 91.9542 80.6726 92.5409C80.6726 93.1422 80.8559 93.6482 81.2226 94.0589C81.5966 94.4696 82.0842 94.6749 82.6856 94.6749C83.2869 94.6749 83.7746 94.4696 84.1486 94.0589C84.5226 93.6556 84.7096 93.1496 84.7096 92.5409ZM89.7687 95.6429C88.8667 95.6429 88.1224 95.3459 87.5357 94.7519C86.9564 94.1506 86.6667 93.4136 86.6667 92.5409C86.6667 91.6682 86.9564 90.9386 87.5357 90.3519C88.1151 89.7506 88.8594 89.4499 89.7687 89.4499C90.6634 89.4499 91.4004 89.7506 91.9797 90.3519C92.5664 90.9606 92.8597 91.6902 92.8597 92.5409C92.8597 93.4062 92.5664 94.1432 91.9797 94.7519C91.3931 95.3459 90.6561 95.6429 89.7687 95.6429ZM91.8037 92.5409C91.8037 91.9616 91.6057 91.4666 91.2097 91.0559C90.8137 90.6379 90.3334 90.4289 89.7687 90.4289C89.2041 90.4289 88.7237 90.6379 88.3277 91.0559C87.9317 91.4666 87.7337 91.9616 87.7337 92.5409C87.7337 93.1276 87.9317 93.6299 88.3277 94.0479C88.7237 94.4659 89.2041 94.6749 89.7687 94.6749C90.3334 94.6749 90.8137 94.4659 91.2097 94.0479C91.6057 93.6299 91.8037 93.1276 91.8037 92.5409ZM95.1756 95.4999H94.1196V89.6039H95.1206V90.4729C95.4652 89.7909 96.0299 89.4499 96.8146 89.4499C97.0272 89.4499 97.2582 89.4792 97.5076 89.5379L97.4086 90.5609C97.1959 90.4949 96.9906 90.4619 96.7926 90.4619C96.3086 90.4619 95.9162 90.6269 95.6156 90.9569C95.3222 91.2869 95.1756 91.7599 95.1756 92.3759V95.4999ZM102.021 94.3339L102.417 95.1479C101.992 95.4779 101.467 95.6429 100.844 95.6429C100.228 95.6429 99.7585 95.4522 99.4358 95.0709C99.1205 94.6896 98.9628 94.1432 98.9628 93.4319V90.5059H97.9178V89.6039H98.9738V87.5139H100.008V89.6039H102.098V90.5059H100.008V93.5089C100.008 94.2862 100.327 94.6749 100.965 94.6749C101.31 94.6749 101.662 94.5612 102.021 94.3339ZM110.632 90.4619V87.1729H111.688V95.4999H110.632V94.6749C110.119 95.3202 109.437 95.6429 108.586 95.6429C107.728 95.6429 107.017 95.3459 106.452 94.7519C105.895 94.1506 105.616 93.4136 105.616 92.5409C105.616 91.6756 105.895 90.9496 106.452 90.3629C107.009 89.7616 107.713 89.4609 108.564 89.4609C109.407 89.4609 110.097 89.7946 110.632 90.4619ZM110.709 92.5409C110.709 91.9469 110.522 91.4482 110.148 91.0449C109.781 90.6342 109.297 90.4289 108.696 90.4289C108.095 90.4289 107.607 90.6342 107.233 91.0449C106.866 91.4556 106.683 91.9542 106.683 92.5409C106.683 93.1422 106.866 93.6482 107.233 94.0589C107.607 94.4696 108.095 94.6749 108.696 94.6749C109.297 94.6749 109.781 94.4696 110.148 94.0589C110.522 93.6556 110.709 93.1496 110.709 92.5409ZM117.98 90.4619V89.6039H118.992V95.4999H117.98V94.6639C117.452 95.3166 116.759 95.6429 115.901 95.6429C115.05 95.6429 114.346 95.3422 113.789 94.7409C113.232 94.1396 112.953 93.3952 112.953 92.5079C112.953 91.6206 113.232 90.8946 113.789 90.3299C114.346 89.7506 115.05 89.4609 115.901 89.4609C116.737 89.4609 117.43 89.7946 117.98 90.4619ZM118.046 92.5409C118.046 91.9469 117.859 91.4482 117.485 91.0449C117.111 90.6342 116.623 90.4289 116.022 90.4289C115.421 90.4289 114.937 90.6342 114.57 91.0449C114.203 91.4556 114.02 91.9579 114.02 92.5519C114.02 93.1459 114.203 93.6482 114.57 94.0589C114.937 94.4696 115.421 94.6749 116.022 94.6749C116.623 94.6749 117.111 94.4696 117.485 94.0589C117.859 93.6556 118.046 93.1496 118.046 92.5409ZM124.085 94.3339L124.481 95.1479C124.056 95.4779 123.532 95.6429 122.908 95.6429C122.292 95.6429 121.823 95.4522 121.5 95.0709C121.185 94.6896 121.027 94.1432 121.027 93.4319V90.5059H119.982V89.6039H121.038V87.5139H122.072V89.6039H124.162V90.5059H122.072V93.5089C122.072 94.2862 122.391 94.6749 123.029 94.6749C123.374 94.6749 123.726 94.5612 124.085 94.3339ZM129.904 90.4619V89.6039H130.916V95.4999H129.904V94.6639C129.376 95.3166 128.683 95.6429 127.825 95.6429C126.974 95.6429 126.27 95.3422 125.713 94.7409C125.155 94.1396 124.877 93.3952 124.877 92.5079C124.877 91.6206 125.155 90.8946 125.713 90.3299C126.27 89.7506 126.974 89.4609 127.825 89.4609C128.661 89.4609 129.354 89.7946 129.904 90.4619ZM129.97 92.5409C129.97 91.9469 129.783 91.4482 129.409 91.0449C129.035 90.6342 128.547 90.4289 127.946 90.4289C127.344 90.4289 126.86 90.6342 126.494 91.0449C126.127 91.4556 125.944 91.9579 125.944 92.5519C125.944 93.1459 126.127 93.6482 126.494 94.0589C126.86 94.4696 127.344 94.6749 127.946 94.6749C128.547 94.6749 129.035 94.4696 129.409 94.0589C129.783 93.6556 129.97 93.1496 129.97 92.5409Z" fill="black"/>
<path d="M413.254 85.4199H421.383C421.703 85.4199 421.963 85.6798 421.963 86C421.963 86.3202 421.703 86.5801 421.383 86.5801H413.254C412.934 86.5801 412.674 86.3202 412.674 86C412.674 85.6798 412.934 85.4199 413.254 85.4199Z" fill="#A7ABB4"/>
<path d="M416.737 90.0612V81.9404C416.737 81.6202 416.997 81.3604 417.318 81.3604C417.638 81.3604 417.898 81.6202 417.898 81.9404V90.0612C417.898 90.3814 417.638 90.6413 417.318 90.6413C416.997 90.6413 416.737 90.3814 416.737 90.0612Z" fill="#A7ABB4"/>
<path d="M417.317 75.3271C423.217 75.3271 428 80.106 428 86.0003C428 91.8947 423.217 96.6734 417.317 96.6734C411.417 96.6734 406.634 91.8947 406.634 86.0003C406.634 80.106 411.417 75.3271 417.317 75.3271Z" stroke="black" stroke-opacity="0.08" stroke-width="0.9984"/>
<path d="M55 133C55 124.716 48.2843 118 40 118C31.7157 118 25 124.716 25 133C25 141.284 31.7157 148 40 148C48.2843 148 55 141.284 55 133Z" fill="white"/>
<path d="M47.2835 125.5L40.9697 130.189L42.1373 127.423L47.2835 125.5Z" fill="#E2761B" stroke="#E2761B" stroke-linecap="round" stroke-linejoin="round"/>
<path d="M32.7112 125.5L38.9742 130.234L37.8637 127.423L32.7112 125.5ZM45.0151 136.37L43.3335 138.946L46.9314 139.936L47.9657 136.427L45.0151 136.37ZM32.0449 136.427L33.0729 139.936L36.6708 138.946L34.9892 136.37L32.0449 136.427Z" fill="#E4761B" stroke="#E4761B" stroke-linecap="round" stroke-linejoin="round"/>
<path d="M36.4645 132.019L35.4619 133.535L39.0344 133.694L38.9075 129.855L36.4645 132.019ZM43.527 132.019L41.0523 129.811L40.9698 133.694L44.5359 133.535L43.527 132.019ZM36.6676 138.948L38.8123 137.901L36.9594 136.454L36.6676 138.948ZM41.1792 137.901L43.3303 138.948L43.0321 136.454L41.1792 137.901Z" fill="#E4761B" stroke="#E4761B" stroke-linecap="round" stroke-linejoin="round"/>
<path d="M43.3317 138.947L41.1806 137.9L41.3519 139.302L41.3329 139.892L43.3317 138.947ZM36.6689 138.947L38.6678 139.892L38.6551 139.302L38.8137 137.9L36.6689 138.947Z" fill="#D7C1B3" stroke="#D7C1B3" stroke-linecap="round" stroke-linejoin="round"/>
<path d="M38.7006 135.526L36.9111 135L38.1739 134.422L38.7006 135.526ZM41.2959 135.526L41.8225 134.422L43.0916 135L41.2959 135.526Z" fill="#233447" stroke="#233447" stroke-linecap="round" stroke-linejoin="round"/>
<path d="M36.6669 138.945L36.9715 136.369L34.9854 136.426L36.6669 138.945ZM43.0251 136.369L43.3296 138.945L45.0112 136.426L43.0251 136.369ZM44.5353 133.532L40.9691 133.691L41.299 135.525L41.8258 134.421L43.0948 134.998L44.5353 133.532ZM36.908 134.998L38.1771 134.421L38.6973 135.525L39.0337 133.691L35.4613 133.532L36.908 134.998Z" fill="#CD6116" stroke="#CD6116" stroke-linecap="round" stroke-linejoin="round"/>
<path d="M35.4619 133.532L36.9594 136.451L36.9087 134.998L35.4619 133.532ZM43.0955 134.998L43.0321 136.451L44.5359 133.532L43.0955 134.998ZM39.0344 133.691L38.6981 135.525L39.1169 137.689L39.2121 134.839L39.0344 133.691ZM40.9698 133.691L40.7985 134.833L40.8746 137.689L41.2997 135.525L40.9698 133.691Z" fill="#E4751F" stroke="#E4751F" stroke-linecap="round" stroke-linejoin="round"/>
<path d="M41.3022 135.527L40.8771 137.69L41.1816 137.9L43.0345 136.453L43.098 135L41.3022 135.527ZM36.9111 135L36.9619 136.453L38.8148 137.9L39.1194 137.69L38.7006 135.527L36.9111 135Z" fill="#F6851B" stroke="#F6851B" stroke-linecap="round" stroke-linejoin="round"/>
<path d="M41.3329 139.891L41.3519 139.301L41.1933 139.161H38.801L38.6551 139.301L38.6678 139.891L36.6689 138.945L37.3669 139.516L38.782 140.5H41.2123L42.6337 139.516L43.3317 138.945L41.3329 139.891Z" fill="#C0AD9E" stroke="#C0AD9E" stroke-linecap="round" stroke-linejoin="round"/>
<path d="M41.1798 137.899L40.8752 137.689H39.1175L38.8129 137.899L38.6543 139.301L38.8002 139.162H41.1925L41.3511 139.301L41.1798 137.899Z" fill="#161616" stroke="#161616" stroke-linecap="round" stroke-linejoin="round"/>
<path d="M47.5508 130.494L48.0901 127.905L47.2842 125.5L41.1799 130.031L43.5277 132.017L46.8464 132.988L47.5825 132.131L47.2652 131.903L47.7728 131.439L47.3794 131.135L47.8871 130.748L47.5508 130.494ZM31.9092 127.905L32.4485 130.494L32.1059 130.748L32.6135 131.135L32.2265 131.439L32.7341 131.903L32.4168 132.131L33.1465 132.988L36.4652 132.017L38.813 130.031L32.7087 125.5L31.9092 127.905Z" fill="#763D16" stroke="#763D16" stroke-linecap="round" stroke-linejoin="round"/>
<path d="M46.8489 132.988L43.5302 132.017L44.5391 133.534L43.0353 136.452L45.0151 136.427H47.9657L46.8489 132.988ZM36.4677 132.017L33.149 132.988L32.0449 136.427H34.9892L36.9627 136.452L35.4651 133.534L36.4677 132.017ZM40.973 133.692L41.1824 130.031L42.1469 127.423H37.8637L38.8155 130.031L39.0376 133.692L39.1138 134.847L39.1201 137.69H40.8778L40.8905 134.847L40.973 133.692Z" fill="#F6851B" stroke="#F6851B" stroke-linecap="round" stroke-linejoin="round"/>
<path d="M67.1119 128.5H66.0229V120.371H66.5509L70.0599 125.53L73.5469 120.371H74.0859V128.5H72.9859V123.011L70.1919 127.114H69.9059L67.1119 123.011V128.5ZM81.3466 125.442C81.3466 125.515 81.3356 125.695 81.3136 125.981H76.6166C76.7119 126.502 76.9319 126.912 77.2766 127.213C77.6213 127.514 78.0906 127.664 78.6846 127.664C79.0366 127.664 79.3996 127.605 79.7736 127.488C80.1476 127.363 80.4703 127.202 80.7416 127.004L81.1926 127.807C80.8846 128.042 80.5033 128.24 80.0486 128.401C79.5939 128.555 79.1319 128.632 78.6626 128.632C78.1273 128.632 77.6506 128.544 77.2326 128.368C76.8219 128.192 76.4956 127.954 76.2536 127.653C76.0116 127.352 75.8283 127.022 75.7036 126.663C75.5789 126.304 75.5166 125.926 75.5166 125.53C75.5166 124.65 75.7916 123.917 76.3416 123.33C76.8989 122.751 77.6177 122.461 78.4977 122.461C79.3337 122.461 80.0156 122.729 80.5436 123.264C81.0789 123.799 81.3466 124.525 81.3466 125.442ZM76.6166 125.068H80.2576C80.2283 124.562 80.0486 124.159 79.7186 123.858C79.3959 123.55 78.989 123.396 78.4977 123.396C78.021 123.396 77.6103 123.554 77.2656 123.869C76.9209 124.177 76.7046 124.577 76.6166 125.068ZM85.9505 127.334L86.3465 128.148C85.9212 128.478 85.3969 128.643 84.7735 128.643C84.1575 128.643 83.6882 128.452 83.3655 128.071C83.0502 127.69 82.8925 127.143 82.8925 126.432V123.506H81.8475V122.604H82.9035V120.514H83.9375V122.604H86.0275V123.506H83.9375V126.509C83.9375 127.286 84.2565 127.675 84.8945 127.675C85.2392 127.675 85.5912 127.561 85.9505 127.334ZM91.7689 123.462V122.604H92.7809V128.5H91.7689V127.664C91.2409 128.317 90.5479 128.643 89.6899 128.643C88.8392 128.643 88.1352 128.342 87.5779 127.741C87.0206 127.14 86.7419 126.395 86.7419 125.508C86.7419 124.621 87.0206 123.895 87.5779 123.33C88.1352 122.751 88.8392 122.461 89.6899 122.461C90.5259 122.461 91.2189 122.795 91.7689 123.462ZM91.8349 125.541C91.8349 124.947 91.6479 124.448 91.2739 124.045C90.8999 123.634 90.4122 123.429 89.8109 123.429C89.2096 123.429 88.7256 123.634 88.3589 124.045C87.9922 124.456 87.8089 124.958 87.8089 125.552C87.8089 126.146 87.9922 126.648 88.3589 127.059C88.7256 127.47 89.2096 127.675 89.8109 127.675C90.4122 127.675 90.8999 127.47 91.2739 127.059C91.6479 126.656 91.8349 126.15 91.8349 125.541ZM95.7183 128.5H94.6293V120.371H95.1573L98.6663 125.53L102.153 120.371H102.692V128.5H101.592V123.011L98.7983 127.114H98.5123L95.7183 123.011V128.5ZM109.139 123.462V122.604H110.151V128.5H109.139V127.664C108.611 128.317 107.918 128.643 107.06 128.643C106.209 128.643 105.505 128.342 104.948 127.741C104.391 127.14 104.112 126.395 104.112 125.508C104.112 124.621 104.391 123.895 104.948 123.33C105.505 122.751 106.209 122.461 107.06 122.461C107.896 122.461 108.589 122.795 109.139 123.462ZM109.205 125.541C109.205 124.947 109.018 124.448 108.644 124.045C108.27 123.634 107.782 123.429 107.181 123.429C106.58 123.429 106.096 123.634 105.729 124.045C105.362 124.456 105.179 124.958 105.179 125.552C105.179 126.146 105.362 126.648 105.729 127.059C106.096 127.47 106.58 127.675 107.181 127.675C107.782 127.675 108.27 127.47 108.644 127.059C109.018 126.656 109.205 126.15 109.205 125.541ZM113.441 128.632C112.986 128.632 112.561 128.522 112.165 128.302C111.776 128.082 111.472 127.767 111.252 127.356L112.011 126.773C112.172 127.074 112.385 127.305 112.649 127.466C112.92 127.627 113.195 127.708 113.474 127.708C113.782 127.708 114.031 127.631 114.222 127.477C114.42 127.316 114.519 127.121 114.519 126.894C114.519 126.579 114.339 126.329 113.98 126.146C113.884 126.095 113.639 125.985 113.243 125.816C112.876 125.662 112.634 125.552 112.517 125.486C111.915 125.156 111.615 124.679 111.615 124.056C111.615 123.579 111.791 123.187 112.143 122.879C112.487 122.564 112.953 122.406 113.54 122.406C113.921 122.406 114.28 122.487 114.618 122.648C114.955 122.809 115.219 123.04 115.41 123.341L114.739 123.979C114.416 123.524 113.994 123.297 113.474 123.297C113.217 123.297 113.012 123.367 112.858 123.506C112.704 123.638 112.627 123.807 112.627 124.012C112.627 124.32 112.792 124.551 113.122 124.705L113.771 124.991C114.123 125.13 114.387 125.251 114.563 125.354C115.23 125.691 115.564 126.186 115.564 126.839C115.564 127.345 115.366 127.77 114.97 128.115C114.566 128.46 114.057 128.632 113.441 128.632ZM122.011 128.5H120.625L118.403 125.75L117.842 126.256V128.5H116.786V120.173H117.842V124.991L120.482 122.604H121.912L119.151 125.079L122.011 128.5Z" fill="black"/>
<path opacity="0.4" d="M66.0229 142.5V134.371H67.1229V142.5H66.0229ZM75.7596 136.45C76.471 136.45 77.043 136.681 77.4756 137.143C77.901 137.59 78.1136 138.206 78.1136 138.991V142.5H77.0576V139.156C77.0576 138.606 76.9293 138.181 76.6726 137.88C76.4233 137.579 76.0786 137.429 75.6386 137.429C75.1766 137.429 74.799 137.59 74.5056 137.913C74.2123 138.236 74.0656 138.657 74.0656 139.178V142.5H73.0206V139.178C73.0206 138.628 72.8923 138.199 72.6356 137.891C72.379 137.583 72.0306 137.429 71.5906 137.429C71.1286 137.429 70.7473 137.594 70.4466 137.924C70.1533 138.247 70.0066 138.672 70.0066 139.2V142.5H68.9506V136.604H69.9846V137.473C70.1606 137.143 70.4026 136.89 70.7106 136.714C71.026 136.531 71.378 136.443 71.7666 136.45C72.17 136.45 72.5403 136.549 72.8776 136.747C73.215 136.938 73.4606 137.205 73.6146 137.55C73.8126 137.213 74.1024 136.945 74.4837 136.747C74.8724 136.549 75.2976 136.45 75.7596 136.45ZM82.8176 136.461C83.6609 136.461 84.3612 136.762 84.9186 137.363C85.4832 137.972 85.7656 138.701 85.7656 139.552C85.7656 140.41 85.4832 141.143 84.9186 141.752C84.3612 142.346 83.6572 142.643 82.8066 142.643C81.9486 142.643 81.2519 142.309 80.7166 141.642V144.931H79.6606V136.604H80.7166V137.495C81.2666 136.806 81.9669 136.461 82.8176 136.461ZM84.7096 139.541C84.7096 138.947 84.5226 138.448 84.1486 138.045C83.7746 137.634 83.2869 137.429 82.6856 137.429C82.0842 137.429 81.5966 137.634 81.2226 138.045C80.8559 138.456 80.6726 138.954 80.6726 139.541C80.6726 140.142 80.8559 140.648 81.2226 141.059C81.5966 141.47 82.0842 141.675 82.6856 141.675C83.2869 141.675 83.7746 141.47 84.1486 141.059C84.5226 140.656 84.7096 140.15 84.7096 139.541ZM89.7687 142.643C88.8667 142.643 88.1224 142.346 87.5357 141.752C86.9564 141.151 86.6667 140.414 86.6667 139.541C86.6667 138.668 86.9564 137.939 87.5357 137.352C88.1151 136.751 88.8594 136.45 89.7687 136.45C90.6634 136.45 91.4004 136.751 91.9797 137.352C92.5664 137.961 92.8597 138.69 92.8597 139.541C92.8597 140.406 92.5664 141.143 91.9797 141.752C91.3931 142.346 90.6561 142.643 89.7687 142.643ZM91.8037 139.541C91.8037 138.962 91.6057 138.467 91.2097 138.056C90.8137 137.638 90.3334 137.429 89.7687 137.429C89.2041 137.429 88.7237 137.638 88.3277 138.056C87.9317 138.467 87.7337 138.962 87.7337 139.541C87.7337 140.128 87.9317 140.63 88.3277 141.048C88.7237 141.466 89.2041 141.675 89.7687 141.675C90.3334 141.675 90.8137 141.466 91.2097 141.048C91.6057 140.63 91.8037 140.128 91.8037 139.541ZM95.1756 142.5H94.1196V136.604H95.1206V137.473C95.4652 136.791 96.0299 136.45 96.8146 136.45C97.0272 136.45 97.2582 136.479 97.5076 136.538L97.4086 137.561C97.1959 137.495 96.9906 137.462 96.7926 137.462C96.3086 137.462 95.9162 137.627 95.6156 137.957C95.3222 138.287 95.1756 138.76 95.1756 139.376V142.5ZM102.021 141.334L102.417 142.148C101.992 142.478 101.467 142.643 100.844 142.643C100.228 142.643 99.7585 142.452 99.4358 142.071C99.1205 141.69 98.9628 141.143 98.9628 140.432V137.506H97.9178V136.604H98.9738V134.514H100.008V136.604H102.098V137.506H100.008V140.509C100.008 141.286 100.327 141.675 100.965 141.675C101.31 141.675 101.662 141.561 102.021 141.334ZM110.632 137.462V134.173H111.688V142.5H110.632V141.675C110.119 142.32 109.437 142.643 108.586 142.643C107.728 142.643 107.017 142.346 106.452 141.752C105.895 141.151 105.616 140.414 105.616 139.541C105.616 138.676 105.895 137.95 106.452 137.363C107.009 136.762 107.713 136.461 108.564 136.461C109.407 136.461 110.097 136.795 110.632 137.462ZM110.709 139.541C110.709 138.947 110.522 138.448 110.148 138.045C109.781 137.634 109.297 137.429 108.696 137.429C108.095 137.429 107.607 137.634 107.233 138.045C106.866 138.456 106.683 138.954 106.683 139.541C106.683 140.142 106.866 140.648 107.233 141.059C107.607 141.47 108.095 141.675 108.696 141.675C109.297 141.675 109.781 141.47 110.148 141.059C110.522 140.656 110.709 140.15 110.709 139.541ZM117.98 137.462V136.604H118.992V142.5H117.98V141.664C117.452 142.317 116.759 142.643 115.901 142.643C115.05 142.643 114.346 142.342 113.789 141.741C113.232 141.14 112.953 140.395 112.953 139.508C112.953 138.621 113.232 137.895 113.789 137.33C114.346 136.751 115.05 136.461 115.901 136.461C116.737 136.461 117.43 136.795 117.98 137.462ZM118.046 139.541C118.046 138.947 117.859 138.448 117.485 138.045C117.111 137.634 116.623 137.429 116.022 137.429C115.421 137.429 114.937 137.634 114.57 138.045C114.203 138.456 114.02 138.958 114.02 139.552C114.02 140.146 114.203 140.648 114.57 141.059C114.937 141.47 115.421 141.675 116.022 141.675C116.623 141.675 117.111 141.47 117.485 141.059C117.859 140.656 118.046 140.15 118.046 139.541ZM124.085 141.334L124.481 142.148C124.056 142.478 123.532 142.643 122.908 142.643C122.292 142.643 121.823 142.452 121.5 142.071C121.185 141.69 121.027 141.143 121.027 140.432V137.506H119.982V136.604H121.038V134.514H122.072V136.604H124.162V137.506H122.072V140.509C122.072 141.286 122.391 141.675 123.029 141.675C123.374 141.675 123.726 141.561 124.085 141.334ZM129.904 137.462V136.604H130.916V142.5H129.904V141.664C129.376 142.317 128.683 142.643 127.825 142.643C126.974 142.643 126.27 142.342 125.713 141.741C125.155 141.14 124.877 140.395 124.877 139.508C124.877 138.621 125.155 137.895 125.713 137.33C126.27 136.751 126.974 136.461 127.825 136.461C128.661 136.461 129.354 136.795 129.904 137.462ZM129.97 139.541C129.97 138.947 129.783 138.448 129.409 138.045C129.035 137.634 128.547 137.429 127.946 137.429C127.344 137.429 126.86 137.634 126.494 138.045C126.127 138.456 125.944 138.958 125.944 139.552C125.944 140.146 126.127 140.648 126.494 141.059C126.86 141.47 127.344 141.675 127.946 141.675C128.547 141.675 129.035 141.47 129.409 141.059C129.783 140.656 129.97 140.15 129.97 139.541Z" fill="black"/>
<path d="M413.254 132.42H421.383C421.703 132.42 421.963 132.68 421.963 133C421.963 133.32 421.703 133.58 421.383 133.58H413.254C412.934 133.58 412.674 133.32 412.674 133C412.674 132.68 412.934 132.42 413.254 132.42Z" fill="#A7ABB4"/>
<path d="M416.737 137.061V128.94C416.737 128.62 416.997 128.36 417.318 128.36C417.638 128.36 417.898 128.62 417.898 128.94V137.061C417.898 137.381 417.638 137.641 417.318 137.641C416.997 137.641 416.737 137.381 416.737 137.061Z" fill="#A7ABB4"/>
<path d="M417.317 122.327C423.217 122.327 428 127.105 428 133C428 138.894 423.217 143.673 417.317 143.673C411.417 143.673 406.634 138.894 406.634 133C406.634 127.105 411.417 122.327 417.317 122.327Z" stroke="black" stroke-opacity="0.08" stroke-width="0.9984"/>
<path d="M55 180C55 171.716 48.2843 165 40 165C31.7157 165 25 171.716 25 180C25 188.284 31.7157 195 40 195C48.2843 195 55 188.284 55 180Z" fill="#03316C"/>
<path d="M40.0541 188.187C44.4139 188.187 47.9481 184.653 47.9481 180.294C47.9481 175.934 44.4139 172.4 40.0541 172.4C35.6944 172.4 32.1602 175.934 32.1602 180.294C32.1602 184.653 35.6944 188.187 40.0541 188.187Z" fill="white"/>
<path d="M32.7947 180.767L35.3085 178.895L37.5306 180.308V182.848L39.2117 184.46L39.2109 185.216L37.591 186.727H36.2222L32.7947 180.767ZM40.7379 185.218L40.7346 184.457L42.41 182.849V180.308L44.6081 178.878L47.1174 180.767L43.7073 186.709H42.3564L40.7379 185.218ZM38.355 180.308L37.5373 178.177H42.4002L41.5988 180.308L41.8354 182.69L39.9588 182.694L38.1046 182.697L38.355 180.308ZM39.9586 177.593L35.3373 177.591L36.1964 173.771H43.6988L44.6041 177.596L39.9586 177.593ZM39.9586 169.005L30.4736 174.501V185.5L39.9586 190.994L39.9696 191L49.5271 185.5V174.501L39.9704 169L39.9586 169.005Z" fill="#03316C" stroke="white" stroke-width="0.363012" stroke-miterlimit="10"/>
<path d="M69.6859 175.621C68.5126 175.621 67.5226 175.232 66.7159 174.455C65.9092 173.67 65.5059 172.673 65.5059 171.463C65.5059 170.231 65.9166 169.219 66.7379 168.427C67.5592 167.628 68.5529 167.228 69.7189 167.228C70.4596 167.228 71.1416 167.393 71.7649 167.723C72.3882 168.038 72.8759 168.467 73.2279 169.01L72.4139 169.692C71.7246 168.761 70.8336 168.295 69.7409 168.295C68.8756 168.295 68.1422 168.596 67.5409 169.197C66.9396 169.798 66.6389 170.557 66.6389 171.474C66.6389 172.369 66.9322 173.109 67.5189 173.696C68.1056 174.275 68.8426 174.565 69.7299 174.565C70.2726 174.565 70.7786 174.444 71.2479 174.202C71.7172 173.96 72.1206 173.623 72.4579 173.19L73.2499 173.861C72.8612 174.404 72.3516 174.833 71.7209 175.148C71.0976 175.463 70.4192 175.621 69.6859 175.621ZM75.4099 175.5H74.3539V169.604H75.3549V170.473C75.6996 169.791 76.2643 169.45 77.0489 169.45C77.2616 169.45 77.4926 169.479 77.7419 169.538L77.6429 170.561C77.4303 170.495 77.2249 170.462 77.0269 170.462C76.5429 170.462 76.1506 170.627 75.8499 170.957C75.5566 171.287 75.4099 171.76 75.4099 172.376V175.5ZM81.2202 174.026L82.8042 169.604H83.9702L81.4952 176.16C81.2532 176.813 80.9672 177.282 80.6372 177.568C80.3145 177.861 79.9185 178.008 79.4492 178.008C79.0752 178.008 78.7598 177.931 78.5032 177.777L78.6352 176.853C78.8992 176.97 79.1375 177.029 79.3502 177.029C79.8342 177.029 80.2228 176.684 80.5162 175.995L80.7362 175.478L78.1732 169.604H79.3942L81.2202 174.026ZM88.1027 169.461C88.9461 169.461 89.6464 169.762 90.2037 170.363C90.7684 170.972 91.0507 171.701 91.0507 172.552C91.0507 173.41 90.7684 174.143 90.2037 174.752C89.6464 175.346 88.9424 175.643 88.0917 175.643C87.2337 175.643 86.5371 175.309 86.0017 174.642V177.931H84.9457V169.604H86.0017V170.495C86.5517 169.806 87.2521 169.461 88.1027 169.461ZM89.9947 172.541C89.9947 171.947 89.8077 171.448 89.4337 171.045C89.0597 170.634 88.5721 170.429 87.9707 170.429C87.3694 170.429 86.8817 170.634 86.5077 171.045C86.1411 171.456 85.9577 171.954 85.9577 172.541C85.9577 173.142 86.1411 173.648 86.5077 174.059C86.8817 174.47 87.3694 174.675 87.9707 174.675C88.5721 174.675 89.0597 174.47 89.4337 174.059C89.8077 173.656 89.9947 173.15 89.9947 172.541ZM95.6722 174.334L96.0682 175.148C95.6429 175.478 95.1185 175.643 94.4952 175.643C93.8792 175.643 93.4099 175.452 93.0872 175.071C92.7719 174.69 92.6142 174.143 92.6142 173.432V170.506H91.5692V169.604H92.6252V167.514H93.6592V169.604H95.7492V170.506H93.6592V173.509C93.6592 174.286 93.9782 174.675 94.6162 174.675C94.9609 174.675 95.3129 174.561 95.6722 174.334ZM99.5656 175.643C98.6636 175.643 97.9193 175.346 97.3326 174.752C96.7533 174.151 96.4636 173.414 96.4636 172.541C96.4636 171.668 96.7533 170.939 97.3326 170.352C97.9119 169.751 98.6563 169.45 99.5656 169.45C100.46 169.45 101.197 169.751 101.777 170.352C102.363 170.961 102.657 171.69 102.657 172.541C102.657 173.406 102.363 174.143 101.777 174.752C101.19 175.346 100.453 175.643 99.5656 175.643ZM101.601 172.541C101.601 171.962 101.403 171.467 101.007 171.056C100.611 170.638 100.13 170.429 99.5656 170.429C99.0009 170.429 98.5206 170.638 98.1246 171.056C97.7286 171.467 97.5306 171.962 97.5306 172.541C97.5306 173.128 97.7286 173.63 98.1246 174.048C98.5206 174.466 99.0009 174.675 99.5656 174.675C100.13 174.675 100.611 174.466 101.007 174.048C101.403 173.63 101.601 173.128 101.601 172.541ZM103.438 174.961C103.438 174.77 103.504 174.609 103.636 174.477C103.776 174.345 103.944 174.279 104.142 174.279C104.34 174.279 104.505 174.345 104.637 174.477C104.777 174.609 104.846 174.77 104.846 174.961C104.846 175.166 104.777 175.339 104.637 175.478C104.505 175.61 104.34 175.676 104.142 175.676C103.944 175.676 103.776 175.61 103.636 175.478C103.504 175.339 103.438 175.166 103.438 174.961ZM108.751 175.632C107.834 175.632 107.086 175.342 106.507 174.763C105.927 174.184 105.638 173.447 105.638 172.552C105.638 171.657 105.931 170.917 106.518 170.33C107.104 169.751 107.867 169.461 108.806 169.461C109.385 169.461 109.917 169.6 110.401 169.879C110.892 170.158 111.251 170.532 111.479 171.001L110.61 171.507C110.412 171.17 110.151 170.906 109.829 170.715C109.513 170.524 109.172 170.429 108.806 170.429C108.204 170.429 107.702 170.631 107.299 171.034C106.903 171.445 106.705 171.951 106.705 172.552C106.705 173.146 106.899 173.648 107.288 174.059C107.669 174.462 108.157 174.664 108.751 174.664C109.117 174.664 109.469 174.565 109.807 174.367C110.151 174.169 110.408 173.916 110.577 173.608L111.457 174.114C111.207 174.576 110.841 174.943 110.357 175.214C109.858 175.493 109.323 175.632 108.751 175.632ZM115.324 175.643C114.422 175.643 113.678 175.346 113.091 174.752C112.512 174.151 112.222 173.414 112.222 172.541C112.222 171.668 112.512 170.939 113.091 170.352C113.671 169.751 114.415 169.45 115.324 169.45C116.219 169.45 116.956 169.751 117.535 170.352C118.122 170.961 118.415 171.69 118.415 172.541C118.415 173.406 118.122 174.143 117.535 174.752C116.949 175.346 116.212 175.643 115.324 175.643ZM117.359 172.541C117.359 171.962 117.161 171.467 116.765 171.056C116.369 170.638 115.889 170.429 115.324 170.429C114.76 170.429 114.279 170.638 113.883 171.056C113.487 171.467 113.289 171.962 113.289 172.541C113.289 173.128 113.487 173.63 113.883 174.048C114.279 174.466 114.76 174.675 115.324 174.675C115.889 174.675 116.369 174.466 116.765 174.048C117.161 173.63 117.359 173.128 117.359 172.541ZM126.484 169.45C127.196 169.45 127.768 169.681 128.2 170.143C128.626 170.59 128.838 171.206 128.838 171.991V175.5H127.782V172.156C127.782 171.606 127.654 171.181 127.397 170.88C127.148 170.579 126.803 170.429 126.363 170.429C125.901 170.429 125.524 170.59 125.23 170.913C124.937 171.236 124.79 171.657 124.79 172.178V175.5H123.745V172.178C123.745 171.628 123.617 171.199 123.36 170.891C123.104 170.583 122.755 170.429 122.315 170.429C121.853 170.429 121.472 170.594 121.171 170.924C120.878 171.247 120.731 171.672 120.731 172.2V175.5H119.675V169.604H120.709V170.473C120.885 170.143 121.127 169.89 121.435 169.714C121.751 169.531 122.103 169.443 122.491 169.45C122.895 169.45 123.265 169.549 123.602 169.747C123.94 169.938 124.185 170.205 124.339 170.55C124.537 170.213 124.827 169.945 125.208 169.747C125.597 169.549 126.022 169.45 126.484 169.45Z" fill="black"/>
<path opacity="0.4" d="M66.0229 189.5V181.371H67.1229V189.5H66.0229ZM75.7596 183.45C76.471 183.45 77.043 183.681 77.4756 184.143C77.901 184.59 78.1136 185.206 78.1136 185.991V189.5H77.0576V186.156C77.0576 185.606 76.9293 185.181 76.6726 184.88C76.4233 184.579 76.0786 184.429 75.6386 184.429C75.1766 184.429 74.799 184.59 74.5056 184.913C74.2123 185.236 74.0656 185.657 74.0656 186.178V189.5H73.0206V186.178C73.0206 185.628 72.8923 185.199 72.6356 184.891C72.379 184.583 72.0306 184.429 71.5906 184.429C71.1286 184.429 70.7473 184.594 70.4466 184.924C70.1533 185.247 70.0066 185.672 70.0066 186.2V189.5H68.9506V183.604H69.9846V184.473C70.1606 184.143 70.4026 183.89 70.7106 183.714C71.026 183.531 71.378 183.443 71.7666 183.45C72.17 183.45 72.5403 183.549 72.8776 183.747C73.215 183.938 73.4606 184.205 73.6146 184.55C73.8126 184.213 74.1024 183.945 74.4837 183.747C74.8724 183.549 75.2976 183.45 75.7596 183.45ZM82.8176 183.461C83.6609 183.461 84.3612 183.762 84.9186 184.363C85.4832 184.972 85.7656 185.701 85.7656 186.552C85.7656 187.41 85.4832 188.143 84.9186 188.752C84.3612 189.346 83.6572 189.643 82.8066 189.643C81.9486 189.643 81.2519 189.309 80.7166 188.642V191.931H79.6606V183.604H80.7166V184.495C81.2666 183.806 81.9669 183.461 82.8176 183.461ZM84.7096 186.541C84.7096 185.947 84.5226 185.448 84.1486 185.045C83.7746 184.634 83.2869 184.429 82.6856 184.429C82.0842 184.429 81.5966 184.634 81.2226 185.045C80.8559 185.456 80.6726 185.954 80.6726 186.541C80.6726 187.142 80.8559 187.648 81.2226 188.059C81.5966 188.47 82.0842 188.675 82.6856 188.675C83.2869 188.675 83.7746 188.47 84.1486 188.059C84.5226 187.656 84.7096 187.15 84.7096 186.541ZM89.7687 189.643C88.8667 189.643 88.1224 189.346 87.5357 188.752C86.9564 188.151 86.6667 187.414 86.6667 186.541C86.6667 185.668 86.9564 184.939 87.5357 184.352C88.1151 183.751 88.8594 183.45 89.7687 183.45C90.6634 183.45 91.4004 183.751 91.9797 184.352C92.5664 184.961 92.8597 185.69 92.8597 186.541C92.8597 187.406 92.5664 188.143 91.9797 188.752C91.3931 189.346 90.6561 189.643 89.7687 189.643ZM91.8037 186.541C91.8037 185.962 91.6057 185.467 91.2097 185.056C90.8137 184.638 90.3334 184.429 89.7687 184.429C89.2041 184.429 88.7237 184.638 88.3277 185.056C87.9317 185.467 87.7337 185.962 87.7337 186.541C87.7337 187.128 87.9317 187.63 88.3277 188.048C88.7237 188.466 89.2041 188.675 89.7687 188.675C90.3334 188.675 90.8137 188.466 91.2097 188.048C91.6057 187.63 91.8037 187.128 91.8037 186.541ZM95.1756 189.5H94.1196V183.604H95.1206V184.473C95.4652 183.791 96.0299 183.45 96.8146 183.45C97.0272 183.45 97.2582 183.479 97.5076 183.538L97.4086 184.561C97.1959 184.495 96.9906 184.462 96.7926 184.462C96.3086 184.462 95.9162 184.627 95.6156 184.957C95.3222 185.287 95.1756 185.76 95.1756 186.376V189.5ZM102.021 188.334L102.417 189.148C101.992 189.478 101.467 189.643 100.844 189.643C100.228 189.643 99.7585 189.452 99.4358 189.071C99.1205 188.69 98.9628 188.143 98.9628 187.432V184.506H97.9178V183.604H98.9738V181.514H100.008V183.604H102.098V184.506H100.008V187.509C100.008 188.286 100.327 188.675 100.965 188.675C101.31 188.675 101.662 188.561 102.021 188.334ZM110.632 184.462V181.173H111.688V189.5H110.632V188.675C110.119 189.32 109.437 189.643 108.586 189.643C107.728 189.643 107.017 189.346 106.452 188.752C105.895 188.151 105.616 187.414 105.616 186.541C105.616 185.676 105.895 184.95 106.452 184.363C107.009 183.762 107.713 183.461 108.564 183.461C109.407 183.461 110.097 183.795 110.632 184.462ZM110.709 186.541C110.709 185.947 110.522 185.448 110.148 185.045C109.781 184.634 109.297 184.429 108.696 184.429C108.095 184.429 107.607 184.634 107.233 185.045C106.866 185.456 106.683 185.954 106.683 186.541C106.683 187.142 106.866 187.648 107.233 188.059C107.607 188.47 108.095 188.675 108.696 188.675C109.297 188.675 109.781 188.47 110.148 188.059C110.522 187.656 110.709 187.15 110.709 186.541ZM117.98 184.462V183.604H118.992V189.5H117.98V188.664C117.452 189.317 116.759 189.643 115.901 189.643C115.05 189.643 114.346 189.342 113.789 188.741C113.232 188.14 112.953 187.395 112.953 186.508C112.953 185.621 113.232 184.895 113.789 184.33C114.346 183.751 115.05 183.461 115.901 183.461C116.737 183.461 117.43 183.795 117.98 184.462ZM118.046 186.541C118.046 185.947 117.859 185.448 117.485 185.045C117.111 184.634 116.623 184.429 116.022 184.429C115.421 184.429 114.937 184.634 114.57 185.045C114.203 185.456 114.02 185.958 114.02 186.552C114.02 187.146 114.203 187.648 114.57 188.059C114.937 188.47 115.421 188.675 116.022 188.675C116.623 188.675 117.111 188.47 117.485 188.059C117.859 187.656 118.046 187.15 118.046 186.541ZM124.085 188.334L124.481 189.148C124.056 189.478 123.532 189.643 122.908 189.643C122.292 189.643 121.823 189.452 121.5 189.071C121.185 188.69 121.027 188.143 121.027 187.432V184.506H119.982V183.604H121.038V181.514H122.072V183.604H124.162V184.506H122.072V187.509C122.072 188.286 122.391 188.675 123.029 188.675C123.374 188.675 123.726 188.561 124.085 188.334ZM129.904 184.462V183.604H130.916V189.5H129.904V188.664C129.376 189.317 128.683 189.643 127.825 189.643C126.974 189.643 126.27 189.342 125.713 188.741C125.155 188.14 124.877 187.395 124.877 186.508C124.877 185.621 125.155 184.895 125.713 184.33C126.27 183.751 126.974 183.461 127.825 183.461C128.661 183.461 129.354 183.795 129.904 184.462ZM129.97 186.541C129.97 185.947 129.783 185.448 129.409 185.045C129.035 184.634 128.547 184.429 127.946 184.429C127.344 184.429 126.86 184.634 126.494 185.045C126.127 185.456 125.944 185.958 125.944 186.552C125.944 187.146 126.127 187.648 126.494 188.059C126.86 188.47 127.344 188.675 127.946 188.675C128.547 188.675 129.035 188.47 129.409 188.059C129.783 187.656 129.97 187.15 129.97 186.541Z" fill="black"/>
<path d="M413.254 179.42H421.383C421.703 179.42 421.963 179.68 421.963 180C421.963 180.32 421.703 180.58 421.383 180.58H413.254C412.934 180.58 412.674 180.32 412.674 180C412.674 179.68 412.934 179.42 413.254 179.42Z" fill="#A7ABB4"/>
<path d="M416.737 184.061V175.94C416.737 175.62 416.997 175.36 417.318 175.36C417.638 175.36 417.898 175.62 417.898 175.94V184.061C417.898 184.381 417.638 184.641 417.318 184.641C416.997 184.641 416.737 184.381 416.737 184.061Z" fill="#A7ABB4"/>
<path d="M417.317 169.327C423.217 169.327 428 174.105 428 180C428 185.894 423.217 190.673 417.317 190.673C411.417 190.673 406.634 185.894 406.634 180C406.634 174.105 411.417 169.327 417.317 169.327Z" stroke="black" stroke-opacity="0.08" stroke-width="0.9984"/>
<mask id="mask2_1093_2368" style="mask-type:luminance" maskUnits="userSpaceOnUse" x="25" y="212" width="30" height="30">
<path d="M55 212H25V242H55V212Z" fill="white"/>
</mask>
<g mask="url(#mask2_1093_2368)">
<path d="M40 242C48.2843 242 55 235.284 55 227C55 218.716 48.2843 212 40 212C31.7157 212 25 218.716 25 227C25 235.284 31.7157 242 40 242Z" fill="#F3BA2F"/>
<path d="M36.8623 225.711L40 222.573L43.1377 225.714L44.9629 223.889L40 218.923L35.0371 223.886L36.8623 225.711Z" fill="white"/>
<path d="M31.9229 226.999L33.7479 225.173L35.573 226.998L33.748 228.824L31.9229 226.999Z" fill="white"/>
<path d="M36.8623 228.289L40 231.427L43.1377 228.286L44.9658 230.111H44.9629L40 235.077L35.0371 230.114L35.0342 230.111L36.8623 228.289Z" fill="white"/>
<path d="M44.4258 227.001L46.2508 225.176L48.0759 227.001L46.2509 228.827L44.4258 227.001Z" fill="white"/>
<path d="M41.8516 227L40 225.146L38.6318 226.517L38.4736 226.672L38.1484 226.997L38.1455 227L38.1484 227.003L40 228.854L41.8516 227Z" fill="white"/>
</g>
<path d="M70.3679 218.056C70.8519 218.188 71.2259 218.448 71.4899 218.837C71.7612 219.218 71.8969 219.662 71.8969 220.168C71.8969 220.806 71.6732 221.352 71.2259 221.807C70.7859 222.269 70.1699 222.5 69.3779 222.5H66.0229V214.371H69.2349C69.9389 214.371 70.4852 214.576 70.8739 214.987C71.2699 215.39 71.4679 215.863 71.4679 216.406C71.4679 216.78 71.3689 217.117 71.1709 217.418C70.9729 217.719 70.7052 217.931 70.3679 218.056ZM69.0919 215.394H67.1119V217.66H69.0589C69.4476 217.66 69.7592 217.546 69.9939 217.319C70.2286 217.084 70.3459 216.802 70.3459 216.472C70.3459 216.171 70.2286 215.918 69.9939 215.713C69.7666 215.5 69.4659 215.394 69.0919 215.394ZM67.1119 221.466H69.202C69.686 221.466 70.0636 221.33 70.3349 221.059C70.6209 220.788 70.7639 220.465 70.7639 220.091C70.7639 219.688 70.6172 219.35 70.3239 219.079C70.0379 218.8 69.6492 218.661 69.1579 218.661H67.1119V221.466ZM73.7545 215.768C73.5345 215.768 73.3512 215.698 73.2045 215.559C73.0579 215.412 72.9845 215.229 72.9845 215.009C72.9845 214.796 73.0579 214.62 73.2045 214.481C73.3512 214.342 73.5345 214.272 73.7545 214.272C73.9599 214.272 74.1359 214.345 74.2825 214.492C74.4292 214.631 74.5025 214.804 74.5025 215.009C74.5025 215.229 74.4292 215.412 74.2825 215.559C74.1359 215.698 73.9599 215.768 73.7545 215.768ZM74.2605 216.604V222.5H73.2045V216.604H74.2605ZM76.9568 222.5H75.9008V216.604H76.9348V217.44C77.3088 216.78 77.9321 216.45 78.8048 216.45C79.4648 216.45 80.0185 216.663 80.4658 217.088C80.9131 217.513 81.1368 218.126 81.1368 218.925V222.5H80.0919V219.222C80.0919 218.657 79.9525 218.217 79.6738 217.902C79.4025 217.587 79.0395 217.429 78.5848 217.429C78.1081 217.429 77.7158 217.598 77.4078 217.935C77.1071 218.28 76.9568 218.712 76.9568 219.233V222.5ZM87.3646 217.462V216.604H88.3766V222.5H87.3646V221.664C86.8366 222.317 86.1436 222.643 85.2856 222.643C84.435 222.643 83.731 222.342 83.1736 221.741C82.6163 221.14 82.3376 220.395 82.3376 219.508C82.3376 218.621 82.6163 217.895 83.1736 217.33C83.731 216.751 84.435 216.461 85.2856 216.461C86.1216 216.461 86.8146 216.795 87.3646 217.462ZM87.4306 219.541C87.4306 218.947 87.2436 218.448 86.8696 218.045C86.4956 217.634 86.008 217.429 85.4066 217.429C84.8053 217.429 84.3213 217.634 83.9546 218.045C83.588 218.456 83.4046 218.958 83.4046 219.552C83.4046 220.146 83.588 220.648 83.9546 221.059C84.3213 221.47 84.8053 221.675 85.4066 221.675C86.008 221.675 86.4956 221.47 86.8696 221.059C87.2436 220.656 87.4306 220.15 87.4306 219.541ZM91.072 222.5H90.016V216.604H91.05V217.44C91.424 216.78 92.0474 216.45 92.92 216.45C93.58 216.45 94.1337 216.663 94.581 217.088C95.0284 217.513 95.252 218.126 95.252 218.925V222.5H94.207V219.222C94.207 218.657 94.0677 218.217 93.789 217.902C93.5177 217.587 93.1548 217.429 92.7001 217.429C92.2235 217.429 91.831 217.598 91.523 217.935C91.2224 218.28 91.072 218.712 91.072 219.233V222.5ZM99.5659 222.632C98.6492 222.632 97.9012 222.342 97.3219 221.763C96.7425 221.184 96.4529 220.447 96.4529 219.552C96.4529 218.657 96.7462 217.917 97.3329 217.33C97.9195 216.751 98.6822 216.461 99.6209 216.461C100.2 216.461 100.732 216.6 101.216 216.879C101.707 217.158 102.067 217.532 102.294 218.001L101.425 218.507C101.227 218.17 100.967 217.906 100.644 217.715C100.329 217.524 99.9875 217.429 99.6209 217.429C99.0195 217.429 98.5172 217.631 98.1139 218.034C97.7179 218.445 97.5199 218.951 97.5199 219.552C97.5199 220.146 97.7142 220.648 98.1029 221.059C98.4842 221.462 98.9719 221.664 99.5659 221.664C99.9325 221.664 100.285 221.565 100.622 221.367C100.967 221.169 101.223 220.916 101.392 220.608L102.272 221.114C102.023 221.576 101.656 221.943 101.172 222.214C100.673 222.493 100.138 222.632 99.5659 222.632ZM108.879 219.442C108.879 219.515 108.868 219.695 108.846 219.981H104.149C104.244 220.502 104.464 220.912 104.809 221.213C105.154 221.514 105.623 221.664 106.217 221.664C106.569 221.664 106.932 221.605 107.306 221.488C107.68 221.363 108.003 221.202 108.274 221.004L108.725 221.807C108.417 222.042 108.036 222.24 107.581 222.401C107.126 222.555 106.664 222.632 106.195 222.632C105.66 222.632 105.183 222.544 104.765 222.368C104.354 222.192 104.028 221.954 103.786 221.653C103.544 221.352 103.361 221.022 103.236 220.663C103.111 220.304 103.049 219.926 103.049 219.53C103.049 218.65 103.324 217.917 103.874 217.33C104.431 216.751 105.15 216.461 106.03 216.461C106.866 216.461 107.548 216.729 108.076 217.264C108.611 217.799 108.879 218.525 108.879 219.442ZM104.149 219.068H107.79C107.761 218.562 107.581 218.159 107.251 217.858C106.928 217.55 106.521 217.396 106.03 217.396C105.553 217.396 105.143 217.554 104.798 217.869C104.453 218.177 104.237 218.577 104.149 219.068Z" fill="black"/>
<path opacity="0.4" d="M66.0229 236.5V228.371H67.1229V236.5H66.0229ZM75.7596 230.45C76.471 230.45 77.043 230.681 77.4756 231.143C77.901 231.59 78.1136 232.206 78.1136 232.991V236.5H77.0576V233.156C77.0576 232.606 76.9293 232.181 76.6726 231.88C76.4233 231.579 76.0786 231.429 75.6386 231.429C75.1766 231.429 74.799 231.59 74.5056 231.913C74.2123 232.236 74.0656 232.657 74.0656 233.178V236.5H73.0206V233.178C73.0206 232.628 72.8923 232.199 72.6356 231.891C72.379 231.583 72.0306 231.429 71.5906 231.429C71.1286 231.429 70.7473 231.594 70.4466 231.924C70.1533 232.247 70.0066 232.672 70.0066 233.2V236.5H68.9506V230.604H69.9846V231.473C70.1606 231.143 70.4026 230.89 70.7106 230.714C71.026 230.531 71.378 230.443 71.7666 230.45C72.17 230.45 72.5403 230.549 72.8776 230.747C73.215 230.938 73.4606 231.205 73.6146 231.55C73.8126 231.213 74.1024 230.945 74.4837 230.747C74.8724 230.549 75.2976 230.45 75.7596 230.45ZM82.8176 230.461C83.6609 230.461 84.3612 230.762 84.9186 231.363C85.4832 231.972 85.7656 232.701 85.7656 233.552C85.7656 234.41 85.4832 235.143 84.9186 235.752C84.3612 236.346 83.6572 236.643 82.8066 236.643C81.9486 236.643 81.2519 236.309 80.7166 235.642V238.931H79.6606V230.604H80.7166V231.495C81.2666 230.806 81.9669 230.461 82.8176 230.461ZM84.7096 233.541C84.7096 232.947 84.5226 232.448 84.1486 232.045C83.7746 231.634 83.2869 231.429 82.6856 231.429C82.0842 231.429 81.5966 231.634 81.2226 232.045C80.8559 232.456 80.6726 232.954 80.6726 233.541C80.6726 234.142 80.8559 234.648 81.2226 235.059C81.5966 235.47 82.0842 235.675 82.6856 235.675C83.2869 235.675 83.7746 235.47 84.1486 235.059C84.5226 234.656 84.7096 234.15 84.7096 233.541ZM89.7687 236.643C88.8667 236.643 88.1224 236.346 87.5357 235.752C86.9564 235.151 86.6667 234.414 86.6667 233.541C86.6667 232.668 86.9564 231.939 87.5357 231.352C88.1151 230.751 88.8594 230.45 89.7687 230.45C90.6634 230.45 91.4004 230.751 91.9797 231.352C92.5664 231.961 92.8597 232.69 92.8597 233.541C92.8597 234.406 92.5664 235.143 91.9797 235.752C91.3931 236.346 90.6561 236.643 89.7687 236.643ZM91.8037 233.541C91.8037 232.962 91.6057 232.467 91.2097 232.056C90.8137 231.638 90.3334 231.429 89.7687 231.429C89.2041 231.429 88.7237 231.638 88.3277 232.056C87.9317 232.467 87.7337 232.962 87.7337 233.541C87.7337 234.128 87.9317 234.63 88.3277 235.048C88.7237 235.466 89.2041 235.675 89.7687 235.675C90.3334 235.675 90.8137 235.466 91.2097 235.048C91.6057 234.63 91.8037 234.128 91.8037 233.541ZM95.1756 236.5H94.1196V230.604H95.1206V231.473C95.4652 230.791 96.0299 230.45 96.8146 230.45C97.0272 230.45 97.2582 230.479 97.5076 230.538L97.4086 231.561C97.1959 231.495 96.9906 231.462 96.7926 231.462C96.3086 231.462 95.9162 231.627 95.6156 231.957C95.3222 232.287 95.1756 232.76 95.1756 233.376V236.5ZM102.021 235.334L102.417 236.148C101.992 236.478 101.467 236.643 100.844 236.643C100.228 236.643 99.7585 236.452 99.4358 236.071C99.1205 235.69 98.9628 235.143 98.9628 234.432V231.506H97.9178V230.604H98.9738V228.514H100.008V230.604H102.098V231.506H100.008V234.509C100.008 235.286 100.327 235.675 100.965 235.675C101.31 235.675 101.662 235.561 102.021 235.334ZM110.632 231.462V228.173H111.688V236.5H110.632V235.675C110.119 236.32 109.437 236.643 108.586 236.643C107.728 236.643 107.017 236.346 106.452 235.752C105.895 235.151 105.616 234.414 105.616 233.541C105.616 232.676 105.895 231.95 106.452 231.363C107.009 230.762 107.713 230.461 108.564 230.461C109.407 230.461 110.097 230.795 110.632 231.462ZM110.709 233.541C110.709 232.947 110.522 232.448 110.148 232.045C109.781 231.634 109.297 231.429 108.696 231.429C108.095 231.429 107.607 231.634 107.233 232.045C106.866 232.456 106.683 232.954 106.683 233.541C106.683 234.142 106.866 234.648 107.233 235.059C107.607 235.47 108.095 235.675 108.696 235.675C109.297 235.675 109.781 235.47 110.148 235.059C110.522 234.656 110.709 234.15 110.709 233.541ZM117.98 231.462V230.604H118.992V236.5H117.98V235.664C117.452 236.317 116.759 236.643 115.901 236.643C115.05 236.643 114.346 236.342 113.789 235.741C113.232 235.14 112.953 234.395 112.953 233.508C112.953 232.621 113.232 231.895 113.789 231.33C114.346 230.751 115.05 230.461 115.901 230.461C116.737 230.461 117.43 230.795 117.98 231.462ZM118.046 233.541C118.046 232.947 117.859 232.448 117.485 232.045C117.111 231.634 116.623 231.429 116.022 231.429C115.421 231.429 114.937 231.634 114.57 232.045C114.203 232.456 114.02 232.958 114.02 233.552C114.02 234.146 114.203 234.648 114.57 235.059C114.937 235.47 115.421 235.675 116.022 235.675C116.623 235.675 117.111 235.47 117.485 235.059C117.859 234.656 118.046 234.15 118.046 233.541ZM124.085 235.334L124.481 236.148C124.056 236.478 123.532 236.643 122.908 236.643C122.292 236.643 121.823 236.452 121.5 236.071C121.185 235.69 121.027 235.143 121.027 234.432V231.506H119.982V230.604H121.038V228.514H122.072V230.604H124.162V231.506H122.072V234.509C122.072 235.286 122.391 235.675 123.029 235.675C123.374 235.675 123.726 235.561 124.085 235.334ZM129.904 231.462V230.604H130.916V236.5H129.904V235.664C129.376 236.317 128.683 236.643 127.825 236.643C126.974 236.643 126.27 236.342 125.713 235.741C125.155 235.14 124.877 234.395 124.877 233.508C124.877 232.621 125.155 231.895 125.713 231.33C126.27 230.751 126.974 230.461 127.825 230.461C128.661 230.461 129.354 230.795 129.904 231.462ZM129.97 233.541C129.97 232.947 129.783 232.448 129.409 232.045C129.035 231.634 128.547 231.429 127.946 231.429C127.344 231.429 126.86 231.634 126.494 232.045C126.127 232.456 125.944 232.958 125.944 233.552C125.944 234.146 126.127 234.648 126.494 235.059C126.86 235.47 127.344 235.675 127.946 235.675C128.547 235.675 129.035 235.47 129.409 235.059C129.783 234.656 129.97 234.15 129.97 233.541Z" fill="black"/>
<path d="M413.254 226.42H421.383C421.703 226.42 421.963 226.68 421.963 227C421.963 227.32 421.703 227.58 421.383 227.58H413.254C412.934 227.58 412.674 227.32 412.674 227C412.674 226.68 412.934 226.42 413.254 226.42Z" fill="#A7ABB4"/>
<path d="M416.737 231.061V222.94C416.737 222.62 416.997 222.36 417.318 222.36C417.638 222.36 417.898 222.62 417.898 222.94V231.061C417.898 231.381 417.638 231.641 417.318 231.641C416.997 231.641 416.737 231.381 416.737 231.061Z" fill="#A7ABB4"/>
<path d="M417.317 216.327C423.217 216.327 428 221.105 428 227C428 232.894 423.217 237.673 417.317 237.673C411.417 237.673 406.634 232.894 406.634 227C406.634 221.105 411.417 216.327 417.317 216.327Z" stroke="black" stroke-opacity="0.08" stroke-width="0.9984"/>
<path d="M55 274C55 265.716 48.2843 259 40 259C31.7157 259 25 265.716 25 274C25 282.284 31.7157 289 40 289C48.2843 289 55 282.284 55 274Z" fill="white"/>
<mask id="mask3_1093_2368" style="mask-type:luminance" maskUnits="userSpaceOnUse" x="25" y="259" width="30" height="30">
<path d="M55 259H25V289H55V259Z" fill="white"/>
</mask>
<g mask="url(#mask3_1093_2368)">
<path d="M42.572 271.184H37.7096C37.5032 271.184 37.334 271.353 37.334 271.559V276.422C37.334 276.628 37.5032 276.797 37.7096 276.797H42.572C42.7784 276.797 42.9476 276.628 42.9476 276.422V271.559C42.9476 271.353 42.7784 271.184 42.572 271.184Z" fill="black"/>
<path d="M36.9597 265.589H32.0973C31.8909 265.589 31.7217 265.759 31.7217 265.965V270.827C31.7217 271.034 31.8909 271.203 32.0973 271.203H36.9597C37.1661 271.203 37.3353 271.034 37.3353 270.827V265.965C37.3341 265.759 37.1661 265.589 36.9597 265.589Z" fill="black"/>
<path d="M48.1667 265.589H43.3043C43.0979 265.589 42.9287 265.759 42.9287 265.965V270.827C42.9287 271.034 43.0979 271.203 43.3043 271.203H48.1667C48.3731 271.203 48.5423 271.034 48.5423 270.827V265.965C48.5423 265.759 48.3731 265.589 48.1667 265.589Z" fill="black"/>
<path d="M36.9597 276.778H32.0973C31.8909 276.778 31.7217 276.948 31.7217 277.154V282.016C31.7217 282.223 31.8909 282.392 32.0973 282.392H36.9597C37.1661 282.392 37.3353 282.223 37.3353 282.016V277.154C37.3341 276.948 37.1661 276.778 36.9597 276.778Z" fill="black"/>
<path d="M48.1667 276.778H43.3043C43.0979 276.778 42.9287 276.948 42.9287 277.154V282.016C42.9287 282.223 43.0979 282.392 43.3043 282.392H48.1667C48.3731 282.392 48.5423 282.223 48.5423 282.016V277.154C48.5423 276.948 48.3731 276.778 48.1667 276.778Z" fill="black"/>
</g>
<path d="M65.4951 265.485C65.4951 264.297 65.9058 263.292 66.7271 262.471C67.5558 261.642 68.5458 261.228 69.6971 261.228C70.8484 261.228 71.8384 261.642 72.6671 262.471C73.4958 263.3 73.9101 264.29 73.9101 265.441C73.9101 266.592 73.4958 267.582 72.6671 268.411C71.8384 269.225 70.8374 269.632 69.6641 269.632C68.4834 269.632 67.4934 269.232 66.6941 268.433C65.8948 267.634 65.4951 266.651 65.4951 265.485ZM72.7661 265.452C72.7661 264.557 72.4691 263.809 71.8751 263.208C71.2811 262.607 70.5551 262.306 69.6971 262.306C68.8464 262.306 68.1241 262.61 67.5301 263.219C66.9361 263.828 66.6391 264.572 66.6391 265.452C66.6391 266.325 66.9324 267.065 67.5191 267.674C68.0984 268.268 68.8244 268.565 69.6971 268.565C70.5698 268.565 71.2958 268.268 71.8751 267.674C72.4691 267.08 72.7661 266.339 72.7661 265.452ZM81.8683 269.5H80.5043L77.6443 265.936L76.5333 267.245V269.5H75.4333V261.371H76.5333V265.793L80.2623 261.371H81.5713L78.3593 265.199L81.8683 269.5ZM83.1444 269.5H81.8244L84.5304 265.375L81.9564 261.371H83.2324L85.1904 264.539L87.1704 261.371H88.4904L85.8284 265.375L88.5124 269.5H87.2364L85.1904 266.277L83.1444 269.5Z" fill="black"/>
<path d="M66.0229 283.5V275.371H67.1229V283.5H66.0229ZM75.7596 277.45C76.471 277.45 77.043 277.681 77.4756 278.143C77.901 278.59 78.1136 279.206 78.1136 279.991V283.5H77.0576V280.156C77.0576 279.606 76.9293 279.181 76.6726 278.88C76.4233 278.579 76.0786 278.429 75.6386 278.429C75.1766 278.429 74.799 278.59 74.5056 278.913C74.2123 279.236 74.0656 279.657 74.0656 280.178V283.5H73.0206V280.178C73.0206 279.628 72.8923 279.199 72.6356 278.891C72.379 278.583 72.0306 278.429 71.5906 278.429C71.1286 278.429 70.7473 278.594 70.4466 278.924C70.1533 279.247 70.0066 279.672 70.0066 280.2V283.5H68.9506V277.604H69.9846V278.473C70.1606 278.143 70.4026 277.89 70.7106 277.714C71.026 277.531 71.378 277.443 71.7666 277.45C72.17 277.45 72.5403 277.549 72.8776 277.747C73.215 277.938 73.4606 278.205 73.6146 278.55C73.8126 278.213 74.1024 277.945 74.4837 277.747C74.8724 277.549 75.2976 277.45 75.7596 277.45ZM82.8176 277.461C83.6609 277.461 84.3612 277.762 84.9186 278.363C85.4832 278.972 85.7656 279.701 85.7656 280.552C85.7656 281.41 85.4832 282.143 84.9186 282.752C84.3612 283.346 83.6572 283.643 82.8066 283.643C81.9486 283.643 81.2519 283.309 80.7166 282.642V285.931H79.6606V277.604H80.7166V278.495C81.2666 277.806 81.9669 277.461 82.8176 277.461ZM84.7096 280.541C84.7096 279.947 84.5226 279.448 84.1486 279.045C83.7746 278.634 83.2869 278.429 82.6856 278.429C82.0842 278.429 81.5966 278.634 81.2226 279.045C80.8559 279.456 80.6726 279.954 80.6726 280.541C80.6726 281.142 80.8559 281.648 81.2226 282.059C81.5966 282.47 82.0842 282.675 82.6856 282.675C83.2869 282.675 83.7746 282.47 84.1486 282.059C84.5226 281.656 84.7096 281.15 84.7096 280.541ZM89.7687 283.643C88.8667 283.643 88.1224 283.346 87.5357 282.752C86.9564 282.151 86.6667 281.414 86.6667 280.541C86.6667 279.668 86.9564 278.939 87.5357 278.352C88.1151 277.751 88.8594 277.45 89.7687 277.45C90.6634 277.45 91.4004 277.751 91.9797 278.352C92.5664 278.961 92.8597 279.69 92.8597 280.541C92.8597 281.406 92.5664 282.143 91.9797 282.752C91.3931 283.346 90.6561 283.643 89.7687 283.643ZM91.8037 280.541C91.8037 279.962 91.6057 279.467 91.2097 279.056C90.8137 278.638 90.3334 278.429 89.7687 278.429C89.2041 278.429 88.7237 278.638 88.3277 279.056C87.9317 279.467 87.7337 279.962 87.7337 280.541C87.7337 281.128 87.9317 281.63 88.3277 282.048C88.7237 282.466 89.2041 282.675 89.7687 282.675C90.3334 282.675 90.8137 282.466 91.2097 282.048C91.6057 281.63 91.8037 281.128 91.8037 280.541ZM95.1756 283.5H94.1196V277.604H95.1206V278.473C95.4652 277.791 96.0299 277.45 96.8146 277.45C97.0272 277.45 97.2582 277.479 97.5076 277.538L97.4086 278.561C97.1959 278.495 96.9906 278.462 96.7926 278.462C96.3086 278.462 95.9162 278.627 95.6156 278.957C95.3222 279.287 95.1756 279.76 95.1756 280.376V283.5ZM102.021 282.334L102.417 283.148C101.992 283.478 101.467 283.643 100.844 283.643C100.228 283.643 99.7585 283.452 99.4358 283.071C99.1205 282.69 98.9628 282.143 98.9628 281.432V278.506H97.9178V277.604H98.9738V275.514H100.008V277.604H102.098V278.506H100.008V281.509C100.008 282.286 100.327 282.675 100.965 282.675C101.31 282.675 101.662 282.561 102.021 282.334ZM110.632 278.462V275.173H111.688V283.5H110.632V282.675C110.119 283.32 109.437 283.643 108.586 283.643C107.728 283.643 107.017 283.346 106.452 282.752C105.895 282.151 105.616 281.414 105.616 280.541C105.616 279.676 105.895 278.95 106.452 278.363C107.009 277.762 107.713 277.461 108.564 277.461C109.407 277.461 110.097 277.795 110.632 278.462ZM110.709 280.541C110.709 279.947 110.522 279.448 110.148 279.045C109.781 278.634 109.297 278.429 108.696 278.429C108.095 278.429 107.607 278.634 107.233 279.045C106.866 279.456 106.683 279.954 106.683 280.541C106.683 281.142 106.866 281.648 107.233 282.059C107.607 282.47 108.095 282.675 108.696 282.675C109.297 282.675 109.781 282.47 110.148 282.059C110.522 281.656 110.709 281.15 110.709 280.541ZM117.98 278.462V277.604H118.992V283.5H117.98V282.664C117.452 283.317 116.759 283.643 115.901 283.643C115.05 283.643 114.346 283.342 113.789 282.741C113.232 282.14 112.953 281.395 112.953 280.508C112.953 279.621 113.232 278.895 113.789 278.33C114.346 277.751 115.05 277.461 115.901 277.461C116.737 277.461 117.43 277.795 117.98 278.462ZM118.046 280.541C118.046 279.947 117.859 279.448 117.485 279.045C117.111 278.634 116.623 278.429 116.022 278.429C115.421 278.429 114.937 278.634 114.57 279.045C114.203 279.456 114.02 279.958 114.02 280.552C114.02 281.146 114.203 281.648 114.57 282.059C114.937 282.47 115.421 282.675 116.022 282.675C116.623 282.675 117.111 282.47 117.485 282.059C117.859 281.656 118.046 281.15 118.046 280.541ZM124.085 282.334L124.481 283.148C124.056 283.478 123.532 283.643 122.908 283.643C122.292 283.643 121.823 283.452 121.5 283.071C121.185 282.69 121.027 282.143 121.027 281.432V278.506H119.982V277.604H121.038V275.514H122.072V277.604H124.162V278.506H122.072V281.509C122.072 282.286 122.391 282.675 123.029 282.675C123.374 282.675 123.726 282.561 124.085 282.334ZM129.904 278.462V277.604H130.916V283.5H129.904V282.664C129.376 283.317 128.683 283.643 127.825 283.643C126.974 283.643 126.27 283.342 125.713 282.741C125.155 282.14 124.877 281.395 124.877 280.508C124.877 279.621 125.155 278.895 125.713 278.33C126.27 277.751 126.974 277.461 127.825 277.461C128.661 277.461 129.354 277.795 129.904 278.462ZM129.97 280.541C129.97 279.947 129.783 279.448 129.409 279.045C129.035 278.634 128.547 278.429 127.946 278.429C127.344 278.429 126.86 278.634 126.494 279.045C126.127 279.456 125.944 279.958 125.944 280.552C125.944 281.146 126.127 281.648 126.494 282.059C126.86 282.47 127.344 282.675 127.946 282.675C128.547 282.675 129.035 282.47 129.409 282.059C129.783 281.656 129.97 281.15 129.97 280.541Z" fill="#525252"/>
<path d="M413.254 273.42H421.383C421.703 273.42 421.963 273.68 421.963 274C421.963 274.32 421.703 274.58 421.383 274.58H413.254C412.934 274.58 412.674 274.32 412.674 274C412.674 273.68 412.934 273.42 413.254 273.42Z" fill="#A7ABB4"/>
<path d="M416.737 278.061V269.94C416.737 269.62 416.997 269.36 417.318 269.36C417.638 269.36 417.898 269.62 417.898 269.94V278.061C417.898 278.381 417.638 278.641 417.318 278.641C416.997 278.641 416.737 278.381 416.737 278.061Z" fill="#A7ABB4"/>
<path d="M417.317 263.327C423.217 263.327 428 268.105 428 274C428 279.894 423.217 284.673 417.317 284.673C411.417 284.673 406.634 279.894 406.634 274C406.634 268.105 411.417 263.327 417.317 263.327Z" stroke="black" stroke-opacity="0.08" stroke-width="0.9984"/>
<mask id="mask4_1093_2368" style="mask-type:luminance" maskUnits="userSpaceOnUse" x="1" y="183" width="452" height="97">
<path d="M453 201.322V261.678C453 271.79 438.472 280 420.578 280H33.4219C15.5283 280 1 271.79 1 261.678V201.322C1 191.21 15.5283 183 33.4219 183H420.578C438.472 183 453 191.21 453 201.322Z" fill="url(#paint1_linear_1093_2368)"/>
</mask>
<g mask="url(#mask4_1093_2368)">
<path d="M453 201.322V261.678C453 271.79 438.472 280 420.578 280H33.4219C15.5283 280 1 271.79 1 261.678V201.322C1 191.21 15.5283 183 33.4219 183H420.578C438.472 183 453 191.21 453 201.322Z" fill="url(#paint2_linear_1093_2368)"/>
</g>
<path d="M26.3018 32.0003V21.6543H27.7018V32.0003H26.3018ZM31.372 32.0003H30.028V24.4963H31.344V25.5603C31.82 24.7203 32.6133 24.3003 33.724 24.3003C34.564 24.3003 35.2687 24.571 35.838 25.1123C36.4073 25.6536 36.692 26.433 36.692 27.4503V32.0003H35.362V27.8283C35.362 27.1096 35.1847 26.5496 34.83 26.1483C34.4847 25.747 34.0227 25.5463 33.444 25.5463C32.8373 25.5463 32.338 25.761 31.946 26.1903C31.5633 26.629 31.372 27.1796 31.372 27.8423V32.0003ZM42.9963 30.5163L43.5003 31.5523C42.9589 31.9723 42.2916 32.1823 41.4983 32.1823C40.7143 32.1823 40.1169 31.9396 39.7063 31.4543C39.3049 30.969 39.1043 30.2736 39.1043 29.3683V25.6443H37.7743V24.4963H39.1183V21.8363H40.4343V24.4963H43.0943V25.6443H40.4343V29.4663C40.4343 30.4556 40.8403 30.9503 41.6523 30.9503C42.0909 30.9503 42.5389 30.8056 42.9963 30.5163ZM51.4375 28.1083C51.4375 28.2016 51.4235 28.4303 51.3955 28.7943H45.4175C45.5388 29.457 45.8188 29.9796 46.2575 30.3623C46.6962 30.745 47.2935 30.9363 48.0495 30.9363C48.4975 30.9363 48.9595 30.8616 49.4355 30.7123C49.9115 30.5536 50.3222 30.3483 50.6675 30.0963L51.2415 31.1183C50.8495 31.417 50.3642 31.669 49.7855 31.8743C49.2068 32.0703 48.6188 32.1683 48.0215 32.1683C47.3402 32.1683 46.7335 32.0563 46.2015 31.8323C45.6788 31.6083 45.2635 31.305 44.9555 30.9223C44.6475 30.5396 44.4142 30.1196 44.2555 29.6623C44.0968 29.205 44.0175 28.7243 44.0175 28.2203C44.0175 27.1003 44.3675 26.167 45.0675 25.4203C45.7768 24.683 46.6915 24.3143 47.8115 24.3143C48.8755 24.3143 49.7435 24.655 50.4155 25.3363C51.0968 26.0176 51.4375 26.9416 51.4375 28.1083ZM45.4175 27.6323H50.0515C50.0142 26.9883 49.7855 26.475 49.3655 26.0923C48.9548 25.7003 48.4368 25.5043 47.8115 25.5043C47.2048 25.5043 46.6822 25.705 46.2435 26.1063C45.8048 26.4983 45.5295 27.007 45.4175 27.6323ZM58.9601 25.4763V24.4963H60.2901V31.2303C60.2901 32.4343 59.9261 33.3956 59.1981 34.1143C58.4607 34.833 57.4854 35.1923 56.2721 35.1923C55.0494 35.1923 53.9434 34.8376 52.9541 34.1283L53.5841 33.0643C54.4054 33.671 55.2967 33.9743 56.2581 33.9743C57.0887 33.9743 57.7467 33.7363 58.2321 33.2603C58.7174 32.803 58.9601 32.201 58.9601 31.4543V30.8383C58.2881 31.6223 57.4107 32.0143 56.3281 32.0143C55.2454 32.0143 54.3494 31.6456 53.6401 30.9083C52.9214 30.1616 52.5621 29.2423 52.5621 28.1503C52.5621 27.0583 52.9307 26.1483 53.6681 25.4203C54.4054 24.683 55.3154 24.3143 56.3981 24.3143C57.4341 24.3143 58.2881 24.7016 58.9601 25.4763ZM54.6481 30.0543C55.1427 30.5583 55.7541 30.8103 56.4821 30.8103C57.2194 30.8103 57.8307 30.5583 58.3161 30.0543C58.8014 29.5596 59.0441 28.9296 59.0441 28.1643C59.0441 27.399 58.8014 26.7736 58.3161 26.2883C57.8214 25.7843 57.2101 25.5323 56.4821 25.5323C55.7447 25.5323 55.1334 25.7843 54.6481 26.2883C54.1627 26.7736 53.9201 27.399 53.9201 28.1643C53.9201 28.9296 54.1627 29.5596 54.6481 30.0543ZM63.706 32.0003H62.362V24.4963H63.636V25.6023C64.0746 24.7343 64.7933 24.3003 65.792 24.3003C66.0626 24.3003 66.3566 24.3376 66.674 24.4123L66.548 25.7143C66.2773 25.6303 66.016 25.5883 65.764 25.5883C65.148 25.5883 64.6486 25.7983 64.266 26.2183C63.8926 26.6383 63.706 27.2403 63.706 28.0243V32.0003ZM73.3839 25.5883V24.4963H74.6719V32.0003H73.3839V30.9363C72.7119 31.767 71.8299 32.1823 70.7379 32.1823C69.6552 32.1823 68.7592 31.7996 68.0499 31.0343C67.3406 30.269 66.9859 29.3216 66.9859 28.1923C66.9859 27.063 67.3406 26.139 68.0499 25.4203C68.7592 24.683 69.6552 24.3143 70.7379 24.3143C71.8019 24.3143 72.6839 24.739 73.3839 25.5883ZM73.4679 28.2343C73.4679 27.4783 73.2299 26.8436 72.7539 26.3303C72.2779 25.8076 71.6572 25.5463 70.8919 25.5463C70.1266 25.5463 69.5106 25.8076 69.0439 26.3303C68.5772 26.853 68.3439 27.4923 68.3439 28.2483C68.3439 29.0043 68.5772 29.6436 69.0439 30.1663C69.5106 30.689 70.1266 30.9503 70.8919 30.9503C71.6572 30.9503 72.2779 30.689 72.7539 30.1663C73.2299 29.653 73.4679 29.009 73.4679 28.2343ZM81.1545 30.5163L81.6585 31.5523C81.1171 31.9723 80.4498 32.1823 79.6565 32.1823C78.8725 32.1823 78.2751 31.9396 77.8645 31.4543C77.4631 30.969 77.2625 30.2736 77.2625 29.3683V25.6443H75.9325V24.4963H77.2765V21.8363H78.5925V24.4963H81.2525V25.6443H78.5925V29.4663C78.5925 30.4556 78.9985 30.9503 79.8105 30.9503C80.2491 30.9503 80.6971 30.8056 81.1545 30.5163ZM89.5957 28.1083C89.5957 28.2016 89.5817 28.4303 89.5537 28.7943H83.5757C83.697 29.457 83.977 29.9796 84.4157 30.3623C84.8544 30.745 85.4517 30.9363 86.2077 30.9363C86.6557 30.9363 87.1177 30.8616 87.5937 30.7123C88.0697 30.5536 88.4804 30.3483 88.8257 30.0963L89.3997 31.1183C89.0077 31.417 88.5224 31.669 87.9437 31.8743C87.365 32.0703 86.777 32.1683 86.1797 32.1683C85.4984 32.1683 84.8917 32.0563 84.3597 31.8323C83.837 31.6083 83.4217 31.305 83.1137 30.9223C82.8057 30.5396 82.5724 30.1196 82.4137 29.6623C82.255 29.205 82.1757 28.7243 82.1757 28.2203C82.1757 27.1003 82.5257 26.167 83.2257 25.4203C83.935 24.683 84.8497 24.3143 85.9697 24.3143C87.0337 24.3143 87.9017 24.655 88.5737 25.3363C89.255 26.0176 89.5957 26.9416 89.5957 28.1083ZM83.5757 27.6323H88.2097C88.1724 26.9883 87.9437 26.475 87.5237 26.0923C87.113 25.7003 86.595 25.5043 85.9697 25.5043C85.363 25.5043 84.8404 25.705 84.4017 26.1063C83.963 26.4983 83.6877 27.007 83.5757 27.6323ZM97.7711 32.0003H96.9871L93.4311 21.6543H94.9151L97.4071 29.2283L100.151 21.6543H100.781L103.595 29.2283L106.045 21.6543H107.515L103.987 32.0003H103.217L100.487 24.2723L97.7711 32.0003ZM114.017 25.5883V24.4963H115.305V32.0003H114.017V30.9363C113.345 31.767 112.463 32.1823 111.371 32.1823C110.288 32.1823 109.392 31.7996 108.683 31.0343C107.974 30.269 107.619 29.3216 107.619 28.1923C107.619 27.063 107.974 26.139 108.683 25.4203C109.392 24.683 110.288 24.3143 111.371 24.3143C112.435 24.3143 113.317 24.739 114.017 25.5883ZM114.101 28.2343C114.101 27.4783 113.863 26.8436 113.387 26.3303C112.911 25.8076 112.29 25.5463 111.525 25.5463C110.76 25.5463 110.144 25.8076 109.677 26.3303C109.21 26.853 108.977 27.4923 108.977 28.2483C108.977 29.0043 109.21 29.6436 109.677 30.1663C110.144 30.689 110.76 30.9503 111.525 30.9503C112.29 30.9503 112.911 30.689 113.387 30.1663C113.863 29.653 114.101 29.009 114.101 28.2343ZM118.735 21.4023V32.0003H117.391V21.4023H118.735ZM122.167 21.4023V32.0003H120.823V21.4023H122.167ZM131.227 28.1083C131.227 28.2016 131.213 28.4303 131.185 28.7943H125.207C125.328 29.457 125.608 29.9796 126.047 30.3623C126.485 30.745 127.083 30.9363 127.839 30.9363C128.287 30.9363 128.749 30.8616 129.225 30.7123C129.701 30.5536 130.111 30.3483 130.457 30.0963L131.031 31.1183C130.639 31.417 130.153 31.669 129.575 31.8743C128.996 32.0703 128.408 32.1683 127.811 32.1683C127.129 32.1683 126.523 32.0563 125.991 31.8323C125.468 31.6083 125.053 31.305 124.745 30.9223C124.437 30.5396 124.203 30.1196 124.045 29.6623C123.886 29.205 123.807 28.7243 123.807 28.2203C123.807 27.1003 124.157 26.167 124.857 25.4203C125.566 24.683 126.481 24.3143 127.601 24.3143C128.665 24.3143 129.533 24.655 130.205 25.3363C130.886 26.0176 131.227 26.9416 131.227 28.1083ZM125.207 27.6323H129.841C129.803 26.9883 129.575 26.475 129.155 26.0923C128.744 25.7003 128.226 25.5043 127.601 25.5043C126.994 25.5043 126.471 25.705 126.033 26.1063C125.594 26.4983 125.319 27.007 125.207 27.6323ZM137.086 30.5163L137.59 31.5523C137.049 31.9723 136.382 32.1823 135.588 32.1823C134.804 32.1823 134.207 31.9396 133.796 31.4543C133.395 30.969 133.194 30.2736 133.194 29.3683V25.6443H131.864V24.4963H133.208V21.8363H134.524V24.4963H137.184V25.6443H134.524V29.4663C134.524 30.4556 134.93 30.9503 135.742 30.9503C136.181 30.9503 136.629 30.8056 137.086 30.5163Z" fill="black"/>
<path d="M423 15H355C352.239 15 350 17.2386 350 20V36C350 38.7614 352.239 41 355 41H423C425.761 41 428 38.7614 428 36V20C428 17.2386 425.761 15 423 15Z" fill="#0784B5"/>
<path d="M364.77 31.1105C363.703 31.1105 362.803 30.7572 362.07 30.0505C361.336 29.3372 360.97 28.4305 360.97 27.3305C360.97 26.2105 361.343 25.2905 362.09 24.5705C362.836 23.8438 363.74 23.4805 364.8 23.4805C365.473 23.4805 366.093 23.6305 366.66 23.9305C367.226 24.2172 367.67 24.6072 367.99 25.1005L367.25 25.7205C366.623 24.8738 365.813 24.4505 364.82 24.4505C364.033 24.4505 363.366 24.7238 362.82 25.2705C362.273 25.8172 362 26.5072 362 27.3405C362 28.1538 362.266 28.8272 362.8 29.3605C363.333 29.8872 364.003 30.1505 364.81 30.1505C365.303 30.1505 365.763 30.0405 366.19 29.8205C366.616 29.6005 366.983 29.2938 367.29 28.9005L368.01 29.5105C367.656 30.0038 367.193 30.3938 366.62 30.6805C366.053 30.9672 365.436 31.1105 364.77 31.1105ZM369.973 31.0005H369.013V25.6405H369.923V26.4305C370.237 25.8105 370.75 25.5005 371.463 25.5005C371.657 25.5005 371.867 25.5272 372.093 25.5805L372.003 26.5105C371.81 26.4505 371.623 26.4205 371.443 26.4205C371.003 26.4205 370.647 26.5705 370.373 26.8705C370.107 27.1705 369.973 27.6005 369.973 28.1605V31.0005ZM377.626 28.2205C377.626 28.2872 377.616 28.4505 377.596 28.7105H373.326C373.413 29.1838 373.613 29.5572 373.926 29.8305C374.24 30.1038 374.666 30.2405 375.206 30.2405C375.526 30.2405 375.856 30.1872 376.196 30.0805C376.536 29.9672 376.83 29.8205 377.076 29.6405L377.486 30.3705C377.206 30.5838 376.86 30.7638 376.446 30.9105C376.033 31.0505 375.613 31.1205 375.186 31.1205C374.7 31.1205 374.266 31.0405 373.886 30.8805C373.513 30.7205 373.216 30.5038 372.996 30.2305C372.776 29.9572 372.61 29.6572 372.496 29.3305C372.383 29.0038 372.326 28.6605 372.326 28.3005C372.326 27.5005 372.576 26.8338 373.076 26.3005C373.583 25.7738 374.236 25.5105 375.036 25.5105C375.796 25.5105 376.416 25.7538 376.896 26.2405C377.383 26.7272 377.626 27.3872 377.626 28.2205ZM373.326 27.8805H376.636C376.61 27.4205 376.446 27.0538 376.146 26.7805C375.853 26.5005 375.483 26.3605 375.036 26.3605C374.603 26.3605 374.23 26.5038 373.916 26.7905C373.603 27.0705 373.406 27.4338 373.326 27.8805ZM383 26.4205V25.6405H383.92V31.0005H383V30.2405C382.52 30.8338 381.89 31.1305 381.11 31.1305C380.336 31.1305 379.696 30.8572 379.19 30.3105C378.683 29.7638 378.43 29.0872 378.43 28.2805C378.43 27.4738 378.683 26.8138 379.19 26.3005C379.696 25.7738 380.336 25.5105 381.11 25.5105C381.87 25.5105 382.5 25.8138 383 26.4205ZM383.06 28.3105C383.06 27.7705 382.89 27.3172 382.55 26.9505C382.21 26.5772 381.766 26.3905 381.22 26.3905C380.673 26.3905 380.233 26.5772 379.9 26.9505C379.566 27.3238 379.4 27.7805 379.4 28.3205C379.4 28.8605 379.566 29.3172 379.9 29.6905C380.233 30.0638 380.673 30.2505 381.22 30.2505C381.766 30.2505 382.21 30.0638 382.55 29.6905C382.89 29.3238 383.06 28.8638 383.06 28.3105ZM388.55 29.9405L388.91 30.6805C388.523 30.9805 388.047 31.1305 387.48 31.1305C386.92 31.1305 386.493 30.9572 386.2 30.6105C385.913 30.2638 385.77 29.7672 385.77 29.1205V26.4605H384.82V25.6405H385.78V23.7405H386.72V25.6405H388.62V26.4605H386.72V29.1905C386.72 29.8972 387.01 30.2505 387.59 30.2505C387.903 30.2505 388.223 30.1472 388.55 29.9405ZM394.579 28.2205C394.579 28.2872 394.569 28.4505 394.549 28.7105H390.279C390.366 29.1838 390.566 29.5572 390.879 29.8305C391.193 30.1038 391.619 30.2405 392.159 30.2405C392.479 30.2405 392.809 30.1872 393.149 30.0805C393.489 29.9672 393.783 29.8205 394.029 29.6405L394.439 30.3705C394.159 30.5838 393.813 30.7638 393.399 30.9105C392.986 31.0505 392.566 31.1205 392.139 31.1205C391.653 31.1205 391.219 31.0405 390.839 30.8805C390.466 30.7205 390.169 30.5038 389.949 30.2305C389.729 29.9572 389.563 29.6572 389.449 29.3305C389.336 29.0038 389.279 28.6605 389.279 28.3005C389.279 27.5005 389.529 26.8338 390.029 26.3005C390.536 25.7738 391.189 25.5105 391.989 25.5105C392.749 25.5105 393.369 25.7538 393.849 26.2405C394.336 26.7272 394.579 27.3872 394.579 28.2205ZM390.279 27.8805H393.589C393.563 27.4205 393.399 27.0538 393.099 26.7805C392.806 26.5005 392.436 26.3605 391.989 26.3605C391.556 26.3605 391.183 26.5038 390.869 26.7905C390.556 27.0705 390.359 27.4338 390.279 27.8805ZM399.143 31.0005H398.183V25.6405H399.123V26.4005C399.463 25.8005 400.03 25.5005 400.823 25.5005C401.423 25.5005 401.927 25.6938 402.333 26.0805C402.74 26.4672 402.943 27.0238 402.943 27.7505V31.0005H401.993V28.0205C401.993 27.5072 401.867 27.1072 401.613 26.8205C401.367 26.5338 401.037 26.3905 400.623 26.3905C400.19 26.3905 399.833 26.5438 399.553 26.8505C399.28 27.1638 399.143 27.5572 399.143 28.0305V31.0005ZM409.345 28.2205C409.345 28.2872 409.335 28.4505 409.315 28.7105H405.045C405.132 29.1838 405.332 29.5572 405.645 29.8305C405.958 30.1038 406.385 30.2405 406.925 30.2405C407.245 30.2405 407.575 30.1872 407.915 30.0805C408.255 29.9672 408.548 29.8205 408.795 29.6405L409.205 30.3705C408.925 30.5838 408.578 30.7638 408.165 30.9105C407.752 31.0505 407.332 31.1205 406.905 31.1205C406.418 31.1205 405.985 31.0405 405.605 30.8805C405.232 30.7205 404.935 30.5038 404.715 30.2305C404.495 29.9572 404.328 29.6572 404.215 29.3305C404.102 29.0038 404.045 28.6605 404.045 28.3005C404.045 27.5005 404.295 26.8338 404.795 26.3005C405.302 25.7738 405.955 25.5105 406.755 25.5105C407.515 25.5105 408.135 25.7538 408.615 26.2405C409.102 26.7272 409.345 27.3872 409.345 28.2205ZM405.045 27.8805H408.355C408.328 27.4205 408.165 27.0538 407.865 26.7805C407.572 26.5005 407.202 26.3605 406.755 26.3605C406.322 26.3605 405.948 26.5038 405.635 26.7905C405.322 27.0705 405.125 27.4338 405.045 27.8805ZM412.342 30.9905H411.552L409.712 25.6405H410.722L411.992 29.6605L413.452 25.6405H414.122L415.642 29.6605L416.862 25.6405H417.862L416.072 30.9905H415.272L413.792 26.9805L412.342 30.9905Z" fill="white"/>
</g>
<path d="M433 0.5H20C9.23045 0.5 0.5 9.23045 0.5 20V258C0.5 268.77 9.23045 277.5 20 277.5H433C443.77 277.5 452.5 268.77 452.5 258V20C452.5 9.23045 443.77 0.5 433 0.5Z" stroke="url(#paint3_linear_1093_2368)"/>
</g>
<defs>
<radialGradient id="paint0_radial_1093_2368" cx="0" cy="0" r="1" gradientUnits="userSpaceOnUse" gradientTransform="translate(119.422 39.7165) scale(292.738 206.341)">
<stop stop-color="#F6F9FC"/>
<stop offset="0.5" stop-color="#FBFCFE"/>
<stop offset="1" stop-color="white"/>
</radialGradient>
<linearGradient id="paint1_linear_1093_2368" x1="228.919" y1="275.033" x2="228.331" y2="204.97" gradientUnits="userSpaceOnUse">
<stop stop-color="white"/>
<stop offset="0.5" stop-color="white" stop-opacity="0.5"/>
<stop offset="1" stop-color="white" stop-opacity="0"/>
</linearGradient>
<linearGradient id="paint2_linear_1093_2368" x1="194" y1="187.5" x2="194" y2="279" gradientUnits="userSpaceOnUse">
<stop stop-color="#F6F9FC"/>
<stop offset="0.5" stop-color="#FBFCFE"/>
<stop offset="1" stop-color="white"/>
</linearGradient>
<linearGradient id="paint3_linear_1093_2368" x1="125.321" y1="113.532" x2="78.7488" y2="-12.7258" gradientUnits="userSpaceOnUse">
<stop stop-opacity="0"/>
<stop offset="0.17" stop-opacity="0.05"/>
<stop offset="0.33" stop-opacity="0.1"/>
</linearGradient>
<clipPath id="clip0_1093_2368">
<rect width="453" height="278" fill="white"/>
</clipPath>
</defs>
</svg>
