<svg width="453" height="282" viewBox="0 0 453 282" fill="none" xmlns="http://www.w3.org/2000/svg">
<g clip-path="url(#clip0_1093_2267)">
<path d="M431.288 0.43457H21.7117C9.96039 0.43457 0.434082 9.96088 0.434082 21.7122V260.289C0.434082 272.04 9.96039 281.567 21.7117 281.567H431.288C443.04 281.567 452.566 272.04 452.566 260.289V21.7122C452.566 9.96088 443.04 0.43457 431.288 0.43457Z" fill="url(#paint0_radial_1093_2267)" stroke="url(#paint1_linear_1093_2267)"/>
<path d="M287.4 36.9003H288.47L290.95 40.2603L293.44 36.9003H294.51V44.0003H293.33V38.9103L290.96 42.1303L288.57 38.9003V44.0003H287.4V36.9003ZM300.14 43.3503C299.64 43.8503 299.02 44.1003 298.28 44.1003C297.54 44.1003 296.917 43.8503 296.41 43.3503C295.91 42.8436 295.66 42.227 295.66 41.5003C295.66 40.7736 295.91 40.1603 296.41 39.6603C296.917 39.1536 297.54 38.9003 298.28 38.9003C299.02 38.9003 299.64 39.1536 300.14 39.6603C300.647 40.1603 300.9 40.7736 300.9 41.5003C300.9 42.227 300.647 42.8436 300.14 43.3503ZM298.28 43.0803C298.714 43.0803 299.07 42.9303 299.35 42.6303C299.637 42.3236 299.78 41.947 299.78 41.5003C299.78 41.0536 299.637 40.6803 299.35 40.3803C299.07 40.0736 298.714 39.9203 298.28 39.9203C297.84 39.9203 297.477 40.0736 297.19 40.3803C296.91 40.6803 296.77 41.0536 296.77 41.5003C296.77 41.947 296.91 42.3236 297.19 42.6303C297.477 42.9303 297.84 43.0803 298.28 43.0803ZM302.007 44.0003V39.0003H303.107V39.6803C303.42 39.1603 303.927 38.9003 304.627 38.9003C305.207 38.9003 305.67 39.0903 306.017 39.4703C306.363 39.8503 306.537 40.357 306.537 40.9903V44.0003H305.437V41.1703C305.437 40.7703 305.343 40.4603 305.157 40.2403C304.97 40.0136 304.717 39.9003 304.397 39.9003C304.017 39.9003 303.707 40.0436 303.467 40.3303C303.227 40.617 303.107 41.0203 303.107 41.5403V44.0003H302.007ZM309.234 43.7503L308.164 45.4703H307.484L308.174 44.0003C308.034 43.9403 307.917 43.8403 307.824 43.7003C307.731 43.5536 307.684 43.3903 307.684 43.2103C307.684 42.9703 307.767 42.767 307.934 42.6003C308.101 42.427 308.304 42.3403 308.544 42.3403C308.784 42.3403 308.987 42.427 309.154 42.6003C309.321 42.767 309.404 42.9703 309.404 43.2103C309.404 43.4036 309.347 43.5836 309.234 43.7503ZM315.213 44.1003C314.5 44.1003 313.893 43.887 313.393 43.4603C312.9 43.0336 312.647 42.4703 312.633 41.7703H313.733C313.76 42.1503 313.91 42.4536 314.183 42.6803C314.463 42.907 314.807 43.0203 315.213 43.0203C315.58 43.0203 315.88 42.9236 316.113 42.7303C316.353 42.537 316.477 42.2703 316.483 41.9303C316.483 41.557 316.36 41.277 316.113 41.0903C315.873 40.897 315.54 40.8003 315.113 40.8003H314.553V39.8603H315.113C315.467 39.8603 315.747 39.767 315.953 39.5803C316.167 39.3936 316.277 39.1503 316.283 38.8503C316.283 38.557 316.177 38.3203 315.963 38.1403C315.75 37.9536 315.487 37.8603 315.173 37.8603C314.8 37.8603 314.49 37.9703 314.243 38.1903C313.997 38.4036 313.873 38.697 313.873 39.0703H312.763C312.763 38.377 312.997 37.8236 313.463 37.4103C313.937 36.9903 314.507 36.7803 315.173 36.7803C315.833 36.7803 316.367 36.967 316.773 37.3403C317.187 37.7136 317.393 38.1936 317.393 38.7803C317.393 39.107 317.31 39.4103 317.143 39.6903C316.977 39.9636 316.77 40.1736 316.523 40.3203C316.85 40.4603 317.11 40.677 317.303 40.9703C317.497 41.2636 317.593 41.607 317.593 42.0003C317.593 42.6203 317.37 43.127 316.923 43.5203C316.483 43.907 315.913 44.1003 315.213 44.1003ZM319.553 44.0003V37.9903H318.123L318.963 36.9003H320.653V44.0003H319.553ZM325.981 44.1203C325.361 44.1203 324.841 43.9403 324.421 43.5803C324.007 43.2136 323.801 42.697 323.801 42.0303H324.961C324.961 42.3436 325.061 42.5903 325.261 42.7703C325.461 42.9436 325.701 43.0303 325.981 43.0303C326.267 43.0303 326.504 42.9403 326.691 42.7603C326.884 42.5803 326.981 42.3103 326.981 41.9503V36.9003H328.151V42.0503C328.151 42.7436 327.944 43.2636 327.531 43.6103C327.124 43.9503 326.607 44.1203 325.981 44.1203ZM331.664 44.1003C330.984 44.1003 330.411 43.847 329.944 43.3403C329.484 42.8336 329.254 42.2203 329.254 41.5003C329.254 40.7803 329.484 40.167 329.944 39.6603C330.411 39.1536 330.984 38.9003 331.664 38.9003C332.004 38.9003 332.317 38.977 332.604 39.1303C332.891 39.277 333.111 39.457 333.264 39.6703V39.0003H334.364V44.0003H333.264V43.3303C333.111 43.5436 332.891 43.727 332.604 43.8803C332.317 44.027 332.004 44.1003 331.664 44.1003ZM330.794 42.6403C331.074 42.947 331.431 43.1003 331.864 43.1003C332.297 43.1003 332.654 42.947 332.934 42.6403C333.214 42.3336 333.354 41.9536 333.354 41.5003C333.354 41.047 333.214 40.667 332.934 40.3603C332.654 40.0536 332.297 39.9003 331.864 39.9003C331.431 39.9003 331.074 40.0536 330.794 40.3603C330.514 40.667 330.374 41.047 330.374 41.5003C330.374 41.9536 330.514 42.3336 330.794 42.6403ZM335.854 44.0003V39.0003H336.954V39.6803C337.268 39.1603 337.774 38.9003 338.474 38.9003C339.054 38.9003 339.518 39.0903 339.864 39.4703C340.211 39.8503 340.384 40.357 340.384 40.9903V44.0003H339.284V41.1703C339.284 40.7703 339.191 40.4603 339.004 40.2403C338.818 40.0136 338.564 39.9003 338.244 39.9003C337.864 39.9003 337.554 40.0436 337.314 40.3303C337.074 40.617 336.954 41.0203 336.954 41.5403V44.0003H335.854ZM348.565 42.9203V44.0003H343.865V43.6003C343.865 43.347 343.902 43.107 343.975 42.8803C344.055 42.647 344.139 42.4536 344.225 42.3003C344.312 42.147 344.455 41.977 344.655 41.7903C344.855 41.597 345.009 41.4603 345.115 41.3803C345.222 41.2936 345.409 41.1536 345.675 40.9603C345.949 40.767 346.122 40.6436 346.195 40.5903C346.615 40.2836 346.919 40.0136 347.105 39.7803C347.292 39.547 347.385 39.267 347.385 38.9403C347.385 38.6136 347.285 38.3536 347.085 38.1603C346.885 37.9603 346.609 37.8603 346.255 37.8603C345.889 37.8603 345.585 37.9703 345.345 38.1903C345.105 38.4036 344.982 38.697 344.975 39.0703H343.865C343.865 38.397 344.092 37.847 344.545 37.4203C345.005 36.9936 345.579 36.7803 346.265 36.7803C346.899 36.7803 347.429 36.967 347.855 37.3403C348.282 37.7136 348.495 38.237 348.495 38.9103C348.495 39.4436 348.372 39.8936 348.125 40.2603C347.885 40.6203 347.485 41.0003 346.925 41.4003C346.839 41.467 346.679 41.5803 346.445 41.7403C346.212 41.9003 346.039 42.0236 345.925 42.1103C345.819 42.197 345.702 42.317 345.575 42.4703C345.449 42.617 345.362 42.767 345.315 42.9203H348.565ZM354.04 43.3403C353.56 43.847 352.943 44.1003 352.19 44.1003C351.436 44.1003 350.82 43.847 350.34 43.3403C349.86 42.827 349.62 42.1703 349.62 41.3703V39.5103C349.62 38.7103 349.86 38.057 350.34 37.5503C350.82 37.037 351.436 36.7803 352.19 36.7803C352.943 36.7803 353.56 37.037 354.04 37.5503C354.526 38.057 354.77 38.7103 354.77 39.5103V41.3703C354.77 42.1703 354.526 42.827 354.04 43.3403ZM352.19 43.0203C352.636 43.0203 352.993 42.8736 353.26 42.5803C353.533 42.287 353.67 41.8836 353.67 41.3703V39.5103C353.67 38.997 353.533 38.5936 353.26 38.3003C352.993 38.007 352.636 37.8603 352.19 37.8603C351.75 37.8603 351.393 38.007 351.12 38.3003C350.853 38.5936 350.72 38.997 350.72 39.5103V41.3703C350.72 41.8836 350.853 42.287 351.12 42.5803C351.393 42.8736 351.75 43.0203 352.19 43.0203ZM360.479 42.9203V44.0003H355.779V43.6003C355.779 43.347 355.816 43.107 355.889 42.8803C355.969 42.647 356.053 42.4536 356.139 42.3003C356.226 42.147 356.369 41.977 356.569 41.7903C356.769 41.597 356.923 41.4603 357.029 41.3803C357.136 41.2936 357.323 41.1536 357.589 40.9603C357.863 40.767 358.036 40.6436 358.109 40.5903C358.529 40.2836 358.833 40.0136 359.019 39.7803C359.206 39.547 359.299 39.267 359.299 38.9403C359.299 38.6136 359.199 38.3536 358.999 38.1603C358.799 37.9603 358.523 37.8603 358.169 37.8603C357.803 37.8603 357.499 37.9703 357.259 38.1903C357.019 38.4036 356.896 38.697 356.889 39.0703H355.779C355.779 38.397 356.006 37.847 356.459 37.4203C356.919 36.9936 357.493 36.7803 358.179 36.7803C358.813 36.7803 359.343 36.967 359.769 37.3403C360.196 37.7136 360.409 38.237 360.409 38.9103C360.409 39.4436 360.286 39.8936 360.039 40.2603C359.799 40.6203 359.399 41.0003 358.839 41.4003C358.753 41.467 358.593 41.5803 358.359 41.7403C358.126 41.9003 357.953 42.0236 357.839 42.1103C357.733 42.197 357.616 42.317 357.489 42.4703C357.363 42.617 357.276 42.767 357.229 42.9203H360.479ZM363.954 44.1003C363.24 44.1003 362.634 43.887 362.134 43.4603C361.64 43.0336 361.387 42.4703 361.374 41.7703H362.474C362.5 42.1503 362.65 42.4536 362.924 42.6803C363.204 42.907 363.547 43.0203 363.954 43.0203C364.32 43.0203 364.62 42.9236 364.854 42.7303C365.094 42.537 365.217 42.2703 365.224 41.9303C365.224 41.557 365.1 41.277 364.854 41.0903C364.614 40.897 364.28 40.8003 363.854 40.8003H363.294V39.8603H363.854C364.207 39.8603 364.487 39.767 364.694 39.5803C364.907 39.3936 365.017 39.1503 365.024 38.8503C365.024 38.557 364.917 38.3203 364.704 38.1403C364.49 37.9536 364.227 37.8603 363.914 37.8603C363.54 37.8603 363.23 37.9703 362.984 38.1903C362.737 38.4036 362.614 38.697 362.614 39.0703H361.504C361.504 38.377 361.737 37.8236 362.204 37.4103C362.677 36.9903 363.247 36.7803 363.914 36.7803C364.574 36.7803 365.107 36.967 365.514 37.3403C365.927 37.7136 366.134 38.1936 366.134 38.7803C366.134 39.107 366.05 39.4103 365.884 39.6903C365.717 39.9636 365.51 40.1736 365.264 40.3203C365.59 40.4603 365.85 40.677 366.044 40.9703C366.237 41.2636 366.334 41.607 366.334 42.0003C366.334 42.6203 366.11 43.127 365.664 43.5203C365.224 43.907 364.654 44.1003 363.954 44.1003ZM368.843 43.7503L367.773 45.4703H367.093L367.783 44.0003C367.643 43.9403 367.527 43.8403 367.433 43.7003C367.34 43.5536 367.293 43.3903 367.293 43.2103C367.293 42.9703 367.377 42.767 367.543 42.6003C367.71 42.427 367.913 42.3403 368.153 42.3403C368.393 42.3403 368.597 42.427 368.763 42.6003C368.93 42.767 369.013 42.9703 369.013 43.2103C369.013 43.4036 368.957 43.5836 368.843 43.7503ZM377.003 42.9203V44.0003H372.303V43.6003C372.303 43.347 372.339 43.107 372.413 42.8803C372.493 42.647 372.576 42.4536 372.663 42.3003C372.749 42.147 372.893 41.977 373.093 41.7903C373.293 41.597 373.446 41.4603 373.553 41.3803C373.659 41.2936 373.846 41.1536 374.113 40.9603C374.386 40.767 374.559 40.6436 374.633 40.5903C375.053 40.2836 375.356 40.0136 375.543 39.7803C375.729 39.547 375.823 39.267 375.823 38.9403C375.823 38.6136 375.723 38.3536 375.523 38.1603C375.323 37.9603 375.046 37.8603 374.693 37.8603C374.326 37.8603 374.023 37.9703 373.783 38.1903C373.543 38.4036 373.419 38.697 373.413 39.0703H372.303C372.303 38.397 372.529 37.847 372.983 37.4203C373.443 36.9936 374.016 36.7803 374.703 36.7803C375.336 36.7803 375.866 36.967 376.293 37.3403C376.719 37.7136 376.933 38.237 376.933 38.9103C376.933 39.4436 376.809 39.8936 376.563 40.2603C376.323 40.6203 375.923 41.0003 375.363 41.4003C375.276 41.467 375.116 41.5803 374.883 41.7403C374.649 41.9003 374.476 42.0236 374.363 42.1103C374.256 42.197 374.139 42.317 374.013 42.4703C373.886 42.617 373.799 42.767 373.753 42.9203H377.003ZM378.927 40.6203C378.694 40.6203 378.49 40.537 378.317 40.3703C378.15 40.197 378.067 39.9903 378.067 39.7503C378.067 39.517 378.15 39.3136 378.317 39.1403C378.49 38.967 378.694 38.8803 378.927 38.8803C379.167 38.8803 379.37 38.967 379.537 39.1403C379.71 39.3136 379.797 39.517 379.797 39.7503C379.797 39.9903 379.71 40.197 379.537 40.3703C379.37 40.537 379.167 40.6203 378.927 40.6203ZM378.927 44.0803C378.694 44.0803 378.49 43.997 378.317 43.8303C378.15 43.657 378.067 43.4503 378.067 43.2103C378.067 42.977 378.15 42.7736 378.317 42.6003C378.49 42.427 378.694 42.3403 378.927 42.3403C379.167 42.3403 379.37 42.427 379.537 42.6003C379.71 42.7736 379.797 42.977 379.797 43.2103C379.797 43.4503 379.71 43.657 379.537 43.8303C379.37 43.997 379.167 44.0803 378.927 44.0803ZM385.518 42.9203V44.0003H380.818V43.6003C380.818 43.347 380.855 43.107 380.928 42.8803C381.008 42.647 381.092 42.4536 381.178 42.3003C381.265 42.147 381.408 41.977 381.608 41.7903C381.808 41.597 381.962 41.4603 382.068 41.3803C382.175 41.2936 382.362 41.1536 382.628 40.9603C382.902 40.767 383.075 40.6436 383.148 40.5903C383.568 40.2836 383.872 40.0136 384.058 39.7803C384.245 39.547 384.338 39.267 384.338 38.9403C384.338 38.6136 384.238 38.3536 384.038 38.1603C383.838 37.9603 383.562 37.8603 383.208 37.8603C382.842 37.8603 382.538 37.9703 382.298 38.1903C382.058 38.4036 381.935 38.697 381.928 39.0703H380.818C380.818 38.397 381.045 37.847 381.498 37.4203C381.958 36.9936 382.532 36.7803 383.218 36.7803C383.852 36.7803 384.382 36.967 384.808 37.3403C385.235 37.7136 385.448 38.237 385.448 38.9103C385.448 39.4436 385.325 39.8936 385.078 40.2603C384.838 40.6203 384.438 41.0003 383.878 41.4003C383.792 41.467 383.632 41.5803 383.398 41.7403C383.165 41.9003 382.992 42.0236 382.878 42.1103C382.772 42.197 382.655 42.317 382.528 42.4703C382.402 42.617 382.315 42.767 382.268 42.9203H385.518ZM390.514 43.4203C390.06 43.8736 389.477 44.1003 388.764 44.1003C388.05 44.1003 387.467 43.8736 387.014 43.4203C386.56 42.9603 386.334 42.3903 386.334 41.7103C386.334 41.3836 386.397 41.0836 386.524 40.8103C386.657 40.537 386.86 40.2236 387.134 39.8703L389.504 36.9003H390.884L388.884 39.4203H388.994C389.574 39.4203 390.087 39.6403 390.534 40.0803C390.98 40.5136 391.204 41.0536 391.204 41.7003C391.204 42.387 390.974 42.9603 390.514 43.4203ZM387.814 42.6603C388.067 42.9136 388.384 43.0403 388.764 43.0403C389.144 43.0403 389.46 42.9136 389.714 42.6603C389.967 42.4003 390.094 42.0836 390.094 41.7103C390.094 41.3436 389.964 41.0303 389.704 40.7703C389.45 40.5103 389.137 40.3803 388.764 40.3803C388.39 40.3803 388.077 40.5103 387.824 40.7703C387.57 41.0303 387.444 41.3436 387.444 41.7103C387.444 42.0836 387.567 42.4003 387.814 42.6603ZM398.872 37.5703C399.332 38.0103 399.562 38.5603 399.562 39.2203C399.562 39.8803 399.332 40.4336 398.872 40.8803C398.412 41.3203 397.822 41.5403 397.102 41.5403H396.012V44.0003H394.842V36.9003H397.102C397.822 36.9003 398.412 37.1236 398.872 37.5703ZM398.052 40.1003C398.292 39.867 398.412 39.5736 398.412 39.2203C398.412 38.867 398.292 38.577 398.052 38.3503C397.818 38.117 397.498 38.0003 397.092 38.0003H396.012V40.4403H397.092C397.498 40.4403 397.818 40.327 398.052 40.1003ZM400.721 36.9003H401.791L404.271 40.2603L406.761 36.9003H407.831V44.0003H406.651V38.9103L404.281 42.1303L401.891 38.9003V44.0003H400.721V36.9003Z" fill="black"/>
<path opacity="0.2" d="M417.688 230L415.837 221.304L414.356 216.957L412.875 219.13H410.284L406.953 226.739L404.732 223.478L403.251 213.696L401.03 221.304L399.179 216.957L397.699 221.304L395.848 219.13L393.997 223.478L391.776 213.696L389.925 221.304L388.075 223.478L384.373 219.13L382.892 221.304H380.671L379.191 226.739L376.97 230L375.119 221.304L372.898 226.739L371.417 224.565L367.716 226.739L365.865 213.696L364.384 221.304H362.163L359.942 205L358.462 210.435L356.611 202.826L354.39 210.435L352.539 205L351.429 213.696L349.208 219.13L346.987 216.957L345.506 200.652L343.655 221.304L341.434 208.261H339.954L338.103 210.435L336.252 205L334.031 210.435L332.18 205L330.7 210.435L328.849 206.087L326.628 216.957L325.147 213.696L323.296 226.739L317.374 197.391L315.893 213.696L313.672 206.087L311.821 219.13L309.971 198.478L308.12 210.435L306.269 200.652L302.567 216.957L300.717 221.304L297.015 202.826L294.794 216.957L293.313 208.261L291.463 216.957L282.579 168.043L278.137 202.826L274.435 208.261L272.214 193.043L269.993 200.652L265.181 171.304L259.259 202.826L256.297 193.043L255.557 200.652L252.225 185.435L249.264 200.652L246.673 198.478L245.192 193.043L243.712 200.652L241.491 202.826L239.27 225.652L234.458 135.435L226.684 208.261L224.463 213.696L222.613 195.217L221.132 206.087H218.911L217.06 198.478L213.729 168.043L211.878 169.13L210.027 156.087L208.176 168.043L206.326 175.652H204.105L200.403 158.261L198.922 171.304L196.701 158.261L194.851 178.913L193.37 153.913H191.519L189.298 177.826L187.447 160.435L185.967 187.609L183.746 175.652H181.895L180.044 160.435L178.934 164.783L176.342 158.261L172.641 193.043L170.79 164.783L167.088 103.913L161.536 178.913L160.055 174.565L157.834 175.652L156.354 169.13L154.133 171.304L152.282 125.652L150.431 135.435L144.879 132.174L141.547 150.652L139.697 130L137.105 147.391L135.625 125.652L133.774 120.217L131.923 144.13L129.702 140.87L127.851 144.13L126.001 135.435L124.52 103.913L122.669 144.13L120.448 156.087L118.597 132.174L117.117 138.696L115.266 160.435L113.045 153.913L111.564 120.217L110.084 144.13L108.233 140.87L106.382 150.652L103.791 125.652L101.94 123.478L100.089 115.87L98.6086 138.696L96.3876 127.826L94.5368 144.13L92.686 138.696L91.2053 123.478L89.3545 127.826L87.1335 105L85.6529 138.696L83.4319 153.913L81.5811 135.435L80.1005 140.87L77.8795 134.348L76.0287 153.913L74.1779 125.652L72.6973 127.826H70.4763L68.6255 103.913L67.8852 134.348L64.9239 106.087L63.0731 116.957L61.5924 138.696L59.3715 150.652L57.5207 123.478L56.04 127.826L53.8191 80L51.9683 115.87L50.1175 110.435L48.2667 82.1739L44.5651 88.6957L42.7142 102.826L41.2336 127.826L39.0126 103.913L37.1618 116.957L35.311 95.2174" stroke="black" stroke-linecap="round" stroke-linejoin="round"/>
<path d="M34.4434 158.428L36.3987 156.804L37.9315 156.026L39.3856 156.549L41.9763 156.705L45.2154 158.426L47.4752 157.909L49.0735 156.045L51.2023 157.698L53.1052 156.942L54.5331 157.899L56.4098 157.577L58.2078 158.557L60.5463 156.738L62.305 158.369L64.1293 158.914L67.8826 158.27L69.3368 158.793L71.5573 158.928L72.9721 160.102L75.1534 160.887L77.1087 159.263L79.2637 160.482L80.7703 160.137L84.4449 160.795L86.4527 158.303L87.8413 159.911L90.0618 160.045L92.4789 156.924L93.8938 158.099L95.836 156.691L97.9648 158.345L99.8808 157.371L100.886 159.174L103.041 160.393L105.288 160.094L106.965 156.928L108.566 161.163L110.944 158.693L112.425 158.782L114.249 159.328L116.165 158.355L118.32 159.574L120.236 158.601L121.651 159.775L123.553 159.019L125.643 161.323L127.163 160.761L128.856 163.477L135.131 157.976L136.415 161.32L138.727 159.935L140.42 162.651L142.52 158.64L144.226 161.138L146.194 159.297L149.699 162.776L151.497 163.755L155.421 160.29L157.471 163.245L159.056 161.598L160.802 163.446L170.273 154.218L174.295 161.43L177.931 162.738L180.335 159.835L182.463 161.488L187.628 155.919L193.17 162.57L196.248 160.796L196.897 162.359L200.411 159.523L203.188 162.739L205.805 162.462L207.351 161.466L208.74 163.075L210.934 163.643L212.879 168.334L218.778 150.614L225.672 165.622L227.827 166.841L229.9 163.264L231.25 165.523L233.47 165.657L235.412 164.25L239.11 158.375L240.948 158.704L242.955 156.212L244.662 158.71L246.42 160.341L248.641 160.475L252.551 157.227L253.875 159.92L256.252 157.45L257.854 161.685L259.636 156.784L261.486 156.895L263.418 161.803L265.478 158.443L266.631 163.957L268.996 161.705L270.846 161.816L272.88 158.89L273.938 159.825L276.607 158.68L279.889 165.847L282.08 160.317L286.515 148.389L291.162 163.697L292.695 162.918L294.902 163.269L296.461 162.057L298.655 162.625L301.056 153.623L302.789 155.687L308.38 155.372L311.488 159.262L313.587 155.251L315.968 158.879L317.71 154.628L319.626 153.655L321.189 158.541L323.448 158.024L325.26 158.787L327.215 157.163L329.075 150.959L330.441 159.1L332.517 161.621L334.656 156.959L336.058 158.35L337.646 162.802L339.945 161.634L341.832 154.996L343.024 159.86L344.914 159.32L346.646 161.385L349.538 156.551L351.415 156.228L353.357 154.821L354.562 159.468L356.914 157.432L358.568 160.798L360.484 159.825L362.148 156.877L363.946 157.856L366.441 153.434L367.515 160.25L369.552 163.422L371.626 159.845L373.041 161.019L375.34 159.851L376.954 163.869L379.145 158.339L380.6 158.862L382.82 158.996L384.959 154.334L385.332 160.455L388.634 154.992L390.353 157.273L391.571 161.703L393.648 164.224L395.826 158.911L397.254 159.868L400.051 150.454L401.469 157.727L403.385 156.754L405.576 151.224L409.198 152.749L410.878 155.682L412.057 160.762L414.566 156.122L416.259 158.838L418.372 154.61" stroke="#1595C2" stroke-linecap="round" stroke-linejoin="round"/>
<path d="M35.3125 80.4658L417.689 80.6665" stroke="black" stroke-opacity="0.08"/>
<path opacity="0.6" d="M35.3115 110.466L417.688 110.666" stroke="black" stroke-opacity="0.08"/>
<path opacity="0.6" d="M35.3115 140L417.688 140.201" stroke="black" stroke-opacity="0.08"/>
<path opacity="0.6" d="M35.3115 170L417.688 170.201" stroke="black" stroke-opacity="0.08"/>
<path opacity="0.6" d="M35.3115 200L417.688 200.201" stroke="black" stroke-opacity="0.08"/>
<path d="M354.627 55V246" stroke="#1595C2" stroke-dasharray="2 2"/>
<path d="M35.3125 230L417.689 230.201" stroke="black" stroke-opacity="0.08"/>
<path d="M37.6244 246.08C37.0591 246.08 36.5924 245.912 36.2244 245.576C35.8564 245.235 35.6724 244.803 35.6724 244.28C35.6724 243.619 35.9417 243.141 36.4804 242.848C36.1284 242.576 35.9524 242.2 35.9524 241.72C35.9524 241.288 36.1071 240.931 36.4164 240.648C36.7311 240.365 37.1337 240.224 37.6244 240.224C38.1204 240.224 38.5231 240.365 38.8324 240.648C39.1471 240.925 39.3044 241.283 39.3044 241.72C39.3044 242.2 39.1284 242.576 38.7764 242.848C39.3151 243.141 39.5844 243.619 39.5844 244.28C39.5844 244.808 39.4004 245.24 39.0324 245.576C38.6697 245.912 38.2004 246.08 37.6244 246.08ZM37.6244 245.256C37.9497 245.256 38.2084 245.16 38.4004 244.968C38.5924 244.776 38.6884 244.541 38.6884 244.264C38.6884 243.981 38.5924 243.747 38.4004 243.56C38.2084 243.368 37.9524 243.272 37.6324 243.272C37.3071 243.272 37.0484 243.368 36.8564 243.56C36.6644 243.747 36.5684 243.981 36.5684 244.264C36.5684 244.541 36.6644 244.776 36.8564 244.968C37.0537 245.16 37.3097 245.256 37.6244 245.256ZM37.6244 242.528C37.8697 242.528 38.0671 242.456 38.2164 242.312C38.3711 242.163 38.4484 241.984 38.4484 241.776C38.4484 241.557 38.3737 241.379 38.2244 241.24C38.0751 241.096 37.8751 241.024 37.6244 241.024C37.3844 241.024 37.1871 241.096 37.0324 241.24C36.8831 241.384 36.8084 241.563 36.8084 241.776C36.8084 241.984 36.8857 242.163 37.0404 242.312C37.1951 242.456 37.3897 242.528 37.6244 242.528ZM41.0892 243.296C40.9025 243.296 40.7399 243.229 40.6012 243.096C40.4679 242.957 40.4012 242.792 40.4012 242.6C40.4012 242.413 40.4679 242.251 40.6012 242.112C40.7399 241.973 40.9025 241.904 41.0892 241.904C41.2812 241.904 41.4439 241.973 41.5772 242.112C41.7159 242.251 41.7852 242.413 41.7852 242.6C41.7852 242.792 41.7159 242.957 41.5772 243.096C41.4439 243.229 41.2812 243.296 41.0892 243.296ZM41.0892 246.064C40.9025 246.064 40.7399 245.997 40.6012 245.864C40.4679 245.725 40.4012 245.56 40.4012 245.368C40.4012 245.181 40.4679 245.019 40.6012 244.88C40.7399 244.741 40.9025 244.672 41.0892 244.672C41.2812 244.672 41.4439 244.741 41.5772 244.88C41.7159 245.019 41.7852 245.181 41.7852 245.368C41.7852 245.56 41.7159 245.725 41.5772 245.864C41.4439 245.997 41.2812 246.064 41.0892 246.064ZM45.3063 246V244.576H42.3703V243.864L45.4023 240.32H46.1863V243.76H46.9463V244.576H46.1863V246H45.3063ZM43.4743 243.76H45.3063V241.632L43.4743 243.76ZM51.2261 245.472C50.8421 245.877 50.3488 246.08 49.7461 246.08C49.1434 246.08 48.6501 245.877 48.2661 245.472C47.8821 245.061 47.6901 244.536 47.6901 243.896V242.408C47.6901 241.768 47.8821 241.245 48.2661 240.84C48.6501 240.429 49.1434 240.224 49.7461 240.224C50.3488 240.224 50.8421 240.429 51.2261 240.84C51.6154 241.245 51.8101 241.768 51.8101 242.408V243.896C51.8101 244.536 51.6154 245.061 51.2261 245.472ZM49.7461 245.216C50.1034 245.216 50.3888 245.099 50.6021 244.864C50.8208 244.629 50.9301 244.307 50.9301 243.896V242.408C50.9301 241.997 50.8208 241.675 50.6021 241.44C50.3888 241.205 50.1034 241.088 49.7461 241.088C49.3941 241.088 49.1088 241.205 48.8901 241.44C48.6768 241.675 48.5701 241.997 48.5701 242.408V243.896C48.5701 244.307 48.6768 244.629 48.8901 244.864C49.1088 245.099 49.3941 245.216 49.7461 245.216ZM53.9069 246L56.3869 240.32H57.2029L59.6829 246H58.7069L58.0589 244.512H55.5149L54.8749 246H53.9069ZM56.7869 241.584L55.8749 243.68H57.6989L56.7869 241.584ZM60.4147 240.32H61.2707L63.2547 243.008L65.2467 240.32H66.1027V246H65.1587V241.928L63.2627 244.504L61.3507 241.92V246H60.4147V240.32Z" fill="#525252"/>
<path d="M243.323 246V241.192H242.179L242.851 240.32H244.203V246H243.323ZM249.032 245.136V246H245.272V245.68C245.272 245.477 245.302 245.285 245.36 245.104C245.424 244.917 245.491 244.763 245.56 244.64C245.63 244.517 245.744 244.381 245.904 244.232C246.064 244.077 246.187 243.968 246.272 243.904C246.358 243.835 246.507 243.723 246.72 243.568C246.939 243.413 247.078 243.315 247.136 243.272C247.472 243.027 247.715 242.811 247.864 242.624C248.014 242.437 248.088 242.213 248.088 241.952C248.088 241.691 248.008 241.483 247.848 241.328C247.688 241.168 247.467 241.088 247.184 241.088C246.891 241.088 246.648 241.176 246.456 241.352C246.264 241.523 246.166 241.757 246.16 242.056H245.272C245.272 241.517 245.454 241.077 245.816 240.736C246.184 240.395 246.643 240.224 247.192 240.224C247.699 240.224 248.123 240.373 248.464 240.672C248.806 240.971 248.976 241.389 248.976 241.928C248.976 242.355 248.878 242.715 248.68 243.008C248.488 243.296 248.168 243.6 247.72 243.92C247.651 243.973 247.523 244.064 247.336 244.192C247.15 244.32 247.011 244.419 246.92 244.488C246.835 244.557 246.742 244.653 246.64 244.776C246.539 244.893 246.47 245.013 246.432 245.136H249.032ZM250.572 243.296C250.385 243.296 250.222 243.229 250.084 243.096C249.95 242.957 249.884 242.792 249.884 242.6C249.884 242.413 249.95 242.251 250.084 242.112C250.222 241.973 250.385 241.904 250.572 241.904C250.764 241.904 250.926 241.973 251.06 242.112C251.198 242.251 251.268 242.413 251.268 242.6C251.268 242.792 251.198 242.957 251.06 243.096C250.926 243.229 250.764 243.296 250.572 243.296ZM250.572 246.064C250.385 246.064 250.222 245.997 250.084 245.864C249.95 245.725 249.884 245.56 249.884 245.368C249.884 245.181 249.95 245.019 250.084 244.88C250.222 244.741 250.385 244.672 250.572 244.672C250.764 244.672 250.926 244.741 251.06 244.88C251.198 245.019 251.268 245.181 251.268 245.368C251.268 245.56 251.198 245.725 251.06 245.864C250.926 245.997 250.764 246.064 250.572 246.064ZM254.789 246V244.576H251.853V243.864L254.885 240.32H255.669V243.76H256.429V244.576H255.669V246H254.789ZM252.957 243.76H254.789V241.632L252.957 243.76ZM260.709 245.472C260.325 245.877 259.831 246.08 259.229 246.08C258.626 246.08 258.133 245.877 257.749 245.472C257.365 245.061 257.173 244.536 257.173 243.896V242.408C257.173 241.768 257.365 241.245 257.749 240.84C258.133 240.429 258.626 240.224 259.229 240.224C259.831 240.224 260.325 240.429 260.709 240.84C261.098 241.245 261.293 241.768 261.293 242.408V243.896C261.293 244.536 261.098 245.061 260.709 245.472ZM259.229 245.216C259.586 245.216 259.871 245.099 260.085 244.864C260.303 244.629 260.413 244.307 260.413 243.896V242.408C260.413 241.997 260.303 241.675 260.085 241.44C259.871 241.205 259.586 241.088 259.229 241.088C258.877 241.088 258.591 241.205 258.373 241.44C258.159 241.675 258.053 241.997 258.053 242.408V243.896C258.053 244.307 258.159 244.629 258.373 244.864C258.591 245.099 258.877 245.216 259.229 245.216ZM267.535 240.856C267.903 241.208 268.087 241.648 268.087 242.176C268.087 242.704 267.903 243.147 267.535 243.504C267.167 243.856 266.695 244.032 266.119 244.032H265.247V246H264.311V240.32H266.119C266.695 240.32 267.167 240.499 267.535 240.856ZM266.879 242.88C267.071 242.693 267.167 242.459 267.167 242.176C267.167 241.893 267.071 241.661 266.879 241.48C266.693 241.293 266.437 241.2 266.111 241.2H265.247V243.152H266.111C266.437 243.152 266.693 243.061 266.879 242.88ZM269.014 240.32H269.87L271.854 243.008L273.846 240.32H274.702V246H273.758V241.928L271.862 244.504L269.95 241.92V246H269.014V240.32Z" fill="#525252"/>
<path d="M38.5 37C40.433 37 42 35.433 42 33.5C42 31.567 40.433 30 38.5 30C36.567 30 35 31.567 35 33.5C35 35.433 36.567 37 38.5 37Z" fill="#535353"/>
<path d="M48.8398 36.4995V31.4835H47.1118V30.5875H51.5038V31.4835H49.7758V36.4995H48.8398ZM52.5572 36.4995H51.6772V32.1875H52.5172V32.8035C52.7732 32.3182 53.1812 32.0755 53.7412 32.0755C53.9225 32.0755 54.0932 32.0995 54.2532 32.1475L54.1732 33.0035C54.0292 32.9502 53.8718 32.9235 53.7012 32.9235C53.3545 32.9235 53.0772 33.0408 52.8692 33.2755C52.6612 33.5102 52.5572 33.8488 52.5572 34.2915V36.4995ZM58.053 32.7875V32.1875H58.901V36.4995H58.053V35.9075C57.6637 36.3715 57.173 36.6035 56.581 36.6035C55.957 36.6035 55.4423 36.3848 55.037 35.9475C54.6317 35.5102 54.429 34.9662 54.429 34.3155C54.429 33.6702 54.6317 33.1368 55.037 32.7155C55.4423 32.2942 55.957 32.0835 56.581 32.0835C57.173 32.0835 57.6637 32.3182 58.053 32.7875ZM56.701 35.7955C57.101 35.7955 57.4343 35.6542 57.701 35.3715C57.9623 35.0942 58.093 34.7502 58.093 34.3395C58.093 33.9342 57.9623 33.5928 57.701 33.3155C57.4343 33.0328 57.101 32.8915 56.701 32.8915C56.2903 32.8915 55.957 33.0328 55.701 33.3155C55.445 33.5928 55.317 33.9368 55.317 34.3475C55.317 34.7582 55.445 35.1022 55.701 35.3795C55.957 35.6568 56.2903 35.7955 56.701 35.7955ZM63.3726 32.7875V30.4355H64.2606V36.4995H63.3886V35.8995C63.0152 36.3688 62.5326 36.6035 61.9406 36.6035C61.3166 36.6035 60.8019 36.3875 60.3966 35.9555C59.9859 35.5128 59.7806 34.9742 59.7806 34.3395C59.7806 33.7102 59.9859 33.1768 60.3966 32.7395C60.8019 32.3022 61.3139 32.0835 61.9326 32.0835C62.5032 32.0835 62.9832 32.3182 63.3726 32.7875ZM63.4366 34.3395C63.4366 33.9342 63.3086 33.5928 63.0526 33.3155C62.7966 33.0328 62.4632 32.8915 62.0526 32.8915C61.6419 32.8915 61.3086 33.0328 61.0526 33.3155C60.7966 33.5928 60.6686 33.9342 60.6686 34.3395C60.6686 34.7555 60.7966 35.1022 61.0526 35.3795C61.3086 35.6568 61.6419 35.7955 62.0526 35.7955C62.4632 35.7955 62.7966 35.6568 63.0526 35.3795C63.3086 35.1022 63.4366 34.7555 63.4366 34.3395ZM65.8599 31.6195C65.6893 31.6195 65.5453 31.5635 65.4279 31.4515C65.3106 31.3342 65.2519 31.1902 65.2519 31.0195C65.2519 30.8542 65.3106 30.7155 65.4279 30.6035C65.5453 30.4915 65.6893 30.4355 65.8599 30.4355C66.0253 30.4355 66.1639 30.4915 66.2759 30.6035C66.3879 30.7155 66.4439 30.8542 66.4439 31.0195C66.4439 31.1902 66.3879 31.3342 66.2759 31.4515C66.1639 31.5635 66.0253 31.6195 65.8599 31.6195ZM66.2839 32.1875V36.4995H65.4039V32.1875H66.2839ZM70.0274 35.5555L70.3314 36.2435C70.0114 36.4835 69.614 36.6035 69.1394 36.6035C68.6754 36.6035 68.3234 36.4622 68.0834 36.1795C67.8434 35.8968 67.7234 35.4888 67.7234 34.9555V32.9395H66.9794V32.1875H67.7314V30.6595H68.6034V32.1875H70.0914V32.9395H68.6034V34.9715C68.6034 35.5208 68.8247 35.7955 69.2674 35.7955C69.502 35.7955 69.7554 35.7155 70.0274 35.5555ZM71.3912 31.6195C71.2205 31.6195 71.0765 31.5635 70.9592 31.4515C70.8418 31.3342 70.7832 31.1902 70.7832 31.0195C70.7832 30.8542 70.8418 30.7155 70.9592 30.6035C71.0765 30.4915 71.2205 30.4355 71.3912 30.4355C71.5565 30.4355 71.6952 30.4915 71.8072 30.6035C71.9192 30.7155 71.9752 30.8542 71.9752 31.0195C71.9752 31.1902 71.9192 31.3342 71.8072 31.4515C71.6952 31.5635 71.5565 31.6195 71.3912 31.6195ZM71.8152 32.1875V36.4995H70.9352V32.1875H71.8152ZM72.6946 34.3395C72.6946 33.7155 72.9079 33.1822 73.3346 32.7395C73.7666 32.2968 74.3133 32.0755 74.9746 32.0755C75.6359 32.0755 76.1799 32.2968 76.6066 32.7395C77.0386 33.1768 77.2546 33.7102 77.2546 34.3395C77.2546 34.9795 77.0386 35.5182 76.6066 35.9555C76.1853 36.3928 75.6413 36.6115 74.9746 36.6115C74.3133 36.6115 73.7666 36.3928 73.3346 35.9555C72.9079 35.5128 72.6946 34.9742 72.6946 34.3395ZM76.3666 34.3395C76.3666 33.9448 76.2306 33.6062 75.9586 33.3235C75.6973 33.0355 75.3693 32.8915 74.9746 32.8915C74.5853 32.8915 74.2546 33.0355 73.9826 33.3235C73.7159 33.6062 73.5826 33.9448 73.5826 34.3395C73.5826 34.7395 73.7159 35.0808 73.9826 35.3635C74.2546 35.6462 74.5853 35.7875 74.9746 35.7875C75.3639 35.7875 75.6919 35.6462 75.9586 35.3635C76.2306 35.0808 76.3666 34.7395 76.3666 34.3395ZM79.0181 36.4995H78.1381V32.1875H79.0021V32.7955C79.1301 32.5715 79.3141 32.3955 79.5541 32.2675C79.7941 32.1395 80.0661 32.0755 80.3701 32.0755C80.8448 32.0755 81.2448 32.2302 81.5701 32.5395C81.9008 32.8542 82.0661 33.2995 82.0661 33.8755V36.4995H81.1781V34.1235C81.1781 33.7342 81.0848 33.4328 80.8981 33.2195C80.7114 33.0008 80.4608 32.8915 80.1461 32.8915C79.8154 32.8915 79.5434 33.0088 79.3301 33.2435C79.1221 33.4728 79.0181 33.7715 79.0181 34.1395V36.4995ZM86.5139 32.7875V32.1875H87.3619V36.4995H86.5139V35.9075C86.1246 36.3715 85.6339 36.6035 85.0419 36.6035C84.4179 36.6035 83.9033 36.3848 83.4979 35.9475C83.0926 35.5102 82.8899 34.9662 82.8899 34.3155C82.8899 33.6702 83.0926 33.1368 83.4979 32.7155C83.9033 32.2942 84.4179 32.0835 85.0419 32.0835C85.6339 32.0835 86.1246 32.3182 86.5139 32.7875ZM85.1619 35.7955C85.5619 35.7955 85.8953 35.6542 86.1619 35.3715C86.4233 35.0942 86.5539 34.7502 86.5539 34.3395C86.5539 33.9342 86.4233 33.5928 86.1619 33.3155C85.8953 33.0328 85.5619 32.8915 85.1619 32.8915C84.7513 32.8915 84.4179 33.0328 84.1619 33.3155C83.9059 33.5928 83.7779 33.9368 83.7779 34.3475C83.7779 34.7582 83.9059 35.1022 84.1619 35.3795C84.4179 35.6568 84.7513 35.7955 85.1619 35.7955ZM89.3775 30.4355V36.4995H88.4975V30.4355H89.3775ZM94.2022 36.4915H93.4502L91.9782 32.1875H92.9062L93.8742 35.2835L94.9862 32.1875H95.6102L96.7542 35.2835L97.6902 32.1875H98.6182L97.1702 36.4915H96.4182L95.2982 33.4355L94.2022 36.4915ZM102.538 32.7875V32.1875H103.386V36.4995H102.538V35.9075C102.148 36.3715 101.658 36.6035 101.066 36.6035C100.442 36.6035 99.9267 36.3848 99.5214 35.9475C99.116 35.5102 98.9134 34.9662 98.9134 34.3155C98.9134 33.6702 99.116 33.1368 99.5214 32.7155C99.9267 32.2942 100.442 32.0835 101.066 32.0835C101.658 32.0835 102.148 32.3182 102.538 32.7875ZM101.186 35.7955C101.586 35.7955 101.919 35.6542 102.186 35.3715C102.447 35.0942 102.578 34.7502 102.578 34.3395C102.578 33.9342 102.447 33.5928 102.186 33.3155C101.919 33.0328 101.586 32.8915 101.186 32.8915C100.775 32.8915 100.442 33.0328 100.186 33.3155C99.9294 33.5928 99.8014 33.9368 99.8014 34.3475C99.8014 34.7582 99.9294 35.1022 100.186 35.3795C100.442 35.6568 100.775 35.7955 101.186 35.7955ZM106.329 35.2995L107.433 32.1875H108.401L106.617 36.8915C106.425 37.3982 106.201 37.7635 105.945 37.9875C105.689 38.2168 105.377 38.3315 105.009 38.3315C104.705 38.3315 104.46 38.2702 104.273 38.1475L104.401 37.3875C104.609 37.4782 104.788 37.5235 104.937 37.5235C105.284 37.5235 105.566 37.2782 105.785 36.7875L105.921 36.4675L104.049 32.1875H105.065L106.329 35.2995Z" fill="black" fill-opacity="0.42"/>
<path d="M38.5 50C40.433 50 42 48.433 42 46.5C42 44.567 40.433 43 38.5 43C36.567 43 35 44.567 35 46.5C35 48.433 36.567 50 38.5 50Z" fill="#0784B5"/>
<path d="M47.7202 43.5878H49.7602C50.4055 43.5878 50.8935 43.7718 51.2242 44.1398C51.5602 44.5025 51.7282 44.9425 51.7282 45.4598C51.7282 45.9718 51.5549 46.4091 51.2082 46.7718C50.8669 47.1291 50.3575 47.3078 49.6802 47.3078H48.6402V49.4998H47.7202V43.5878ZM48.6402 46.4598H49.7042C50.0455 46.4598 50.3122 46.3638 50.5042 46.1718C50.6962 45.9745 50.7922 45.7318 50.7922 45.4438C50.7922 45.1558 50.7042 44.9185 50.5282 44.7318C50.3522 44.5451 50.1095 44.4518 49.8002 44.4518H48.6402V46.4598ZM53.3935 49.4998H52.5135V45.1878H53.3535V45.8038C53.6095 45.3185 54.0175 45.0758 54.5775 45.0758C54.7588 45.0758 54.9295 45.0998 55.0895 45.1478L55.0095 46.0038C54.8655 45.9505 54.7082 45.9238 54.5375 45.9238C54.1908 45.9238 53.9135 46.0411 53.7055 46.2758C53.4975 46.5105 53.3935 46.8491 53.3935 47.2918V49.4998ZM56.1728 44.6198C56.0022 44.6198 55.8582 44.5638 55.7408 44.4518C55.6235 44.3345 55.5648 44.1905 55.5648 44.0198C55.5648 43.8545 55.6235 43.7158 55.7408 43.6038C55.8582 43.4918 56.0022 43.4358 56.1728 43.4358C56.3382 43.4358 56.4768 43.4918 56.5888 43.6038C56.7008 43.7158 56.7568 43.8545 56.7568 44.0198C56.7568 44.1905 56.7008 44.3345 56.5888 44.4518C56.4768 44.5638 56.3382 44.6198 56.1728 44.6198ZM56.5968 45.1878V49.4998H55.7168V45.1878H56.5968ZM59.7563 49.5958C59.0843 49.5958 58.5376 49.3851 58.1163 48.9638C57.6896 48.5371 57.4763 47.9985 57.4763 47.3478C57.4763 46.6918 57.6923 46.1505 58.1243 45.7238C58.5616 45.2971 59.1163 45.0838 59.7883 45.0838C60.2203 45.0838 60.6149 45.1878 60.9723 45.3958C61.3349 45.6038 61.6016 45.8838 61.7723 46.2358L61.0443 46.6438C60.9109 46.4145 60.7323 46.2331 60.5083 46.0998C60.2896 45.9611 60.0523 45.8918 59.7963 45.8918C59.3856 45.8918 59.0443 46.0305 58.7723 46.3078C58.5003 46.5905 58.3643 46.9371 58.3643 47.3478C58.3643 47.7478 58.4976 48.0891 58.7643 48.3718C59.0256 48.6491 59.3589 48.7878 59.7643 48.7878C60.0203 48.7878 60.2656 48.7185 60.5003 48.5798C60.7349 48.4411 60.9083 48.2651 61.0203 48.0518L61.7483 48.4758C61.5723 48.8118 61.3029 49.0838 60.9403 49.2918C60.5829 49.4945 60.1883 49.5958 59.7563 49.5958ZM66.5853 47.2598C66.5853 47.3985 66.5747 47.5398 66.5533 47.6838H63.1853C63.2493 48.0305 63.4013 48.3051 63.6413 48.5078C63.8867 48.7105 64.212 48.8118 64.6173 48.8118C64.8627 48.8118 65.1187 48.7691 65.3853 48.6838C65.6573 48.5985 65.8893 48.4865 66.0813 48.3478L66.4493 48.9958C65.9107 49.3958 65.2893 49.5958 64.5853 49.5958C63.828 49.5958 63.252 49.3745 62.8573 48.9318C62.468 48.4891 62.2733 47.9558 62.2733 47.3318C62.2733 46.6811 62.476 46.1451 62.8813 45.7238C63.292 45.2971 63.8227 45.0838 64.4733 45.0838C65.0973 45.0838 65.604 45.2785 65.9933 45.6678C66.388 46.0625 66.5853 46.5931 66.5853 47.2598ZM64.4733 45.8438C64.1427 45.8438 63.86 45.9478 63.6253 46.1558C63.396 46.3585 63.2493 46.6278 63.1853 46.9638H65.6973C65.66 46.6278 65.5267 46.3585 65.2973 46.1558C65.0733 45.9478 64.7987 45.8438 64.4733 45.8438ZM71.1401 49.4918H70.3881L68.9161 45.1878H69.8441L70.8121 48.2838L71.9241 45.1878H72.5481L73.6921 48.2838L74.6281 45.1878H75.5561L74.1081 49.4918H73.3561L72.2361 46.4358L71.1401 49.4918ZM76.6806 44.6198C76.51 44.6198 76.366 44.5638 76.2486 44.4518C76.1313 44.3345 76.0726 44.1905 76.0726 44.0198C76.0726 43.8545 76.1313 43.7158 76.2486 43.6038C76.366 43.4918 76.51 43.4358 76.6806 43.4358C76.846 43.4358 76.9846 43.4918 77.0966 43.6038C77.2086 43.7158 77.2646 43.8545 77.2646 44.0198C77.2646 44.1905 77.2086 44.3345 77.0966 44.4518C76.9846 44.5638 76.846 44.6198 76.6806 44.6198ZM77.1046 45.1878V49.4998H76.2246V45.1878H77.1046ZM80.8481 48.5558L81.1521 49.2438C80.8321 49.4838 80.4347 49.6038 79.9601 49.6038C79.4961 49.6038 79.1441 49.4625 78.9041 49.1798C78.6641 48.8971 78.5441 48.4891 78.5441 47.9558V45.9398H77.8001V45.1878H78.5521V43.6598H79.4241V45.1878H80.9121V45.9398H79.4241V47.9718C79.4241 48.5211 79.6454 48.7958 80.0881 48.7958C80.3227 48.7958 80.5761 48.7158 80.8481 48.5558ZM82.6279 49.4998H81.7479V43.4358H82.6039V45.7318C82.7319 45.5291 82.9159 45.3691 83.1559 45.2518C83.4012 45.1345 83.6732 45.0758 83.9719 45.0758C84.4466 45.0758 84.8466 45.2305 85.1719 45.5398C85.4972 45.8491 85.6599 46.2945 85.6599 46.8758V49.4998H84.7799V47.1238C84.7799 46.7345 84.6866 46.4331 84.4999 46.2198C84.3132 46.0011 84.0626 45.8918 83.7479 45.8918C83.4172 45.8918 83.1479 46.0065 82.9399 46.2358C82.7319 46.4651 82.6279 46.7638 82.6279 47.1318V49.4998ZM92.8045 47.6278V43.5878H93.7165V49.4998H93.1725L89.7885 45.4918V49.4998H88.8765V43.5878H89.3565L92.8045 47.6278ZM99.0228 47.2598C99.0228 47.3985 99.0122 47.5398 98.9908 47.6838H95.6228C95.6868 48.0305 95.8388 48.3051 96.0788 48.5078C96.3242 48.7105 96.6495 48.8118 97.0548 48.8118C97.3002 48.8118 97.5562 48.7691 97.8228 48.6838C98.0948 48.5985 98.3268 48.4865 98.5188 48.3478L98.8868 48.9958C98.3482 49.3958 97.7268 49.5958 97.0228 49.5958C96.2655 49.5958 95.6895 49.3745 95.2948 48.9318C94.9055 48.4891 94.7108 47.9558 94.7108 47.3318C94.7108 46.6811 94.9135 46.1451 95.3188 45.7238C95.7295 45.2971 96.2602 45.0838 96.9108 45.0838C97.5348 45.0838 98.0415 45.2785 98.4308 45.6678C98.8255 46.0625 99.0228 46.5931 99.0228 47.2598ZM96.9108 45.8438C96.5802 45.8438 96.2975 45.9478 96.0628 46.1558C95.8335 46.3585 95.6868 46.6278 95.6228 46.9638H98.1348C98.0975 46.6278 97.9642 46.3585 97.7348 46.1558C97.5108 45.9478 97.2362 45.8438 96.9108 45.8438ZM101.962 44.1078C101.674 44.1078 101.452 44.1825 101.298 44.3318C101.148 44.4758 101.074 44.6838 101.074 44.9558V45.1878H102.434V45.9398H101.074V49.4998H100.194V45.9398H99.474V45.1878H100.194V44.9398C100.194 44.4225 100.343 44.0198 100.642 43.7318C100.94 43.4438 101.343 43.2998 101.85 43.2998C102.212 43.2998 102.562 43.3878 102.898 43.5638L102.618 44.2758C102.356 44.1638 102.138 44.1078 101.962 44.1078ZM107.015 47.2598C107.015 47.3985 107.004 47.5398 106.983 47.6838H103.615C103.679 48.0305 103.831 48.3051 104.071 48.5078C104.316 48.7105 104.641 48.8118 105.047 48.8118C105.292 48.8118 105.548 48.7691 105.815 48.6838C106.087 48.5985 106.319 48.4865 106.511 48.3478L106.879 48.9958C106.34 49.3958 105.719 49.5958 105.015 49.5958C104.257 49.5958 103.681 49.3745 103.287 48.9318C102.897 48.4891 102.703 47.9558 102.703 47.3318C102.703 46.6811 102.905 46.1451 103.311 45.7238C103.721 45.2971 104.252 45.0838 104.903 45.0838C105.527 45.0838 106.033 45.2785 106.423 45.6678C106.817 46.0625 107.015 46.5931 107.015 47.2598ZM104.903 45.8438C104.572 45.8438 104.289 45.9478 104.055 46.1558C103.825 46.3585 103.679 46.6278 103.615 46.9638H106.127C106.089 46.6278 105.956 46.3585 105.727 46.1558C105.503 45.9478 105.228 45.8438 104.903 45.8438ZM108.761 49.4998H107.881V45.1878H108.745V45.7958C108.873 45.5718 109.057 45.3958 109.297 45.2678C109.537 45.1398 109.809 45.0758 110.113 45.0758C110.587 45.0758 110.987 45.2305 111.312 45.5398C111.643 45.8545 111.809 46.2998 111.809 46.8758V49.4998H110.921V47.1238C110.921 46.7345 110.827 46.4331 110.641 46.2198C110.454 46.0011 110.203 45.8918 109.889 45.8918C109.558 45.8918 109.286 46.0091 109.073 46.2438C108.865 46.4731 108.761 46.7718 108.761 47.1398V49.4998ZM115.449 48.5558L115.753 49.2438C115.433 49.4838 115.036 49.6038 114.561 49.6038C114.097 49.6038 113.745 49.4625 113.505 49.1798C113.265 48.8971 113.145 48.4891 113.145 47.9558V45.9398H112.401V45.1878H113.153V43.6598H114.025V45.1878H115.513V45.9398H114.025V47.9718C114.025 48.5211 114.247 48.7958 114.689 48.7958C114.924 48.7958 115.177 48.7158 115.449 48.5558ZM118.181 49.6038C117.605 49.6038 117.147 49.4358 116.805 49.0998C116.464 48.7638 116.293 48.3078 116.293 47.7318V45.1878H117.173V47.7238C117.173 48.0491 117.261 48.3078 117.437 48.4998C117.619 48.6918 117.867 48.7878 118.181 48.7878C118.501 48.7878 118.749 48.6945 118.925 48.5078C119.101 48.3211 119.189 48.0598 119.189 47.7238V45.1878H120.077V47.7318C120.077 48.3185 119.909 48.7771 119.573 49.1078C119.237 49.4385 118.773 49.6038 118.181 49.6038ZM122.426 49.6038C122.085 49.6038 121.767 49.5265 121.474 49.3718C121.181 49.2171 120.946 48.9931 120.77 48.6998L121.338 48.1878C121.466 48.3958 121.629 48.5585 121.826 48.6758C122.029 48.7878 122.234 48.8438 122.442 48.8438C122.65 48.8438 122.821 48.7931 122.954 48.6918C123.087 48.5851 123.154 48.4571 123.154 48.3078C123.154 48.0945 123.031 47.9291 122.786 47.8118C122.722 47.7745 122.549 47.7025 122.266 47.5958C121.978 47.4731 121.797 47.3905 121.722 47.3478C121.263 47.1078 121.034 46.7531 121.034 46.2838C121.034 45.9265 121.167 45.6305 121.434 45.3958C121.711 45.1611 122.069 45.0438 122.506 45.0438C123.119 45.0438 123.591 45.2651 123.922 45.7078L123.41 46.2518C123.154 45.9371 122.839 45.7798 122.466 45.7798C122.29 45.7798 122.149 45.8251 122.042 45.9158C121.941 46.0065 121.89 46.1185 121.89 46.2518C121.89 46.4651 122.01 46.6225 122.25 46.7238L122.69 46.9078C122.973 47.0251 123.175 47.1158 123.298 47.1798C123.789 47.4358 124.034 47.7985 124.034 48.2678C124.034 48.6465 123.885 48.9638 123.586 49.2198C123.287 49.4758 122.901 49.6038 122.426 49.6038Z" fill="black" fill-opacity="0.42"/>
</g>
<defs>
<radialGradient id="paint0_radial_1093_2267" cx="0" cy="0" r="1" gradientUnits="userSpaceOnUse" gradientTransform="translate(119.627 40.5985) scale(292.177 208.666)">
<stop stop-color="#F6F9FC"/>
<stop offset="0.5" stop-color="#FBFCFE"/>
<stop offset="1" stop-color="white"/>
</radialGradient>
<linearGradient id="paint1_linear_1093_2267" x1="125.291" y1="115.152" x2="77.5021" y2="-12.5381" gradientUnits="userSpaceOnUse">
<stop stop-opacity="0"/>
<stop offset="0.17" stop-opacity="0.05"/>
<stop offset="0.33" stop-opacity="0.1"/>
</linearGradient>
<clipPath id="clip0_1093_2267">
<rect width="453" height="282" fill="white"/>
</clipPath>
</defs>
</svg>
