<svg width="96" height="96" viewBox="0 0 96 96" fill="none" xmlns="http://www.w3.org/2000/svg">
<g clip-path="url(#clip0_1094_2789)">
<path d="M71 0H25C11.1929 0 0 11.1929 0 25V71C0 84.8071 11.1929 96 25 96H71C84.8071 96 96 84.8071 96 71V25C96 11.1929 84.8071 0 71 0Z" fill="white"/>
<path d="M71 0.5H25C11.469 0.5 0.5 11.469 0.5 25V71C0.5 84.531 11.469 95.5 25 95.5H71C84.531 95.5 95.5 84.531 95.5 71V25C95.5 11.469 84.531 0.5 71 0.5Z" stroke="black" stroke-opacity="0.1"/>
<mask id="mask0_1094_2789" style="mask-type:luminance" maskUnits="userSpaceOnUse" x="16" y="17" width="64" height="64">
<path d="M80 17H16V81H80V17Z" fill="white"/>
</mask>
<g mask="url(#mask0_1094_2789)">
<path d="M48 81C65.6731 81 80 66.6731 80 49C80 31.3269 65.6731 17 48 17C30.3269 17 16 31.3269 16 49C16 66.6731 30.3269 81 48 81Z" fill="#627EEA"/>
<path d="M48.9961 25V42.74L63.9901 49.44L48.9961 25Z" fill="white" fill-opacity="0.602"/>
<path d="M48.996 25L34 49.44L48.996 42.74V25Z" fill="white"/>
<path d="M48.9961 60.9364V72.9904L64.0001 52.2324L48.9961 60.9364Z" fill="white" fill-opacity="0.602"/>
<path d="M48.996 72.9904V60.9344L34 52.2324L48.996 72.9904Z" fill="white"/>
<path d="M48.9961 58.1461L63.9901 49.4401L48.9961 42.7441V58.1461Z" fill="white" fill-opacity="0.2"/>
<path d="M34 49.4401L48.996 58.1461V42.7441L34 49.4401Z" fill="white" fill-opacity="0.602"/>
</g>
</g>
<defs>
<clipPath id="clip0_1094_2789">
<rect width="96" height="96" fill="white"/>
</clipPath>
</defs>
</svg>
