<svg width="96" height="96" viewBox="0 0 96 96" fill="none" xmlns="http://www.w3.org/2000/svg">
<g clip-path="url(#clip0_1094_2775)">
<path d="M71 0H25C11.1929 0 0 11.1929 0 25V71C0 84.8071 11.1929 96 25 96H71C84.8071 96 96 84.8071 96 71V25C96 11.1929 84.8071 0 71 0Z" fill="white"/>
<path d="M71 0.5H25C11.469 0.5 0.5 11.469 0.5 25V71C0.5 84.531 11.469 95.5 25 95.5H71C84.531 95.5 95.5 84.531 95.5 71V25C95.5 11.469 84.531 0.5 71 0.5Z" stroke="black" stroke-opacity="0.1"/>
<path d="M47.9874 16C65.6686 16 80 30.3314 80 48.0126C80 65.6938 65.6686 80.0126 48 80.0126C30.3188 80.0126 16 65.6812 16 48.0126C15.9874 30.3314 30.3188 16 47.9874 16Z" fill="#8247E5"/>
<mask id="mask0_1094_2775" style="mask-type:luminance" maskUnits="userSpaceOnUse" x="26" y="29" width="43" height="38">
<path d="M68.7403 29.8398H26.7915V66.6001H68.7403V29.8398Z" fill="white"/>
</mask>
<g mask="url(#mask0_1094_2775)">
<path d="M58.4773 41.0357C57.7091 40.5949 56.7268 40.5949 55.8578 41.0357L49.7374 44.6626L45.5815 46.9672L39.5745 50.5815C38.8063 51.0223 37.824 51.0223 36.955 50.5815L32.2577 47.7228C31.4895 47.282 30.9479 46.4005 30.9479 45.4182V39.9274C30.9479 39.0459 31.3887 38.1769 32.2577 37.6228L36.955 34.8775C37.7232 34.4367 38.7055 34.4367 39.5745 34.8775L44.2718 37.7362C45.04 38.1769 45.5815 39.0585 45.5815 40.0408V43.6677L49.7374 41.2498V37.5221C49.7374 36.6405 49.2966 35.7716 48.4277 35.2175L39.6878 30.0542C38.9196 29.6134 37.9373 29.6134 37.0684 30.0542L28.1144 35.3308C27.2455 35.7716 26.8047 36.6531 26.8047 37.5221V47.8361C26.8047 48.7177 27.2455 49.5866 28.1144 50.1407L36.9676 55.3041C37.7358 55.7448 38.7181 55.7448 39.5871 55.3041L45.5941 51.7905L49.75 49.3725L55.7571 45.859C56.5253 45.4182 57.5076 45.4182 58.3765 45.859L63.0739 48.6043C63.8421 49.0451 64.3836 49.9267 64.3836 50.9089V56.3997C64.3836 57.2812 63.9428 58.1502 63.0739 58.7043L58.4898 61.4497C57.7216 61.8904 56.7394 61.8904 55.8704 61.4497L51.1604 58.7043C50.3922 58.2635 49.8507 57.382 49.8507 56.3997V52.8861L45.6949 55.3041V58.931C45.6949 59.8125 46.1357 60.6815 47.0046 61.2356L55.8578 66.3989C56.626 66.8397 57.6083 66.8397 58.4773 66.3989L67.3305 61.2356C68.0987 60.7948 68.6402 59.9133 68.6402 58.931V48.5036C68.6402 47.622 68.1994 46.7531 67.3305 46.199L58.4773 41.0357Z" fill="white"/>
</g>
</g>
<defs>
<clipPath id="clip0_1094_2775">
<rect width="96" height="96" fill="white"/>
</clipPath>
</defs>
</svg>
