<svg width="96" height="96" viewBox="0 0 96 96" fill="none" xmlns="http://www.w3.org/2000/svg">
<g clip-path="url(#clip0_1094_2784)">
<path d="M71 0H25C11.1929 0 0 11.1929 0 25V71C0 84.8071 11.1929 96 25 96H71C84.8071 96 96 84.8071 96 71V25C96 11.1929 84.8071 0 71 0Z" fill="white"/>
<path d="M71 0.5H25C11.469 0.5 0.5 11.469 0.5 25V71C0.5 84.531 11.469 95.5 25 95.5H71C84.531 95.5 95.5 84.531 95.5 71V25C95.5 11.469 84.531 0.5 71 0.5Z" stroke="black" stroke-opacity="0.1"/>
<path d="M79.0355 55.7416C74.7615 72.8846 57.3985 83.3176 40.2535 79.0426C23.1155 74.7686 12.6825 57.4046 16.9585 40.2626C21.2305 23.1176 38.5935 12.6836 55.7335 16.9576C72.8775 21.2316 83.3095 38.5976 79.0355 55.7416Z" fill="#F7931A"/>
<path d="M62.1053 43.4414C62.7423 39.1834 59.5003 36.8944 55.0673 35.3674L56.5053 29.5994L52.9943 28.7244L51.5943 34.3404C50.6713 34.1104 49.7233 33.8934 48.7813 33.6784L50.1913 28.0254L46.6823 27.1504L45.2433 32.9164C44.4793 32.7424 43.7293 32.5704 43.0013 32.3894L43.0053 32.3714L38.1633 31.1624L37.2293 34.9124C37.2293 34.9124 39.8343 35.5094 39.7793 35.5464C41.2013 35.9014 41.4583 36.8424 41.4153 37.5884L39.7773 44.1594C39.8753 44.1844 40.0023 44.2204 40.1423 44.2764C40.0253 44.2474 39.9003 44.2154 39.7713 44.1844L37.4753 53.3894C37.3013 53.8214 36.8603 54.4694 35.8663 54.2234C35.9013 54.2744 33.3143 53.5864 33.3143 53.5864L31.5713 57.6054L36.1403 58.7444C36.9903 58.9574 37.8233 59.1804 38.6433 59.3904L37.1903 65.2244L40.6973 66.0994L42.1363 60.3274C43.0943 60.5874 44.0243 60.8274 44.9343 61.0534L43.5003 66.7984L47.0113 67.6734L48.4643 61.8504C54.4513 62.9834 58.9533 62.5264 60.8483 57.1114C62.3753 52.7514 60.7723 50.2364 57.6223 48.5964C59.9163 48.0674 61.6443 46.5584 62.1053 43.4414ZM54.0833 54.6904C52.9983 59.0504 45.6573 56.6934 43.2773 56.1024L45.2053 48.3734C47.5853 48.9674 55.2173 50.1434 54.0833 54.6904ZM55.1693 43.3784C54.1793 47.3444 48.0693 45.3294 46.0873 44.8354L47.8353 37.8254C49.8173 38.3194 56.2003 39.2414 55.1693 43.3784Z" fill="white"/>
</g>
<defs>
<clipPath id="clip0_1094_2784">
<rect width="96" height="96" fill="white"/>
</clipPath>
</defs>
</svg>
