<svg width="96" height="96" viewBox="0 0 96 96" fill="none" xmlns="http://www.w3.org/2000/svg">
<g clip-path="url(#clip0_1094_2741)">
<path d="M71 0H25C11.1929 0 0 11.1929 0 25V71C0 84.8071 11.1929 96 25 96H71C84.8071 96 96 84.8071 96 71V25C96 11.1929 84.8071 0 71 0Z" fill="white"/>
<path d="M71 0.5H25C11.469 0.5 0.5 11.469 0.5 25V71C0.5 84.531 11.469 95.5 25 95.5H71C84.531 95.5 95.5 84.531 95.5 71V25C95.5 11.469 84.531 0.5 71 0.5Z" stroke="black" stroke-opacity="0.1"/>
<path d="M48 16C65.6707 16 80 30.3293 80 48C80 65.6707 65.6707 80 48 80C30.3293 80 16 65.6707 16 48C16 30.3293 30.3293 16 48 16Z" fill="#0033AD"/>
<path d="M38.2316 47.9459C38.1373 49.5493 39.3702 50.9236 40.9735 51.0112C41.0342 51.0112 41.0881 51.0112 41.1487 51.0112C42.7655 51.0112 44.0657 49.711 44.0523 48.0941C44.0523 46.4773 42.7521 45.1771 41.1352 45.1905C39.5925 45.1838 38.3125 46.3964 38.2316 47.9459Z" fill="white"/>
<path d="M27.3719 47.1914C26.8532 47.1577 26.4018 47.5619 26.3816 48.0806C26.3614 48.5994 26.7521 49.0508 27.2709 49.071C27.7896 49.1046 28.2275 48.7004 28.2612 48.1817C28.2949 47.663 27.8907 47.2251 27.3719 47.1914Z" fill="white"/>
<path d="M38.0496 31.0366C38.5077 30.8076 38.6963 30.2282 38.4673 29.7701C38.2382 29.312 37.6588 29.1234 37.2007 29.3524C36.7426 29.5815 36.554 30.1474 36.7831 30.6122C37.0121 31.0838 37.578 31.2792 38.0496 31.0366Z" fill="white"/>
<path d="M41.0002 36.1899C41.7143 35.8329 42.004 34.9571 41.647 34.243C41.2899 33.5289 40.4141 33.2392 39.7 33.5962C38.9859 33.9533 38.6962 34.8291 39.0533 35.5432C39.4103 36.264 40.2861 36.547 41.0002 36.1899Z" fill="white"/>
<path d="M31.0638 39.7338C31.6162 40.0909 32.3572 39.9427 32.721 39.3903C33.0781 38.8379 32.9299 38.0968 32.3774 37.7331C31.825 37.376 31.084 37.5242 30.7202 38.0766C30.3496 38.6291 30.5046 39.3767 31.0638 39.7338Z" fill="white"/>
<path d="M32.8286 46.6725C32.0202 46.6254 31.3397 47.2384 31.2926 48.0469C31.2454 48.8553 31.8585 49.5357 32.6669 49.5829C33.4753 49.63 34.1557 49.017 34.2029 48.2085C34.2433 47.4136 33.6303 46.7197 32.8286 46.6725Z" fill="white"/>
<path d="M31.2185 56.4412C30.6324 56.7443 30.3898 57.4584 30.6862 58.058C30.9894 58.6441 31.7035 58.8866 32.3031 58.5902C32.8892 58.2871 33.1317 57.573 32.8353 56.9734C32.5389 56.3873 31.8113 56.1447 31.2185 56.4412Z" fill="white"/>
<path d="M36.8708 43.6683C37.6657 44.187 38.7302 43.9715 39.2354 43.1698C39.7542 42.3748 39.5386 41.3104 38.7369 40.8052C37.942 40.2864 36.8775 40.502 36.3723 41.3037C35.8603 42.0852 36.0758 43.1496 36.8708 43.6683Z" fill="white"/>
<path d="M54.8044 36.0761C55.4714 36.514 56.3809 36.3321 56.8255 35.6584C57.2634 34.9915 57.0815 34.082 56.4078 33.6374C55.7409 33.1995 54.8314 33.3814 54.3868 34.055C53.9421 34.7422 54.124 35.6382 54.8044 36.0761Z" fill="white"/>
<path d="M57.782 30.9494C58.2199 31.2391 58.7993 31.1111 59.0822 30.6732C59.3719 30.2353 59.2439 29.656 58.806 29.373C58.3681 29.0833 57.7888 29.2113 57.5058 29.6358C57.2229 30.0737 57.3509 30.6598 57.782 30.9494Z" fill="white"/>
<path d="M55.02 45.1642C53.4167 45.0699 52.0356 46.3028 51.9548 47.9062C51.8605 49.5095 53.0933 50.8906 54.6967 50.9714C54.7573 50.9714 54.8112 50.9714 54.8584 50.9714C56.4617 50.9714 57.7619 49.6712 57.7619 48.0544C57.7754 46.5251 56.5695 45.245 55.02 45.1642Z" fill="white"/>
<path d="M41.9572 43.4596C42.4557 44.4364 43.4595 45.0629 44.5644 45.0629C46.1677 45.0629 47.4679 43.7627 47.4679 42.1459C47.4679 41.6945 47.3669 41.2432 47.158 40.8322C46.4305 39.3905 44.6789 38.8112 43.2507 39.5387C41.809 40.2731 41.2296 42.0314 41.9572 43.4596Z" fill="white"/>
<path d="M64.7745 39.7338C65.3606 39.4306 65.5964 38.7098 65.2933 38.117C64.9969 37.5309 64.2693 37.2951 63.6764 37.5982C63.0903 37.9014 62.8545 38.6155 63.1442 39.2016C63.4609 39.7877 64.1817 40.0302 64.7745 39.7338Z" fill="white"/>
<path d="M57.3979 40.6566C56.5558 41.0811 56.2122 42.1118 56.6366 42.9539C57.0611 43.796 58.0918 44.1396 58.9339 43.7152C59.776 43.2908 60.1196 42.26 59.6952 41.4179C59.264 40.5758 58.24 40.239 57.3979 40.6566Z" fill="white"/>
<path d="M47.8853 30.5113C48.5455 30.545 49.1047 30.0397 49.1519 29.3795C49.199 28.7193 48.6803 28.1601 48.0201 28.113C47.3599 28.0793 46.8007 28.5711 46.7535 29.2313C46.7199 29.8982 47.2251 30.4641 47.8853 30.5113Z" fill="white"/>
<path d="M47.8719 38.0363C48.8151 38.0969 49.6235 37.3694 49.6706 36.4195C49.7313 35.4763 49.0037 34.6679 48.0538 34.6207C47.1106 34.5601 46.3022 35.2877 46.2551 36.2376C46.2146 37.1875 46.9287 37.9892 47.8719 38.0363Z" fill="white"/>
<path d="M38.6019 55.5179C39.444 55.0935 39.7876 54.0628 39.3631 53.2206C38.9387 52.3785 37.908 52.035 37.0659 52.4594C36.2238 52.8838 35.8802 53.9145 36.3046 54.7566C36.7358 55.5988 37.7598 55.9423 38.6019 55.5179Z" fill="white"/>
<path d="M48.9837 40.5422C48.108 41.8896 48.4785 43.6883 49.8258 44.5641C51.1732 45.4399 52.972 45.0694 53.8477 43.722C54.7235 42.3746 54.353 40.5759 53.0056 39.7001C52.5341 39.3902 51.9816 39.2285 51.4157 39.2285C50.4322 39.2285 49.5227 39.7203 48.9837 40.5422Z" fill="white"/>
<path d="M54.0428 52.716C53.3152 51.2743 51.5636 50.6949 50.1354 51.4225C48.6937 52.1501 48.1144 53.9017 48.842 55.3299C49.5695 56.7716 51.3211 57.3509 52.7493 56.6234C54.1775 55.9093 54.7704 54.1779 54.0495 52.7362C54.0563 52.7295 54.0563 52.7295 54.0428 52.716Z" fill="white"/>
<path d="M59.1293 52.5073C58.3343 51.9886 57.2699 52.2042 56.7647 53.0059C56.2459 53.8008 56.4615 54.8652 57.2632 55.3705C58.0581 55.8892 59.1225 55.6737 59.6278 54.872C60.1398 54.0905 59.9242 53.0261 59.1293 52.5073Z" fill="white"/>
<path d="M64.7073 48.1411C64.7545 47.3327 64.1414 46.6522 63.333 46.6051C62.5246 46.5579 61.8441 47.171 61.797 47.9794C61.7498 48.7878 62.3629 49.4682 63.1713 49.5154C63.973 49.5558 64.6601 48.936 64.7073 48.1411Z" fill="white"/>
<path d="M68.7293 47.1035C68.2106 47.0698 67.7592 47.474 67.739 47.9928C67.7188 48.5115 68.1096 48.9629 68.6283 48.9831C69.147 49.0168 69.5849 48.6126 69.6186 48.0938C69.6456 47.5751 69.2548 47.1372 68.7293 47.1035Z" fill="white"/>
<path d="M64.9362 56.4411C64.3838 56.084 63.6427 56.2322 63.2789 56.7846C62.9219 57.3371 63.0701 58.0781 63.6225 58.4419C64.1749 58.799 64.916 58.6508 65.2798 58.0983C65.6503 57.5459 65.4953 56.7981 64.9362 56.4411Z" fill="white"/>
<path d="M38.2113 65.2265C37.7734 64.9368 37.194 65.0648 36.911 65.4892C36.6214 65.9271 36.7494 66.5065 37.1738 66.7894C37.6117 67.0791 38.191 66.9511 38.474 66.5267C38.7772 66.1023 38.6492 65.5162 38.2113 65.2265Z" fill="white"/>
<path d="M57.9503 65.1386C57.4921 65.3677 57.3035 65.9471 57.5326 66.4052C57.7616 66.8633 58.341 67.0519 58.7991 66.8228C59.2572 66.5938 59.4458 66.0279 59.2168 65.5631C58.9877 65.0915 58.4218 64.8961 57.9503 65.1386Z" fill="white"/>
<path d="M47.0166 55.6323C47.8924 54.285 47.5218 52.4862 46.1745 51.597C44.8271 50.7212 43.0284 51.0917 42.1391 52.4391C41.2498 53.7865 41.6338 55.5852 42.9812 56.4744C43.4528 56.7843 44.0052 56.946 44.5711 56.946C45.5682 56.9595 46.4776 56.461 47.0166 55.6323Z" fill="white"/>
<path d="M41.1956 60.0993C40.5286 59.6614 39.6192 59.8433 39.1745 60.5169C38.7366 61.1839 38.9185 62.0934 39.5922 62.538C40.2592 62.9759 41.1686 62.794 41.6133 62.1203C42.0646 61.4466 41.876 60.5372 41.1956 60.0993Z" fill="white"/>
<path d="M47.9863 65.6637C47.3261 65.63 46.7669 66.1353 46.7198 66.7955C46.6726 67.4557 47.1914 68.0149 47.8516 68.062C48.5118 68.0957 49.0709 67.6039 49.1181 66.9437C49.1518 66.2767 48.6465 65.7109 47.9863 65.6637Z" fill="white"/>
<path d="M48 58.1393C47.0569 58.0787 46.2484 58.8063 46.2013 59.7562C46.1407 60.6993 46.8682 61.5078 47.8181 61.5549C48.7613 61.6021 49.5697 60.888 49.6169 59.9381C49.6708 59.0017 48.9432 58.1865 48 58.1393Z" fill="white"/>
<path d="M54.9995 59.9852C54.2854 60.3558 53.9957 61.2316 54.3662 61.9457C54.7367 62.6598 55.6125 62.9495 56.3266 62.5789C57.0407 62.2219 57.3304 61.3461 56.9734 60.632C56.6028 59.9111 55.727 59.6147 54.9995 59.9852Z" fill="white"/>
</g>
<defs>
<clipPath id="clip0_1094_2741">
<rect width="96" height="96" fill="white"/>
</clipPath>
</defs>
</svg>
