<svg width="96" height="96" viewBox="0 0 96 96" fill="none" xmlns="http://www.w3.org/2000/svg">
<g clip-path="url(#clip0_1094_2815)">
<path d="M71 0H25C11.1929 0 0 11.1929 0 25V71C0 84.8071 11.1929 96 25 96H71C84.8071 96 96 84.8071 96 71V25C96 11.1929 84.8071 0 71 0Z" fill="white"/>
<path d="M71 0.5H25C11.469 0.5 0.5 11.469 0.5 25V71C0.5 84.531 11.469 95.5 25 95.5H71C84.531 95.5 95.5 84.531 95.5 71V25C95.5 11.469 84.531 0.5 71 0.5Z" stroke="black" stroke-opacity="0.1"/>
<path fill-rule="evenodd" clip-rule="evenodd" d="M27.7178 20.2734L16.048 44.7859C16.0036 44.8771 15.9895 44.9801 16.0078 45.0798C16.0261 45.1796 16.0759 45.2708 16.1498 45.3403L47.6672 75.5415C47.7567 75.6274 47.876 75.6753 48 75.6753C48.124 75.6753 48.2433 75.6274 48.3328 75.5415L79.8502 45.3422C79.9241 45.2727 79.9739 45.1815 79.9922 45.0817C80.0105 44.982 79.9964 44.879 79.952 44.7878L68.2822 20.2753C68.2445 20.193 68.184 20.1233 68.1077 20.0745C68.0315 20.0256 67.9428 19.9998 67.8523 20H28.1515C28.0605 19.9989 27.9712 20.0241 27.8942 20.0726C27.8173 20.1211 27.756 20.1909 27.7178 20.2734Z" fill="#50AF95"/>
<path fill-rule="evenodd" clip-rule="evenodd" d="M52.0493 47.3034C51.823 47.3203 50.654 47.3901 48.0462 47.3901C45.9721 47.3901 44.4995 47.3279 43.9828 47.3034C35.9672 46.9508 29.9843 45.5554 29.9843 43.8848C29.9843 42.2142 35.9672 40.8208 43.9828 40.4625V45.9137C44.507 45.9514 46.0079 46.04 48.082 46.04C50.571 46.04 51.8174 45.9363 52.0418 45.9156V40.4663C60.0404 40.8227 66.0101 42.218 66.0101 43.8848C66.0101 45.5517 60.0423 46.947 52.0418 47.3015L52.0493 47.3034ZM52.0493 39.9025V35.0245H63.2119V27.5859H32.8202V35.0245H43.9809V39.9006C34.9094 40.3173 28.0874 42.1143 28.0874 44.2676C28.0874 46.4209 34.9094 48.216 43.9809 48.6346V64.266H52.0474V48.6289C61.0982 48.2122 67.9089 46.4172 67.9089 44.2657C67.9089 42.1143 61.1038 40.3192 52.0474 39.9006L52.0493 39.9025Z" fill="white"/>
</g>
<defs>
<clipPath id="clip0_1094_2815">
<rect width="96" height="96" fill="white"/>
</clipPath>
</defs>
</svg>
