<svg width="96" height="96" viewBox="0 0 96 96" fill="none" xmlns="http://www.w3.org/2000/svg">
<g clip-path="url(#clip0_1094_2803)">
<path d="M71 0H25C11.1929 0 0 11.1929 0 25V71C0 84.8071 11.1929 96 25 96H71C84.8071 96 96 84.8071 96 71V25C96 11.1929 84.8071 0 71 0Z" fill="white"/>
<path d="M71 0.5H25C11.469 0.5 0.5 11.469 0.5 25V71C0.5 84.531 11.469 95.5 25 95.5H71C84.531 95.5 95.5 84.531 95.5 71V25C95.5 11.469 84.531 0.5 71 0.5Z" stroke="black" stroke-opacity="0.1"/>
<mask id="mask0_1094_2803" style="mask-type:luminance" maskUnits="userSpaceOnUse" x="16" y="16" width="64" height="64">
<path d="M80 16H16V80H80V16Z" fill="white"/>
</mask>
<g mask="url(#mask0_1094_2803)">
<path fill-rule="evenodd" clip-rule="evenodd" d="M48 16C65.6744 16 80 30.3256 80 48C80 65.6744 65.6744 80 48 80C30.3256 80 16 65.6744 16 48C16 30.3256 30.3256 16 48 16Z" fill="#F0B90B"/>
<path d="M33.5871 48.0004L33.6102 56.4619L40.7999 60.6927V65.6466L29.4025 58.9619V45.526L33.5871 48.0004ZM33.5871 39.5389V44.4696L29.3999 41.9927V37.0619L33.5871 34.585L37.7948 37.0619L33.5871 39.5389ZM43.8025 37.0619L47.9896 34.585L52.1973 37.0619L47.9896 39.5389L43.8025 37.0619Z" fill="white"/>
<path d="M36.6128 54.7081V49.7542L40.8 52.2312V57.1619L36.6128 54.7081ZM43.8025 62.4671L47.9897 64.944L52.1974 62.4671V67.3978L47.9897 69.8748L43.8025 67.3978V62.4671ZM58.2025 37.0619L62.3897 34.585L66.5974 37.0619V41.9927L62.3897 44.4696V39.5389L58.2025 37.0619ZM62.3897 56.4619L62.4128 48.0004L66.6 45.5235V58.9594L55.2025 65.644V60.6901L62.3897 56.4619Z" fill="white"/>
<path d="M59.3874 54.7078L55.2002 57.1616V52.2309L59.3874 49.7539V54.7078Z" fill="white"/>
<path d="M59.3872 41.2927L59.4102 46.2466L52.2 50.4773V58.9594L48.0128 61.4132L43.8256 58.9594V50.4773L36.6154 46.2466V41.2927L40.8205 38.8158L47.9872 43.0671L55.1974 38.8158L59.4051 41.2927H59.3872ZM36.6128 32.8337L47.9897 26.126L59.3872 32.8337L55.2 35.3107L47.9897 31.0594L40.8 35.3107L36.6128 32.8337Z" fill="white"/>
</g>
</g>
<defs>
<clipPath id="clip0_1094_2803">
<rect width="96" height="96" fill="white"/>
</clipPath>
</defs>
</svg>
