<svg width="781" height="151" viewBox="0 0 781 151" fill="none" xmlns="http://www.w3.org/2000/svg">
<path d="M39.4062 157.842V115.237C39.4062 97.5636 25.0793 83.2367 7.40617 83.2367H-45.2115M39.4062 157.842H98.8354M39.4062 157.842H-83H-155.806C-162.111 157.842 -168.274 155.98 -173.524 152.489L-191.746 140.374C-208.805 129.031 -210.961 104.804 -196.174 90.627L-174 69.3683L-148.161 43.5292C-135.651 31.0194 -115.364 31.0344 -102.873 43.5627L-72.6941 73.8306C-66.6902 79.8523 -58.5366 83.2367 -50.0332 83.2367H-45.2115M138.192 157.842L157.163 34.6533C160.029 16.0481 178.256 3.92345 196.523 8.4721L253.616 22.6889C260.196 24.3275 266.085 28.014 270.434 33.2166L294.406 61.8924C300.486 69.1653 309.478 73.3683 318.958 73.3683H398.343M138.192 157.842L180.077 199.851C192.582 212.392 212.895 212.392 225.399 199.851L241.081 184.123C253.585 171.581 273.898 171.581 286.402 184.123L336.946 234.816M138.192 157.842H98.8354M398.343 73.3683V137.904C398.343 146.375 401.701 154.5 407.682 160.498L481.78 234.816M398.343 73.3683L467.218 48.1579M481.78 234.816V315.737M481.78 234.816H336.946M481.78 234.816L554.984 161.395M481.78 315.737H553.682C571.356 315.737 585.682 301.41 585.682 283.737V282.78C585.682 274.309 589.041 266.184 595.022 260.186L664.79 190.21M481.78 315.737L448.259 349.357C442.255 355.379 434.101 358.763 425.598 358.763H368.946C351.273 358.763 336.946 344.436 336.946 326.763V234.816M664.79 190.21L644 161.395M664.79 190.21L730.961 123.392C750.293 103.871 737.656 70.6674 710.237 68.9388L644 64.7631M644 64.7631C644 99.1395 644 127.018 644 161.395M644 64.7631L554.984 161.395M644 64.7631L467.218 48.1579M336.946 234.816L279.166 295.311C266.651 308.414 245.764 308.522 233.114 295.549L98.8354 157.842M554.984 161.395H644M554.984 161.395L467.218 48.1579M98.8354 157.842V72.5997C98.8354 49.9275 75.9085 34.446 54.8785 42.9175L-45.2115 83.2367" stroke="#202020"/>
<rect x="23.4099" y="54.6956" width="1.01562" height="20" transform="rotate(68.2189 23.4099 54.6956)" fill="#009BD2"/>
<rect width="0.999999" height="20" transform="matrix(-4.37114e-08 1 1 4.37114e-08 348.5 72.7631)" fill="#009BD2"/>
<circle cx="468.5" cy="48.7631" r="3.5" transform="rotate(180 468.5 48.7631)" fill="#202020" stroke="#202020"/>
<circle cx="160.5" cy="23.7631" r="3.5" transform="rotate(180 160.5 23.7631)" fill="#202020" stroke="#202020"/>
</svg>
