<svg width="987" height="165" viewBox="0 0 987 165" fill="none" xmlns="http://www.w3.org/2000/svg">
<path d="M906 -173.895L862.859 -130.626M741.094 -36.9211V-79.5263C741.094 -97.1995 755.421 -111.526 773.094 -111.526H825.712M741.094 -36.9211H681.665M741.094 -36.9211L813.127 35.1125C819.129 41.1137 827.268 44.4851 835.755 44.4851H904.745C913.232 44.4851 921.371 41.1137 927.373 35.1125L955.358 7.12741C967.854 -5.36937 967.854 -25.6306 955.358 -38.1274L918 -75.4851L862.859 -130.626M642.308 -36.9211V-137.553C642.308 -155.226 627.981 -169.553 610.308 -169.553H530.041C521.538 -169.553 513.384 -166.168 507.38 -160.147L478.121 -130.801C472.117 -124.779 463.964 -121.395 455.46 -121.395H382.157M642.308 -36.9211L600.423 5.08776C587.918 17.6292 567.605 17.6292 555.101 5.08778L539.419 -10.6404C526.915 -23.1819 506.602 -23.1819 494.098 -10.6404L443.554 40.0526M642.308 -36.9211H681.665M382.157 -121.395V-56.8587C382.157 -48.3882 378.799 -40.2632 372.818 -34.2648L298.72 40.0526M382.157 -121.395H313.282M298.72 40.0526V120.974M298.72 40.0526H443.554M298.72 40.0526L225.516 -33.3684M298.72 120.974H226.818C209.144 120.974 194.818 106.647 194.818 88.9737V88.0166C194.818 79.5461 191.459 71.4211 185.478 65.4227L115.71 -4.55264M298.72 120.974L332.241 154.594C338.245 160.616 346.399 164 354.902 164H411.554C429.227 164 443.554 149.673 443.554 132V40.0526M115.71 -4.55264L137.75 -33.3684M115.71 -4.55264L53.9887 -66.8778C33.981 -87.0812 48.2921 -121.395 76.726 -121.395H137.75M137.75 -121.395C137.75 -87.0183 137.75 -67.7448 137.75 -33.3684M137.75 -121.395L225.516 -33.3684M137.75 -121.395H313.282M443.554 40.0526L501.334 100.548C513.849 113.651 534.736 113.759 547.386 100.786L681.665 -36.9211M225.516 -33.3684H137.75M225.516 -33.3684L313.282 -121.395M681.665 -36.9211V-178.583C681.665 -207.115 716.18 -221.382 736.326 -201.177L825.712 -111.526M825.712 -111.526H830.533C839.037 -111.526 847.19 -114.911 853.194 -120.932L862.859 -130.626M918 -133.5L977.127 -74.3728C983.128 -68.3717 986.5 -60.2323 986.5 -51.7454V-15.5" stroke="#202020"/>
<rect x="444" y="94" width="1" height="20" transform="rotate(180 444 94)" fill="#009BD2"/>
<rect x="269.924" y="10.7175" width="1" height="20" transform="rotate(135 269.924 10.7175)" fill="#009BD2"/>
<rect x="890" y="44" width="0.999999" height="20" transform="rotate(90 890 44)" fill="#009BD2"/>
<circle cx="299" cy="40" r="3.5" transform="rotate(180 299 40)" fill="#202020" stroke="#202020"/>
<circle cx="821" cy="40" r="3.5" transform="rotate(180 821 40)" fill="#202020" stroke="#202020"/>
</svg>
