<svg xmlns="http://www.w3.org/2000/svg" width="379" height="483" viewBox="0 0 379 483" fill="none">
<path d="M192.159 613.544L140.291 613.544C118.775 613.544 101.334 630.986 101.334 652.501L101.334 716.559M192.159 613.544L192.159 541.194M192.159 613.544L192.159 762.563L192.159 851.198C192.159 858.873 189.892 866.377 185.642 872.768L170.893 894.952C157.084 915.719 127.59 918.345 110.331 900.342L84.4499 873.347L52.9931 841.891C37.7634 826.661 37.7817 801.963 53.0339 786.756L89.8824 750.016C97.2133 742.707 101.334 732.781 101.334 722.429L101.334 716.559M192.159 493.281L42.1874 470.185C19.5372 466.697 4.77655 444.506 10.3141 422.268L27.6219 352.763C29.6166 344.752 34.1047 337.582 40.4384 332.287L75.3486 303.104C84.2028 295.702 89.3196 284.755 89.3196 273.215L89.3196 176.57M192.159 493.281L243.301 442.289C258.569 427.066 258.569 402.337 243.301 387.114L224.153 368.023C208.885 352.8 208.885 328.071 224.153 312.848L285.868 251.316M192.159 493.281L192.159 541.194M89.3196 176.57L167.887 176.57C178.199 176.57 188.09 172.482 195.393 165.201L285.868 74.993M89.3196 176.57L58.6281 92.7211M285.868 74.993L384.382 74.993M285.868 74.993L285.868 251.316M285.868 74.993L196.484 -14.1266M384.382 74.993L384.382 -12.5422C384.382 -34.0576 366.94 -51.4994 345.425 -51.4994L344.26 -51.4994C333.947 -51.4994 324.056 -55.588 316.753 -62.8689L231.565 -147.806M384.382 74.993L425.312 115.802C432.642 123.111 436.763 133.037 436.763 143.389L436.763 212.359C436.763 233.874 419.321 251.316 397.806 251.316L285.868 251.316M231.565 -147.806L196.484 -122.496M231.565 -147.806L150.22 -228.363C126.454 -251.898 86.0315 -236.514 83.9271 -203.133L78.8435 -122.496M78.8435 -122.496C120.694 -122.496 154.634 -122.496 196.484 -122.496M78.8435 -122.496L196.484 -14.1266M78.8435 -122.496L58.6281 92.7211M285.868 251.316L359.515 321.658C375.467 336.893 375.598 362.322 359.805 377.721L192.159 541.194M196.484 -14.1266L196.484 -122.496M196.484 -14.1266L58.6281 92.7211M192.159 541.194L88.3839 541.194C60.7825 541.194 41.9351 569.106 52.2484 594.708L101.334 716.559" stroke="#202020" stroke-width="1.21741"/>
<rect width="1.21741" height="24.3482" transform="matrix(1 4.37114e-08 4.37114e-08 -1 88.5811 237.25)" fill="#E9E9E9"/>
<circle cx="59.3637" cy="91.1626" r="4.26094" transform="rotate(90 59.3637 91.1626)" fill="#202020" stroke="#202020" stroke-width="1.21741"/>
<circle cx="28.9272" cy="466.124" r="4.26094" transform="rotate(90 28.9272 466.124)" fill="#202020" stroke="#202020" stroke-width="1.21741"/>
</svg>