<svg width="18" height="17" viewBox="0 0 18 17" fill="none" xmlns="http://www.w3.org/2000/svg">
<path id="Icon" d="M15.6666 15.6667V9.83333M8.99992 15.6667V7.33333M2.33325 15.6667L2.33325 12.3333M10.1721 3.18959L14.4792 4.80472M7.99889 3.50077L3.33344 6.99986M16.5505 4.36612C17.0386 4.85427 17.0386 5.64573 16.5505 6.13388C16.0623 6.62204 15.2709 6.62204 14.7827 6.13388C14.2945 5.64573 14.2945 4.85427 14.7827 4.36612C15.2709 3.87796 16.0623 3.87796 16.5505 4.36612ZM3.21714 6.86612C3.70529 7.35427 3.70529 8.14573 3.21714 8.63388C2.72898 9.12204 1.93752 9.12204 1.44937 8.63388C0.961213 8.14573 0.961213 7.35427 1.44937 6.86612C1.93752 6.37796 2.72898 6.37796 3.21714 6.86612ZM9.8838 1.86612C10.372 2.35427 10.372 3.14573 9.8838 3.63388C9.39565 4.12204 8.60419 4.12204 8.11603 3.63388C7.62788 3.14573 7.62788 2.35427 8.11603 1.86612C8.60419 1.37796 9.39565 1.37796 9.8838 1.86612Z" stroke="#B1B1B1" stroke-width="1.66667" stroke-linecap="round" stroke-linejoin="round"/>
</svg>
