<svg width="12" height="14" viewBox="0 0 12 14" fill="none" xmlns="http://www.w3.org/2000/svg">
<path id="Icon" d="M4.00008 6L5.33341 7.33333L8.33341 4.33333M11.3334 13V4.2C11.3334 3.0799 11.3334 2.51984 11.1154 2.09202C10.9237 1.71569 10.6177 1.40973 10.2414 1.21799C9.81357 1 9.25352 1 8.13341 1H3.86675C2.74664 1 2.18659 1 1.75877 1.21799C1.38244 1.40973 1.07648 1.71569 0.884735 2.09202C0.666748 2.51984 0.666748 3.0799 0.666748 4.2V13L2.50008 11.6667L4.16675 13L6.00008 11.6667L7.83341 13L9.50008 11.6667L11.3334 13Z" stroke="#B1B1B1" stroke-width="1.33333" stroke-linecap="round" stroke-linejoin="round"/>
</svg>
