<svg width="22" height="20" viewBox="0 0 22 20" fill="none" xmlns="http://www.w3.org/2000/svg">
<path id="Vector" d="M11.222 17.8549C11.042 18.0349 10.722 18.0649 10.512 17.8549C10.332 17.6749 10.302 17.3549 10.512 17.1449L13.902 13.7549L12.492 12.3449L9.10198 15.7349C8.91198 15.9349 8.59198 15.9249 8.39198 15.7349C8.18198 15.5249 8.21198 15.2049 8.39198 15.0249L11.782 11.6349L10.372 10.2249L6.98198 13.6149C6.80198 13.7949 6.48198 13.8249 6.27198 13.6149C6.08198 13.4249 6.08198 13.1049 6.27198 12.9049L9.66198 9.51488L8.24198 8.10488L4.85198 11.4949C4.67198 11.6749 4.35198 11.7049 4.14198 11.4949C3.95198 11.2949 3.95198 10.9849 4.14198 10.7849L8.52198 6.40488L10.392 8.26488C11.342 9.21488 12.982 9.20488 13.932 8.26488C14.912 7.28488 14.912 5.70488 13.932 4.72488L12.072 2.86488L12.352 2.58488C13.132 1.80488 14.402 1.80488 15.182 2.58488L19.422 6.82488C20.202 7.60488 20.202 8.87488 19.422 9.65488L11.222 17.8549ZM20.832 11.0749C22.392 9.51488 22.392 6.98488 20.832 5.41488L16.592 1.17488C15.032 -0.385117 12.502 -0.385117 10.932 1.17488L10.652 1.45488L10.372 1.17488C8.81198 -0.385117 6.28198 -0.385117 4.71198 1.17488L1.17198 4.71488C-0.248016 6.13488 -0.378016 8.34488 0.771984 9.90488L2.22198 8.45488C1.83198 7.70488 1.96198 6.75488 2.59198 6.12488L6.13198 2.58488C6.91198 1.80488 8.18198 1.80488 8.96198 2.58488L12.522 6.14488C12.702 6.32488 12.732 6.64488 12.522 6.85488C12.312 7.06488 11.992 7.03488 11.812 6.85488L8.52198 3.57488L2.72198 9.36488C1.74198 10.3349 1.74198 11.9249 2.72198 12.9049C3.11198 13.2949 3.61198 13.5349 4.14198 13.6049C4.21198 14.1249 4.44198 14.6249 4.84198 15.0249C5.24198 15.4249 5.74198 15.6549 6.26198 15.7249C6.33198 16.2449 6.56198 16.7449 6.96198 17.1449C7.36198 17.5449 7.86198 17.7749 8.38198 17.8449C8.45198 18.3849 8.69198 18.8749 9.08198 19.2649C9.55198 19.7349 10.182 19.9949 10.852 19.9949C11.522 19.9949 12.152 19.7349 12.622 19.2649L20.832 11.0749Z" fill="#E9E9E9"/>
</svg>
