<svg width="594" height="277" viewBox="0 0 594 277" fill="none" xmlns="http://www.w3.org/2000/svg">
<path d="M741.094 201.921V244.526C741.094 262.199 755.421 276.526 773.094 276.526H825.712M741.094 201.921H681.665M741.094 201.921H863.5H936.306C942.611 201.921 948.774 203.783 954.024 207.274L972.246 219.39C989.305 230.732 991.461 254.959 976.674 269.136L954.5 290.395L928.661 316.234C916.151 328.744 895.864 328.729 883.373 316.2L853.194 285.932C847.19 279.911 839.037 276.526 830.533 276.526H825.712M642.308 201.921L623.337 325.11C620.471 343.715 602.244 355.84 583.977 351.291L526.884 337.074C520.304 335.436 514.415 331.749 510.066 326.546L486.094 297.871C480.014 290.598 471.022 286.395 461.542 286.395H382.157M642.308 201.921L600.423 159.912C587.918 147.371 567.605 147.371 555.101 159.912L539.419 175.64C526.915 188.182 506.602 188.182 494.098 175.64L443.554 124.947M642.308 201.921H681.665M382.157 286.395V221.859C382.157 213.388 378.799 205.263 372.818 199.265L298.72 124.947M382.157 286.395L313.282 311.605M298.72 124.947V44.0263M298.72 124.947H443.554M298.72 124.947L225.516 198.368M298.72 44.0263H226.818C209.144 44.0263 194.818 58.3532 194.818 76.0263V76.9834C194.818 85.4539 191.459 93.5789 185.478 99.5773L115.71 169.553M298.72 44.0263L332.241 10.4061C338.245 4.38443 346.399 1 354.902 1L411.554 1C429.227 1 443.554 15.3269 443.554 33V124.947M115.71 169.553L136.5 198.368M115.71 169.553L49.5393 236.371C30.207 255.892 42.8436 289.096 70.2633 290.824L136.5 295M136.5 295C136.5 260.624 136.5 232.745 136.5 198.368M136.5 295L225.516 198.368M136.5 295L313.282 311.605M443.554 124.947L501.334 64.4523C513.849 51.3495 534.736 51.2414 547.386 64.214L681.665 201.921M225.516 198.368H136.5M225.516 198.368L313.282 311.605M681.665 201.921V287.163C681.665 309.836 704.591 325.317 725.622 316.846L825.712 276.526" stroke="#202020"/>
</svg>
