<svg width="590" height="161" viewBox="0 0 590 161" fill="none" xmlns="http://www.w3.org/2000/svg">
<path d="M741.094 2.92107V45.5263C741.094 63.1995 755.421 77.5263 773.094 77.5263H825.712M741.094 2.92107H681.665M741.094 2.92107H863.5H936.306C942.611 2.92107 948.774 4.78319 954.024 8.27372L972.246 20.3896C989.305 31.7319 991.461 55.9591 976.674 70.1361L954.5 91.3947L928.661 117.234C916.151 129.744 895.864 129.729 883.373 117.2L853.194 86.9324C847.19 80.9108 839.037 77.5263 830.533 77.5263H825.712M642.308 2.92107L623.337 126.11C620.471 144.715 602.244 156.84 583.977 152.291L526.884 138.074C520.304 136.436 514.415 132.749 510.066 127.546L486.094 98.8707C480.014 91.5977 471.022 87.3947 461.542 87.3947H382.157M642.308 2.92107L600.423 -39.0878C587.918 -51.6292 567.605 -51.6292 555.101 -39.0878L539.419 -23.3596C526.915 -10.8181 506.602 -10.8181 494.098 -23.3596L443.554 -74.0526M642.308 2.92107H681.665M382.157 87.3947V22.8587C382.157 14.3882 378.799 6.26321 372.818 0.264785L298.72 -74.0526M382.157 87.3947L313.282 112.605M298.72 -74.0526V-154.974M298.72 -74.0526H443.554M298.72 -74.0526L225.516 -0.631577M298.72 -154.974H226.818C209.144 -154.974 194.818 -140.647 194.818 -122.974V-122.017C194.818 -113.546 191.459 -105.421 185.478 -99.4227L115.71 -29.4474M298.72 -154.974L332.241 -188.594C338.245 -194.616 346.399 -198 354.902 -198H411.554C429.227 -198 443.554 -183.673 443.554 -166V-74.0526M115.71 -29.4474L136.5 -0.631577M115.71 -29.4474L49.5393 37.3707C30.207 56.8922 42.8436 90.0957 70.2633 91.8243L136.5 96M136.5 96C136.5 61.6236 136.5 33.7448 136.5 -0.631577M136.5 96L225.516 -0.631577M136.5 96L313.282 112.605M443.554 -74.0526L501.334 -134.548C513.849 -147.651 534.736 -147.759 547.386 -134.786L681.665 2.92107M225.516 -0.631577H136.5M225.516 -0.631577L313.282 112.605M681.665 2.92107V88.1633C681.665 110.836 704.591 126.317 725.622 117.846L825.712 77.5263" stroke="#202020"/>
<rect width="0.999999" height="20" transform="matrix(4.37114e-08 -1 -1 -4.37114e-08 432 88)" fill="#009BD2"/>
<circle cx="312" cy="112" r="3.5" fill="#202020" stroke="#202020"/>
</svg>
