<svg width="284" height="1007" viewBox="0 0 284 1007" fill="none" xmlns="http://www.w3.org/2000/svg">
<path d="M82.2098 741.725L39.6045 741.725C21.9314 741.725 7.60453 756.052 7.60453 773.725L7.60453 826.343M82.2098 741.725L82.2098 682.296M82.2098 741.725L82.2098 864.132L82.2098 936.938C82.2098 943.242 80.3477 949.406 76.8571 954.656L64.7413 972.878C53.399 989.936 29.1717 992.093 14.9948 977.306L-6.26388 955.132L-32.103 929.292C-44.6128 916.783 -44.5978 896.496 -32.0695 884.004L-1.80156 853.826C4.22009 847.822 7.60453 839.668 7.60453 831.165L7.60453 826.343M82.2098 642.939L-40.9789 623.968C-59.5841 621.103 -71.7087 602.875 -67.1601 584.609L-52.9433 527.516C-51.3047 520.936 -47.6182 515.046 -42.4156 510.697L-13.7398 486.725C-6.46684 480.645 -2.26386 471.653 -2.26386 462.174L-2.26386 382.789M82.2098 642.939L124.219 601.054C136.76 588.55 136.76 568.237 124.219 555.733L108.49 540.051C95.949 527.547 95.949 507.234 108.49 494.729L159.184 444.186M82.2098 642.939L82.2098 682.296M-2.26386 382.789L62.2722 382.789C70.7427 382.789 78.8677 379.43 84.8661 373.45L159.184 299.352M-2.26386 382.789L-27.4743 313.914M159.184 299.352L240.105 299.352M159.184 299.352L159.184 444.186M159.184 299.352L85.7625 226.148M240.105 299.352L240.105 227.449C240.105 209.776 225.778 195.449 208.105 195.449L207.147 195.449C198.677 195.449 190.552 192.091 184.554 186.11L114.578 116.341M240.105 299.352L273.725 332.873C279.746 338.877 283.131 347.03 283.131 355.534L283.131 412.186C283.131 429.859 268.804 444.186 251.131 444.186L159.184 444.186M114.578 116.341L85.7625 137.132M114.578 116.341L47.7602 50.1709C28.2387 30.8386 -4.96479 43.4752 -6.69338 70.8948L-10.8691 137.132M-10.8691 137.132C23.5073 137.132 51.3861 137.132 85.7625 137.132M-10.8691 137.132L85.7625 226.148M-10.8691 137.132L-27.4743 313.914M159.184 444.186L219.679 501.966C232.781 514.48 232.89 535.368 219.917 548.017L82.2098 682.296M85.7625 226.148L85.7625 137.132M85.7625 226.148L-27.4743 313.914M82.2098 682.296L-3.03245 682.296C-25.7046 682.296 -41.1862 705.223 -32.7147 726.253L7.60453 826.343" stroke="#202020"/>
<circle cx="7.13281" cy="825.632" r="3.5" transform="rotate(90 7.13281 825.632)" fill="#202020" stroke="#202020"/>
</svg>
