<svg width="20" height="20" viewBox="0 0 20 20" fill="none" xmlns="http://www.w3.org/2000/svg">
<path id="Icon" d="M7.08341 12.2221C7.08341 13.2959 7.95397 14.1665 9.02786 14.1665H10.8334C11.984 14.1665 12.9167 13.2338 12.9167 12.0832C12.9167 10.9326 11.984 9.99984 10.8334 9.99984H9.16675C8.01615 9.99984 7.08341 9.0671 7.08341 7.9165C7.08341 6.76591 8.01615 5.83317 9.16675 5.83317H10.9723C12.0462 5.83317 12.9167 6.70373 12.9167 7.77762M10.0001 4.58317V5.83317M10.0001 14.1665V15.4165M18.3334 9.99984C18.3334 14.6022 14.6025 18.3332 10.0001 18.3332C5.39771 18.3332 1.66675 14.6022 1.66675 9.99984C1.66675 5.39746 5.39771 1.6665 10.0001 1.6665C14.6025 1.6665 18.3334 5.39746 18.3334 9.99984Z" stroke="#B1B1B1" stroke-width="1.66667" stroke-linecap="round" stroke-linejoin="round"/>
</svg>
