<svg width="18" height="18" viewBox="0 0 18 18" fill="none" xmlns="http://www.w3.org/2000/svg">
<g id="Icon">
<path d="M1.5 5.5C1.5 4.09987 1.5 3.3998 1.77248 2.86502C2.01217 2.39462 2.39462 2.01217 2.86502 1.77248C3.3998 1.5 4.09987 1.5 5.5 1.5H12.5C13.9001 1.5 14.6002 1.5 15.135 1.77248C15.6054 2.01217 15.9878 2.39462 16.2275 2.86502C16.5 3.3998 16.5 4.09987 16.5 5.5V10C16.5 11.4001 16.5 12.1002 16.2275 12.635C15.9878 13.1054 15.6054 13.4878 15.135 13.7275C14.6002 14 13.9001 14 12.5 14H10.4031C9.88308 14 9.62306 14 9.37435 14.051C9.15369 14.0963 8.94017 14.1712 8.73957 14.2737C8.51347 14.3892 8.31043 14.5517 7.90434 14.8765L5.91646 16.4668C5.56973 16.7442 5.39636 16.8829 5.25045 16.8831C5.12356 16.8832 5.00352 16.8255 4.92436 16.7263C4.83333 16.6123 4.83333 16.3903 4.83333 15.9463V14C4.05836 14 3.67087 14 3.35295 13.9148C2.49022 13.6836 1.81635 13.0098 1.58519 12.147C1.5 11.8291 1.5 11.4416 1.5 10.6667V5.5Z" stroke="#B1B1B1" stroke-width="1.66667" stroke-linecap="round" stroke-linejoin="round"/>
<path fill-rule="evenodd" clip-rule="evenodd" d="M8.99743 5.41604C8.24767 4.55033 6.9974 4.31746 6.05801 5.11019C5.11862 5.90292 4.98636 7.22832 5.72407 8.16589C6.18111 8.74674 7.32824 9.80762 8.13496 10.5308C8.43129 10.7964 8.57946 10.9293 8.75727 10.9828C8.90981 11.0287 9.08505 11.0287 9.23759 10.9828C9.41541 10.9293 9.56357 10.7964 9.8599 10.5308C10.6666 9.80762 11.8138 8.74674 12.2708 8.16589C13.0085 7.22832 12.8924 5.89458 11.9369 5.11019C10.9813 4.3258 9.74719 4.55033 8.99743 5.41604Z" stroke="#B1B1B1" stroke-width="1.66667" stroke-linecap="round" stroke-linejoin="round"/>
</g>
</svg>
