<svg width="20" height="18" viewBox="0 0 20 18" fill="none" xmlns="http://www.w3.org/2000/svg">
<path id="Icon" d="M7.50008 8.16667L9.16675 9.83333L12.9167 6.08333M9.99437 3.27985C8.32825 1.332 5.54987 0.808035 3.46233 2.59168C1.37478 4.37532 1.08089 7.35748 2.72025 9.467C3.95849 11.0604 7.47616 14.2591 9.12342 15.7291C9.42624 15.9993 9.57764 16.1344 9.75494 16.1876C9.90885 16.2338 10.0799 16.2338 10.2338 16.1876C10.4111 16.1344 10.5625 15.9993 10.8653 15.7291C12.5126 14.2591 16.0303 11.0604 17.2685 9.467C18.9079 7.35748 18.6498 4.35656 16.5264 2.59168C14.403 0.826798 11.6605 1.332 9.99437 3.27985Z" stroke="#B1B1B1" stroke-width="1.66667" stroke-linecap="round" stroke-linejoin="round"/>
</svg>
