<svg width="881" height="216" viewBox="0 0 881 216" fill="none" xmlns="http://www.w3.org/2000/svg">
<path d="M68.9998 338.895L112.141 295.626M233.906 201.921V244.526C233.906 262.199 219.579 276.526 201.906 276.526H149.288M233.906 201.921H293.335M233.906 201.921L161.872 129.887C155.871 123.886 147.732 120.515 139.245 120.515H70.2546C61.7677 120.515 53.6283 123.886 47.6272 129.887L19.6421 157.873C7.14528 170.369 7.14529 190.631 19.6421 203.127L56.9998 240.485L112.141 295.626M332.692 201.921V302.553C332.692 320.226 347.019 334.553 364.692 334.553H444.959C453.462 334.553 461.616 331.168 467.62 325.147L496.879 295.801C502.883 289.779 511.036 286.395 519.54 286.395H592.843M332.692 201.921L374.577 159.912C387.081 147.371 407.394 147.371 419.899 159.912L435.58 175.64C448.085 188.182 468.398 188.182 480.902 175.64L531.445 124.947M332.692 201.921H293.335M592.843 286.395V221.859C592.843 213.388 596.201 205.263 602.182 199.265L676.28 124.947M592.843 286.395H661.717M676.28 124.947V44.0263M676.28 124.947H531.445M676.28 124.947L749.484 198.368M676.28 44.0263H748.182C765.855 44.0263 780.182 58.3532 780.182 76.0263V76.9834C780.182 85.4539 783.541 93.5789 789.521 99.5773L859.29 169.553M676.28 44.0263L642.759 10.4061C636.755 4.38443 628.601 1 620.098 1H563.445C545.772 1 531.445 15.3269 531.445 33V124.947M859.29 169.553L837.25 198.368M859.29 169.553L921.011 231.878C941.019 252.081 926.708 286.395 898.274 286.395H837.25M837.25 286.395C837.25 252.018 837.25 232.745 837.25 198.368M837.25 286.395L749.484 198.368M837.25 286.395H661.717M531.445 124.947L473.666 64.4523C461.151 51.3495 440.264 51.2414 427.614 64.214L293.335 201.921M749.484 198.368H837.25M749.484 198.368L661.717 286.395M293.335 201.921V343.583C293.335 372.115 258.819 386.382 238.674 366.177L149.288 276.526M149.288 276.526H144.467C135.963 276.526 127.81 279.911 121.806 285.932L112.141 295.626M56.9998 298.5L-2.12742 239.373C-8.12858 233.372 -11.5 225.232 -11.5 216.745V180.5" stroke="#202020"/>
<rect x="531" y="71" width="1" height="20" fill="#009BD2"/>
<rect x="705.075" y="154.282" width="1" height="20" transform="rotate(-45 705.075 154.282)" fill="#009BD2"/>
<rect x="85" y="121" width="0.999999" height="20" transform="rotate(-90 85 121)" fill="#009BD2"/>
<circle cx="676" cy="125" r="3.5" fill="#202020" stroke="#202020"/>
<circle cx="333" cy="202" r="3.5" fill="#202020" stroke="#202020"/>
<circle cx="859" cy="170" r="3.5" fill="#202020" stroke="#202020"/>
<circle cx="154" cy="125" r="3.5" fill="#202020" stroke="#202020"/>
</svg>
