<svg width="881" height="766" viewBox="0 0 881 766" fill="none" xmlns="http://www.w3.org/2000/svg">
<g clip-path="url(#clip0_3558_1807)">
<path d="M68.9998 888.895L112.141 845.626M233.906 751.921V794.526C233.906 812.199 219.579 826.526 201.906 826.526H149.288M233.906 751.921H293.335M233.906 751.921L161.872 679.887C155.871 673.886 147.732 670.515 139.245 670.515H70.2546C61.7677 670.515 53.6283 673.886 47.6272 679.887L19.6421 707.873C7.14528 720.369 7.14529 740.631 19.6421 753.127L56.9998 790.485L112.141 845.626M332.692 751.921V852.553C332.692 870.226 347.019 884.553 364.692 884.553H444.959C453.462 884.553 461.616 881.168 467.62 875.147L496.879 845.801C502.883 839.779 511.036 836.395 519.54 836.395H592.843M332.692 751.921L374.577 709.912C387.081 697.371 407.394 697.371 419.899 709.912L435.58 725.64C448.085 738.182 468.398 738.182 480.902 725.64L531.445 674.947M332.692 751.921H293.335M592.843 836.395V771.859C592.843 763.388 596.201 755.263 602.182 749.265L676.28 674.947M592.843 836.395H661.717M676.28 674.947V594.026M676.28 674.947H531.445M676.28 674.947L749.484 748.368M676.28 594.026H748.182C765.855 594.026 780.182 608.353 780.182 626.026V626.983C780.182 635.454 783.541 643.579 789.521 649.577L859.29 719.553M676.28 594.026L642.759 560.406C636.755 554.384 628.601 551 620.098 551H563.445C545.772 551 531.445 565.327 531.445 583V674.947M859.29 719.553L837.25 748.368M859.29 719.553L921.011 781.878C941.019 802.081 926.708 836.395 898.274 836.395H837.25M837.25 836.395C837.25 802.018 837.25 782.745 837.25 748.368M837.25 836.395L749.484 748.368M837.25 836.395H661.717M531.445 674.947L473.666 614.452C461.151 601.349 440.264 601.241 427.614 614.214L293.335 751.921M749.484 748.368H837.25M749.484 748.368L661.717 836.395M293.335 751.921V893.583C293.335 922.115 258.819 936.382 238.674 916.177L149.288 826.526M149.288 826.526H144.467C135.963 826.526 127.81 829.911 121.806 835.932L112.141 845.626M56.9998 848.5L-2.12742 789.373C-8.12858 783.372 -11.5 775.232 -11.5 766.745V730.5" stroke="#202020"/>
<rect x="531" y="621" width="1" height="20" fill="#E9E9E9"/>
<rect x="705.075" y="704.282" width="1" height="20" transform="rotate(-45 705.075 704.282)" fill="#E9E9E9"/>
<rect x="85" y="671" width="0.999999" height="20" transform="rotate(-90 85 671)" fill="#E9E9E9"/>
<circle cx="676" cy="675" r="3.5" fill="#202020" stroke="#202020"/>
<circle cx="333" cy="752" r="3.5" fill="#202020" stroke="#202020"/>
<circle cx="859" cy="720" r="3.5" fill="#202020" stroke="#202020"/>
<circle cx="154" cy="675" r="3.5" fill="#202020" stroke="#202020"/>
<path d="M677.094 -52.0789V-9.47363C677.094 8.19948 691.421 22.5264 709.094 22.5264H761.712M677.094 -52.0789H617.665M677.094 -52.0789H799.5H872.306C878.611 -52.0789 884.774 -50.2168 890.024 -46.7263L908.246 -34.6104C925.305 -23.2681 927.461 0.959159 912.674 15.1361L890.5 36.3948L864.661 62.2339C852.151 74.7437 831.864 74.7287 819.373 62.2004L789.194 31.9325C783.19 25.9108 775.037 22.5264 766.533 22.5264H761.712M578.308 -52.0789L559.337 71.1098C556.471 89.715 538.244 101.84 519.977 97.291L462.884 83.0742C456.304 81.4356 450.415 77.7491 446.066 72.5465L422.094 43.8707C416.014 36.5978 407.022 32.3948 397.542 32.3948H318.157M578.308 -52.0789L536.423 -94.0877C523.918 -106.629 503.605 -106.629 491.101 -94.0878L475.419 -78.3595C462.915 -65.8181 442.602 -65.8181 430.098 -78.3596L379.554 -129.053M578.308 -52.0789H617.665M318.157 32.3948V-32.1413C318.157 -40.6118 314.799 -48.7368 308.818 -54.7352L234.72 -129.053M318.157 32.3948L249.282 57.6052M234.72 -129.053V-209.974M234.72 -129.053H379.554M234.72 -129.053L161.516 -55.6315M234.72 -209.974H162.818C145.144 -209.974 130.818 -195.647 130.818 -177.974V-177.017C130.818 -168.546 127.459 -160.421 121.478 -154.423L51.7098 -84.4473M234.72 -209.974L268.241 -243.594C274.245 -249.616 282.399 -253 290.902 -253H347.554C365.227 -253 379.554 -238.673 379.554 -221V-129.053M51.7098 -84.4473L72.5 -55.6315M51.7098 -84.4473L-14.4607 -17.6293C-33.793 1.89219 -21.1564 35.0957 6.26326 36.8243L72.5 41M72.5 41C72.5 6.62358 72.5 -21.2551 72.5 -55.6315M72.5 41L161.516 -55.6315M72.5 41L249.282 57.6052M379.554 -129.053L437.334 -189.548C449.849 -202.651 470.736 -202.759 483.386 -189.786L617.665 -52.0789M161.516 -55.6315H72.5M161.516 -55.6315L249.282 57.6052M617.665 -52.0789V33.1634C617.665 55.8355 640.591 71.3171 661.622 62.8456L761.712 22.5264" stroke="#202020"/>
<rect x="693.09" y="51.0675" width="1.01562" height="20" transform="rotate(-111.781 693.09 51.0675)" fill="#FAFAFA"/>
<rect width="0.999999" height="20" transform="matrix(4.37114e-08 -1 -1 -4.37114e-08 368 33)" fill="#E9E9E9"/>
<circle cx="248" cy="57" r="3.5" fill="#202020" stroke="#202020"/>
<circle cx="556" cy="82" r="3.5" fill="#202020" stroke="#202020"/>
<circle cx="761" cy="23" r="3.5" fill="#202020" stroke="#202020"/>
</g>
<defs>
<clipPath id="clip0_3558_1807">
<rect width="881" height="766" fill="white"/>
</clipPath>
</defs>
</svg>
