<svg width="881" height="106" viewBox="0 0 881 106" fill="none" xmlns="http://www.w3.org/2000/svg">
<path d="M677.094 -52.0789V-9.47363C677.094 8.19948 691.421 22.5264 709.094 22.5264H761.712M677.094 -52.0789H617.665M677.094 -52.0789H799.5H872.306C878.611 -52.0789 884.774 -50.2168 890.024 -46.7263L908.246 -34.6104C925.305 -23.2681 927.461 0.959159 912.674 15.1361L890.5 36.3948L864.661 62.2339C852.151 74.7437 831.864 74.7287 819.373 62.2004L789.194 31.9325C783.19 25.9108 775.037 22.5264 766.533 22.5264H761.712M578.308 -52.0789L559.337 71.1098C556.471 89.715 538.244 101.84 519.977 97.291L462.884 83.0742C456.304 81.4356 450.415 77.7491 446.066 72.5465L422.094 43.8707C416.014 36.5978 407.022 32.3948 397.542 32.3948H318.157M578.308 -52.0789L536.423 -94.0877C523.918 -106.629 503.605 -106.629 491.101 -94.0878L475.419 -78.3595C462.915 -65.8181 442.602 -65.8181 430.098 -78.3596L379.554 -129.053M578.308 -52.0789H617.665M318.157 32.3948V-32.1413C318.157 -40.6118 314.799 -48.7368 308.818 -54.7352L234.72 -129.053M318.157 32.3948L249.282 57.6052M234.72 -129.053V-209.974M234.72 -129.053H379.554M234.72 -129.053L161.516 -55.6315M234.72 -209.974H162.818C145.144 -209.974 130.818 -195.647 130.818 -177.974V-177.017C130.818 -168.546 127.459 -160.421 121.478 -154.423L51.7098 -84.4473M234.72 -209.974L268.241 -243.594C274.245 -249.616 282.399 -253 290.902 -253H347.554C365.227 -253 379.554 -238.673 379.554 -221V-129.053M51.7098 -84.4473L72.5 -55.6315M51.7098 -84.4473L-14.4607 -17.6293C-33.793 1.89219 -21.1564 35.0957 6.26326 36.8243L72.5 41M72.5 41C72.5 6.62358 72.5 -21.2551 72.5 -55.6315M72.5 41L161.516 -55.6315M72.5 41L249.282 57.6052M379.554 -129.053L437.334 -189.548C449.849 -202.651 470.736 -202.759 483.386 -189.786L617.665 -52.0789M161.516 -55.6315H72.5M161.516 -55.6315L249.282 57.6052M617.665 -52.0789V33.1634C617.665 55.8355 640.591 71.3171 661.622 62.8456L761.712 22.5264" stroke="#202020"/>
<rect x="693.09" y="51.0675" width="1.01562" height="20" transform="rotate(-111.781 693.09 51.0675)" fill="#009BD2"/>
<rect width="0.999999" height="20" transform="matrix(4.37114e-08 -1 -1 -4.37114e-08 368 33)" fill="#009BD2"/>
<circle cx="248" cy="57" r="3.5" fill="#202020" stroke="#202020"/>
<circle cx="556" cy="82" r="3.5" fill="#202020" stroke="#202020"/>
<circle cx="761" cy="23" r="3.5" fill="#202020" stroke="#202020"/>
</svg>
