<svg xmlns="http://www.w3.org/2000/svg" width="526" height="622" viewBox="0 0 526 622" fill="none">
  <path d="M495.578 -295.807L432.286 -232.703M295.22 -54.5912L357.541 -54.5912C383.392 -54.5912 404.348 -75.5478 404.348 -101.399L404.348 -178.366M295.22 -54.5912L295.22 32.3387M295.22 -54.5912L189.853 -159.958C181.075 -168.736 176.143 -180.642 176.143 -193.056L176.143 -293.972C176.143 -306.386 181.075 -318.292 189.853 -327.07L230.788 -368.005C249.068 -386.285 278.705 -386.285 296.984 -368.005L351.629 -313.36L432.286 -232.703M295.22 89.9081L442.418 89.9081C468.27 89.9081 489.226 110.865 489.226 136.716L489.226 254.126C489.226 266.564 484.276 278.491 475.468 287.273L432.542 330.071C423.734 338.854 418.783 350.78 418.783 363.219L418.783 470.442M295.22 89.9081L233.771 151.175C215.427 169.466 215.427 199.178 233.771 217.469L256.778 240.408C275.123 258.698 275.123 288.411 256.778 306.702L182.627 380.634M295.22 89.9081L295.22 32.3387M418.783 470.442L324.384 470.442C311.993 470.442 300.109 475.355 291.334 484.103L182.627 592.49M418.783 470.442L418.783 571.189M182.627 592.49L64.2597 592.49M182.627 592.49L182.627 380.634M182.627 592.49L290.023 699.569M64.2597 592.49L64.2597 697.665C64.2597 723.516 85.2163 744.473 111.068 744.473L112.468 744.473C124.858 744.473 136.743 749.386 145.517 758.134L247.873 860.188M64.2597 592.49L15.0817 543.457C6.2736 534.675 1.32304 522.748 1.32304 510.31L1.32303 427.442C1.32303 401.591 22.2796 380.634 48.1309 380.634L182.627 380.634M247.873 860.188L290.023 827.949M247.873 860.188L339.039 950.47C368.591 979.736 418.783 958.803 418.783 917.211L418.783 827.949M418.783 827.949C368.499 827.949 340.307 827.949 290.023 827.949M418.783 827.949L290.023 699.569M418.783 827.949L418.783 571.189M182.627 380.634L94.1377 296.117C74.9716 277.811 74.8134 247.258 93.7891 228.755L295.22 32.3387M290.023 699.569L290.023 827.949M290.023 699.569L418.783 571.189M295.22 32.3387L502.436 32.3387C544.171 32.3387 565.04 -18.1491 535.485 -47.6164L404.348 -178.366M404.348 -178.366L404.348 -185.419C404.348 -197.857 409.299 -209.783 418.107 -218.566L432.286 -232.703M436.49 -313.36L350.002 -399.848C341.224 -408.627 329.318 -413.558 316.904 -413.558L263.886 -413.558" stroke="#323232"/>
</svg>