<svg xmlns="http://www.w3.org/2000/svg" width="477" height="622" viewBox="0 0 477 622" fill="none">
  <path d="M422.255 -492.807L358.963 -429.703M221.897 -251.591L284.218 -251.591C310.069 -251.591 331.025 -272.548 331.025 -298.399L331.025 -375.366M221.897 -251.591L221.897 -164.661M221.897 -251.591L116.53 -356.958C107.752 -365.736 102.82 -377.642 102.82 -390.056L102.82 -490.972C102.82 -503.386 107.752 -515.292 116.53 -524.07L157.465 -565.005C175.745 -583.285 205.382 -583.285 223.661 -565.005L278.306 -510.36L358.963 -429.703M221.897 -107.092L369.095 -107.092C394.947 -107.092 415.903 -86.1352 415.903 -60.2839L415.903 57.1257C415.903 69.5639 410.953 81.4907 402.145 90.2728L359.219 133.071C350.411 141.854 345.46 153.78 345.46 166.219L345.46 273.442M221.897 -107.092L160.448 -45.825C142.104 -27.5343 142.104 2.17845 160.448 20.4692L183.455 43.4076C201.8 61.6984 201.8 91.4111 183.455 109.702L109.304 183.634M221.897 -107.092L221.897 -164.661M345.46 273.442L251.061 273.442C238.67 273.442 226.786 278.355 218.011 287.103L109.304 395.49M345.46 273.442L345.46 374.189M109.304 395.49L-9.06332 395.49M109.304 395.49L109.304 183.634M109.304 395.49L216.7 502.569M-9.06332 395.49L-9.06331 500.665C-9.06331 526.516 11.8933 547.473 37.7446 547.473L39.1446 547.473C51.5348 547.473 63.4196 552.386 72.1938 561.134L174.55 663.188M-9.06332 395.49L-58.2412 346.457C-67.0494 337.675 -72 325.748 -72 313.31L-72 230.442C-72 204.591 -51.0433 183.634 -25.1921 183.634L109.304 183.634M174.55 663.188L216.7 630.949M174.55 663.188L265.716 753.47C295.268 782.736 345.46 761.803 345.46 720.211L345.46 630.949M345.46 630.949C295.176 630.949 266.984 630.949 216.7 630.949M345.46 630.949L216.7 502.569M345.46 630.949L345.46 374.189M109.304 183.634L20.8147 99.1168C1.64857 80.811 1.49044 50.2583 20.4661 31.755L221.897 -164.661M216.7 502.569L216.7 630.949M216.7 502.569L345.46 374.189M221.897 -164.661L429.113 -164.661C470.848 -164.661 491.717 -215.149 462.162 -244.616L331.025 -375.366M331.025 -375.366L331.025 -382.419C331.025 -394.857 335.976 -406.783 344.784 -415.566L358.963 -429.703M363.167 -510.36L276.679 -596.848C267.901 -605.627 255.995 -610.558 243.581 -610.558L190.563 -610.558" stroke="url(#paint0_radial_8068_33314)"/>
  <defs>
    <radialGradient id="paint0_radial_8068_33314" cx="0" cy="0" r="1" gradientUnits="userSpaceOnUse" gradientTransform="translate(438.677 934.942) rotate(-103.795) scale(922.614 392.801)">
      <stop stop-color="#181818" stop-opacity="0"/>
      <stop offset="1" stop-color="#2E2E2E"/>
    </radialGradient>
  </defs>
</svg>