<svg width="390" height="986" viewBox="0 0 390 986" fill="none" xmlns="http://www.w3.org/2000/svg">
<path d="M741.094 34.9211V77.5263C741.094 95.1995 755.421 109.526 773.094 109.526H825.712M741.094 34.9211H681.665M741.094 34.9211H863.5H936.306C942.611 34.9211 948.774 36.7832 954.024 40.2737L972.246 52.3896C989.305 63.7319 991.461 87.9591 976.674 102.136L954.5 123.395L928.661 149.234C916.151 161.744 895.864 161.729 883.373 149.2L853.194 118.932C847.19 112.911 839.037 109.526 830.533 109.526H825.712M642.308 34.9211L623.337 158.11C620.471 176.715 602.244 188.84 583.977 184.291L526.884 170.074C520.304 168.436 514.415 164.749 510.066 159.546L486.094 130.871C480.014 123.598 471.022 119.395 461.542 119.395H382.157M642.308 34.9211L600.423 -7.08776C587.918 -19.6292 567.605 -19.6292 555.101 -7.08778L539.419 8.64043C526.915 21.1819 506.602 21.1819 494.098 8.64041L443.554 -42.0526M642.308 34.9211H681.665M382.157 119.395V54.8587C382.157 46.3882 378.799 38.2632 372.818 32.2648L298.72 -42.0526M382.157 119.395L313.282 144.605M298.72 -42.0526V-122.974M298.72 -42.0526H443.554M298.72 -42.0526L225.516 31.3684M298.72 -122.974H226.818C209.144 -122.974 194.818 -108.647 194.818 -90.9737V-90.0166C194.818 -81.5461 191.459 -73.4211 185.478 -67.4227L115.71 2.55264M298.72 -122.974L332.241 -156.594C338.245 -162.616 346.399 -166 354.902 -166H411.554C429.227 -166 443.554 -151.673 443.554 -134V-42.0526M115.71 2.55264L136.5 31.3684M115.71 2.55264L49.5393 69.3707C30.207 88.8922 42.8436 122.096 70.2633 123.824L136.5 128M136.5 128C136.5 93.6236 136.5 65.7448 136.5 31.3684M136.5 128L225.516 31.3684M136.5 128L313.282 144.605M443.554 -42.0526L501.334 -102.548C513.849 -115.651 534.736 -115.759 547.386 -102.786L681.665 34.9211M225.516 31.3684H136.5M225.516 31.3684L313.282 144.605M681.665 34.9211V120.163C681.665 142.836 704.591 158.317 725.622 149.846L825.712 109.526" stroke="#202020"/>
<rect width="0.999999" height="20" transform="matrix(4.37114e-08 -1 -1 -4.37114e-08 211 120)" fill="#E9E9E9"/>
<path d="M569.103 459.956L539.147 490.001M454.596 555.067V535.263C454.596 517.59 468.923 503.263 486.596 503.263H513.353M454.596 555.067H413.33M454.596 555.067L501.75 602.221C507.751 608.222 515.891 611.594 524.378 611.594H564.181C572.668 611.594 580.807 608.222 586.808 602.221L596.46 592.569C608.957 580.072 608.957 559.811 596.46 547.314L577.436 528.289L539.147 490.001M386.002 555.067V494.971C386.002 477.298 371.675 462.971 354.002 462.971H312.106C303.603 462.971 295.449 466.356 289.445 472.377L274.861 487.005C268.857 493.026 260.704 496.411 252.2 496.411H205.36M386.002 555.067L362.363 578.776C350.676 590.498 331.69 590.498 320.003 578.776V578.776C308.316 567.055 289.331 567.055 277.644 578.776L247.993 608.516M386.002 555.067H413.33M205.36 496.411V537.181C205.36 545.651 202.002 553.776 196.021 559.774L147.424 608.516M205.36 496.411H157.535M147.424 608.516V664.705M147.424 608.516H247.993M147.424 608.516L96.5925 557.534M147.424 664.705H97.9665C85.4351 664.705 75.2763 654.547 75.2763 642.015V642.015C75.2763 636.009 72.8949 630.248 68.6542 625.994L20.3459 577.543M147.424 664.705L167.833 685.176C173.837 691.197 181.991 694.582 190.494 694.582H215.993C233.666 694.582 247.993 680.255 247.993 662.582V608.516M20.3459 577.543L35.6499 557.534M20.3459 577.543L-6.0113 550.928C-26.019 530.724 -11.7079 496.411 16.726 496.411H35.6499M35.6499 496.411C35.6499 520.281 35.6499 533.664 35.6499 557.534M35.6499 496.411L96.5925 557.534M35.6499 496.411H157.535M247.993 608.516L281.114 643.194C293.629 656.296 314.516 656.404 327.165 643.432L413.33 555.067M96.5925 557.534H35.6499M96.5925 557.534L157.535 496.411M413.33 555.067V480.361C413.33 451.829 447.846 437.562 467.991 457.767L513.353 503.263M513.353 503.263V503.263C521.401 503.263 529.118 500.06 534.8 494.361L539.147 490.001M577.436 488.005L615.627 526.197C621.629 532.198 625 540.338 625 548.825V569.941" stroke="#202020"/>
<rect x="346.156" y="588.146" width="0.694374" height="13.8875" transform="rotate(135 346.156 588.146)" fill="#E9E9E9"/>
<circle cx="366.346" cy="608.479" r="2.2775" transform="rotate(180 366.346 608.479)" fill="#202020" stroke="#202020"/>
<circle cx="283.021" cy="577.232" r="2.2775" transform="rotate(180 283.021 577.232)" fill="#202020" stroke="#202020"/>
</svg>
