<svg width="390" height="193" viewBox="0 0 390 193" fill="none" xmlns="http://www.w3.org/2000/svg">
<path d="M741.094 34.9211V77.5263C741.094 95.1995 755.421 109.526 773.094 109.526H825.712M741.094 34.9211H681.665M741.094 34.9211H863.5H936.306C942.611 34.9211 948.774 36.7832 954.024 40.2737L972.246 52.3896C989.305 63.7319 991.461 87.9591 976.674 102.136L954.5 123.395L928.661 149.234C916.151 161.744 895.864 161.729 883.373 149.2L853.194 118.932C847.19 112.911 839.037 109.526 830.533 109.526H825.712M642.308 34.9211L623.337 158.11C620.471 176.715 602.244 188.84 583.977 184.291L526.884 170.074C520.304 168.436 514.415 164.749 510.066 159.546L486.094 130.871C480.014 123.598 471.022 119.395 461.542 119.395H382.157M642.308 34.9211L600.423 -7.08776C587.918 -19.6292 567.605 -19.6292 555.101 -7.08778L539.419 8.64043C526.915 21.1819 506.602 21.1819 494.098 8.64041L443.554 -42.0526M642.308 34.9211H681.665M382.157 119.395V54.8587C382.157 46.3882 378.799 38.2632 372.818 32.2648L298.72 -42.0526M382.157 119.395L313.282 144.605M298.72 -42.0526V-122.974M298.72 -42.0526H443.554M298.72 -42.0526L225.516 31.3684M298.72 -122.974H226.818C209.144 -122.974 194.818 -108.647 194.818 -90.9737V-90.0166C194.818 -81.5461 191.459 -73.4211 185.478 -67.4227L115.71 2.55264M298.72 -122.974L332.241 -156.594C338.245 -162.616 346.399 -166 354.902 -166H411.554C429.227 -166 443.554 -151.673 443.554 -134V-42.0526M115.71 2.55264L136.5 31.3684M115.71 2.55264L49.5393 69.3707C30.207 88.8922 42.8436 122.096 70.2633 123.824L136.5 128M136.5 128C136.5 93.6236 136.5 65.7448 136.5 31.3684M136.5 128L225.516 31.3684M136.5 128L313.282 144.605M443.554 -42.0526L501.334 -102.548C513.849 -115.651 534.736 -115.759 547.386 -102.786L681.665 34.9211M225.516 31.3684H136.5M225.516 31.3684L313.282 144.605M681.665 34.9211V120.163C681.665 142.836 704.591 158.317 725.622 149.846L825.712 109.526" stroke="#202020"/>
</svg>
