<svg width="20" height="18" viewBox="0 0 20 18" fill="none" xmlns="http://www.w3.org/2000/svg">
<path id="Icon" d="M1.66675 10.6667L18.3334 10.6667M6.66675 16.5H13.3334M5.66675 14H14.3334C15.7335 14 16.4336 14 16.9684 13.7275C17.4388 13.4878 17.8212 13.1054 18.0609 12.635C18.3334 12.1002 18.3334 11.4001 18.3334 10V5.5C18.3334 4.09987 18.3334 3.3998 18.0609 2.86502C17.8212 2.39462 17.4388 2.01217 16.9684 1.77248C16.4336 1.5 15.7335 1.5 14.3334 1.5H5.66675C4.26662 1.5 3.56655 1.5 3.03177 1.77248C2.56137 2.01217 2.17892 2.39462 1.93923 2.86502C1.66675 3.3998 1.66675 4.09987 1.66675 5.5V10C1.66675 11.4001 1.66675 12.1002 1.93923 12.635C2.17892 13.1054 2.56137 13.4878 3.03177 13.7275C3.56655 14 4.26662 14 5.66675 14Z" stroke="#B1B1B1" stroke-width="1.66667" stroke-linecap="round" stroke-linejoin="round"/>
</svg>
