<svg width="22" height="22" viewBox="0 0 22 22" fill="none" xmlns="http://www.w3.org/2000/svg">
<path id="Icon" d="M21 11H19M21 11C21 16.5228 16.5228 21 11 21M21 11C21 5.47715 16.5228 1 11 1M18.0711 18.0711L16.6569 16.6569M3 11H1M1 11C1 16.5228 5.47715 21 11 21M1 11C1 5.47715 5.47715 1 11 1M5.34315 5.34315L3.92893 3.92893M11 3V1M16.6569 5.34315L18.0711 3.92893M11 21V19M3.92893 18.0711L5.34315 16.6569M11 7L15 11L11 15L7 11L11 7Z" stroke="#E9E9E9" stroke-width="2" stroke-linecap="round" stroke-linejoin="round"/>
</svg>
