<svg width="384" height="250" viewBox="0 0 384 250" fill="none" xmlns="http://www.w3.org/2000/svg">
<path d="M72.4998 -88.8947L115.641 -45.626M237.406 48.0789V5.47366C237.406 -12.1995 223.079 -26.5263 205.406 -26.5263H152.788M237.406 48.0789H296.835M237.406 48.0789L165.372 120.113C159.371 126.114 151.232 129.485 142.745 129.485H73.7546C65.2677 129.485 57.1283 126.114 51.1272 120.113L23.1421 92.1274C10.6453 79.6306 10.6453 59.3694 23.1421 46.8726L60.4998 9.51489L115.641 -45.626M336.192 48.0789V-52.5526C336.192 -70.2257 350.519 -84.5526 368.192 -84.5526H448.459C456.962 -84.5526 465.116 -81.1682 471.12 -75.1466L500.379 -45.8008C506.383 -39.7792 514.536 -36.3947 523.04 -36.3947H596.343M336.192 48.0789L378.077 90.0878C390.581 102.629 410.894 102.629 423.399 90.0878L439.08 74.3596C451.585 61.8181 471.898 61.8181 484.402 74.3596L534.945 125.053M336.192 48.0789H296.835M596.343 -36.3947V28.1413C596.343 36.6118 599.701 44.7368 605.682 50.7352L679.78 125.053M596.343 -36.3947H665.217M679.78 125.053V205.974M679.78 125.053H534.945M679.78 125.053L752.984 51.6316M679.78 205.974H751.682C769.355 205.974 783.682 191.647 783.682 173.974V173.017C783.682 164.546 787.041 156.421 793.021 150.423L862.79 80.4474M679.78 205.974L646.259 239.594C640.255 245.616 632.101 249 623.598 249H566.945C549.272 249 534.945 234.673 534.945 217V125.053M862.79 80.4474L840.75 51.6316M862.79 80.4474L924.511 18.1222C944.519 -2.08122 930.208 -36.3947 901.774 -36.3947H840.75M840.75 -36.3947C840.75 -2.01833 840.75 17.2552 840.75 51.6316M840.75 -36.3947L752.984 51.6316M840.75 -36.3947H665.217M534.945 125.053L477.166 185.548C464.651 198.651 443.764 198.759 431.114 185.786L296.835 48.0789M752.984 51.6316H840.75M752.984 51.6316L665.217 -36.3947M296.835 48.0789V-93.5833C296.835 -122.115 262.319 -136.382 242.174 -116.177L152.788 -26.5263M152.788 -26.5263H147.967C139.463 -26.5263 131.31 -29.9108 125.306 -35.9324L115.641 -45.626" stroke="#202020"/>
<rect width="0.999999" height="20" transform="matrix(-4.37114e-08 1 1 4.37114e-08 88.5 129)" fill="url(#paint0_linear_3727_12721)"/>
<circle cx="4" cy="4" r="3.5" transform="matrix(1 0 0 -1 332.5 52)" fill="#202020" stroke="#202020"/>
<circle cx="4" cy="4" r="3.5" transform="matrix(1 0 0 -1 153.5 129)" fill="#202020" stroke="#202020"/>
<defs>
<linearGradient id="paint0_linear_3727_12721" x1="1.44444" y1="-64.6667" x2="-1.60361" y2="-64.6454" gradientUnits="userSpaceOnUse">
<stop stop-color="#009BD2"/>
<stop offset="1" stop-color="#3B6B7C"/>
</linearGradient>
</defs>
</svg>
