<svg width="538" height="302" viewBox="0 0 538 302" fill="none" xmlns="http://www.w3.org/2000/svg">
<path d="M-336.309 -343.766L-311.944 -287.733M-232.798 -156.039L-217.242 -195.703C-210.79 -212.156 -218.897 -230.725 -235.35 -237.177L-284.335 -256.389M-232.798 -156.039L-177.472 -134.34M-232.798 -156.039L-326.159 -115.279C-333.937 -111.883 -342.746 -111.716 -350.647 -114.815L-414.874 -140.004C-422.775 -143.103 -429.122 -149.213 -432.517 -156.991L-448.353 -193.262C-455.424 -209.459 -448.026 -228.321 -431.829 -235.393L-383.411 -256.531L-311.944 -287.733M-140.832 -119.971L-104.09 -213.655C-97.6372 -230.108 -79.0685 -238.215 -62.6155 -231.762L12.1097 -202.456C20.026 -199.351 26.3811 -193.223 29.7718 -185.425L46.2964 -147.422C49.6872 -139.624 56.0423 -133.497 63.9585 -130.392L132.201 -103.628M-140.832 -119.971L-117.177 -65.5693C-110.115 -49.3281 -91.2041 -41.9116 -74.9839 -49.0217L-54.6422 -57.9384C-38.422 -65.0485 -19.5114 -57.632 -12.4493 -41.3908L16.0959 24.2566M-140.832 -119.971L-177.472 -134.34M132.201 -103.628L108.638 -43.5474C105.545 -35.6616 105.705 -26.8714 109.083 -19.1034L150.931 77.1375M132.201 -103.628L196.321 -78.4809M150.931 77.1375L121.386 152.472M150.931 77.1375L16.0959 24.2566M150.931 77.1375L245.888 35.5131M121.386 152.472L188.324 178.725C204.777 185.177 223.346 177.07 229.799 160.617L230.148 159.726C233.241 151.841 239.334 145.503 247.092 142.102L337.593 102.431M121.386 152.472L77.9037 171.532C70.1157 174.946 61.2893 175.12 53.373 172.015L0.631804 151.331C-15.8212 144.878 -23.9281 126.309 -17.4754 109.856L16.0959 24.2566M337.593 102.431L327.596 67.5577M337.593 102.431L417.809 66.9441C443.812 55.4405 443.017 18.2707 416.546 7.8891L359.735 -14.3915M359.735 -14.3915C347.184 17.6117 340.147 35.5546 327.596 67.5577M359.735 -14.3915L245.888 35.5131M359.735 -14.3915L196.321 -78.4809M16.0959 24.2566L-59.7825 59.4791C-76.2172 67.108 -95.7019 59.5825 -102.742 42.8869L-177.472 -134.34M245.888 35.5131L327.596 67.5577M245.888 35.5131L196.321 -78.4809M-177.472 -134.34L-125.749 -266.223C-115.332 -292.785 -142.255 -318.669 -168.387 -307.214L-284.335 -256.389M-284.335 -256.389L-288.824 -258.149C-296.74 -261.254 -303.095 -267.382 -306.486 -275.18L-311.944 -287.733M-362.229 -310.541L-438.862 -277.084C-446.64 -273.688 -452.751 -267.342 -455.849 -259.441L-469.083 -225.698" stroke="#202020"/>
<rect width="1" height="20" transform="matrix(0.930963 0.365114 0.365114 -0.930963 -4.01562 74.3174)" fill="url(#paint0_linear_3727_12730)"/>
<rect width="1" height="20" transform="matrix(0.400116 0.916465 0.916465 -0.400116 188.449 60.3418)" fill="url(#paint1_linear_3727_12730)"/>
<circle cx="4" cy="4" r="3.5" transform="matrix(0.930963 0.365114 0.365114 -0.930963 145.505 79.2495)" fill="#202020" stroke="#202020"/>
<circle cx="4" cy="4" r="3.5" transform="matrix(0.930963 0.365114 0.365114 -0.930963 332.302 104.173)" fill="#202020" stroke="#202020"/>
<defs>
<linearGradient id="paint0_linear_3727_12730" x1="1.44444" y1="-64.6667" x2="-1.60361" y2="-64.6454" gradientUnits="userSpaceOnUse">
<stop stop-color="#009BD2"/>
<stop offset="1" stop-color="#3B6B7C"/>
</linearGradient>
<linearGradient id="paint1_linear_3727_12730" x1="1.44444" y1="-64.6667" x2="-1.60361" y2="-64.6454" gradientUnits="userSpaceOnUse">
<stop stop-color="#009BD2"/>
<stop offset="1" stop-color="#3B6B7C"/>
</linearGradient>
</defs>
</svg>
