<svg width="16" height="16" viewBox="0 0 16 16" fill="none" xmlns="http://www.w3.org/2000/svg">
<g id="shopping-cart-03" clip-path="url(#clip0_4055_36783)">
<path id="Icon" d="M3.33359 9.33325H12.0907C12.766 9.33325 13.1036 9.33325 13.3723 9.20736C13.6091 9.09647 13.808 8.91842 13.9444 8.69536C14.0992 8.44214 14.1365 8.10659 14.211 7.43551L14.601 3.92548C14.6238 3.72051 14.6352 3.61802 14.6022 3.53869C14.5733 3.46902 14.5216 3.41123 14.4555 3.37477C14.3803 3.33325 14.2772 3.33325 14.071 3.33325H3.00026M1.3335 1.33325H2.16579C2.3422 1.33325 2.43041 1.33325 2.49942 1.3668C2.56017 1.39634 2.61052 1.44363 2.64379 1.50243C2.68158 1.56921 2.68708 1.65725 2.69808 1.83332L3.30224 11.4999C3.31325 11.6759 3.31875 11.764 3.35654 11.8307C3.38981 11.8895 3.44015 11.9368 3.5009 11.9664C3.56991 11.9999 3.65812 11.9999 3.83454 11.9999H12.6668M5.00016 14.3333H5.00683M11.0002 14.3333H11.0068M5.3335 14.3333C5.3335 14.5173 5.18426 14.6666 5.00016 14.6666C4.81607 14.6666 4.66683 14.5173 4.66683 14.3333C4.66683 14.1492 4.81607 13.9999 5.00016 13.9999C5.18426 13.9999 5.3335 14.1492 5.3335 14.3333ZM11.3335 14.3333C11.3335 14.5173 11.1843 14.6666 11.0002 14.6666C10.8161 14.6666 10.6668 14.5173 10.6668 14.3333C10.6668 14.1492 10.8161 13.9999 11.0002 13.9999C11.1843 13.9999 11.3335 14.1492 11.3335 14.3333Z" stroke="#E9E9E9" stroke-width="1.33333" stroke-linecap="round" stroke-linejoin="round"/>
</g>
<defs>
<clipPath id="clip0_4055_36783">
<rect width="16" height="16" fill="white"/>
</clipPath>
</defs>
</svg>
