<svg width="16" height="15" viewBox="0 0 16 15" fill="none" xmlns="http://www.w3.org/2000/svg">
<path id="Icon" d="M4.33359 11.3333H11.5531C12.1864 11.3333 12.503 11.3333 12.7611 11.2188C12.9886 11.118 13.1834 10.9554 13.3233 10.7496C13.4821 10.5162 13.5387 10.2046 13.652 9.58154L14.5525 4.62866C14.5918 4.4127 14.6114 4.30472 14.5811 4.22041C14.5545 4.14644 14.5026 4.08426 14.4346 4.04484C14.357 3.99992 14.2473 3.99992 14.0278 3.99992H3.33359M1.3335 1.33325H2.2111C2.37289 1.33325 2.45379 1.33325 2.51921 1.3628C2.57688 1.38885 2.62594 1.43077 2.66066 1.48367C2.70006 1.54369 2.71267 1.62359 2.73791 1.78341L4.59575 13.5498C4.62099 13.7096 4.6336 13.7895 4.673 13.8495C4.70772 13.9024 4.75678 13.9443 4.81445 13.9704C4.87987 13.9999 4.96077 13.9999 5.12256 13.9999H12.6668" stroke="#B1B1B1" stroke-width="1.33333" stroke-linecap="round" stroke-linejoin="round"/>
</svg>
