<svg width="20" height="20" viewBox="0 0 20 20" fill="none" xmlns="http://www.w3.org/2000/svg">
<path id="Icon" d="M12.5001 7.50008H12.5084M7.50008 7.50008H7.50841M18.3334 10.0001C18.3334 14.6025 14.6025 18.3334 10.0001 18.3334C5.39771 18.3334 1.66675 14.6025 1.66675 10.0001C1.66675 5.39771 5.39771 1.66675 10.0001 1.66675C14.6025 1.66675 18.3334 5.39771 18.3334 10.0001ZM12.9167 7.50008C12.9167 7.7302 12.7302 7.91675 12.5001 7.91675C12.27 7.91675 12.0834 7.7302 12.0834 7.50008C12.0834 7.26996 12.27 7.08341 12.5001 7.08341C12.7302 7.08341 12.9167 7.26996 12.9167 7.50008ZM7.91675 7.50008C7.91675 7.7302 7.7302 7.91675 7.50008 7.91675C7.26996 7.91675 7.08341 7.7302 7.08341 7.50008C7.08341 7.26996 7.26996 7.08341 7.50008 7.08341C7.7302 7.08341 7.91675 7.26996 7.91675 7.50008ZM10.0001 14.5834C12.0838 14.5834 13.7501 13.0559 13.7501 11.6667H6.25008C6.25008 13.0559 7.91633 14.5834 10.0001 14.5834Z" stroke="#B1B1B1" stroke-width="1.66667" stroke-linecap="round" stroke-linejoin="round"/>
</svg>
