<svg width="574" height="277" viewBox="0 0 574 277" fill="none" xmlns="http://www.w3.org/2000/svg">
<path d="M-332.75 338.895L-289.609 295.626M-167.844 201.921V244.526C-167.844 262.199 -182.171 276.526 -199.844 276.526H-252.462M-167.844 201.921H-108.415M-167.844 201.921L-239.878 129.887C-245.879 123.886 -254.018 120.515 -262.505 120.515H-331.495C-339.982 120.515 -348.122 123.886 -354.123 129.887L-382.108 157.873C-394.605 170.369 -394.605 190.631 -382.108 203.127L-344.75 240.485L-289.609 295.626M-69.0578 201.921V302.553C-69.0578 320.226 -54.7309 334.553 -37.0578 334.553H43.2087C51.7121 334.553 59.8657 331.168 65.8696 325.147L95.1287 295.801C101.133 289.779 109.286 286.395 117.79 286.395H191.093M-69.0578 201.921L-27.1731 159.912C-14.6687 147.371 5.6443 147.371 18.1487 159.912L33.8304 175.64C46.3348 188.182 66.6478 188.182 79.1522 175.64L129.695 124.947M-69.0578 201.921H-108.415M191.093 286.395V221.859C191.093 213.388 194.451 205.263 200.432 199.265L274.53 124.947M191.093 286.395H259.967M274.53 124.947V44.0263M274.53 124.947H129.695M274.53 124.947L347.734 198.368M274.53 44.0263H346.432C364.105 44.0263 378.432 58.3532 378.432 76.0263V76.9834C378.432 85.4539 381.791 93.5789 387.771 99.5773L457.54 169.553M274.53 44.0263L241.009 10.4061C235.005 4.38443 226.851 1 218.348 1H161.695C144.022 1 129.695 15.3269 129.695 33V124.947M457.54 169.553L435.5 198.368M457.54 169.553L519.261 231.878C539.269 252.081 524.958 286.395 496.524 286.395H435.5M435.5 286.395C435.5 252.018 435.5 232.745 435.5 198.368M435.5 286.395L347.734 198.368M435.5 286.395H259.967M129.695 124.947L71.9157 64.4523C59.401 51.3495 38.5138 51.2414 25.8641 64.214L-108.415 201.921M347.734 198.368H435.5M347.734 198.368L259.967 286.395M-108.415 201.921V343.583C-108.415 372.115 -142.931 386.382 -163.076 366.177L-252.462 276.526M-252.462 276.526H-257.283C-265.787 276.526 -273.94 279.911 -279.944 285.932L-289.609 295.626M-344.75 298.5L-403.877 239.373C-409.879 233.372 -413.25 225.232 -413.25 216.745V180.5" stroke="#202020"/>
<rect x="129.25" y="71" width="1" height="20" fill="url(#paint0_linear_3727_12703)"/>
<rect x="303.325" y="154.282" width="1" height="20" transform="rotate(-45 303.325 154.282)" fill="url(#paint1_linear_3727_12703)"/>
<circle cx="274.25" cy="125" r="3.5" fill="#202020" stroke="#202020"/>
<circle cx="457.25" cy="170" r="3.5" fill="#202020" stroke="#202020"/>
<defs>
<linearGradient id="paint0_linear_3727_12703" x1="130.694" y1="6.33332" x2="127.646" y2="6.35458" gradientUnits="userSpaceOnUse">
<stop stop-color="#009BD2"/>
<stop offset="1" stop-color="#3B6B7C"/>
</linearGradient>
<linearGradient id="paint1_linear_3727_12703" x1="304.77" y1="89.6155" x2="301.722" y2="89.6368" gradientUnits="userSpaceOnUse">
<stop stop-color="#009BD2"/>
<stop offset="1" stop-color="#3B6B7C"/>
</linearGradient>
</defs>
</svg>
