<svg width="552" height="260" viewBox="0 0 552 260" fill="none" xmlns="http://www.w3.org/2000/svg">
<path d="M906 -78.8947L862.859 -35.626M741.094 58.0789V15.4737C741.094 -2.19945 755.421 -16.5263 773.094 -16.5263H825.712M741.094 58.0789H681.665M741.094 58.0789L813.127 130.113C819.129 136.114 827.268 139.485 835.755 139.485H904.745C913.232 139.485 921.371 136.114 927.373 130.113L955.358 102.127C967.854 89.6306 967.854 69.3694 955.358 56.8726L918 19.5149L862.859 -35.626M642.308 58.0789V-42.5526C642.308 -60.2257 627.981 -74.5526 610.308 -74.5526H530.041C521.538 -74.5526 513.384 -71.1682 507.38 -65.1466L478.121 -35.8008C472.117 -29.7792 463.964 -26.3947 455.46 -26.3947H382.157M642.308 58.0789L600.423 100.088C587.918 112.629 567.605 112.629 555.101 100.088L539.419 84.3596C526.915 71.8181 506.602 71.8181 494.098 84.3596L443.554 135.053M642.308 58.0789H681.665M382.157 -26.3947V38.1413C382.157 46.6118 378.799 54.7368 372.818 60.7352L298.72 135.053M382.157 -26.3947H313.282M298.72 135.053V215.974M298.72 135.053H443.554M298.72 135.053L225.516 61.6316M298.72 215.974H226.818C209.144 215.974 194.818 201.647 194.818 183.974V183.017C194.818 174.546 191.459 166.421 185.478 160.423L115.71 90.4474M298.72 215.974L332.241 249.594C338.245 255.616 346.399 259 354.902 259H411.554C429.227 259 443.554 244.673 443.554 227V135.053M115.71 90.4474L137.75 61.6316M115.71 90.4474L53.9887 28.1222C33.981 7.91878 48.2921 -26.3947 76.726 -26.3947H137.75M137.75 -26.3947C137.75 7.98167 137.75 27.2552 137.75 61.6316M137.75 -26.3947L225.516 61.6316M137.75 -26.3947H313.282M443.554 135.053L501.334 195.548C513.849 208.651 534.736 208.759 547.386 195.786L681.665 58.0789M225.516 61.6316H137.75M225.516 61.6316L313.282 -26.3947M681.665 58.0789V-83.5833C681.665 -112.115 716.18 -126.382 736.326 -106.177L825.712 -16.5263M825.712 -16.5263H830.533C839.037 -16.5263 847.19 -19.9108 853.194 -25.9324L862.859 -35.626M918 -38.5L977.127 20.6272C983.128 26.6283 986.5 34.7677 986.5 43.2546V79.5" stroke="#202020"/>
<rect x="444" y="189" width="1" height="20" transform="rotate(180 444 189)" fill="url(#paint0_linear_3727_12712)"/>
<rect x="269.924" y="105.718" width="1" height="20" transform="rotate(135 269.924 105.718)" fill="url(#paint1_linear_3727_12712)"/>
<circle cx="299" cy="135" r="3.5" transform="rotate(180 299 135)" fill="#202020" stroke="#202020"/>
<circle cx="116" cy="90" r="3.5" transform="rotate(180 116 90)" fill="#202020" stroke="#202020"/>
<defs>
<linearGradient id="paint0_linear_3727_12712" x1="445.444" y1="124.333" x2="442.396" y2="124.355" gradientUnits="userSpaceOnUse">
<stop stop-color="#009BD2"/>
<stop offset="1" stop-color="#3B6B7C"/>
</linearGradient>
<linearGradient id="paint1_linear_3727_12712" x1="271.369" y1="41.0511" x2="268.321" y2="41.0723" gradientUnits="userSpaceOnUse">
<stop stop-color="#009BD2"/>
<stop offset="1" stop-color="#3B6B7C"/>
</linearGradient>
</defs>
</svg>
