<svg width="16" height="16" viewBox="0 0 16 16" fill="none" xmlns="http://www.w3.org/2000/svg">
<g clip-path="url(#clip0_4002_19856)">
<path d="M4.00016 3.99992L5.3335 2.66659M5.3335 2.66659L4.00016 1.33325M5.3335 2.66659H4.00016C2.5274 2.66659 1.3335 3.86049 1.3335 5.33325M12.0002 11.9999L10.6668 13.3333M10.6668 13.3333L12.0002 14.6666M10.6668 13.3333H12.0002C13.4729 13.3333 14.6668 12.1393 14.6668 10.6666M6.79285 4.33325C7.23689 2.60802 8.80299 1.33325 10.6668 1.33325C12.876 1.33325 14.6668 3.12411 14.6668 5.33325C14.6668 7.19708 13.3921 8.76317 11.6669 9.20722M9.3335 10.6666C9.3335 12.8757 7.54264 14.6666 5.3335 14.6666C3.12436 14.6666 1.3335 12.8757 1.3335 10.6666C1.3335 8.45745 3.12436 6.66659 5.3335 6.66659C7.54264 6.66659 9.3335 8.45745 9.3335 10.6666Z" stroke="#B1B1B1" stroke-width="1.33333" stroke-linecap="round" stroke-linejoin="round"/>
</g>
<defs>
<clipPath id="clip0_4002_19856">
<rect width="16" height="16" fill="white"/>
</clipPath>
</defs>
</svg>
