<svg width="23" height="20" viewBox="0 0 23 20" fill="none" xmlns="http://www.w3.org/2000/svg">
<path id="Icon" d="M15.5 14V4.2C15.5 3.0799 15.5 2.51984 15.282 2.09202C15.0903 1.71569 14.7843 1.40973 14.408 1.21799C13.9802 1 13.4201 1 12.3 1H4.7C3.5799 1 3.01984 1 2.59202 1.21799C2.21569 1.40973 1.90973 1.71569 1.71799 2.09202C1.5 2.51984 1.5 3.0799 1.5 4.2V10.8C1.5 11.9201 1.5 12.4802 1.71799 12.908C1.90973 13.2843 2.21569 13.5903 2.59202 13.782C3.01984 14 3.5799 14 4.7 14H15.5ZM15.5 14H19.9C20.4601 14 20.7401 14 20.954 13.891C21.1422 13.7951 21.2951 13.6422 21.391 13.454C21.5 13.2401 21.5 12.9601 21.5 12.4V9.66274C21.5 9.41815 21.5 9.29586 21.4724 9.18077C21.4479 9.07873 21.4075 8.98119 21.3526 8.89172C21.2908 8.7908 21.2043 8.70432 21.0314 8.53137L18.9686 6.46863C18.7957 6.29568 18.7092 6.2092 18.6083 6.14736C18.5188 6.09253 18.4213 6.05213 18.3192 6.02763C18.2041 6 18.0818 6 17.8373 6H15.5M8.5 16.5C8.5 17.8807 7.38071 19 6 19C4.61929 19 3.5 17.8807 3.5 16.5C3.5 15.1193 4.61929 14 6 14C7.38071 14 8.5 15.1193 8.5 16.5ZM19.5 16.5C19.5 17.8807 18.3807 19 17 19C15.6193 19 14.5 17.8807 14.5 16.5C14.5 15.1193 15.6193 14 17 14C18.3807 14 19.5 15.1193 19.5 16.5Z" stroke="#E9E9E9" stroke-width="2" stroke-linecap="round" stroke-linejoin="round"/>
</svg>
