<svg width="23" height="22" viewBox="0 0 23 22" fill="none" xmlns="http://www.w3.org/2000/svg">
<path id="Icon" d="M16.7448 1.81298C17.7095 0.816503 19.3036 0.803612 20.2843 1.78436C21.2382 2.73823 21.2559 4.27921 20.3243 5.25481L17.5456 8.16457C17.3278 8.39265 17.219 8.50668 17.1518 8.64024C17.0924 8.75847 17.0571 8.88732 17.0478 9.01932C17.0374 9.16842 17.0728 9.32207 17.1438 9.62935L18.8717 17.1169C18.9444 17.4323 18.9808 17.59 18.9691 17.7426C18.9587 17.8776 18.921 18.0091 18.8582 18.1291C18.7873 18.2647 18.6729 18.3792 18.444 18.608L18.0732 18.9788C17.4671 19.585 17.164 19.888 16.8538 19.9429C16.583 19.9908 16.3043 19.925 16.0835 19.761C15.8306 19.5733 15.695 19.1666 15.424 18.3534L13.4142 12.3241L10.0689 15.6695C9.8692 15.8691 9.76935 15.969 9.70257 16.0866C9.6434 16.1907 9.60343 16.3047 9.58456 16.423C9.56326 16.5565 9.57885 16.6968 9.61004 16.9775L9.79375 18.6309C9.82493 18.9116 9.84053 19.0519 9.81923 19.1854C9.80036 19.3037 9.76039 19.4177 9.70122 19.5219C9.63444 19.6394 9.53459 19.7393 9.33491 19.939L9.1374 20.1365C8.66434 20.6095 8.42781 20.8461 8.16496 20.9146C7.93442 20.9746 7.68999 20.9504 7.47571 20.8463C7.2314 20.7276 7.04585 20.4493 6.67475 19.8926L5.10643 17.5401C5.04013 17.4407 5.00698 17.391 4.96849 17.3459C4.9343 17.3058 4.89701 17.2685 4.85694 17.2343C4.81184 17.1958 4.76212 17.1627 4.66267 17.0964L2.31018 15.5281C1.75354 15.157 1.47521 14.9714 1.35649 14.7271C1.25236 14.5128 1.22816 14.2684 1.28824 14.0378C1.35674 13.775 1.59327 13.5385 2.06633 13.0654L2.26384 12.8679C2.46352 12.6682 2.56337 12.5684 2.68095 12.5016C2.78511 12.4424 2.89906 12.4024 3.01736 12.3836C3.15089 12.3623 3.29123 12.3779 3.5719 12.4091L5.22529 12.5928C5.50596 12.6239 5.6463 12.6395 5.77983 12.6182C5.89813 12.5994 6.01208 12.5594 6.11624 12.5002C6.23382 12.4334 6.33366 12.3336 6.53335 12.1339L9.87867 8.7886L3.84939 6.77884C3.03616 6.50776 2.62955 6.37222 2.44176 6.11932C2.27777 5.89848 2.212 5.61984 2.2599 5.34898C2.31477 5.03879 2.61784 4.73572 3.22399 4.12957L3.59476 3.7588C3.82365 3.52991 3.9381 3.41546 4.07369 3.34457C4.1937 3.28183 4.3252 3.24411 4.46023 3.23371C4.61278 3.22197 4.77049 3.25836 5.0859 3.33115L12.545 5.05249C12.855 5.12401 13.01 5.15978 13.1596 5.14914C13.3041 5.13886 13.4446 5.09733 13.5714 5.02742C13.7028 4.95501 13.8134 4.84074 14.0347 4.6122L16.7448 1.81298Z" stroke="#E9E9E9" stroke-width="2" stroke-linecap="round" stroke-linejoin="round"/>
</svg>
