<svg width="14" height="14" viewBox="0 0 14 14" fill="none" xmlns="http://www.w3.org/2000/svg">
<path id="Icon" d="M9.66667 4.33346V2.00057C9.66667 1.44607 9.66667 1.16883 9.54986 0.998445C9.44781 0.849584 9.28976 0.74846 9.11184 0.718183C8.90819 0.683529 8.65646 0.799711 8.153 1.03208L2.23934 3.76146C1.79034 3.96869 1.56583 4.07231 1.4014 4.23301C1.25604 4.37508 1.14508 4.5485 1.077 4.74002C1 4.95666 1 5.20392 1 5.69844V9.00013M10 8.6668H10.0067M1 6.4668L1 10.8668C1 11.6135 1 11.9869 1.14532 12.2721C1.27316 12.523 1.47713 12.727 1.72801 12.8548C2.01323 13.0001 2.3866 13.0001 3.13333 13.0001H10.8667C11.6134 13.0001 11.9868 13.0001 12.272 12.8548C12.5229 12.727 12.7268 12.523 12.8547 12.2721C13 11.9869 13 11.6135 13 10.8668V6.4668C13 5.72006 13 5.34669 12.8547 5.06148C12.7268 4.81059 12.5229 4.60662 12.272 4.47879C11.9868 4.33346 11.6134 4.33346 10.8667 4.33346L3.13333 4.33346C2.3866 4.33346 2.01323 4.33346 1.72801 4.47879C1.47713 4.60662 1.27316 4.81059 1.14532 5.06148C1 5.34669 1 5.72006 1 6.4668ZM10.3333 8.6668C10.3333 8.85089 10.1841 9.00013 10 9.00013C9.81591 9.00013 9.66667 8.85089 9.66667 8.6668C9.66667 8.4827 9.81591 8.33346 10 8.33346C10.1841 8.33346 10.3333 8.4827 10.3333 8.6668Z" stroke="#B1B1B1" stroke-width="1.33333" stroke-linecap="round" stroke-linejoin="round"/>
</svg>
