<svg width="141" height="32" viewBox="0 0 141 32" fill="none" xmlns="http://www.w3.org/2000/svg">
<path d="M4.89966 17.5215V7.01873C4.89966 4.20856 8.18666 3.48474 10.0059 5.17365C11.2903 6.36597 12.9111 9.51656 14.7455 9.51656C11.6882 12.0714 4.89966 17.5215 4.89966 17.5215Z" fill="#8CD1EA"/>
<path d="M4.8999 18.9968C4.8999 18.9968 18.8721 7.78675 19.9402 6.79522C22.4475 4.4676 27.0998 5.76898 27.0998 9.68636V13.4616C27.0998 13.4616 23.9811 15.9313 23.2468 16.442C22.5125 16.9526 21.0447 16.5552 20.6175 15.7603C20.1894 14.9654 19.6999 13.7161 17.9269 13.7161C16.7653 13.7161 15.9901 14.9828 14.7467 17.6335C12.4841 22.4589 11.2612 26.6035 8.32575 26.6035C6.0018 26.6035 4.90079 24.6733 4.90079 23.481V18.996L4.8999 18.9968Z" fill="#8CD1EA"/>
<path d="M17.3765 22.6753L27.1004 15.0107V25.1731C27.1004 26.4224 26.3056 27.728 24.715 27.728C23.1245 27.728 22.3537 27.799 20.5869 25.145C19.4067 23.3718 17.3765 22.6753 17.3765 22.6753Z" fill="#8CD1EA"/>
<path d="M35.7825 23.5V8.8H38.6175L45.3795 18.943V8.8H48.2145V23.5H45.3795L38.6175 13.378V23.5H35.7825ZM51.0813 23.5V8.8H60.7413V11.089H53.9163V14.932H60.1113V17.137H53.9163V21.211H60.7413V23.5H51.0813ZM63.3245 23.5V8.8H72.9005V11.089H66.1595V15.016H71.5565V17.242H66.1595V23.5H63.3245ZM74.9934 23.5V8.8H84.6534V11.089H77.8284V14.932H84.0234V17.137H77.8284V21.211H84.6534V23.5H74.9934ZM87.2366 23.5V8.8H90.0716L96.8336 18.943V8.8H99.6686V23.5H96.8336L90.0716 13.378V23.5H87.2366ZM105.958 23.5V11.089H101.653V8.8H113.056V11.089H108.772V23.5H105.958ZM120.757 23.752C119.679 23.752 118.699 23.535 117.817 23.101C116.935 22.667 116.235 22.016 115.717 21.148C115.199 20.28 114.94 19.174 114.94 17.83V8.8H117.775V17.851C117.775 18.579 117.894 19.195 118.132 19.699C118.37 20.189 118.713 20.553 119.161 20.791C119.623 21.029 120.169 21.148 120.799 21.148C121.443 21.148 121.989 21.029 122.437 20.791C122.899 20.553 123.249 20.189 123.487 19.699C123.725 19.195 123.844 18.579 123.844 17.851V8.8H126.679V17.83C126.679 19.174 126.413 20.28 125.881 21.148C125.349 22.016 124.628 22.667 123.718 23.101C122.822 23.535 121.835 23.752 120.757 23.752ZM134.503 23.752C133.439 23.752 132.487 23.57 131.647 23.206C130.821 22.842 130.163 22.31 129.673 21.61C129.197 20.91 128.952 20.063 128.938 19.069H131.941C131.955 19.503 132.067 19.895 132.277 20.245C132.487 20.595 132.774 20.875 133.138 21.085C133.516 21.281 133.964 21.379 134.482 21.379C134.93 21.379 135.315 21.309 135.637 21.169C135.973 21.015 136.232 20.805 136.414 20.539C136.596 20.273 136.687 19.958 136.687 19.594C136.687 19.174 136.582 18.824 136.372 18.544C136.176 18.264 135.896 18.026 135.532 17.83C135.182 17.634 134.769 17.459 134.293 17.305C133.831 17.137 133.341 16.962 132.823 16.78C131.661 16.402 130.772 15.898 130.156 15.268C129.554 14.638 129.253 13.805 129.253 12.769C129.253 11.887 129.463 11.131 129.883 10.501C130.317 9.871 130.912 9.388 131.668 9.052C132.424 8.716 133.285 8.548 134.251 8.548C135.245 8.548 136.113 8.723 136.855 9.073C137.611 9.409 138.206 9.899 138.64 10.543C139.088 11.187 139.319 11.943 139.333 12.811H136.309C136.295 12.489 136.197 12.188 136.015 11.908C135.847 11.614 135.609 11.383 135.301 11.215C134.993 11.033 134.629 10.942 134.209 10.942C133.845 10.928 133.509 10.984 133.201 11.11C132.907 11.236 132.669 11.425 132.487 11.677C132.319 11.915 132.235 12.216 132.235 12.58C132.235 12.93 132.319 13.224 132.487 13.462C132.669 13.7 132.914 13.91 133.222 14.092C133.53 14.26 133.894 14.421 134.314 14.575C134.734 14.715 135.189 14.862 135.679 15.016C136.407 15.268 137.079 15.569 137.695 15.919C138.311 16.255 138.801 16.696 139.165 17.242C139.529 17.788 139.711 18.509 139.711 19.405C139.711 20.175 139.508 20.889 139.102 21.547C138.696 22.205 138.108 22.737 137.338 23.143C136.582 23.549 135.637 23.752 134.503 23.752Z" fill="#F6F6F6"/>
</svg>
