<svg width="8" height="9" viewBox="0 0 8 9" fill="none" xmlns="http://www.w3.org/2000/svg">
<path d="M7.66667 0.5H2.33333C2.24493 0.5 2.16014 0.535119 2.09763 0.597631C2.03512 0.660143 2 0.744928 2 0.833333V2.5H0.333333C0.244928 2.5 0.160143 2.53512 0.0976311 2.59763C0.035119 2.66014 0 2.74493 0 2.83333V8.16667C0 8.25507 0.035119 8.33986 0.0976311 8.40237C0.160143 8.46488 0.244928 8.5 0.333333 8.5H5.66667C5.75507 8.5 5.83986 8.46488 5.90237 8.40237C5.96488 8.33986 6 8.25507 6 8.16667V6.5H7.66667C7.75507 6.5 7.83986 6.46488 7.90237 6.40237C7.96488 6.33986 8 6.25507 8 6.16667V0.833333C8 0.744928 7.96488 0.660143 7.90237 0.597631C7.83986 0.535119 7.75507 0.5 7.66667 0.5ZM7.33333 5.83333H6V2.83333C6 2.74493 5.96488 2.66014 5.90237 2.59763C5.83986 2.53512 5.75507 2.5 5.66667 2.5H2.66667V1.16667H7.33333V5.83333Z" fill="white"/>
</svg>
