<svg width="267" height="204" viewBox="0 0 267 204" fill="none" xmlns="http://www.w3.org/2000/svg">
<mask id="mask0_3292_60527" style="mask-type:alpha" maskUnits="userSpaceOnUse" x="-4" y="-37" width="275" height="277">
<path d="M192.307 102.001C192.307 134.721 165.975 161.241 133.5 161.241C101.025 161.241 74.6927 134.721 74.6927 102.001C74.6927 69.2799 101.025 42.7607 133.5 42.7607C165.975 42.7607 192.307 69.2799 192.307 102.001Z" stroke="#202020"/>
<path d="M227.805 101.999C227.805 154.324 185.581 196.737 133.5 196.737C81.419 196.737 39.1952 154.324 39.1952 101.999C39.1952 49.675 81.419 7.26172 133.5 7.26172C185.581 7.26172 227.805 49.675 227.805 101.999Z" stroke="#202020"/>
<path d="M270.47 101.999C270.47 177.941 209.144 239.5 133.5 239.5C57.8555 239.5 -3.46973 177.941 -3.46973 101.999C-3.46973 26.0582 57.8555 -35.501 133.5 -35.501C209.144 -35.501 270.47 26.0582 270.47 101.999Z" stroke="#202020"/>
</mask>
<g mask="url(#mask0_3292_60527)">
<rect x="-91.7163" y="-68.0342" width="458.622" height="315.888" fill="url(#paint0_radial_3292_60527)"/>
</g>
<defs>
<radialGradient id="paint0_radial_3292_60527" cx="0" cy="0" r="1" gradientUnits="userSpaceOnUse" gradientTransform="translate(137.595 366.995) rotate(-90) scale(340.457 518.691)">
<stop stop-color="#181818" stop-opacity="0"/>
<stop offset="1" stop-color="#202020" stop-opacity="0.6"/>
</radialGradient>
</defs>
</svg>
