<svg width="20" height="21" viewBox="0 0 20 21" fill="none" xmlns="http://www.w3.org/2000/svg">
<path d="M15.8334 8.83301V3.83301M13.3334 6.33301H18.3334M13.3334 17.9997V16.9997C13.3334 15.5995 13.3334 14.8995 13.0609 14.3647C12.8212 13.8943 12.4387 13.5118 11.9683 13.2722C11.4336 12.9997 10.7335 12.9997 9.33335 12.9997H5.66669C4.26656 12.9997 3.56649 12.9997 3.03171 13.2722C2.56131 13.5118 2.17885 13.8943 1.93917 14.3647C1.66669 14.8995 1.66669 15.5995 1.66669 16.9997V17.9997M10.4167 6.74967C10.4167 8.3605 9.11085 9.66634 7.50002 9.66634C5.88919 9.66634 4.58335 8.3605 4.58335 6.74967C4.58335 5.13884 5.88919 3.83301 7.50002 3.83301C9.11085 3.83301 10.4167 5.13884 10.4167 6.74967Z" stroke="#B1B1B1" stroke-width="1.66667" stroke-linecap="round" stroke-linejoin="round"/>
</svg>
