<svg width="19" height="19" viewBox="0 0 19 19" fill="none" xmlns="http://www.w3.org/2000/svg">
<path d="M14 10.3574H10.25V14.1074C10.25 14.5199 9.9125 14.8574 9.5 14.8574C9.0875 14.8574 8.75 14.5199 8.75 14.1074V10.3574H5C4.5875 10.3574 4.25 10.0199 4.25 9.60742C4.25 9.19492 4.5875 8.85742 5 8.85742H8.75V5.10742C8.75 4.69492 9.0875 4.35742 9.5 4.35742C9.9125 4.35742 10.25 4.69492 10.25 5.10742V8.85742H14C14.4125 8.85742 14.75 9.19492 14.75 9.60742C14.75 10.0199 14.4125 10.3574 14 10.3574Z" fill="#B1B1B1"/>
</svg>
