<svg xmlns="http://www.w3.org/2000/svg" width="25" height="25" viewBox="0 0 25 25" fill="none">
  <path d="M12.5 8.10742V16.1074M8.5 12.1074H16.5M8.3 21.1074H16.7C18.3802 21.1074 19.2202 21.1074 19.862 20.7804C20.4265 20.4928 20.8854 20.0339 21.173 19.4694C21.5 18.8277 21.5 17.9876 21.5 16.3074V7.90742C21.5 6.22726 21.5 5.38719 21.173 4.74545C20.8854 4.18096 20.4265 3.72202 19.862 3.4344C19.2202 3.10742 18.3802 3.10742 16.7 3.10742H8.3C6.61984 3.10742 5.77976 3.10742 5.13803 3.4344C4.57354 3.72202 4.1146 4.18096 3.82698 4.74545C3.5 5.38719 3.5 6.22726 3.5 7.90742V16.3074C3.5 17.9876 3.5 18.8277 3.82698 19.4694C4.1146 20.0339 4.57354 20.4928 5.13803 20.7804C5.77976 21.1074 6.61984 21.1074 8.3 21.1074Z" stroke="#B1B1B1" stroke-width="2" stroke-linecap="round" stroke-linejoin="round"/>
</svg>