<svg width="349" height="144" viewBox="0 0 349 144" fill="none" xmlns="http://www.w3.org/2000/svg">
<g clip-path="url(#clip0_1702_20799)">
<rect width="349" height="144" rx="6" fill="url(#paint0_linear_1702_20799)"/>
<mask id="mask0_1702_20799" style="mask-type:alpha" maskUnits="userSpaceOnUse" x="-47" y="-92" width="591" height="298">
<rect x="-47" y="-92" width="591" height="298" fill="url(#paint1_radial_1702_20799)"/>
</mask>
<g mask="url(#mask0_1702_20799)">
<rect x="-42.5" y="-122" width="384" height="249" stroke="#202020"/>
<rect x="-22" y="-2" width="42" height="42" fill="#111111" stroke="#202020"/>
<rect x="21" y="-2" width="42" height="42" fill="#171717" stroke="#202020"/>
<rect x="64" y="-2" width="42" height="42" fill="#171717" stroke="#202020"/>
<rect x="107" y="-2" width="42" height="42" fill="#202020" stroke="#202020"/>
<rect x="150" y="-2" width="42" height="42" fill="#171717" stroke="#202020"/>
<rect x="193" y="-2" width="42" height="42" fill="#111111" stroke="#202020"/>
<rect x="236" y="-2" width="42" height="42" fill="#111111" stroke="#202020"/>
<rect x="279" y="-2" width="42" height="42" fill="#202020" stroke="#202020"/>
<rect x="-22" y="41" width="42" height="42" fill="#171717" stroke="#202020"/>
<rect x="21" y="41" width="42" height="42" fill="#171717" stroke="#202020"/>
<rect x="64" y="41" width="42" height="42" fill="#202020" stroke="#202020"/>
<rect x="107" y="41" width="42" height="42" fill="#171717" stroke="#202020"/>
<rect x="150" y="41" width="42" height="42" fill="#171717" stroke="#202020"/>
<rect x="193" y="41" width="42" height="42" fill="#171717" stroke="#202020"/>
<rect x="236" y="41" width="42" height="42" fill="#202020" stroke="#202020"/>
<rect x="279" y="41" width="42" height="42" fill="#171717" stroke="#202020"/>
<rect x="-22" y="84" width="42" height="42" fill="#171717" stroke="#202020"/>
<rect x="21" y="84" width="42" height="42" fill="#171717" stroke="#202020"/>
<rect x="64" y="84" width="42" height="42" fill="#202020" stroke="#202020"/>
<rect x="107" y="84" width="42" height="42" fill="#171717" stroke="#202020"/>
<rect x="150" y="84" width="42" height="42" fill="#111111" stroke="#202020"/>
<rect x="193" y="84" width="42" height="42" fill="#171717" stroke="#202020"/>
<rect x="236" y="84" width="42" height="42" fill="#202020" stroke="#202020"/>
<rect x="279" y="84" width="42" height="42" fill="#111111" stroke="#202020"/>
</g>
<g filter="url(#filter0_d_1702_20799)">
<rect x="15" y="54" width="318" height="114" rx="6" fill="#202020"/>
<rect x="15.5" y="54.5" width="317" height="113" rx="5.5" stroke="#202020"/>
<rect x="15.5" y="54.5" width="317" height="41" fill="#171717"/>
<rect x="15.5" y="54.5" width="317" height="41" stroke="#202020"/>
<path d="M27.392 80L30.99 70.2H32.516L36.114 80H34.616L31.746 71.88L28.862 80H27.392ZM29.016 77.578L29.408 76.458H34.014L34.406 77.578H29.016ZM37.4403 80V72.944H38.7003L38.7843 74.148C39.0083 73.728 39.3256 73.3967 39.7363 73.154C40.1469 72.902 40.6183 72.776 41.1503 72.776C41.7103 72.776 42.1909 72.888 42.5923 73.112C42.9936 73.336 43.3063 73.6767 43.5303 74.134C43.7543 74.582 43.8663 75.1467 43.8663 75.828V80H42.4663V75.968C42.4663 75.3147 42.3216 74.82 42.0323 74.484C41.7429 74.148 41.3229 73.98 40.7723 73.98C40.4083 73.98 40.0816 74.0687 39.7923 74.246C39.5029 74.414 39.2696 74.666 39.0923 75.002C38.9243 75.338 38.8403 75.7487 38.8403 76.234V80H37.4403ZM48.5551 80C48.1164 80 47.7337 79.93 47.4071 79.79C47.0804 79.65 46.8284 79.4167 46.6511 79.09C46.4737 78.7633 46.3851 78.32 46.3851 77.76V74.134H45.1671V72.944H46.3851L46.5531 71.18H47.7851V72.944H49.7871V74.134H47.7851V77.774C47.7851 78.1753 47.8691 78.4507 48.0371 78.6C48.2051 78.74 48.4944 78.81 48.9051 78.81H49.7171V80H48.5551ZM51.4289 80V72.944H52.8289V80H51.4289ZM52.1429 71.614C51.8722 71.614 51.6482 71.53 51.4709 71.362C51.3029 71.194 51.2189 70.9793 51.2189 70.718C51.2189 70.466 51.3029 70.2607 51.4709 70.102C51.6482 69.934 51.8722 69.85 52.1429 69.85C52.4042 69.85 52.6236 69.934 52.8009 70.102C52.9782 70.2607 53.0669 70.466 53.0669 70.718C53.0669 70.9793 52.9782 71.194 52.8009 71.362C52.6236 71.53 52.4042 71.614 52.1429 71.614ZM54.9149 76.458V75.282H60.5709V76.458H54.9149ZM62.6255 80V70.2H65.9715C66.7555 70.2 67.3995 70.3307 67.9035 70.592C68.4075 70.8533 68.7808 71.2033 69.0235 71.642C69.2662 72.0807 69.3875 72.58 69.3875 73.14C69.3875 73.672 69.2662 74.162 69.0235 74.61C68.7902 75.0487 68.4215 75.4033 67.9175 75.674C67.4135 75.9353 66.7648 76.066 65.9715 76.066H64.0255V80H62.6255ZM64.0255 74.904H65.9155C66.6528 74.904 67.1755 74.7453 67.4835 74.428C67.8008 74.1013 67.9595 73.672 67.9595 73.14C67.9595 72.5707 67.8008 72.132 67.4835 71.824C67.1755 71.516 66.6528 71.362 65.9155 71.362H64.0255V74.904ZM70.827 80V69.92H72.227V74.092C72.4603 73.6813 72.7823 73.3593 73.193 73.126C73.613 72.8927 74.075 72.776 74.579 72.776C75.139 72.776 75.6197 72.8927 76.021 73.126C76.4223 73.35 76.7303 73.6907 76.945 74.148C77.1597 74.596 77.267 75.1607 77.267 75.842V80H75.881V75.996C75.881 75.3333 75.741 74.834 75.461 74.498C75.181 74.1527 74.7657 73.98 74.215 73.98C73.8417 73.98 73.5057 74.0687 73.207 74.246C72.9083 74.4233 72.6703 74.6847 72.493 75.03C72.3157 75.366 72.227 75.7767 72.227 76.262V80H70.827ZM79.1555 80V72.944H80.5555V80H79.1555ZM79.8695 71.614C79.5988 71.614 79.3748 71.53 79.1975 71.362C79.0295 71.194 78.9455 70.9793 78.9455 70.718C78.9455 70.466 79.0295 70.2607 79.1975 70.102C79.3748 69.934 79.5988 69.85 79.8695 69.85C80.1308 69.85 80.3501 69.934 80.5275 70.102C80.7048 70.2607 80.7935 70.466 80.7935 70.718C80.7935 70.9793 80.7048 71.194 80.5275 71.362C80.3501 71.53 80.1308 71.614 79.8695 71.614ZM85.2875 80.168C84.6901 80.168 84.1675 80.07 83.7195 79.874C83.2715 79.678 82.9168 79.4027 82.6555 79.048C82.3941 78.6933 82.2355 78.278 82.1795 77.802H83.6075C83.6541 78.026 83.7428 78.2313 83.8735 78.418C84.0135 78.6047 84.2001 78.754 84.4335 78.866C84.6761 78.978 84.9608 79.034 85.2875 79.034C85.5955 79.034 85.8475 78.992 86.0435 78.908C86.2488 78.8147 86.3981 78.6933 86.4915 78.544C86.5848 78.3853 86.6315 78.2173 86.6315 78.04C86.6315 77.7787 86.5661 77.5827 86.4355 77.452C86.3141 77.312 86.1275 77.2047 85.8755 77.13C85.6328 77.046 85.3388 76.9713 84.9935 76.906C84.6668 76.85 84.3495 76.7753 84.0415 76.682C83.7428 76.5793 83.4721 76.4533 83.2295 76.304C82.9961 76.1547 82.8095 75.968 82.6695 75.744C82.5295 75.5107 82.4595 75.226 82.4595 74.89C82.4595 74.4887 82.5668 74.1293 82.7815 73.812C82.9961 73.4853 83.2995 73.2333 83.6915 73.056C84.0928 72.8693 84.5641 72.776 85.1055 72.776C85.8895 72.776 86.5195 72.9627 86.9955 73.336C87.4715 73.7093 87.7515 74.2367 87.8355 74.918H86.4775C86.4401 74.6007 86.3001 74.358 86.0575 74.19C85.8148 74.0127 85.4928 73.924 85.0915 73.924C84.6901 73.924 84.3821 74.0033 84.1675 74.162C83.9528 74.3207 83.8455 74.5307 83.8455 74.792C83.8455 74.96 83.9061 75.1093 84.0275 75.24C84.1488 75.3707 84.3261 75.4827 84.5595 75.576C84.8021 75.66 85.0961 75.7393 85.4415 75.814C85.9361 75.9073 86.3795 76.024 86.7715 76.164C87.1635 76.304 87.4761 76.5093 87.7095 76.78C87.9428 77.0507 88.0595 77.438 88.0595 77.942C88.0688 78.3807 87.9568 78.768 87.7235 79.104C87.4995 79.44 87.1775 79.7013 86.7575 79.888C86.3468 80.0747 85.8568 80.168 85.2875 80.168ZM89.7079 80V69.92H91.1079V74.092C91.3412 73.6813 91.6632 73.3593 92.0739 73.126C92.4939 72.8927 92.9559 72.776 93.4599 72.776C94.0199 72.776 94.5005 72.8927 94.9019 73.126C95.3032 73.35 95.6112 73.6907 95.8259 74.148C96.0405 74.596 96.1479 75.1607 96.1479 75.842V80H94.7619V75.996C94.7619 75.3333 94.6219 74.834 94.3419 74.498C94.0619 74.1527 93.6465 73.98 93.0959 73.98C92.7225 73.98 92.3865 74.0687 92.0879 74.246C91.7892 74.4233 91.5512 74.6847 91.3739 75.03C91.1965 75.366 91.1079 75.7767 91.1079 76.262V80H89.7079ZM98.0363 80V72.944H99.4363V80H98.0363ZM98.7503 71.614C98.4797 71.614 98.2557 71.53 98.0783 71.362C97.9103 71.194 97.8263 70.9793 97.8263 70.718C97.8263 70.466 97.9103 70.2607 98.0783 70.102C98.2557 69.934 98.4797 69.85 98.7503 69.85C99.0117 69.85 99.231 69.934 99.4083 70.102C99.5857 70.2607 99.6743 70.466 99.6743 70.718C99.6743 70.9793 99.5857 71.194 99.4083 71.362C99.231 71.53 99.0117 71.614 98.7503 71.614ZM101.438 80V72.944H102.698L102.782 74.148C103.006 73.728 103.324 73.3967 103.734 73.154C104.145 72.902 104.616 72.776 105.148 72.776C105.708 72.776 106.189 72.888 106.59 73.112C106.992 73.336 107.304 73.6767 107.528 74.134C107.752 74.582 107.864 75.1467 107.864 75.828V80H106.464V75.968C106.464 75.3147 106.32 74.82 106.03 74.484C105.741 74.148 105.321 73.98 104.77 73.98C104.406 73.98 104.08 74.0687 103.79 74.246C103.501 74.414 103.268 74.666 103.09 75.002C102.922 75.338 102.838 75.7487 102.838 76.234V80H101.438ZM112.525 83.248C111.881 83.248 111.312 83.164 110.817 82.996C110.322 82.8373 109.94 82.59 109.669 82.254C109.398 81.918 109.263 81.5073 109.263 81.022C109.263 80.77 109.319 80.5133 109.431 80.252C109.543 80 109.725 79.7573 109.977 79.524C110.229 79.2907 110.57 79.0807 110.999 78.894L111.783 79.524C111.307 79.7013 110.985 79.9113 110.817 80.154C110.658 80.406 110.579 80.6487 110.579 80.882C110.579 81.162 110.663 81.3953 110.831 81.582C110.999 81.7687 111.228 81.9087 111.517 82.002C111.816 82.0953 112.152 82.142 112.525 82.142C112.889 82.142 113.206 82.0907 113.477 81.988C113.748 81.8853 113.958 81.7407 114.107 81.554C114.256 81.3673 114.331 81.148 114.331 80.896C114.331 80.5973 114.219 80.3453 113.995 80.14C113.771 79.944 113.342 79.8273 112.707 79.79C112.175 79.7527 111.722 79.7013 111.349 79.636C110.985 79.5707 110.672 79.4913 110.411 79.398C110.159 79.3047 109.944 79.202 109.767 79.09C109.599 78.978 109.454 78.8613 109.333 78.74V78.418L110.733 76.976L111.867 77.368L110.341 78.782L110.635 78.152C110.738 78.2173 110.836 78.2827 110.929 78.348C111.022 78.404 111.148 78.4553 111.307 78.502C111.466 78.5487 111.68 78.5907 111.951 78.628C112.222 78.6653 112.576 78.7027 113.015 78.74C113.65 78.7867 114.158 78.8987 114.541 79.076C114.933 79.2533 115.218 79.4913 115.395 79.79C115.572 80.0887 115.661 80.4433 115.661 80.854C115.661 81.2553 115.549 81.638 115.325 82.002C115.11 82.366 114.77 82.6647 114.303 82.898C113.846 83.1313 113.253 83.248 112.525 83.248ZM112.525 77.83C111.928 77.83 111.419 77.718 110.999 77.494C110.588 77.27 110.271 76.9667 110.047 76.584C109.832 76.2013 109.725 75.7767 109.725 75.31C109.725 74.834 109.832 74.4093 110.047 74.036C110.271 73.6533 110.593 73.35 111.013 73.126C111.433 72.8927 111.937 72.776 112.525 72.776C113.113 72.776 113.612 72.8927 114.023 73.126C114.443 73.35 114.76 73.6533 114.975 74.036C115.199 74.4093 115.311 74.834 115.311 75.31C115.311 75.7767 115.199 76.2013 114.975 76.584C114.76 76.9667 114.443 77.27 114.023 77.494C113.612 77.718 113.113 77.83 112.525 77.83ZM112.525 76.71C112.982 76.71 113.346 76.5933 113.617 76.36C113.888 76.1173 114.023 75.7673 114.023 75.31C114.023 74.8527 113.888 74.5073 113.617 74.274C113.346 74.0313 112.982 73.91 112.525 73.91C112.068 73.91 111.699 74.0313 111.419 74.274C111.139 74.5073 110.999 74.8527 110.999 75.31C110.999 75.7673 111.139 76.1173 111.419 76.36C111.699 76.5933 112.068 76.71 112.525 76.71ZM113.673 74.05L113.337 72.944H116.235V73.91L113.673 74.05ZM125.59 80.168C124.628 80.168 123.798 79.958 123.098 79.538C122.407 79.1087 121.87 78.516 121.488 77.76C121.114 76.9947 120.928 76.108 120.928 75.1C120.928 74.1013 121.114 73.2193 121.488 72.454C121.87 71.6887 122.407 71.096 123.098 70.676C123.798 70.2467 124.628 70.032 125.59 70.032C126.738 70.032 127.666 70.3073 128.376 70.858C129.094 71.4087 129.552 72.1833 129.748 73.182H128.208C128.068 72.6033 127.778 72.1413 127.34 71.796C126.91 71.4507 126.327 71.278 125.59 71.278C124.927 71.278 124.353 71.432 123.868 71.74C123.382 72.048 123.009 72.4867 122.748 73.056C122.486 73.6253 122.356 74.3067 122.356 75.1C122.356 75.8933 122.486 76.5793 122.748 77.158C123.009 77.7273 123.382 78.166 123.868 78.474C124.353 78.7727 124.927 78.922 125.59 78.922C126.327 78.922 126.91 78.7587 127.34 78.432C127.778 78.096 128.068 77.6433 128.208 77.074H129.748C129.552 78.0447 129.094 78.8053 128.376 79.356C127.666 79.8973 126.738 80.168 125.59 80.168ZM134.572 80.168C133.91 80.168 133.312 80.014 132.78 79.706C132.258 79.398 131.842 78.9687 131.534 78.418C131.236 77.858 131.086 77.214 131.086 76.486C131.086 75.7393 131.24 75.0907 131.548 74.54C131.856 73.98 132.276 73.546 132.808 73.238C133.34 72.93 133.938 72.776 134.6 72.776C135.272 72.776 135.87 72.93 136.392 73.238C136.915 73.546 137.326 73.9753 137.624 74.526C137.932 75.0767 138.086 75.7253 138.086 76.472C138.086 77.2187 137.932 77.8673 137.624 78.418C137.326 78.9687 136.91 79.398 136.378 79.706C135.846 80.014 135.244 80.168 134.572 80.168ZM134.572 78.964C134.955 78.964 135.3 78.8707 135.608 78.684C135.926 78.4973 136.178 78.222 136.364 77.858C136.56 77.4847 136.658 77.0227 136.658 76.472C136.658 75.9213 136.565 75.464 136.378 75.1C136.192 74.7267 135.94 74.4467 135.622 74.26C135.314 74.0733 134.974 73.98 134.6 73.98C134.227 73.98 133.882 74.0733 133.564 74.26C133.247 74.4467 132.99 74.7267 132.794 75.1C132.608 75.464 132.514 75.9213 132.514 76.472C132.514 77.0227 132.608 77.4847 132.794 77.858C132.99 78.222 133.242 78.4973 133.55 78.684C133.868 78.8707 134.208 78.964 134.572 78.964ZM142.869 80.168C142.197 80.168 141.605 80.0093 141.091 79.692C140.578 79.3653 140.177 78.9267 139.887 78.376C139.607 77.816 139.467 77.1813 139.467 76.472C139.467 75.7533 139.607 75.1187 139.887 74.568C140.177 74.0173 140.578 73.5833 141.091 73.266C141.614 72.9393 142.211 72.776 142.883 72.776C143.434 72.776 143.919 72.888 144.339 73.112C144.759 73.3267 145.086 73.6347 145.319 74.036V69.92H146.719V80H145.473L145.319 78.908C145.179 79.1227 144.997 79.328 144.773 79.524C144.549 79.7107 144.279 79.8647 143.961 79.986C143.644 80.1073 143.28 80.168 142.869 80.168ZM143.093 78.95C143.532 78.95 143.919 78.8473 144.255 78.642C144.591 78.4367 144.848 78.1473 145.025 77.774C145.212 77.4007 145.305 76.9667 145.305 76.472C145.305 75.9773 145.212 75.548 145.025 75.184C144.848 74.8107 144.591 74.5213 144.255 74.316C143.919 74.1013 143.532 73.994 143.093 73.994C142.673 73.994 142.295 74.1013 141.959 74.316C141.623 74.5213 141.362 74.8107 141.175 75.184C140.989 75.548 140.895 75.9773 140.895 76.472C140.895 76.9667 140.989 77.4007 141.175 77.774C141.362 78.1473 141.623 78.4367 141.959 78.642C142.295 78.8473 142.673 78.95 143.093 78.95ZM151.826 80.168C151.154 80.168 150.556 80.014 150.034 79.706C149.511 79.398 149.1 78.9687 148.802 78.418C148.512 77.8673 148.368 77.228 148.368 76.5C148.368 75.7533 148.512 75.1047 148.802 74.554C149.1 73.994 149.511 73.56 150.034 73.252C150.556 72.9347 151.163 72.776 151.854 72.776C152.544 72.776 153.137 72.93 153.632 73.238C154.126 73.546 154.509 73.9567 154.78 74.47C155.05 74.974 155.186 75.534 155.186 76.15C155.186 76.2433 155.181 76.346 155.172 76.458C155.172 76.5607 155.167 76.6773 155.158 76.808H149.39V75.814H153.786C153.758 75.226 153.562 74.7687 153.198 74.442C152.834 74.106 152.381 73.938 151.84 73.938C151.457 73.938 151.107 74.0267 150.79 74.204C150.472 74.372 150.216 74.624 150.02 74.96C149.833 75.2867 149.74 75.702 149.74 76.206V76.598C149.74 77.1207 149.833 77.564 150.02 77.928C150.216 78.2827 150.472 78.5533 150.79 78.74C151.107 78.9173 151.452 79.006 151.826 79.006C152.274 79.006 152.642 78.908 152.932 78.712C153.221 78.516 153.436 78.25 153.576 77.914H154.976C154.854 78.3433 154.649 78.7307 154.36 79.076C154.07 79.412 153.711 79.678 153.282 79.874C152.862 80.07 152.376 80.168 151.826 80.168ZM157.301 80.07C157.03 80.07 156.806 79.986 156.629 79.818C156.461 79.6407 156.377 79.4307 156.377 79.188C156.377 78.936 156.461 78.726 156.629 78.558C156.806 78.3807 157.03 78.292 157.301 78.292C157.572 78.292 157.791 78.3807 157.959 78.558C158.127 78.726 158.211 78.936 158.211 79.188C158.211 79.4307 158.127 79.6407 157.959 79.818C157.791 79.986 157.572 80.07 157.301 80.07ZM157.301 74.554C157.03 74.554 156.806 74.47 156.629 74.302C156.461 74.1247 156.377 73.9147 156.377 73.672C156.377 73.42 156.461 73.21 156.629 73.042C156.806 72.8647 157.03 72.776 157.301 72.776C157.572 72.776 157.791 72.8647 157.959 73.042C158.127 73.21 158.211 73.42 158.211 73.672C158.211 73.9147 158.127 74.1247 157.959 74.302C157.791 74.47 157.572 74.554 157.301 74.554Z" fill="#E9E9E9"/>
<path d="M217.022 80V70.2H218.674L221.992 76.822L225.296 70.2H226.962V80H225.562V72.65L222.524 78.628H221.446L218.422 72.664V80H217.022ZM231.267 80.168C230.688 80.168 230.207 80.07 229.825 79.874C229.442 79.678 229.157 79.4167 228.971 79.09C228.784 78.754 228.691 78.3947 228.691 78.012C228.691 77.5453 228.812 77.1487 229.055 76.822C229.297 76.486 229.643 76.2293 230.091 76.052C230.539 75.8747 231.075 75.786 231.701 75.786H233.535C233.535 75.3753 233.474 75.0347 233.353 74.764C233.231 74.4933 233.049 74.2927 232.807 74.162C232.573 74.022 232.275 73.952 231.911 73.952C231.491 73.952 231.131 74.0547 230.833 74.26C230.534 74.456 230.347 74.75 230.273 75.142H228.873C228.929 74.6473 229.097 74.2273 229.377 73.882C229.666 73.5273 230.035 73.2567 230.483 73.07C230.931 72.874 231.407 72.776 231.911 72.776C232.573 72.776 233.129 72.8927 233.577 73.126C234.025 73.3593 234.361 73.6907 234.585 74.12C234.818 74.54 234.935 75.044 234.935 75.632V80H233.717L233.605 78.81C233.502 78.9967 233.381 79.174 233.241 79.342C233.101 79.51 232.933 79.6547 232.737 79.776C232.55 79.8973 232.331 79.9907 232.079 80.056C231.836 80.1307 231.565 80.168 231.267 80.168ZM231.533 79.034C231.831 79.034 232.102 78.9733 232.345 78.852C232.587 78.7307 232.793 78.5673 232.961 78.362C233.138 78.1473 233.269 77.9093 233.353 77.648C233.446 77.3773 233.497 77.102 233.507 76.822V76.78H231.841C231.439 76.78 231.113 76.8313 230.861 76.934C230.618 77.0273 230.441 77.158 230.329 77.326C230.217 77.494 230.161 77.69 230.161 77.914C230.161 78.1473 230.212 78.348 230.315 78.516C230.427 78.6747 230.585 78.8007 230.791 78.894C230.996 78.9873 231.243 79.034 231.533 79.034ZM236.722 80V72.944H237.982L238.108 74.274C238.266 73.9567 238.472 73.6907 238.724 73.476C238.976 73.252 239.27 73.0793 239.606 72.958C239.951 72.8367 240.343 72.776 240.782 72.776V74.26H240.278C239.988 74.26 239.713 74.2973 239.452 74.372C239.19 74.4373 238.957 74.554 238.752 74.722C238.556 74.89 238.402 75.1187 238.29 75.408C238.178 75.6973 238.122 76.0567 238.122 76.486V80H236.722ZM245.11 80.168C244.429 80.168 243.822 80.014 243.29 79.706C242.758 79.3887 242.338 78.9547 242.03 78.404C241.732 77.8533 241.582 77.214 241.582 76.486C241.582 75.7487 241.732 75.1047 242.03 74.554C242.338 73.994 242.758 73.56 243.29 73.252C243.822 72.9347 244.429 72.776 245.11 72.776C245.969 72.776 246.688 73 247.266 73.448C247.845 73.896 248.214 74.5027 248.372 75.268H246.916C246.823 74.8573 246.608 74.54 246.272 74.316C245.946 74.092 245.554 73.98 245.096 73.98C244.723 73.98 244.378 74.078 244.06 74.274C243.743 74.4607 243.486 74.7407 243.29 75.114C243.104 75.478 243.01 75.9307 243.01 76.472C243.01 76.8733 243.066 77.2327 243.178 77.55C243.29 77.858 243.44 78.1193 243.626 78.334C243.822 78.5487 244.046 78.712 244.298 78.824C244.55 78.9267 244.816 78.978 245.096 78.978C245.404 78.978 245.68 78.9313 245.922 78.838C246.174 78.7353 246.384 78.586 246.552 78.39C246.73 78.194 246.851 77.9607 246.916 77.69H248.372C248.214 78.4367 247.845 79.0387 247.266 79.496C246.688 79.944 245.969 80.168 245.11 80.168ZM252.601 80.168C252.05 80.168 251.569 80.056 251.159 79.832C250.757 79.608 250.445 79.272 250.221 78.824C250.006 78.376 249.899 77.8113 249.899 77.13V72.944H251.299V76.976C251.299 77.6387 251.443 78.138 251.733 78.474C252.022 78.81 252.437 78.978 252.979 78.978C253.343 78.978 253.669 78.8893 253.959 78.712C254.257 78.5347 254.491 78.278 254.659 77.942C254.827 77.606 254.911 77.1953 254.911 76.71V72.944H256.311V80H255.065L254.967 78.796C254.752 79.2253 254.439 79.5613 254.029 79.804C253.618 80.0467 253.142 80.168 252.601 80.168ZM260.957 80.168C260.36 80.168 259.837 80.07 259.389 79.874C258.941 79.678 258.587 79.4027 258.325 79.048C258.064 78.6933 257.905 78.278 257.849 77.802H259.277C259.324 78.026 259.413 78.2313 259.543 78.418C259.683 78.6047 259.87 78.754 260.103 78.866C260.346 78.978 260.631 79.034 260.957 79.034C261.265 79.034 261.517 78.992 261.713 78.908C261.919 78.8147 262.068 78.6933 262.161 78.544C262.255 78.3853 262.301 78.2173 262.301 78.04C262.301 77.7787 262.236 77.5827 262.105 77.452C261.984 77.312 261.797 77.2047 261.545 77.13C261.303 77.046 261.009 76.9713 260.663 76.906C260.337 76.85 260.019 76.7753 259.711 76.682C259.413 76.5793 259.142 76.4533 258.899 76.304C258.666 76.1547 258.479 75.968 258.339 75.744C258.199 75.5107 258.129 75.226 258.129 74.89C258.129 74.4887 258.237 74.1293 258.451 73.812C258.666 73.4853 258.969 73.2333 259.361 73.056C259.763 72.8693 260.234 72.776 260.775 72.776C261.559 72.776 262.189 72.9627 262.665 73.336C263.141 73.7093 263.421 74.2367 263.505 74.918H262.147C262.11 74.6007 261.97 74.358 261.727 74.19C261.485 74.0127 261.163 73.924 260.761 73.924C260.36 73.924 260.052 74.0033 259.837 74.162C259.623 74.3207 259.515 74.5307 259.515 74.792C259.515 74.96 259.576 75.1093 259.697 75.24C259.819 75.3707 259.996 75.4827 260.229 75.576C260.472 75.66 260.766 75.7393 261.111 75.814C261.606 75.9073 262.049 76.024 262.441 76.164C262.833 76.304 263.146 76.5093 263.379 76.78C263.613 77.0507 263.729 77.438 263.729 77.942C263.739 78.3807 263.627 78.768 263.393 79.104C263.169 79.44 262.847 79.7013 262.427 79.888C262.017 80.0747 261.527 80.168 260.957 80.168ZM268.4 80L271.998 70.2H273.524L277.122 80H275.624L272.754 71.88L269.87 80H268.4ZM270.024 77.578L270.416 76.458H275.022L275.414 77.578H270.024ZM280.901 80.168C280.351 80.168 279.87 80.056 279.459 79.832C279.058 79.608 278.745 79.272 278.521 78.824C278.307 78.376 278.199 77.8113 278.199 77.13V72.944H279.599V76.976C279.599 77.6387 279.744 78.138 280.033 78.474C280.323 78.81 280.738 78.978 281.279 78.978C281.643 78.978 281.97 78.8893 282.259 78.712C282.558 78.5347 282.791 78.278 282.959 77.942C283.127 77.606 283.211 77.1953 283.211 76.71V72.944H284.611V80H283.365L283.267 78.796C283.053 79.2253 282.74 79.5613 282.329 79.804C281.919 80.0467 281.443 80.168 280.901 80.168ZM286.528 80V72.944H287.788L287.914 74.274C288.073 73.9567 288.278 73.6907 288.53 73.476C288.782 73.252 289.076 73.0793 289.412 72.958C289.758 72.8367 290.15 72.776 290.588 72.776V74.26H290.084C289.795 74.26 289.52 74.2973 289.258 74.372C288.997 74.4373 288.764 74.554 288.558 74.722C288.362 74.89 288.208 75.1187 288.096 75.408C287.984 75.6973 287.928 76.0567 287.928 76.486V80H286.528ZM294.847 80.168C294.175 80.168 293.578 80.014 293.055 79.706C292.532 79.398 292.122 78.9687 291.823 78.418C291.534 77.8673 291.389 77.228 291.389 76.5C291.389 75.7533 291.534 75.1047 291.823 74.554C292.122 73.994 292.532 73.56 293.055 73.252C293.578 72.9347 294.184 72.776 294.875 72.776C295.566 72.776 296.158 72.93 296.653 73.238C297.148 73.546 297.53 73.9567 297.801 74.47C298.072 74.974 298.207 75.534 298.207 76.15C298.207 76.2433 298.202 76.346 298.193 76.458C298.193 76.5607 298.188 76.6773 298.179 76.808H292.411V75.814H296.807C296.779 75.226 296.583 74.7687 296.219 74.442C295.855 74.106 295.402 73.938 294.861 73.938C294.478 73.938 294.128 74.0267 293.811 74.204C293.494 74.372 293.237 74.624 293.041 74.96C292.854 75.2867 292.761 75.702 292.761 76.206V76.598C292.761 77.1207 292.854 77.564 293.041 77.928C293.237 78.2827 293.494 78.5533 293.811 78.74C294.128 78.9173 294.474 79.006 294.847 79.006C295.295 79.006 295.664 78.908 295.953 78.712C296.242 78.516 296.457 78.25 296.597 77.914H297.997C297.876 78.3433 297.67 78.7307 297.381 79.076C297.092 79.412 296.732 79.678 296.303 79.874C295.883 80.07 295.398 80.168 294.847 80.168ZM299.763 80V69.92H301.163V80H299.763ZM303.183 80V72.944H304.583V80H303.183ZM303.897 71.614C303.626 71.614 303.402 71.53 303.225 71.362C303.057 71.194 302.973 70.9793 302.973 70.718C302.973 70.466 303.057 70.2607 303.225 70.102C303.402 69.934 303.626 69.85 303.897 69.85C304.158 69.85 304.377 69.934 304.555 70.102C304.732 70.2607 304.821 70.466 304.821 70.718C304.821 70.9793 304.732 71.194 304.555 71.362C304.377 71.53 304.158 71.614 303.897 71.614ZM309.175 80.168C308.624 80.168 308.143 80.056 307.733 79.832C307.331 79.608 307.019 79.272 306.795 78.824C306.58 78.376 306.473 77.8113 306.473 77.13V72.944H307.873V76.976C307.873 77.6387 308.017 78.138 308.307 78.474C308.596 78.81 309.011 78.978 309.553 78.978C309.917 78.978 310.243 78.8893 310.533 78.712C310.831 78.5347 311.065 78.278 311.233 77.942C311.401 77.606 311.485 77.1953 311.485 76.71V72.944H312.885V80H311.639L311.541 78.796C311.326 79.2253 311.013 79.5613 310.603 79.804C310.192 80.0467 309.716 80.168 309.175 80.168ZM317.532 80.168C316.934 80.168 316.412 80.07 315.964 79.874C315.516 79.678 315.161 79.4027 314.9 79.048C314.638 78.6933 314.48 78.278 314.424 77.802H315.852C315.898 78.026 315.987 78.2313 316.118 78.418C316.258 78.6047 316.444 78.754 316.678 78.866C316.92 78.978 317.205 79.034 317.532 79.034C317.84 79.034 318.092 78.992 318.288 78.908C318.493 78.8147 318.642 78.6933 318.736 78.544C318.829 78.3853 318.876 78.2173 318.876 78.04C318.876 77.7787 318.81 77.5827 318.68 77.452C318.558 77.312 318.372 77.2047 318.12 77.13C317.877 77.046 317.583 76.9713 317.238 76.906C316.911 76.85 316.594 76.7753 316.286 76.682C315.987 76.5793 315.716 76.4533 315.474 76.304C315.24 76.1547 315.054 75.968 314.914 75.744C314.774 75.5107 314.704 75.226 314.704 74.89C314.704 74.4887 314.811 74.1293 315.026 73.812C315.24 73.4853 315.544 73.2333 315.936 73.056C316.337 72.8693 316.808 72.776 317.35 72.776C318.134 72.776 318.764 72.9627 319.24 73.336C319.716 73.7093 319.996 74.2367 320.08 74.918H318.722C318.684 74.6007 318.544 74.358 318.302 74.19C318.059 74.0127 317.737 73.924 317.336 73.924C316.934 73.924 316.626 74.0033 316.412 74.162C316.197 74.3207 316.09 74.5307 316.09 74.792C316.09 74.96 316.15 75.1093 316.272 75.24C316.393 75.3707 316.57 75.4827 316.804 75.576C317.046 75.66 317.34 75.7393 317.686 75.814C318.18 75.9073 318.624 76.024 319.016 76.164C319.408 76.304 319.72 76.5093 319.954 76.78C320.187 77.0507 320.304 77.438 320.304 77.942C320.313 78.3807 320.201 78.768 319.968 79.104C319.744 79.44 319.422 79.7013 319.002 79.888C318.591 80.0747 318.101 80.168 317.532 80.168Z" fill="#E9E9E9"/>
<path fill-rule="evenodd" clip-rule="evenodd" d="M32.633 111.5H41.3685C42.0393 111.5 42.5929 111.5 43.0439 111.537C43.5123 111.575 43.9429 111.657 44.3474 111.863C44.9746 112.183 45.4845 112.693 45.8041 113.32C46.0029 113.71 46.0864 114.125 46.1264 114.574C46.1709 114.711 46.1787 114.854 46.1523 114.991C46.1674 115.366 46.1674 115.8 46.1674 116.299V121.701C46.1674 122.372 46.1674 122.926 46.1306 123.377C46.0923 123.845 46.0102 124.276 45.8041 124.68C45.4845 125.307 44.9746 125.817 44.3474 126.137C43.9429 126.343 43.5123 126.425 43.0439 126.463C42.5929 126.5 42.0393 126.5 41.3685 126.5H32.633C31.9622 126.5 31.4085 126.5 30.9575 126.463C30.4891 126.425 30.0585 126.343 29.6541 126.137C29.0269 125.817 28.5169 125.307 28.1974 124.68C27.9913 124.276 27.9092 123.845 27.8709 123.377C27.834 122.926 27.834 122.372 27.8341 121.701V116.299C27.834 115.8 27.834 115.366 27.8492 114.991C27.8227 114.854 27.8305 114.711 27.8751 114.574C27.9151 114.125 27.9985 113.71 28.1974 113.32C28.5169 112.693 29.0269 112.183 29.6541 111.863C30.0585 111.657 30.4891 111.575 30.9575 111.537C31.4085 111.5 31.9622 111.5 32.633 111.5ZM29.5007 116.434V121.667C29.5007 121.986 29.5009 122.26 29.5037 122.498L33.2849 119.083L29.5007 116.434ZM35.0828 118.307L29.5697 114.448C29.5995 114.275 29.6382 114.163 29.6824 114.077C29.8422 113.763 30.0971 113.508 30.4107 113.348C30.5411 113.282 30.7279 113.228 31.0933 113.198C31.4683 113.167 31.9536 113.167 32.6674 113.167H41.3341C42.0479 113.167 42.5331 113.167 42.9082 113.198C43.2735 113.228 43.4604 113.282 43.5907 113.348C43.9043 113.508 44.1593 113.763 44.3191 114.077C44.3632 114.163 44.402 114.275 44.4317 114.448L38.9187 118.307C38.9091 118.313 38.8995 118.32 38.8901 118.327L38.0521 118.914C37.4446 119.339 37.3159 119.413 37.2023 119.441C37.0699 119.474 36.9315 119.474 36.7992 119.441C36.6855 119.413 36.5568 119.339 35.9494 118.914L35.1113 118.327C35.1019 118.32 35.0924 118.313 35.0828 118.307ZM34.6857 120.063L29.9683 124.324C30.0959 124.456 30.2451 124.567 30.4107 124.652C30.5411 124.718 30.7279 124.772 31.0933 124.802C31.4683 124.833 31.9536 124.833 32.6674 124.833H41.3341C42.0479 124.833 42.5331 124.833 42.9082 124.802C43.2735 124.772 43.4604 124.718 43.5907 124.652C43.7563 124.567 43.9056 124.456 44.0331 124.324L39.3157 120.063L39.0078 120.279C38.9755 120.302 38.9435 120.324 38.9117 120.346C38.4578 120.665 38.0593 120.945 37.6054 121.058C37.2084 121.157 36.7931 121.157 36.3961 121.058C35.9421 120.945 35.5436 120.665 35.0897 120.346C35.058 120.324 35.0259 120.302 34.9936 120.279L34.6857 120.063ZM40.7166 119.083L44.4977 122.498C44.5006 122.26 44.5007 121.986 44.5007 121.667V116.434L40.7166 119.083Z" fill="#B1B1B1"/>
<path d="M54.022 124V114.2H55.422L60.42 121.718V114.2H61.82V124H60.42L55.422 116.496V124H54.022ZM66.9878 124.168C66.3158 124.168 65.7184 124.014 65.1958 123.706C64.6731 123.398 64.2624 122.969 63.9638 122.418C63.6744 121.867 63.5298 121.228 63.5298 120.5C63.5298 119.753 63.6744 119.105 63.9638 118.554C64.2624 117.994 64.6731 117.56 65.1958 117.252C65.7184 116.935 66.3251 116.776 67.0158 116.776C67.7064 116.776 68.2991 116.93 68.7938 117.238C69.2884 117.546 69.6711 117.957 69.9418 118.47C70.2124 118.974 70.3478 119.534 70.3478 120.15C70.3478 120.243 70.3431 120.346 70.3338 120.458C70.3338 120.561 70.3291 120.677 70.3198 120.808H64.5518V119.814H68.9478C68.9198 119.226 68.7238 118.769 68.3598 118.442C67.9958 118.106 67.5431 117.938 67.0018 117.938C66.6191 117.938 66.2691 118.027 65.9518 118.204C65.6344 118.372 65.3778 118.624 65.1818 118.96C64.9951 119.287 64.9017 119.702 64.9017 120.206V120.598C64.9017 121.121 64.9951 121.564 65.1818 121.928C65.3778 122.283 65.6344 122.553 65.9518 122.74C66.2691 122.917 66.6144 123.006 66.9878 123.006C67.4358 123.006 67.8044 122.908 68.0938 122.712C68.3831 122.516 68.5978 122.25 68.7378 121.914H70.1378C70.0164 122.343 69.8111 122.731 69.5218 123.076C69.2324 123.412 68.8731 123.678 68.4438 123.874C68.0238 124.07 67.5384 124.168 66.9878 124.168ZM73.0577 124L70.9857 116.944H72.3717L73.9117 122.824L73.6457 122.81L75.3537 116.944H76.9217L78.6297 122.81L78.3637 122.824L79.8897 116.944H81.3037L79.2317 124H77.7897L75.9977 117.882H76.2777L74.4857 124H73.0577ZM86.1493 124V113.92H87.5493V124H86.1493ZM92.6635 124.168C91.9915 124.168 91.3942 124.014 90.8715 123.706C90.3489 123.398 89.9382 122.969 89.6395 122.418C89.3502 121.867 89.2055 121.228 89.2055 120.5C89.2055 119.753 89.3502 119.105 89.6395 118.554C89.9382 117.994 90.3489 117.56 90.8715 117.252C91.3942 116.935 92.0009 116.776 92.6915 116.776C93.3822 116.776 93.9749 116.93 94.4695 117.238C94.9642 117.546 95.3469 117.957 95.6175 118.47C95.8882 118.974 96.0235 119.534 96.0235 120.15C96.0235 120.243 96.0189 120.346 96.0095 120.458C96.0095 120.561 96.0049 120.677 95.9955 120.808H90.2275V119.814H94.6235C94.5955 119.226 94.3995 118.769 94.0355 118.442C93.6715 118.106 93.2189 117.938 92.6775 117.938C92.2949 117.938 91.9449 118.027 91.6275 118.204C91.3102 118.372 91.0535 118.624 90.8575 118.96C90.6709 119.287 90.5775 119.702 90.5775 120.206V120.598C90.5775 121.121 90.6709 121.564 90.8575 121.928C91.0535 122.283 91.3102 122.553 91.6275 122.74C91.9449 122.917 92.2902 123.006 92.6635 123.006C93.1115 123.006 93.4802 122.908 93.7695 122.712C94.0589 122.516 94.2735 122.25 94.4135 121.914H95.8135C95.6922 122.343 95.4869 122.731 95.1975 123.076C94.9082 123.412 94.5489 123.678 94.1195 123.874C93.6995 124.07 93.2142 124.168 92.6635 124.168ZM100.286 124C99.8469 124 99.4642 123.93 99.1375 123.79C98.8109 123.65 98.5589 123.417 98.3815 123.09C98.2042 122.763 98.1155 122.32 98.1155 121.76V118.134H96.8975V116.944H98.1155L98.2835 115.18H99.5155V116.944H101.518V118.134H99.5155V121.774C99.5155 122.175 99.5995 122.451 99.7675 122.6C99.9355 122.74 100.225 122.81 100.636 122.81H101.448V124H100.286ZM105.959 124C105.521 124 105.138 123.93 104.811 123.79C104.485 123.65 104.233 123.417 104.055 123.09C103.878 122.763 103.789 122.32 103.789 121.76V118.134H102.571V116.944H103.789L103.957 115.18H105.189V116.944H107.191V118.134H105.189V121.774C105.189 122.175 105.273 122.451 105.441 122.6C105.609 122.74 105.899 122.81 106.309 122.81H107.121V124H105.959ZM111.736 124.168C111.064 124.168 110.466 124.014 109.944 123.706C109.421 123.398 109.01 122.969 108.712 122.418C108.422 121.867 108.278 121.228 108.278 120.5C108.278 119.753 108.422 119.105 108.712 118.554C109.01 117.994 109.421 117.56 109.944 117.252C110.466 116.935 111.073 116.776 111.764 116.776C112.454 116.776 113.047 116.93 113.542 117.238C114.036 117.546 114.419 117.957 114.69 118.47C114.96 118.974 115.096 119.534 115.096 120.15C115.096 120.243 115.091 120.346 115.082 120.458C115.082 120.561 115.077 120.677 115.068 120.808H109.3V119.814H113.696C113.668 119.226 113.472 118.769 113.108 118.442C112.744 118.106 112.291 117.938 111.75 117.938C111.367 117.938 111.017 118.027 110.7 118.204C110.382 118.372 110.126 118.624 109.93 118.96C109.743 119.287 109.65 119.702 109.65 120.206V120.598C109.65 121.121 109.743 121.564 109.93 121.928C110.126 122.283 110.382 122.553 110.7 122.74C111.017 122.917 111.362 123.006 111.736 123.006C112.184 123.006 112.552 122.908 112.842 122.712C113.131 122.516 113.346 122.25 113.486 121.914H114.886C114.764 122.343 114.559 122.731 114.27 123.076C113.98 123.412 113.621 123.678 113.192 123.874C112.772 124.07 112.286 124.168 111.736 124.168ZM116.651 124V116.944H117.911L118.037 118.274C118.196 117.957 118.401 117.691 118.653 117.476C118.905 117.252 119.199 117.079 119.535 116.958C119.881 116.837 120.273 116.776 120.711 116.776V118.26H120.207C119.918 118.26 119.643 118.297 119.381 118.372C119.12 118.437 118.887 118.554 118.681 118.722C118.485 118.89 118.331 119.119 118.219 119.408C118.107 119.697 118.051 120.057 118.051 120.486V124H116.651ZM125.957 124V115.992C125.957 115.507 126.036 115.11 126.195 114.802C126.363 114.494 126.606 114.27 126.923 114.13C127.24 113.99 127.623 113.92 128.071 113.92H128.897V115.11H128.295C127.959 115.11 127.716 115.18 127.567 115.32C127.427 115.451 127.357 115.684 127.357 116.02V124H125.957ZM124.921 118.134V116.944H129.051V118.134H124.921ZM130.473 124V116.944H131.733L131.859 118.274C132.018 117.957 132.223 117.691 132.475 117.476C132.727 117.252 133.021 117.079 133.357 116.958C133.703 116.837 134.095 116.776 134.533 116.776V118.26H134.029C133.74 118.26 133.465 118.297 133.203 118.372C132.942 118.437 132.709 118.554 132.503 118.722C132.307 118.89 132.153 119.119 132.041 119.408C131.929 119.697 131.873 120.057 131.873 120.486V124H130.473ZM138.82 124.168C138.158 124.168 137.56 124.014 137.028 123.706C136.506 123.398 136.09 122.969 135.782 122.418C135.484 121.858 135.334 121.214 135.334 120.486C135.334 119.739 135.488 119.091 135.796 118.54C136.104 117.98 136.524 117.546 137.056 117.238C137.588 116.93 138.186 116.776 138.848 116.776C139.52 116.776 140.118 116.93 140.64 117.238C141.163 117.546 141.574 117.975 141.872 118.526C142.18 119.077 142.334 119.725 142.334 120.472C142.334 121.219 142.18 121.867 141.872 122.418C141.574 122.969 141.158 123.398 140.626 123.706C140.094 124.014 139.492 124.168 138.82 124.168ZM138.82 122.964C139.203 122.964 139.548 122.871 139.856 122.684C140.174 122.497 140.426 122.222 140.612 121.858C140.808 121.485 140.906 121.023 140.906 120.472C140.906 119.921 140.813 119.464 140.626 119.1C140.44 118.727 140.188 118.447 139.87 118.26C139.562 118.073 139.222 117.98 138.848 117.98C138.475 117.98 138.13 118.073 137.812 118.26C137.495 118.447 137.238 118.727 137.042 119.1C136.856 119.464 136.762 119.921 136.762 120.472C136.762 121.023 136.856 121.485 137.042 121.858C137.238 122.222 137.49 122.497 137.798 122.684C138.116 122.871 138.456 122.964 138.82 122.964ZM143.981 124V116.944H145.241L145.339 117.938C145.563 117.574 145.862 117.289 146.235 117.084C146.609 116.879 147.029 116.776 147.495 116.776C147.85 116.776 148.172 116.827 148.461 116.93C148.751 117.023 149.007 117.168 149.231 117.364C149.455 117.56 149.637 117.803 149.777 118.092C150.029 117.681 150.365 117.359 150.785 117.126C151.215 116.893 151.667 116.776 152.143 116.776C152.713 116.776 153.203 116.893 153.613 117.126C154.024 117.35 154.337 117.691 154.551 118.148C154.766 118.596 154.873 119.156 154.873 119.828V124H153.487V119.968C153.487 119.315 153.352 118.82 153.081 118.484C152.82 118.148 152.433 117.98 151.919 117.98C151.574 117.98 151.266 118.069 150.995 118.246C150.725 118.423 150.51 118.68 150.351 119.016C150.202 119.352 150.127 119.763 150.127 120.248V124H148.727V119.968C148.727 119.315 148.592 118.82 148.321 118.484C148.06 118.148 147.673 117.98 147.159 117.98C146.833 117.98 146.534 118.069 146.263 118.246C145.993 118.423 145.778 118.68 145.619 119.016C145.461 119.352 145.381 119.763 145.381 120.248V124H143.981ZM160.335 124V114.2H161.735L166.733 121.718V114.2H168.133V124H166.733L161.735 116.496V124H160.335ZM173.3 124.168C172.628 124.168 172.031 124.014 171.508 123.706C170.986 123.398 170.575 122.969 170.276 122.418C169.987 121.867 169.842 121.228 169.842 120.5C169.842 119.753 169.987 119.105 170.276 118.554C170.575 117.994 170.986 117.56 171.508 117.252C172.031 116.935 172.638 116.776 173.328 116.776C174.019 116.776 174.612 116.93 175.106 117.238C175.601 117.546 175.984 117.957 176.254 118.47C176.525 118.974 176.66 119.534 176.66 120.15C176.66 120.243 176.656 120.346 176.646 120.458C176.646 120.561 176.642 120.677 176.632 120.808H170.864V119.814H175.26C175.232 119.226 175.036 118.769 174.672 118.442C174.308 118.106 173.856 117.938 173.314 117.938C172.932 117.938 172.582 118.027 172.264 118.204C171.947 118.372 171.69 118.624 171.494 118.96C171.308 119.287 171.214 119.702 171.214 120.206V120.598C171.214 121.121 171.308 121.564 171.494 121.928C171.69 122.283 171.947 122.553 172.264 122.74C172.582 122.917 172.927 123.006 173.3 123.006C173.748 123.006 174.117 122.908 174.406 122.712C174.696 122.516 174.91 122.25 175.05 121.914H176.45C176.329 122.343 176.124 122.731 175.834 123.076C175.545 123.412 175.186 123.678 174.756 123.874C174.336 124.07 173.851 124.168 173.3 124.168ZM178.594 124V115.992C178.594 115.507 178.673 115.11 178.832 114.802C179 114.494 179.242 114.27 179.56 114.13C179.877 113.99 180.26 113.92 180.708 113.92H181.534V115.11H180.932C180.596 115.11 180.353 115.18 180.204 115.32C180.064 115.451 179.994 115.684 179.994 116.02V124H178.594ZM177.558 118.134V116.944H181.688V118.134H177.558ZM186.029 124.168C185.357 124.168 184.759 124.014 184.237 123.706C183.714 123.398 183.303 122.969 183.005 122.418C182.715 121.867 182.571 121.228 182.571 120.5C182.571 119.753 182.715 119.105 183.005 118.554C183.303 117.994 183.714 117.56 184.237 117.252C184.759 116.935 185.366 116.776 186.057 116.776C186.747 116.776 187.34 116.93 187.835 117.238C188.329 117.546 188.712 117.957 188.983 118.47C189.253 118.974 189.389 119.534 189.389 120.15C189.389 120.243 189.384 120.346 189.375 120.458C189.375 120.561 189.37 120.677 189.361 120.808H183.593V119.814H187.989C187.961 119.226 187.765 118.769 187.401 118.442C187.037 118.106 186.584 117.938 186.043 117.938C185.66 117.938 185.31 118.027 184.993 118.204C184.675 118.372 184.419 118.624 184.223 118.96C184.036 119.287 183.943 119.702 183.943 120.206V120.598C183.943 121.121 184.036 121.564 184.223 121.928C184.419 122.283 184.675 122.553 184.993 122.74C185.31 122.917 185.655 123.006 186.029 123.006C186.477 123.006 186.845 122.908 187.135 122.712C187.424 122.516 187.639 122.25 187.779 121.914H189.179C189.057 122.343 188.852 122.731 188.563 123.076C188.273 123.412 187.914 123.678 187.485 123.874C187.065 124.07 186.579 124.168 186.029 124.168ZM190.944 124V116.944H192.204L192.288 118.148C192.512 117.728 192.83 117.397 193.24 117.154C193.651 116.902 194.122 116.776 194.654 116.776C195.214 116.776 195.695 116.888 196.096 117.112C196.498 117.336 196.81 117.677 197.034 118.134C197.258 118.582 197.37 119.147 197.37 119.828V124H195.97V119.968C195.97 119.315 195.826 118.82 195.536 118.484C195.247 118.148 194.827 117.98 194.276 117.98C193.912 117.98 193.586 118.069 193.296 118.246C193.007 118.414 192.774 118.666 192.596 119.002C192.428 119.338 192.344 119.749 192.344 120.234V124H190.944ZM202.059 124C201.62 124 201.238 123.93 200.911 123.79C200.584 123.65 200.332 123.417 200.155 123.09C199.978 122.763 199.889 122.32 199.889 121.76V118.134H198.671V116.944H199.889L200.057 115.18H201.289V116.944H203.291V118.134H201.289V121.774C201.289 122.175 201.373 122.451 201.541 122.6C201.709 122.74 201.998 122.81 202.409 122.81H203.221V124H202.059ZM207.425 124.168C206.874 124.168 206.393 124.056 205.983 123.832C205.581 123.608 205.269 123.272 205.045 122.824C204.83 122.376 204.723 121.811 204.723 121.13V116.944H206.123V120.976C206.123 121.639 206.267 122.138 206.557 122.474C206.846 122.81 207.261 122.978 207.803 122.978C208.167 122.978 208.493 122.889 208.783 122.712C209.081 122.535 209.315 122.278 209.483 121.942C209.651 121.606 209.735 121.195 209.735 120.71V116.944H211.135V124H209.889L209.791 122.796C209.576 123.225 209.263 123.561 208.853 123.804C208.442 124.047 207.966 124.168 207.425 124.168ZM215.782 124.168C215.184 124.168 214.662 124.07 214.214 123.874C213.766 123.678 213.411 123.403 213.15 123.048C212.888 122.693 212.73 122.278 212.674 121.802H214.102C214.148 122.026 214.237 122.231 214.368 122.418C214.508 122.605 214.694 122.754 214.928 122.866C215.17 122.978 215.455 123.034 215.782 123.034C216.09 123.034 216.342 122.992 216.538 122.908C216.743 122.815 216.892 122.693 216.986 122.544C217.079 122.385 217.126 122.217 217.126 122.04C217.126 121.779 217.06 121.583 216.93 121.452C216.808 121.312 216.622 121.205 216.37 121.13C216.127 121.046 215.833 120.971 215.488 120.906C215.161 120.85 214.844 120.775 214.536 120.682C214.237 120.579 213.966 120.453 213.724 120.304C213.49 120.155 213.304 119.968 213.164 119.744C213.024 119.511 212.954 119.226 212.954 118.89C212.954 118.489 213.061 118.129 213.276 117.812C213.49 117.485 213.794 117.233 214.186 117.056C214.587 116.869 215.058 116.776 215.6 116.776C216.384 116.776 217.014 116.963 217.49 117.336C217.966 117.709 218.246 118.237 218.33 118.918H216.972C216.934 118.601 216.794 118.358 216.552 118.19C216.309 118.013 215.987 117.924 215.586 117.924C215.184 117.924 214.876 118.003 214.662 118.162C214.447 118.321 214.34 118.531 214.34 118.792C214.34 118.96 214.4 119.109 214.522 119.24C214.643 119.371 214.82 119.483 215.054 119.576C215.296 119.66 215.59 119.739 215.936 119.814C216.43 119.907 216.874 120.024 217.266 120.164C217.658 120.304 217.97 120.509 218.204 120.78C218.437 121.051 218.554 121.438 218.554 121.942C218.563 122.381 218.451 122.768 218.218 123.104C217.994 123.44 217.672 123.701 217.252 123.888C216.841 124.075 216.351 124.168 215.782 124.168ZM220.538 121.088L220.37 114.2H221.882L221.728 121.088H220.538ZM221.14 124.07C220.869 124.07 220.645 123.986 220.468 123.818C220.3 123.641 220.216 123.431 220.216 123.188C220.216 122.936 220.3 122.726 220.468 122.558C220.645 122.381 220.869 122.292 221.14 122.292C221.401 122.292 221.616 122.381 221.784 122.558C221.961 122.726 222.05 122.936 222.05 123.188C222.05 123.431 221.961 123.641 221.784 123.818C221.616 123.986 221.401 124.07 221.14 124.07Z" fill="#B1B1B1"/>
<rect x="277" y="108" width="44" height="22" rx="4" fill="#171717"/>
<path d="M285.9 123V114.6H288.612C289.268 114.6 289.804 114.712 290.22 114.936C290.636 115.152 290.944 115.444 291.144 115.812C291.344 116.18 291.444 116.596 291.444 117.06C291.444 117.508 291.34 117.92 291.132 118.296C290.932 118.672 290.62 118.972 290.196 119.196C289.772 119.42 289.228 119.532 288.564 119.532H286.908V123H285.9ZM290.34 123L288.492 119.244H289.62L291.528 123H290.34ZM286.908 118.74H288.54C289.18 118.74 289.648 118.584 289.944 118.272C290.248 117.96 290.4 117.56 290.4 117.072C290.4 116.576 290.252 116.184 289.956 115.896C289.668 115.6 289.192 115.452 288.528 115.452H286.908V118.74ZM295.254 123.144C294.694 123.144 294.194 123.012 293.754 122.748C293.314 122.484 292.97 122.116 292.722 121.644C292.474 121.164 292.35 120.608 292.35 119.976C292.35 119.336 292.47 118.78 292.71 118.308C292.958 117.836 293.302 117.468 293.742 117.204C294.19 116.94 294.702 116.808 295.278 116.808C295.87 116.808 296.374 116.94 296.79 117.204C297.206 117.468 297.522 117.816 297.738 118.248C297.962 118.672 298.074 119.14 298.074 119.652C298.074 119.732 298.074 119.816 298.074 119.904C298.074 119.992 298.07 120.092 298.062 120.204H293.106V119.424H297.078C297.054 118.872 296.87 118.44 296.526 118.128C296.19 117.816 295.766 117.66 295.254 117.66C294.918 117.66 294.602 117.74 294.306 117.9C294.01 118.052 293.774 118.28 293.598 118.584C293.422 118.88 293.334 119.252 293.334 119.7V120.036C293.334 120.532 293.422 120.948 293.598 121.284C293.782 121.62 294.018 121.872 294.306 122.04C294.602 122.208 294.918 122.292 295.254 122.292C295.678 122.292 296.026 122.2 296.298 122.016C296.578 121.824 296.782 121.564 296.91 121.236H297.906C297.802 121.604 297.63 121.932 297.39 122.22C297.15 122.5 296.85 122.724 296.49 122.892C296.138 123.06 295.726 123.144 295.254 123.144ZM301.39 123.144C300.902 123.144 300.494 123.06 300.166 122.892C299.838 122.716 299.594 122.488 299.434 122.208C299.274 121.92 299.194 121.608 299.194 121.272C299.194 120.864 299.298 120.52 299.506 120.24C299.722 119.952 300.022 119.736 300.406 119.592C300.798 119.44 301.258 119.364 301.786 119.364H303.382C303.382 118.988 303.322 118.676 303.202 118.428C303.09 118.172 302.922 117.98 302.698 117.852C302.482 117.724 302.21 117.66 301.882 117.66C301.498 117.66 301.166 117.756 300.886 117.948C300.606 118.14 300.434 118.424 300.37 118.8H299.338C299.386 118.368 299.53 118.008 299.77 117.72C300.018 117.424 300.33 117.2 300.706 117.048C301.082 116.888 301.474 116.808 301.882 116.808C302.442 116.808 302.906 116.912 303.274 117.12C303.65 117.32 303.93 117.604 304.114 117.972C304.298 118.332 304.39 118.76 304.39 119.256V123H303.49L303.43 121.932C303.35 122.1 303.246 122.26 303.118 122.412C302.998 122.556 302.854 122.684 302.686 122.796C302.526 122.9 302.338 122.984 302.122 123.048C301.906 123.112 301.662 123.144 301.39 123.144ZM301.546 122.292C301.826 122.292 302.078 122.236 302.302 122.124C302.534 122.004 302.73 121.844 302.89 121.644C303.05 121.436 303.17 121.208 303.25 120.96C303.338 120.712 303.382 120.452 303.382 120.18V120.144H301.87C301.478 120.144 301.162 120.192 300.922 120.288C300.682 120.376 300.51 120.504 300.406 120.672C300.302 120.832 300.25 121.016 300.25 121.224C300.25 121.44 300.298 121.628 300.394 121.788C300.498 121.948 300.646 122.072 300.838 122.16C301.038 122.248 301.274 122.292 301.546 122.292ZM308.625 123.144C308.041 123.144 307.525 123.008 307.077 122.736C306.637 122.456 306.297 122.076 306.057 121.596C305.817 121.116 305.697 120.572 305.697 119.964C305.697 119.356 305.817 118.816 306.057 118.344C306.297 117.864 306.637 117.488 307.077 117.216C307.525 116.944 308.045 116.808 308.637 116.808C309.125 116.808 309.553 116.908 309.921 117.108C310.297 117.308 310.589 117.588 310.797 117.948V114.36H311.805V123H310.893L310.797 122.004C310.669 122.204 310.505 122.392 310.305 122.568C310.105 122.736 309.865 122.876 309.585 122.988C309.313 123.092 308.993 123.144 308.625 123.144ZM308.733 122.268C309.133 122.268 309.485 122.172 309.789 121.98C310.093 121.788 310.329 121.524 310.497 121.188C310.673 120.844 310.761 120.44 310.761 119.976C310.761 119.52 310.673 119.12 310.497 118.776C310.329 118.432 310.093 118.164 309.789 117.972C309.485 117.78 309.133 117.684 308.733 117.684C308.349 117.684 308.001 117.78 307.689 117.972C307.385 118.164 307.149 118.432 306.981 118.776C306.813 119.12 306.729 119.52 306.729 119.976C306.729 120.44 306.813 120.844 306.981 121.188C307.149 121.524 307.385 121.788 307.689 121.98C308.001 122.172 308.349 122.268 308.733 122.268Z" fill="#B1B1B1"/>
</g>
<g filter="url(#filter1_d_1702_20799)">
<rect x="294.998" y="9" width="44" height="44" rx="22" fill="url(#paint2_linear_1702_20799)" shape-rendering="crispEdges"/>
<path d="M313.998 31L315.998 33L320.498 28.5M322.899 23.9985C323.105 24.4965 323.5 24.8924 323.998 25.0991L325.743 25.822C326.241 26.0283 326.637 26.424 326.843 26.9221C327.05 27.4201 327.05 27.9797 326.843 28.4778L326.121 30.2218C325.915 30.7201 325.914 31.2803 326.122 31.7783L326.843 33.5218C326.945 33.7685 326.998 34.0329 326.998 34.2999C326.998 34.567 326.945 34.8314 326.843 35.0781C326.741 35.3249 326.591 35.549 326.402 35.7378C326.213 35.9266 325.989 36.0764 325.742 36.1785L323.998 36.9009C323.5 37.1068 323.105 37.5021 322.898 37.9998L322.175 39.745C321.969 40.2431 321.573 40.6388 321.075 40.8451C320.577 41.0514 320.017 41.0514 319.519 40.8451L317.775 40.1227C317.277 39.9169 316.718 39.9173 316.22 40.1239L314.475 40.8458C313.977 41.0516 313.418 41.0514 312.92 40.8453C312.423 40.6391 312.027 40.2439 311.821 39.7464L311.098 38.0006C310.892 37.5026 310.497 37.1067 309.999 36.9L308.254 36.1771C307.756 35.9709 307.36 35.5754 307.154 35.0777C306.948 34.5799 306.947 34.0205 307.153 33.5225L307.876 31.7786C308.081 31.2805 308.081 30.7211 307.874 30.2233L307.153 28.4768C307.051 28.2301 306.998 27.9657 306.998 27.6986C306.998 27.4316 307.051 27.1672 307.153 26.9204C307.255 26.6737 307.405 26.4496 307.594 26.2608C307.782 26.072 308.007 25.9222 308.253 25.8201L309.997 25.0977C310.495 24.892 310.891 24.4972 311.097 24.0001L311.82 22.2548C312.027 21.7567 312.422 21.361 312.92 21.1547C313.418 20.9484 313.978 20.9484 314.476 21.1547L316.22 21.8771C316.718 22.0829 317.277 22.0825 317.775 21.8759L319.521 21.1558C320.019 20.9497 320.578 20.9497 321.076 21.156C321.574 21.3622 321.97 21.7578 322.176 22.2558L322.899 24.0015L322.899 23.9985Z" stroke="#FAFAFA" stroke-width="2" stroke-linecap="round" stroke-linejoin="round"/>
</g>
<path d="M235.259 56.9365C235.501 57.0706 235.805 56.9836 235.939 56.7422L238.125 52.8085C238.259 52.5671 238.172 52.2627 237.93 52.1286C237.689 51.9945 237.385 52.0814 237.25 52.3228L235.308 55.8195L231.811 53.877C231.57 53.7429 231.265 53.8298 231.131 54.0712C230.997 54.3126 231.084 54.617 231.326 54.7511L235.259 56.9365ZM291.701 16.0389C275.779 9.21676 259.591 12.2461 248.391 20.5348C237.194 28.8222 230.954 42.3997 235.021 56.6367L235.983 56.362C232.05 42.5983 238.059 29.4261 248.986 21.3386C259.912 13.2524 275.725 10.2817 291.307 16.958L291.701 16.0389Z" fill="url(#paint3_linear_1702_20799)"/>
</g>
<rect x="0.5" y="0.5" width="348" height="143" rx="5.5" stroke="#202020"/>
<defs>
<filter id="filter0_d_1702_20799" x="-17.1" y="8.9" width="382.2" height="178.2" filterUnits="userSpaceOnUse" color-interpolation-filters="sRGB">
<feFlood flood-opacity="0" result="BackgroundImageFix"/>
<feColorMatrix in="SourceAlpha" type="matrix" values="0 0 0 0 0 0 0 0 0 0 0 0 0 0 0 0 0 0 127 0" result="hardAlpha"/>
<feOffset dy="-13"/>
<feGaussianBlur stdDeviation="16.05"/>
<feComposite in2="hardAlpha" operator="out"/>
<feColorMatrix type="matrix" values="0 0 0 0 0 0 0 0 0 0 0 0 0 0 0 0 0 0 0.3 0"/>
<feBlend mode="normal" in2="BackgroundImageFix" result="effect1_dropShadow_1702_20799"/>
<feBlend mode="normal" in="SourceGraphic" in2="effect1_dropShadow_1702_20799" result="shape"/>
</filter>
<filter id="filter1_d_1702_20799" x="274.898" y="-7.1" width="84.2" height="84.2" filterUnits="userSpaceOnUse" color-interpolation-filters="sRGB">
<feFlood flood-opacity="0" result="BackgroundImageFix"/>
<feColorMatrix in="SourceAlpha" type="matrix" values="0 0 0 0 0 0 0 0 0 0 0 0 0 0 0 0 0 0 127 0" result="hardAlpha"/>
<feOffset dy="4"/>
<feGaussianBlur stdDeviation="10.05"/>
<feComposite in2="hardAlpha" operator="out"/>
<feColorMatrix type="matrix" values="0 0 0 0 0 0 0 0 0 0 0 0 0 0 0 0 0 0 0.15 0"/>
<feBlend mode="normal" in2="BackgroundImageFix" result="effect1_dropShadow_1702_20799"/>
<feBlend mode="normal" in="SourceGraphic" in2="effect1_dropShadow_1702_20799" result="shape"/>
</filter>
<linearGradient id="paint0_linear_1702_20799" x1="153" y1="9.42766e-07" x2="174.5" y2="773" gradientUnits="userSpaceOnUse">
<stop stop-color="#171717"/>
<stop offset="1" stop-color="#00B7FF"/>
</linearGradient>
<radialGradient id="paint1_radial_1702_20799" cx="0" cy="0" r="1" gradientUnits="userSpaceOnUse" gradientTransform="translate(156 -20.5) rotate(87.4225) scale(155.657 203.206)">
<stop/>
<stop offset="1" stop-opacity="0"/>
</radialGradient>
<linearGradient id="paint2_linear_1702_20799" x1="358.553" y1="-133.267" x2="226.992" y2="-114.918" gradientUnits="userSpaceOnUse">
<stop stop-color="#009BD2"/>
<stop offset="1" stop-color="#3B6B7C"/>
</linearGradient>
<linearGradient id="paint3_linear_1702_20799" x1="316.939" y1="-128.591" x2="148.116" y2="-97.7712" gradientUnits="userSpaceOnUse">
<stop stop-color="#009BD2"/>
<stop offset="1" stop-color="#3B6B7C"/>
</linearGradient>
<clipPath id="clip0_1702_20799">
<rect width="349" height="144" rx="6" fill="white"/>
</clipPath>
</defs>
</svg>
