<svg xmlns="http://www.w3.org/2000/svg" width="20" height="21" viewBox="0 0 20 21" fill="none">
  <path d="M7.49935 10.4998L9.16602 12.1665L12.916 8.4165M14.917 4.66526C15.0886 5.08028 15.418 5.41017 15.8327 5.5824L17.287 6.18482C17.7021 6.35674 18.0318 6.6865 18.2037 7.10155C18.3757 7.51661 18.3757 7.98296 18.2037 8.39801L17.6018 9.85134C17.4298 10.2666 17.4295 10.7334 17.6023 11.1484L18.2032 12.6013C18.2885 12.8069 18.3324 13.0273 18.3324 13.2498C18.3324 13.4723 18.2886 13.6927 18.2035 13.8983C18.1183 14.1039 17.9935 14.2907 17.8361 14.448C17.6787 14.6054 17.4919 14.7301 17.2863 14.8152L15.833 15.4172C15.418 15.5888 15.0881 15.9182 14.9159 16.333L14.3135 17.7874C14.1416 18.2024 13.8118 18.5322 13.3968 18.7041C12.9817 18.876 12.5154 18.876 12.1004 18.7041L10.6471 18.1021C10.232 17.9306 9.76587 17.931 9.35108 18.1031L7.89676 18.7046C7.48195 18.8762 7.01602 18.876 6.60132 18.7042C6.18662 18.5324 5.85706 18.2031 5.68503 17.7885L5.08245 16.3337C4.91085 15.9186 4.58147 15.5888 4.16672 15.4165L2.7124 14.8141C2.29754 14.6423 1.9679 14.3127 1.79592 13.8979C1.62394 13.4831 1.62371 13.0169 1.79527 12.602L2.39724 11.1486C2.56873 10.7336 2.56838 10.2674 2.39626 9.85257L1.79516 8.39716C1.70993 8.19159 1.66605 7.97124 1.66602 7.7487C1.66598 7.52616 1.70979 7.3058 1.79495 7.1002C1.88011 6.8946 2.00494 6.7078 2.16232 6.55046C2.3197 6.39313 2.50654 6.26835 2.71215 6.18326L4.16543 5.58127C4.58007 5.40981 4.90975 5.08084 5.0821 4.66655L5.6845 3.21218C5.85641 2.79712 6.18616 2.46737 6.6012 2.29544C7.01624 2.12352 7.48257 2.12352 7.89761 2.29544L9.35089 2.89743C9.76594 3.06893 10.2321 3.06858 10.6469 2.89646L12.1018 2.29638C12.5168 2.12455 12.983 2.12459 13.398 2.29648C13.813 2.46836 14.1427 2.79803 14.3146 3.21297L14.9172 4.66778L14.917 4.66526Z" stroke="#07B561" stroke-width="1.66667" stroke-linecap="round" stroke-linejoin="round"/>
</svg>