<svg xmlns="http://www.w3.org/2000/svg" width="32" height="33" viewBox="0 0 32 33" fill="none">
  <path d="M16.0003 16.5H16.007M22.667 16.5H22.6737M9.33366 16.5H9.34033M6.93366 9.83331H25.067C26.5605 9.83331 27.3072 9.83331 27.8776 10.124C28.3794 10.3796 28.7873 10.7876 29.043 11.2893C29.3337 11.8598 29.3337 12.6065 29.3337 14.1V18.9C29.3337 20.3935 29.3337 21.1402 29.043 21.7106C28.7873 22.2124 28.3794 22.6203 27.8776 22.876C27.3072 23.1666 26.5605 23.1666 25.067 23.1666H6.93366C5.44019 23.1666 4.69345 23.1666 4.12302 22.876C3.62125 22.6203 3.2133 22.2124 2.95764 21.7106C2.66699 21.1402 2.66699 20.3935 2.66699 18.9V14.1C2.66699 12.6065 2.66699 11.8598 2.95764 11.2893C3.2133 10.7876 3.62125 10.3796 4.12302 10.124C4.69345 9.83331 5.44019 9.83331 6.93366 9.83331ZM16.3337 16.5C16.3337 16.6841 16.1844 16.8333 16.0003 16.8333C15.8162 16.8333 15.667 16.6841 15.667 16.5C15.667 16.3159 15.8162 16.1666 16.0003 16.1666C16.1844 16.1666 16.3337 16.3159 16.3337 16.5ZM23.0003 16.5C23.0003 16.6841 22.8511 16.8333 22.667 16.8333C22.4829 16.8333 22.3337 16.6841 22.3337 16.5C22.3337 16.3159 22.4829 16.1666 22.667 16.1666C22.8511 16.1666 23.0003 16.3159 23.0003 16.5ZM9.66699 16.5C9.66699 16.6841 9.51775 16.8333 9.33366 16.8333C9.14956 16.8333 9.00033 16.6841 9.00033 16.5C9.00033 16.3159 9.14956 16.1666 9.33366 16.1666C9.51775 16.1666 9.66699 16.3159 9.66699 16.5Z" stroke="#B1B1B1" stroke-width="2.66667" stroke-linecap="round" stroke-linejoin="round"/>
</svg>