<svg xmlns="http://www.w3.org/2000/svg" width="20" height="20" viewBox="0 0 20 20" fill="none">
  <path d="M4.16663 10.833H6.66663M1.66663 7.49967L3.33329 8.33301L4.39216 5.1564C4.61072 4.50072 4.72 4.17288 4.9227 3.93049C5.10169 3.71645 5.33156 3.55078 5.59121 3.44865C5.88526 3.33301 6.23083 3.33301 6.92198 3.33301H13.0779C13.7691 3.33301 14.1147 3.33301 14.4087 3.44865C14.6684 3.55078 14.8982 3.71645 15.0772 3.93049C15.2799 4.17288 15.3892 4.50072 15.6078 5.1564L16.6666 8.33301L18.3333 7.49967M13.3333 10.833H15.8333M5.66663 8.33301H14.3333C15.7334 8.33301 16.4335 8.33301 16.9683 8.60549C17.4387 8.84517 17.8211 9.22763 18.0608 9.69803C18.3333 10.2328 18.3333 10.9329 18.3333 12.333V14.583C18.3333 14.9702 18.3333 15.1638 18.3013 15.3248C18.1698 15.986 17.6529 16.5028 16.9918 16.6343C16.8308 16.6663 16.6372 16.6663 16.25 16.6663H15.8333C14.9128 16.6663 14.1666 15.9201 14.1666 14.9997C14.1666 14.7696 13.9801 14.583 13.75 14.583H6.24996C6.01984 14.583 5.83329 14.7696 5.83329 14.9997C5.83329 15.9201 5.0871 16.6663 4.16663 16.6663H3.74996C3.36275 16.6663 3.16914 16.6663 3.00814 16.6343C2.34699 16.5028 1.83016 15.986 1.69865 15.3248C1.66663 15.1638 1.66663 14.9702 1.66663 14.583V12.333C1.66663 10.9329 1.66663 10.2328 1.93911 9.69803C2.17879 9.22763 2.56124 8.84517 3.03165 8.60549C3.56643 8.33301 4.26649 8.33301 5.66663 8.33301Z" stroke="#B1B1B1" stroke-width="1.66667" stroke-linecap="round" stroke-linejoin="round"/>
</svg>