<svg xmlns="http://www.w3.org/2000/svg" width="33" height="32" viewBox="0 0 33 32" fill="none">
  <path d="M29.8337 14.6665V10.9332C29.8337 9.4397 29.8337 8.69296 29.543 8.12253C29.2873 7.62076 28.8794 7.21282 28.3776 6.95715C27.8072 6.6665 27.0605 6.6665 25.567 6.6665H7.43366C5.94019 6.6665 5.19345 6.6665 4.62302 6.95715C4.12125 7.21282 3.7133 7.62076 3.45764 8.12253C3.16699 8.69296 3.16699 9.4397 3.16699 10.9332V15.7332C3.16699 17.2266 3.16699 17.9734 3.45764 18.5438C3.7133 19.0456 4.12125 19.4535 4.62302 19.7092C5.19345 19.9998 5.94019 19.9998 7.43366 19.9998H15.167M16.5003 13.3332H16.507M23.167 13.3332H23.1737M9.83366 13.3332H9.84033M26.167 22.6665V20.3332C26.167 19.0445 25.1223 17.9998 23.8337 17.9998C22.545 17.9998 21.5003 19.0445 21.5003 20.3332V22.6665M16.8337 13.3332C16.8337 13.5173 16.6844 13.6665 16.5003 13.6665C16.3162 13.6665 16.167 13.5173 16.167 13.3332C16.167 13.1491 16.3162 12.9998 16.5003 12.9998C16.6844 12.9998 16.8337 13.1491 16.8337 13.3332ZM23.5003 13.3332C23.5003 13.5173 23.3511 13.6665 23.167 13.6665C22.9829 13.6665 22.8337 13.5173 22.8337 13.3332C22.8337 13.1491 22.9829 12.9998 23.167 12.9998C23.3511 12.9998 23.5003 13.1491 23.5003 13.3332ZM10.167 13.3332C10.167 13.5173 10.0178 13.6665 9.83366 13.6665C9.64956 13.6665 9.50033 13.5173 9.50033 13.3332C9.50033 13.1491 9.64956 12.9998 9.83366 12.9998C10.0178 12.9998 10.167 13.1491 10.167 13.3332ZM21.3003 27.9998H26.367C27.1137 27.9998 27.4871 27.9998 27.7723 27.8545C28.0232 27.7267 28.2272 27.5227 28.355 27.2718C28.5003 26.9866 28.5003 26.6132 28.5003 25.8665V24.7998C28.5003 24.0531 28.5003 23.6797 28.355 23.3945C28.2272 23.1436 28.0232 22.9397 27.7723 22.8118C27.4871 22.6665 27.1137 22.6665 26.367 22.6665H21.3003C20.5536 22.6665 20.1802 22.6665 19.895 22.8118C19.6441 22.9397 19.4401 23.1436 19.3123 23.3945C19.167 23.6797 19.167 24.0531 19.167 24.7998V25.8665C19.167 26.6132 19.167 26.9866 19.3123 27.2718C19.4401 27.5227 19.6441 27.7267 19.895 27.8545C20.1802 27.9998 20.5536 27.9998 21.3003 27.9998Z" stroke="#B1B1B1" stroke-width="2" stroke-linecap="round" stroke-linejoin="round"/>
</svg>