<svg xmlns="http://www.w3.org/2000/svg" width="16" height="16" viewBox="0 0 16 16" fill="none">
  <path d="M14.6663 7.33301V5.46634C14.6663 4.7196 14.6663 4.34624 14.521 4.06102C14.3932 3.81014 14.1892 3.60616 13.9383 3.47833C13.6531 3.33301 13.2797 3.33301 12.533 3.33301H3.46634C2.7196 3.33301 2.34624 3.33301 2.06102 3.47833C1.81014 3.60616 1.60616 3.81014 1.47833 4.06102C1.33301 4.34624 1.33301 4.7196 1.33301 5.46634V7.86634C1.33301 8.61308 1.33301 8.98645 1.47833 9.27166C1.60616 9.52255 1.81014 9.72652 2.06102 9.85435C2.34624 9.99967 2.7196 9.99967 3.46634 9.99967H7.33301M7.99967 6.66634H8.00301M11.333 6.66634H11.3363M4.66634 6.66634H4.66967M12.833 11.333V10.1663C12.833 9.52201 12.3107 8.99967 11.6663 8.99967C11.022 8.99967 10.4997 9.52201 10.4997 10.1663V11.333M8.16634 6.66634C8.16634 6.75839 8.09172 6.83301 7.99967 6.83301C7.90763 6.83301 7.83301 6.75839 7.83301 6.66634C7.83301 6.57429 7.90763 6.49967 7.99967 6.49967C8.09172 6.49967 8.16634 6.57429 8.16634 6.66634ZM11.4997 6.66634C11.4997 6.75839 11.4251 6.83301 11.333 6.83301C11.241 6.83301 11.1663 6.75839 11.1663 6.66634C11.1663 6.57429 11.241 6.49967 11.333 6.49967C11.4251 6.49967 11.4997 6.57429 11.4997 6.66634ZM4.83301 6.66634C4.83301 6.75839 4.75839 6.83301 4.66634 6.83301C4.57429 6.83301 4.49967 6.75839 4.49967 6.66634C4.49967 6.57429 4.57429 6.49967 4.66634 6.49967C4.75839 6.49967 4.83301 6.57429 4.83301 6.66634ZM10.3997 13.9997H12.933C13.3064 13.9997 13.4931 13.9997 13.6357 13.927C13.7611 13.8631 13.8631 13.7611 13.927 13.6357C13.9997 13.4931 13.9997 13.3064 13.9997 12.933V12.3997C13.9997 12.0263 13.9997 11.8396 13.927 11.697C13.8631 11.5716 13.7611 11.4696 13.6357 11.4057C13.4931 11.333 13.3064 11.333 12.933 11.333H10.3997C10.0263 11.333 9.83962 11.333 9.69701 11.4057C9.57157 11.4696 9.46959 11.5716 9.40567 11.697C9.33301 11.8396 9.33301 12.0263 9.33301 12.3997V12.933C9.33301 13.3064 9.33301 13.4931 9.40567 13.6357C9.46959 13.7611 9.57157 13.8631 9.69701 13.927C9.83962 13.9997 10.0263 13.9997 10.3997 13.9997Z" stroke="#E9E9E9" stroke-width="1.33333" stroke-linecap="round" stroke-linejoin="round"/>
</svg>