<svg width="380" height="172" viewBox="0 0 380 172" fill="none" xmlns="http://www.w3.org/2000/svg">
<rect x="-1.5" y="-78" width="384" height="249" stroke="#202020"/>
<rect x="19" y="-1" width="42" height="42" fill="#111111" stroke="#202020"/>
<rect x="62" y="-1" width="42" height="42" fill="#171717" stroke="#202020"/>
<rect x="105" y="-1" width="42" height="42" fill="#171717" stroke="#202020"/>
<rect x="148" y="-1" width="42" height="42" fill="#202020" stroke="#202020"/>
<rect x="191" y="-1" width="42" height="42" fill="#171717" stroke="#202020"/>
<rect x="234" y="-1" width="42" height="42" fill="#111111" stroke="#202020"/>
<rect x="277" y="-1" width="42" height="42" fill="#111111" stroke="#202020"/>
<rect x="320" y="-1" width="42" height="42" fill="#202020" stroke="#202020"/>
<rect x="19" y="42" width="42" height="42" fill="#111111" stroke="#202020"/>
<rect x="62" y="42" width="42" height="42" fill="#171717" stroke="#202020"/>
<rect x="105" y="42" width="42" height="42" fill="#171717" stroke="#202020"/>
<rect x="148" y="42" width="42" height="42" fill="#202020" stroke="#202020"/>
<rect x="191" y="42" width="42" height="42" fill="#171717" stroke="#202020"/>
<rect x="234" y="42" width="42" height="42" fill="#111111" stroke="#202020"/>
<rect x="277" y="42" width="42" height="42" fill="#111111" stroke="#202020"/>
<rect x="320" y="42" width="42" height="42" fill="#202020" stroke="#202020"/>
<rect x="19" y="85" width="42" height="42" fill="#171717" stroke="#202020"/>
<rect x="62" y="85" width="42" height="42" fill="#171717" stroke="#202020"/>
<rect x="105" y="85" width="42" height="42" fill="#202020" stroke="#202020"/>
<rect x="148" y="85" width="42" height="42" fill="#171717" stroke="#202020"/>
<rect x="191" y="85" width="42" height="42" fill="#171717" stroke="#202020"/>
<rect x="234" y="85" width="42" height="42" fill="#171717" stroke="#202020"/>
<rect x="277" y="85" width="42" height="42" fill="#202020" stroke="#202020"/>
<rect x="320" y="85" width="42" height="42" fill="#171717" stroke="#202020"/>
<rect x="19" y="128" width="42" height="42" fill="#171717" stroke="#202020"/>
<rect x="62" y="128" width="42" height="42" fill="#171717" stroke="#202020"/>
<rect x="105" y="128" width="42" height="42" fill="#202020" stroke="#202020"/>
<rect x="148" y="128" width="42" height="42" fill="#171717" stroke="#202020"/>
<rect x="191" y="128" width="42" height="42" fill="#111111" stroke="#202020"/>
<rect x="234" y="128" width="42" height="42" fill="#171717" stroke="#202020"/>
<rect x="277" y="128" width="42" height="42" fill="#202020" stroke="#202020"/>
<rect x="320" y="128" width="42" height="42" fill="#111111" stroke="#202020"/>
</svg>
