<svg width="21" height="20" viewBox="0 0 21 20" fill="none" xmlns="http://www.w3.org/2000/svg">
<path d="M5.50008 5.00033L7.16675 3.33366M7.16675 3.33366L5.50008 1.66699M7.16675 3.33366H5.50008C3.65913 3.33366 2.16675 4.82604 2.16675 6.66699M15.5001 15.0003L13.8334 16.667M13.8334 16.667L15.5001 18.3337M13.8334 16.667H15.5001C17.341 16.667 18.8334 15.1746 18.8334 13.3337M8.99094 5.41699C9.54599 3.26046 11.5036 1.66699 13.8334 1.66699C16.5948 1.66699 18.8334 3.90557 18.8334 6.66699C18.8334 8.99677 17.24 10.9544 15.0835 11.5095M12.1667 13.3337C12.1667 16.0951 9.92817 18.3337 7.16675 18.3337C4.40532 18.3337 2.16675 16.0951 2.16675 13.3337C2.16675 10.5722 4.40532 8.33366 7.16675 8.33366C9.92817 8.33366 12.1667 10.5722 12.1667 13.3337Z" stroke="#078BB9" stroke-width="2" stroke-linecap="round" stroke-linejoin="round"/>
</svg>
