<svg width="20" height="19" viewBox="0 0 20 19" fill="none" xmlns="http://www.w3.org/2000/svg">
<path d="M4.99996 4.50008L6.66663 2.83341M6.66663 2.83341L4.99996 1.16675M6.66663 2.83341H4.99996C3.15901 2.83341 1.66663 4.3258 1.66663 6.16675M15 14.5001L13.3333 16.1667M13.3333 16.1667L15 17.8334M13.3333 16.1667H15C16.8409 16.1667 18.3333 14.6744 18.3333 12.8334M8.49081 4.91675C9.04587 2.76021 11.0035 1.16675 13.3333 1.16675C16.0947 1.16675 18.3333 3.40532 18.3333 6.16675C18.3333 8.49653 16.7399 10.4541 14.5833 11.0092M11.6666 12.8334C11.6666 15.5948 9.42805 17.8334 6.66663 17.8334C3.9052 17.8334 1.66663 15.5948 1.66663 12.8334C1.66663 10.072 3.9052 7.83342 6.66663 7.83342C9.42805 7.83342 11.6666 10.072 11.6666 12.8334Z" stroke="#B1B1B1" stroke-width="2" stroke-linecap="round" stroke-linejoin="round"/>
</svg>
