<svg width="20" height="21" viewBox="0 0 20 21" fill="none" xmlns="http://www.w3.org/2000/svg">
<path fill-rule="evenodd" clip-rule="evenodd" d="M4.41066 1.68451C4.7361 1.35907 5.26374 1.35907 5.58917 1.68451L7.25584 3.35117C7.58128 3.67661 7.58128 4.20425 7.25584 4.52969L5.58917 6.19635C5.26374 6.52179 4.7361 6.52179 4.41066 6.19635C4.08523 5.87092 4.08523 5.34328 4.41066 5.01784L4.62714 4.80137C3.42324 4.98136 2.49992 6.01973 2.49992 7.27376C2.49992 7.734 2.12682 8.1071 1.66659 8.1071C1.20635 8.1071 0.833252 7.734 0.833252 7.27376C0.833252 5.08437 2.52188 3.28938 4.66778 3.12014L4.41066 2.86302C4.08523 2.53758 4.08523 2.00994 4.41066 1.68451ZM7.68374 5.81605C8.33126 3.30027 10.614 1.44043 13.3333 1.44043C16.5549 1.44043 19.1666 4.0521 19.1666 7.27376C19.1666 9.99298 17.3068 12.2757 14.791 12.9233C14.3453 13.038 13.891 12.7697 13.7763 12.324C13.6616 11.8782 13.9299 11.4239 14.3756 11.3092C16.1729 10.8466 17.4999 9.21411 17.4999 7.27376C17.4999 4.97258 15.6344 3.1071 13.3333 3.1071C11.3929 3.1071 9.7604 4.43419 9.2978 6.23148C9.18309 6.67719 8.72877 6.94551 8.28306 6.83079C7.83735 6.71608 7.56903 6.26176 7.68374 5.81605ZM6.66659 9.77376C4.3654 9.77376 2.49992 11.6392 2.49992 13.9404C2.49992 16.2416 4.3654 18.1071 6.66659 18.1071C8.96777 18.1071 10.8333 16.2416 10.8333 13.9404C10.8333 11.6392 8.96777 9.77376 6.66659 9.77376ZM0.833252 13.9404C0.833252 10.7188 3.44492 8.1071 6.66659 8.1071C9.88825 8.1071 12.4999 10.7188 12.4999 13.9404C12.4999 17.1621 9.88825 19.7738 6.66659 19.7738C3.44492 19.7738 0.833252 17.1621 0.833252 13.9404ZM18.3333 13.1071C18.7935 13.1071 19.1666 13.4802 19.1666 13.9404C19.1666 16.1298 17.478 17.9248 15.3321 18.0941L15.5892 18.3512C15.9146 18.6766 15.9146 19.2042 15.5892 19.5297C15.2637 19.8551 14.7361 19.8551 14.4107 19.5297L12.744 17.863C12.4186 17.5376 12.4186 17.0099 12.744 16.6845L14.4107 15.0178C14.7361 14.6924 15.2637 14.6924 15.5892 15.0178C15.9146 15.3433 15.9146 15.8709 15.5892 16.1964L15.3727 16.4128C16.5766 16.2328 17.4999 15.1945 17.4999 13.9404C17.4999 13.4802 17.873 13.1071 18.3333 13.1071Z" fill="#B1B1B1"/>
</svg>
