<svg width="16" height="16" viewBox="0 0 16 16" fill="none" xmlns="http://www.w3.org/2000/svg">
<g clip-path="url(#clip0_2592_4547)">
<path fill-rule="evenodd" clip-rule="evenodd" d="M7.4413 0.66504H12.5594C12.9108 0.665028 13.214 0.665017 13.4637 0.68542C13.7272 0.706954 13.9894 0.754498 14.2416 0.883027C14.618 1.07477 14.9239 1.38074 15.1157 1.75706C15.2442 2.00931 15.2917 2.27146 15.3133 2.53502C15.3337 2.78473 15.3337 3.0879 15.3337 3.43933V8.55742C15.3337 8.90884 15.3337 9.21202 15.3133 9.46173C15.2917 9.72529 15.2442 9.98744 15.1157 10.2397C14.9239 10.616 14.618 10.922 14.2416 11.1137C13.9894 11.2423 13.7272 11.2898 13.4637 11.3113C13.214 11.3317 12.9108 11.3317 12.5593 11.3317H11.3337V12.5574C11.3337 12.9088 11.3337 13.212 11.3133 13.4617C11.2917 13.7253 11.2442 13.9874 11.1157 14.2397C10.9239 14.616 10.618 14.922 10.2416 15.1137C9.98939 15.2423 9.72724 15.2898 9.46368 15.3113C9.21397 15.3317 8.9108 15.3317 8.55937 15.3317H3.44128C3.08986 15.3317 2.78669 15.3317 2.53698 15.3113C2.27341 15.2898 2.01127 15.2423 1.75901 15.1137C1.38269 14.922 1.07673 14.616 0.884981 14.2397C0.756451 13.9874 0.708907 13.7253 0.687373 13.4617C0.666971 13.212 0.666981 12.9088 0.666993 12.5574V7.43935C0.666981 7.08791 0.666971 6.78474 0.687373 6.53502C0.708907 6.27146 0.756451 6.00931 0.88498 5.75706C1.07673 5.38074 1.38269 5.07477 1.75901 4.88303C2.01127 4.7545 2.27341 4.70695 2.53698 4.68542C2.78669 4.66502 3.08987 4.66503 3.4413 4.66504L4.66699 4.66504L4.66699 3.43934C4.66698 3.08791 4.66697 2.78474 4.68737 2.53502C4.70891 2.27146 4.75645 2.00931 4.88498 1.75706C5.07673 1.38074 5.38269 1.07477 5.75901 0.883027C6.01127 0.754498 6.27341 0.706954 6.53698 0.68542C6.78669 0.665017 7.08987 0.665028 7.4413 0.66504ZM4.66699 5.99837H3.46699C3.08262 5.99837 2.83444 5.99889 2.64555 6.01433C2.46444 6.02912 2.3973 6.05424 2.36433 6.07104C2.23889 6.13495 2.1369 6.23694 2.07299 6.36238C2.05619 6.39534 2.03108 6.46249 2.01628 6.6436C2.00085 6.83249 2.00033 7.08067 2.00033 7.46504V12.5317C2.00033 12.9161 2.00085 13.1643 2.01628 13.3532C2.03108 13.5343 2.05619 13.6014 2.07299 13.6344C2.1369 13.7598 2.23889 13.8618 2.36433 13.9257C2.3973 13.9425 2.46444 13.9676 2.64555 13.9824C2.83444 13.9979 3.08262 13.9984 3.46699 13.9984H8.53366C8.91803 13.9984 9.16621 13.9979 9.3551 13.9824C9.53621 13.9676 9.60336 13.9425 9.63632 13.9257C9.76176 13.8618 9.86375 13.7598 9.92767 13.6344C9.94446 13.6014 9.96958 13.5343 9.98438 13.3532C9.99981 13.1643 10.0003 12.9161 10.0003 12.5317V11.3317H7.44131C7.08987 11.3317 6.78669 11.3317 6.53698 11.3113C6.27341 11.2898 6.01127 11.2423 5.75901 11.1137C5.38269 10.922 5.07673 10.616 4.88498 10.2397C4.75645 9.98744 4.70891 9.72529 4.68737 9.46173C4.66697 9.21201 4.66698 8.90884 4.66699 8.5574L4.66699 5.99837ZM7.46699 9.99837C7.08263 9.99837 6.83444 9.99786 6.64555 9.98242C6.46444 9.96763 6.3973 9.94251 6.36433 9.92571C6.23889 9.8618 6.13691 9.75981 6.07299 9.63437C6.05619 9.60141 6.03108 9.53426 6.01628 9.35315C6.00085 9.16426 6.00033 8.91608 6.00033 8.53171V3.46504C6.00033 3.08067 6.00085 2.83249 6.01628 2.6436C6.03108 2.46249 6.05619 2.39534 6.07299 2.36238C6.13691 2.23694 6.23889 2.13495 6.36433 2.07104C6.3973 2.05424 6.46444 2.02912 6.64555 2.01433C6.83444 1.99889 7.08263 1.99837 7.46699 1.99837H12.5337C12.918 1.99837 13.1662 1.99889 13.3551 2.01433C13.5362 2.02912 13.6034 2.05424 13.6363 2.07104C13.7618 2.13495 13.8637 2.23694 13.9277 2.36238C13.9445 2.39534 13.9696 2.46249 13.9844 2.6436C13.9998 2.83249 14.0003 3.08067 14.0003 3.46504V8.53171C14.0003 8.91608 13.9998 9.16426 13.9844 9.35315C13.9696 9.53426 13.9445 9.60141 13.9277 9.63437C13.8637 9.75981 13.7618 9.8618 13.6363 9.92571C13.6034 9.94251 13.5362 9.96763 13.3551 9.98242C13.1662 9.99786 12.918 9.99837 12.5337 9.99837H7.46699Z" fill="#E9E9E9"/>
</g>
<defs>
<clipPath id="clip0_2592_4547">
<rect width="16" height="16" fill="white"/>
</clipPath>
</defs>
</svg>
