<svg width="14" height="14" viewBox="0 0 14 14" fill="none" xmlns="http://www.w3.org/2000/svg">
<path fill-rule="evenodd" clip-rule="evenodd" d="M7.0003 1.34345C8.5624 -0.218649 11.0951 -0.21865 12.6572 1.34345C14.2193 2.90554 14.2193 5.4382 12.6572 7.0003L11.7143 7.94311C11.454 8.20346 11.0319 8.20346 10.7715 7.94311C10.5112 7.68276 10.5112 7.26065 10.7715 7.0003L11.7143 6.05749C12.7557 5.01609 12.7557 3.32765 11.7143 2.28626C10.6729 1.24486 8.98451 1.24486 7.94311 2.28626L7.0003 3.22907C6.73995 3.48942 6.31784 3.48942 6.05749 3.22907C5.79714 2.96872 5.79714 2.54661 6.05749 2.28626L7.0003 1.34345ZM9.80504 4.19555C10.0654 4.4559 10.0654 4.87801 9.80504 5.13836L5.13837 9.80502C4.87802 10.0654 4.45591 10.0654 4.19556 9.80502C3.93521 9.54467 3.93521 9.12257 4.19556 8.86222L8.86223 4.19555C9.12258 3.9352 9.54469 3.9352 9.80504 4.19555ZM3.22907 6.05749C3.48942 6.31784 3.48942 6.73995 3.22907 7.0003L2.28626 7.94311C1.24486 8.98451 1.24486 10.6729 2.28626 11.7143C3.32765 12.7557 5.01609 12.7557 6.05749 11.7143L7.0003 10.7715C7.26065 10.5112 7.68276 10.5112 7.94311 10.7715C8.20346 11.0319 8.20346 11.454 7.94311 11.7143L7.0003 12.6572C5.4382 14.2193 2.90554 14.2193 1.34345 12.6572C-0.21865 11.0951 -0.218649 8.5624 1.34345 7.0003L2.28626 6.05749C2.54661 5.79714 2.96872 5.79714 3.22907 6.05749Z" fill="#B1B1B1"/>
</svg>
