<svg xmlns="http://www.w3.org/2000/svg" width="16" height="17" viewBox="0 0 16 17" fill="none">
  <path fill-rule="evenodd" clip-rule="evenodd" d="M7.4413 1.16504H12.5594C12.9108 1.16503 13.214 1.16502 13.4637 1.18542C13.7272 1.20695 13.9894 1.2545 14.2416 1.38303C14.618 1.57477 14.9239 1.88074 15.1157 2.25706C15.2442 2.50931 15.2917 2.77146 15.3133 3.03502C15.3337 3.28473 15.3337 3.5879 15.3337 3.93933V9.05742C15.3337 9.40884 15.3337 9.71202 15.3133 9.96173C15.2917 10.2253 15.2442 10.4874 15.1157 10.7397C14.9239 11.116 14.618 11.422 14.2416 11.6137C13.9894 11.7423 13.7272 11.7898 13.4637 11.8113C13.214 11.8317 12.9108 11.8317 12.5593 11.8317H11.3337V13.0574C11.3337 13.4088 11.3337 13.712 11.3133 13.9617C11.2917 14.2253 11.2442 14.4874 11.1157 14.7397C10.9239 15.116 10.618 15.422 10.2416 15.6137C9.98939 15.7423 9.72724 15.7898 9.46368 15.8113C9.21397 15.8317 8.9108 15.8317 8.55937 15.8317H3.44128C3.08986 15.8317 2.78669 15.8317 2.53698 15.8113C2.27341 15.7898 2.01127 15.7423 1.75901 15.6137C1.38269 15.422 1.07673 15.116 0.884981 14.7397C0.756451 14.4874 0.708907 14.2253 0.687373 13.9617C0.666971 13.712 0.666981 13.4088 0.666993 13.0574V7.93935C0.666981 7.58791 0.666971 7.28474 0.687373 7.03502C0.708907 6.77146 0.756451 6.50931 0.88498 6.25706C1.07673 5.88074 1.38269 5.57477 1.75901 5.38303C2.01127 5.2545 2.27341 5.20695 2.53698 5.18542C2.78669 5.16502 3.08987 5.16503 3.4413 5.16504L4.66699 5.16504L4.66699 3.93934C4.66698 3.58791 4.66697 3.28474 4.68737 3.03502C4.70891 2.77146 4.75645 2.50931 4.88498 2.25706C5.07673 1.88074 5.38269 1.57477 5.75901 1.38303C6.01127 1.2545 6.27341 1.20695 6.53698 1.18542C6.78669 1.16502 7.08987 1.16503 7.4413 1.16504ZM4.66699 6.49837H3.46699C3.08262 6.49837 2.83444 6.49889 2.64555 6.51433C2.46444 6.52912 2.3973 6.55424 2.36433 6.57104C2.23889 6.63495 2.1369 6.73694 2.07299 6.86238C2.05619 6.89534 2.03108 6.96249 2.01628 7.1436C2.00085 7.33249 2.00033 7.58067 2.00033 7.96504V13.0317C2.00033 13.4161 2.00085 13.6643 2.01628 13.8532C2.03108 14.0343 2.05619 14.1014 2.07299 14.1344C2.1369 14.2598 2.23889 14.3618 2.36433 14.4257C2.3973 14.4425 2.46444 14.4676 2.64555 14.4824C2.83444 14.4979 3.08262 14.4984 3.46699 14.4984H8.53366C8.91803 14.4984 9.16621 14.4979 9.3551 14.4824C9.53621 14.4676 9.60336 14.4425 9.63632 14.4257C9.76176 14.3618 9.86375 14.2598 9.92767 14.1344C9.94446 14.1014 9.96958 14.0343 9.98438 13.8532C9.99981 13.6643 10.0003 13.4161 10.0003 13.0317V11.8317H7.44131C7.08987 11.8317 6.78669 11.8317 6.53698 11.8113C6.27341 11.7898 6.01127 11.7423 5.75901 11.6137C5.38269 11.422 5.07673 11.116 4.88498 10.7397C4.75645 10.4874 4.70891 10.2253 4.68737 9.96173C4.66697 9.71201 4.66698 9.40884 4.66699 9.0574L4.66699 6.49837ZM7.46699 10.4984C7.08263 10.4984 6.83444 10.4979 6.64555 10.4824C6.46444 10.4676 6.3973 10.4425 6.36433 10.4257C6.23889 10.3618 6.13691 10.2598 6.07299 10.1344C6.05619 10.1014 6.03108 10.0343 6.01628 9.85315C6.00085 9.66426 6.00033 9.41608 6.00033 9.03171V3.96504C6.00033 3.58067 6.00085 3.33249 6.01628 3.1436C6.03108 2.96249 6.05619 2.89534 6.07299 2.86238C6.13691 2.73694 6.23889 2.63495 6.36433 2.57104C6.3973 2.55424 6.46444 2.52912 6.64555 2.51433C6.83444 2.49889 7.08263 2.49837 7.46699 2.49837H12.5337C12.918 2.49837 13.1662 2.49889 13.3551 2.51433C13.5362 2.52912 13.6034 2.55424 13.6363 2.57104C13.7618 2.63495 13.8637 2.73694 13.9277 2.86238C13.9445 2.89534 13.9696 2.96249 13.9844 3.1436C13.9998 3.33249 14.0003 3.58067 14.0003 3.96504V9.03171C14.0003 9.41608 13.9998 9.66426 13.9844 9.85315C13.9696 10.0343 13.9445 10.1014 13.9277 10.1344C13.8637 10.2598 13.7618 10.3618 13.6363 10.4257C13.6034 10.4425 13.5362 10.4676 13.3551 10.4824C13.1662 10.4979 12.918 10.4984 12.5337 10.4984H7.46699Z" fill="#E9E9E9"/>
</svg>