<svg width="20" height="21" viewBox="0 0 20 21" fill="none" xmlns="http://www.w3.org/2000/svg">
<path fill-rule="evenodd" clip-rule="evenodd" d="M4.30113 2.60742H15.6987C16.138 2.60741 16.517 2.60739 16.8291 2.6329C17.1586 2.65982 17.4862 2.71925 17.8016 2.87991C18.272 3.11959 18.6544 3.50204 18.8941 3.97245C19.0548 4.28776 19.1142 4.61545 19.1411 4.9449C19.1666 5.25704 19.1666 5.636 19.1666 6.07529V12.4729C19.1666 12.9122 19.1666 13.2911 19.1411 13.6033C19.1142 13.9327 19.0548 14.2604 18.8941 14.5757C18.6544 15.0461 18.272 15.4286 17.8016 15.6683C17.4862 15.8289 17.1586 15.8884 16.8291 15.9153C16.517 15.9408 16.138 15.9408 15.6987 15.9408H15.4166C14.9564 15.9408 14.5833 15.5677 14.5833 15.1074C14.5833 14.6472 14.9564 14.2741 15.4166 14.2741H15.6666C16.147 14.2741 16.4573 14.2734 16.6934 14.2542C16.9198 14.2357 17.0037 14.2043 17.0449 14.1833C17.2017 14.1034 17.3292 13.9759 17.4091 13.8191C17.4301 13.7779 17.4615 13.6939 17.48 13.4676C17.4993 13.2314 17.4999 12.9212 17.4999 12.4408V8.44076H2.49992V12.4408C2.49992 12.9212 2.50057 13.2314 2.51986 13.4676C2.53836 13.6939 2.56975 13.7779 2.59075 13.8191C2.67064 13.9759 2.79813 14.1034 2.95493 14.1833C2.99613 14.2043 3.08006 14.2357 3.30645 14.2541C3.54256 14.2734 3.85279 14.2741 4.33325 14.2741H4.58325C5.04349 14.2741 5.41659 14.6472 5.41659 15.1074C5.41659 15.5677 5.04349 15.9408 4.58325 15.9408H4.30115C3.86185 15.9408 3.48288 15.9408 3.17073 15.9153C2.84128 15.8884 2.51359 15.8289 2.19828 15.6683C1.72787 15.4286 1.34542 15.0461 1.10574 14.5757C0.945075 14.2604 0.885646 13.9327 0.858728 13.6033C0.833225 13.2911 0.833238 12.9122 0.833253 12.4729V6.0753C0.833238 5.63601 0.833225 5.25704 0.858728 4.9449C0.885646 4.61545 0.945076 4.28776 1.10574 3.97245C1.34542 3.50204 1.72787 3.11959 2.19828 2.87991C2.51359 2.71925 2.84128 2.65982 3.17073 2.6329C3.48287 2.60739 3.86184 2.60741 4.30113 2.60742ZM2.49992 6.77409H17.4999V6.10742C17.4999 5.62696 17.4993 5.31674 17.48 5.08062C17.4615 4.85424 17.4301 4.7703 17.4091 4.7291C17.3292 4.5723 17.2017 4.44481 17.0449 4.36492C17.0037 4.34393 16.9198 4.31253 16.6934 4.29403C16.4573 4.27474 16.147 4.27409 15.6666 4.27409H4.33325C3.85279 4.27409 3.54257 4.27474 3.30645 4.29403C3.08006 4.31253 2.99613 4.34392 2.95493 4.36492C2.79813 4.44481 2.67064 4.5723 2.59075 4.7291C2.56975 4.7703 2.53836 4.85423 2.51986 5.08062C2.50057 5.31673 2.49992 5.62696 2.49992 6.10742V6.77409ZM9.99992 10.1074C10.4602 10.1074 10.8333 10.4805 10.8333 10.9408V14.7622L11.9107 13.6848C12.2361 13.3594 12.7637 13.3594 13.0892 13.6848C13.4146 14.0103 13.4146 14.5379 13.0892 14.8633L10.5892 17.3633C10.2637 17.6888 9.7361 17.6888 9.41067 17.3633L6.91067 14.8633C6.58523 14.5379 6.58523 14.0103 6.91067 13.6848C7.2361 13.3594 7.76374 13.3594 8.08918 13.6848L9.16659 14.7622V10.9408C9.16659 10.4805 9.53968 10.1074 9.99992 10.1074Z" fill="#B1B1B1"/>
</svg>
