<svg xmlns="http://www.w3.org/2000/svg" width="20" height="21" viewBox="0 0 20 21" fill="none">
  <path d="M5.00002 8.83341V12.1667M15 8.83341V12.1667M1.66669 7.33341L1.66669 13.6667C1.66669 14.6002 1.66669 15.0669 1.84834 15.4234C2.00813 15.737 2.2631 15.992 2.5767 16.1518C2.93322 16.3334 3.39993 16.3334 4.33335 16.3334L15.6667 16.3334C16.6001 16.3334 17.0668 16.3334 17.4233 16.1518C17.7369 15.992 17.9919 15.737 18.1517 15.4234C18.3334 15.0669 18.3334 14.6002 18.3334 13.6667V7.33342C18.3334 6.39999 18.3334 5.93328 18.1517 5.57677C17.9919 5.26316 17.7369 5.00819 17.4233 4.84841C17.0668 4.66675 16.6001 4.66675 15.6667 4.66675L4.33335 4.66675C3.39993 4.66675 2.93322 4.66675 2.5767 4.8484C2.2631 5.00819 2.00813 5.26316 1.84834 5.57676C1.66669 5.93328 1.66669 6.39999 1.66669 7.33341ZM12.0834 10.5001C12.0834 11.6507 11.1506 12.5834 10 12.5834C8.84943 12.5834 7.91669 11.6507 7.91669 10.5001C7.91669 9.34949 8.84943 8.41675 10 8.41675C11.1506 8.41675 12.0834 9.34949 12.0834 10.5001Z" stroke="#B1B1B1" stroke-width="1.66667" stroke-linecap="round" stroke-linejoin="round"/>
</svg>