<svg width="18" height="18" viewBox="0 0 18 18" fill="none" xmlns="http://www.w3.org/2000/svg">
<path id="Icon" d="M5.66667 13.6667H12.3333M8.18141 1.80333L2.52949 6.19927C2.15168 6.49312 1.96278 6.64005 1.82669 6.82405C1.70614 6.98704 1.61633 7.17065 1.56169 7.36588C1.5 7.58627 1.5 7.82558 1.5 8.30421V14.3333C1.5 15.2667 1.5 15.7335 1.68166 16.09C1.84144 16.4036 2.09641 16.6585 2.41002 16.8183C2.76654 17 3.23325 17 4.16667 17H13.8333C14.7668 17 15.2335 17 15.59 16.8183C15.9036 16.6585 16.1586 16.4036 16.3183 16.09C16.5 15.7335 16.5 15.2667 16.5 14.3333V8.30421C16.5 7.82558 16.5 7.58627 16.4383 7.36588C16.3837 7.17065 16.2939 6.98704 16.1733 6.82405C16.0372 6.64005 15.8483 6.49312 15.4705 6.19927L9.81859 1.80333C9.52582 1.57562 9.37943 1.46177 9.21779 1.418C9.07516 1.37938 8.92484 1.37938 8.78221 1.418C8.62057 1.46177 8.47418 1.57562 8.18141 1.80333Z" stroke="#B1B1B1" stroke-width="1.66667" stroke-linecap="round" stroke-linejoin="round"/>
</svg>
