<svg xmlns="http://www.w3.org/2000/svg" width="24" height="25" viewBox="0 0 24 25" fill="none">
  <path d="M5.99958 20.6078L14.8686 11.7388C15.2646 11.3428 15.4627 11.1448 15.691 11.0706C15.8918 11.0053 16.1082 11.0053 16.309 11.0706C16.5373 11.1448 16.7354 11.3428 17.1314 11.7388L21.4053 16.0127M10.5 9.10742C10.5 10.212 9.60457 11.1074 8.5 11.1074C7.39543 11.1074 6.5 10.212 6.5 9.10742C6.5 8.00285 7.39543 7.10742 8.5 7.10742C9.60457 7.10742 10.5 8.00285 10.5 9.10742ZM22 12.6074C22 18.1303 17.5228 22.6074 12 22.6074C6.47715 22.6074 2 18.1303 2 12.6074C2 7.08457 6.47715 2.60742 12 2.60742C17.5228 2.60742 22 7.08457 22 12.6074Z" stroke="#B1B1B1" stroke-width="2" stroke-linecap="round" stroke-linejoin="round"/>
</svg>