<svg xmlns="http://www.w3.org/2000/svg" width="16" height="16" viewBox="0 0 16 16" fill="none">
  <path fill-rule="evenodd" clip-rule="evenodd" d="M5.33398 1.9987C5.33398 1.63051 5.63246 1.33203 6.00065 1.33203H10.0007C10.3688 1.33203 10.6673 1.63051 10.6673 1.9987C10.6673 2.36689 10.3688 2.66536 10.0007 2.66536H6.00065C5.63246 2.66536 5.33398 2.36689 5.33398 1.9987ZM3.32881 3.33203H2.00065C1.63246 3.33203 1.33398 3.63051 1.33398 3.9987C1.33398 4.36689 1.63246 4.66536 2.00065 4.66536H2.71028L3.13808 11.0823C3.17165 11.5859 3.19942 12.0027 3.24923 12.342C3.30109 12.6951 3.38335 13.0179 3.55471 13.3187C3.82147 13.787 4.22384 14.1634 4.7088 14.3984C5.02033 14.5494 5.34785 14.61 5.70371 14.6382C6.04551 14.6654 6.4632 14.6654 6.96794 14.6654H9.03336C9.5381 14.6654 9.95579 14.6654 10.2976 14.6382C10.6535 14.61 10.981 14.5494 11.2925 14.3984C11.7775 14.1634 12.1798 13.787 12.4466 13.3187C12.618 13.0179 12.7002 12.6951 12.7521 12.3419C12.8019 12.0027 12.8297 11.5859 12.8632 11.0822L13.291 4.66536H14.0007C14.3688 4.66536 14.6673 4.36689 14.6673 3.9987C14.6673 3.63051 14.3688 3.33203 14.0007 3.33203H12.6725C12.6686 3.332 12.6647 3.332 12.6608 3.33203H3.34048C3.3366 3.332 3.33271 3.332 3.32881 3.33203ZM11.9547 4.66536H4.04658L4.4667 10.9672C4.50248 11.5039 4.52721 11.8676 4.56842 12.1483C4.60845 12.4209 4.65735 12.5606 4.71323 12.6587C4.84661 12.8928 5.0478 13.081 5.29028 13.1986C5.39188 13.2478 5.53455 13.2873 5.80922 13.3091C6.092 13.3315 6.45655 13.332 6.99442 13.332H9.00688C9.54475 13.332 9.9093 13.3315 10.1921 13.3091C10.4667 13.2873 10.6094 13.2478 10.711 13.1986C10.9535 13.081 11.1547 12.8928 11.2881 12.6587C11.344 12.5606 11.3929 12.4209 11.4329 12.1483C11.4741 11.8676 11.4988 11.5039 11.5346 10.9672L11.9547 4.66536ZM6.66732 6.33203C7.03551 6.33203 7.33398 6.63051 7.33398 6.9987V10.332C7.33398 10.7002 7.03551 10.9987 6.66732 10.9987C6.29913 10.9987 6.00065 10.7002 6.00065 10.332V6.9987C6.00065 6.63051 6.29913 6.33203 6.66732 6.33203ZM9.33398 6.33203C9.70217 6.33203 10.0007 6.63051 10.0007 6.9987V10.332C10.0007 10.7002 9.70217 10.9987 9.33398 10.9987C8.96579 10.9987 8.66732 10.7002 8.66732 10.332V6.9987C8.66732 6.63051 8.96579 6.33203 9.33398 6.33203Z" fill="#A43C3C"/>
</svg>