<svg width="32" height="33" viewBox="0 0 32 33" fill="none" xmlns="http://www.w3.org/2000/svg">
<path d="M21.3333 9.83301H29.3333M21.3333 28.4997V26.8997C21.3333 24.6595 21.3333 23.5394 20.8973 22.6837C20.5138 21.9311 19.9019 21.3191 19.1493 20.9356C18.2936 20.4997 17.1735 20.4997 14.9333 20.4997H9.06663C6.82642 20.4997 5.70631 20.4997 4.85066 20.9356C4.09802 21.3191 3.48609 21.9311 3.1026 22.6837C2.66663 23.5394 2.66663 24.6595 2.66663 26.8997V28.4997M16.6666 10.4997C16.6666 13.077 14.5773 15.1663 12 15.1663C9.42263 15.1663 7.33329 13.077 7.33329 10.4997C7.33329 7.92235 9.42263 5.83301 12 5.83301C14.5773 5.83301 16.6666 7.92235 16.6666 10.4997Z" stroke="#B1B1B1" stroke-width="2.66667" stroke-linecap="round" stroke-linejoin="round"/>
</svg>
