<svg width="16" height="16" viewBox="0 0 16 16" fill="none" xmlns="http://www.w3.org/2000/svg">
<path fill-rule="evenodd" clip-rule="evenodd" d="M7.44101 0.666993H8.55907C8.9105 0.666981 9.21368 0.666971 9.46339 0.687373C9.72696 0.708907 9.9891 0.756451 10.2414 0.88498C10.6177 1.07673 10.9236 1.38269 11.1154 1.75901C11.2439 2.01127 11.2915 2.27341 11.313 2.53697C11.3313 2.76083 11.3332 3.02764 11.3334 3.33366H14C14.3682 3.33366 14.6667 3.63214 14.6667 4.00033C14.6667 4.36852 14.3682 4.66699 14 4.66699H13.3334V11.4945C13.3334 12.0312 13.3334 12.4741 13.3039 12.8349C13.2733 13.2096 13.2076 13.5541 13.0427 13.8776C12.7871 14.3794 12.3791 14.7873 11.8773 15.043C11.5538 15.2079 11.2093 15.2736 10.8346 15.3042C10.4738 15.3337 10.0309 15.3337 9.49426 15.3337H6.50582C5.96918 15.3337 5.52628 15.3337 5.16549 15.3042C4.79076 15.2736 4.44629 15.2079 4.12273 15.043C3.62097 14.7873 3.21302 14.3794 2.95736 13.8776C2.7925 13.5541 2.72679 13.2096 2.69617 12.8349C2.66669 12.4741 2.6667 12.0312 2.66671 11.4945L2.66671 4.66699H2.00004C1.63185 4.66699 1.33337 4.36852 1.33337 4.00033C1.33337 3.63214 1.63185 3.33366 2.00004 3.33366H4.66673C4.66691 3.02764 4.6688 2.76083 4.68709 2.53697C4.70862 2.27341 4.75616 2.01127 4.88469 1.75901C5.07644 1.38269 5.3824 1.07673 5.75873 0.88498C6.01098 0.756451 6.27313 0.708907 6.53669 0.687373C6.7864 0.666971 7.08958 0.666981 7.44101 0.666993ZM4.00004 4.66699V11.467C4.00004 12.038 4.00056 12.4262 4.02507 12.7263C4.04895 13.0186 4.09224 13.168 4.14537 13.2723C4.2732 13.5232 4.47717 13.7272 4.72805 13.855C4.83232 13.9081 4.98179 13.9514 5.27407 13.9753C5.57413 13.9998 5.96232 14.0003 6.53337 14.0003H9.46671C10.0378 14.0003 10.426 13.9998 10.726 13.9753C11.0183 13.9514 11.1678 13.9081 11.272 13.855C11.5229 13.7272 11.7269 13.5232 11.8547 13.2723C11.9078 13.168 11.9511 13.0186 11.975 12.7263C11.9995 12.4262 12 12.038 12 11.467V4.66699H4.00004ZM9.99999 3.33366H6.00009C6.00038 3.02359 6.00242 2.81165 6.01599 2.64555C6.03079 2.46444 6.05591 2.3973 6.0727 2.36433C6.13662 2.23889 6.23861 2.1369 6.36405 2.07299C6.39701 2.05619 6.46416 2.03108 6.64526 2.01628C6.83416 2.00085 7.08234 2.00033 7.46671 2.00033H8.53337C8.91774 2.00033 9.16593 2.00085 9.35482 2.01628C9.53592 2.03108 9.60307 2.05619 9.63603 2.07299C9.76148 2.1369 9.86346 2.23889 9.92738 2.36433C9.94417 2.3973 9.96929 2.46444 9.98409 2.64555C9.99766 2.81165 9.9997 3.02359 9.99999 3.33366ZM6.66671 7.00033C7.0349 7.00033 7.33337 7.2988 7.33337 7.66699V11.0003C7.33337 11.3685 7.0349 11.667 6.66671 11.667C6.29852 11.667 6.00004 11.3685 6.00004 11.0003V7.66699C6.00004 7.2988 6.29852 7.00033 6.66671 7.00033ZM9.33337 7.00033C9.70156 7.00033 10 7.2988 10 7.66699V11.0003C10 11.3685 9.70156 11.667 9.33337 11.667C8.96518 11.667 8.66671 11.3685 8.66671 11.0003V7.66699C8.66671 7.2988 8.96518 7.00033 9.33337 7.00033Z" fill="#B1B1B1"/>
</svg>
