<svg xmlns="http://www.w3.org/2000/svg" width="16" height="17" viewBox="0 0 16 17" fill="none">
  <path d="M12 7.27462L9.33337 4.60795M1.66669 14.9413L3.92293 14.6906C4.19859 14.66 4.33642 14.6446 4.46525 14.6029C4.57955 14.5659 4.68832 14.5137 4.78861 14.4475C4.90166 14.373 4.99972 14.2749 5.19584 14.0788L14 5.27462C14.7364 4.53824 14.7364 3.34433 14 2.60795C13.2637 1.87157 12.0698 1.87157 11.3334 2.60795L2.52917 11.4121C2.33305 11.6083 2.23499 11.7063 2.16045 11.8194C2.09431 11.9197 2.04203 12.0284 2.00503 12.1427C1.96332 12.2715 1.94801 12.4094 1.91738 12.685L1.66669 14.9413Z" stroke="#B1B1B1" stroke-width="1.33333" stroke-linecap="round" stroke-linejoin="round"/>
</svg>