<svg xmlns="http://www.w3.org/2000/svg" width="32" height="32" viewBox="0 0 32 32" fill="none">
  <path d="M28.6669 24.0002L19.8098 16.0002M12.1908 16.0002L3.33371 24.0002M2.66699 9.3335L13.5536 16.9541C14.4351 17.5712 14.8759 17.8797 15.3553 17.9992C15.7789 18.1048 16.2218 18.1048 16.6453 17.9992C17.1248 17.8797 17.5655 17.5712 18.4471 16.9541L29.3337 9.3335M9.06699 26.6668H22.9337C25.1739 26.6668 26.294 26.6668 27.1496 26.2309C27.9023 25.8474 28.5142 25.2354 28.8977 24.4828C29.3337 23.6271 29.3337 22.507 29.3337 20.2668V11.7335C29.3337 9.49329 29.3337 8.37318 28.8977 7.51753C28.5142 6.76489 27.9023 6.15296 27.1496 5.76947C26.294 5.3335 25.1739 5.3335 22.9337 5.3335H9.06699C6.82678 5.3335 5.70668 5.3335 4.85103 5.76947C4.09838 6.15296 3.48646 6.76489 3.10297 7.51753C2.66699 8.37318 2.66699 9.49329 2.66699 11.7335V20.2668C2.66699 22.507 2.66699 23.6271 3.10297 24.4828C3.48646 25.2354 4.09838 25.8474 4.85103 26.2309C5.70668 26.6668 6.82678 26.6668 9.06699 26.6668Z" stroke="#B1B1B1" stroke-width="2" stroke-linecap="round" stroke-linejoin="round"/>
</svg>