<svg xmlns="http://www.w3.org/2000/svg" width="206" height="205" viewBox="0 0 206 205" fill="none">
  <mask id="path-1-outside-1_4288_16865" maskUnits="userSpaceOnUse" x="0.84375" y="0" width="205" height="205" fill="black">
    <rect fill="white" x="0.84375" width="205" height="205"/>
    <path d="M204.156 102.156C204.156 158.023 158.867 203.312 103 203.312C47.1328 203.312 1.84375 158.023 1.84375 102.156C1.84375 46.2891 47.1328 1 103 1C158.867 1 204.156 46.2891 204.156 102.156ZM17.1183 102.156C17.1183 149.587 55.5687 188.037 103 188.037C150.431 188.037 188.881 149.587 188.881 102.156C188.881 54.725 150.431 16.2746 103 16.2746C55.5687 16.2746 17.1183 54.725 17.1183 102.156Z"/>
  </mask>
  <path d="M204.156 102.156C204.156 158.023 158.867 203.312 103 203.312C47.1328 203.312 1.84375 158.023 1.84375 102.156C1.84375 46.2891 47.1328 1 103 1C158.867 1 204.156 46.2891 204.156 102.156ZM17.1183 102.156C17.1183 149.587 55.5687 188.037 103 188.037C150.431 188.037 188.881 149.587 188.881 102.156C188.881 54.725 150.431 16.2746 103 16.2746C55.5687 16.2746 17.1183 54.725 17.1183 102.156Z" fill="#171717"/>
  <path d="M204.156 102.156C204.156 158.023 158.867 203.312 103 203.312C47.1328 203.312 1.84375 158.023 1.84375 102.156C1.84375 46.2891 47.1328 1 103 1C158.867 1 204.156 46.2891 204.156 102.156ZM17.1183 102.156C17.1183 149.587 55.5687 188.037 103 188.037C150.431 188.037 188.881 149.587 188.881 102.156C188.881 54.725 150.431 16.2746 103 16.2746C55.5687 16.2746 17.1183 54.725 17.1183 102.156Z" stroke="#202020" stroke-width="2" stroke-dasharray="12 12" mask="url(#path-1-outside-1_4288_16865)"/>
</svg>