<svg xmlns="http://www.w3.org/2000/svg" width="17" height="16" viewBox="0 0 17 16" fill="none">
  <path fill-rule="evenodd" clip-rule="evenodd" d="M6.33913 0.666504H10.6609C11.1975 0.666496 11.6404 0.666489 12.0012 0.695967C12.3759 0.726584 12.7204 0.792293 13.044 0.957154C13.5457 1.21282 13.9537 1.62076 14.2094 2.12253C14.3742 2.44609 14.4399 2.79056 14.4705 3.16529C14.5 3.52608 14.5 3.96898 14.5 4.50562V8.33317C14.5 8.70136 14.2015 8.99984 13.8333 8.99984C13.4651 8.99984 13.1667 8.70136 13.1667 8.33317V4.53317C13.1667 3.96212 13.1661 3.57392 13.1416 3.27386C13.1178 2.98159 13.0745 2.83212 13.0213 2.72785C12.8935 2.47697 12.6895 2.27299 12.4387 2.14516C12.3344 2.09204 12.1849 2.04875 11.8926 2.02487C11.5926 2.00036 11.2044 1.99984 10.6333 1.99984H6.36667C5.79561 1.99984 5.40742 2.00036 5.10736 2.02487C4.81508 2.04875 4.66561 2.09204 4.56135 2.14516C4.31046 2.27299 4.10649 2.47697 3.97866 2.72785C3.92553 2.83212 3.88225 2.98159 3.85837 3.27386C3.83385 3.57392 3.83333 3.96212 3.83333 4.53317V11.4665C3.83333 12.0376 3.83385 12.4258 3.85837 12.7258C3.88225 13.0181 3.92553 13.1676 3.97866 13.2718C4.10649 13.5227 4.31046 13.7267 4.56135 13.8545C4.66562 13.9076 4.81508 13.9509 5.10734 13.9748C5.40738 13.9993 5.79555 13.9998 6.36657 13.9998H8.83333C9.20152 13.9998 9.5 14.2983 9.5 14.6665C9.5 15.0347 9.20152 15.3332 8.83333 15.3332H6.33903C5.80242 15.3332 5.35954 15.3332 4.99876 15.3037C4.62404 15.2731 4.27958 15.2074 3.95603 15.0425C3.45426 14.7869 3.04631 14.3789 2.79065 13.8771C2.62579 13.5536 2.56008 13.2091 2.52946 12.8344C2.49998 12.4736 2.49999 12.0307 2.5 11.494V4.50564C2.49999 3.96899 2.49998 3.52608 2.52946 3.16529C2.56008 2.79056 2.62579 2.44609 2.79065 2.12253C3.04631 1.62076 3.45426 1.21282 3.95603 0.957154C4.27958 0.792293 4.62405 0.726584 4.99878 0.695967C5.35958 0.666489 5.80249 0.666496 6.33913 0.666504ZM5.16667 4.6665C5.16667 4.29831 5.46514 3.99984 5.83333 3.99984H11.1667C11.5349 3.99984 11.8333 4.29831 11.8333 4.6665C11.8333 5.03469 11.5349 5.33317 11.1667 5.33317H5.83333C5.46514 5.33317 5.16667 5.03469 5.16667 4.6665ZM5.16667 7.33317C5.16667 6.96498 5.46514 6.6665 5.83333 6.6665H9.83333C10.2015 6.6665 10.5 6.96498 10.5 7.33317C10.5 7.70136 10.2015 7.99984 9.83333 7.99984H5.83333C5.46514 7.99984 5.16667 7.70136 5.16667 7.33317ZM5.16667 9.99984C5.16667 9.63165 5.46514 9.33317 5.83333 9.33317H7.16667C7.53486 9.33317 7.83333 9.63165 7.83333 9.99984C7.83333 10.368 7.53486 10.6665 7.16667 10.6665H5.83333C5.46514 10.6665 5.16667 10.368 5.16667 9.99984ZM12.5 9.99984C12.8682 9.99984 13.1667 10.2983 13.1667 10.6665V13.057L14.0286 12.1951C14.2889 11.9347 14.7111 11.9347 14.9714 12.1951C15.2318 12.4555 15.2318 12.8776 14.9714 13.1379L12.9714 15.1379C12.7111 15.3983 12.2889 15.3983 12.0286 15.1379L10.0286 13.1379C9.76825 12.8776 9.76825 12.4555 10.0286 12.1951C10.2889 11.9347 10.7111 11.9347 10.9714 12.1951L11.8333 13.057V10.6665C11.8333 10.2983 12.1318 9.99984 12.5 9.99984Z" fill="#E9E9E9"/>
</svg>