<svg xmlns="http://www.w3.org/2000/svg" width="20" height="20" viewBox="0 0 20 20" fill="none">
  <g clip-path="url(#clip0_3292_60547)">
    <path d="M9.99996 5.00033V18.3337M9.99996 5.00033H7.05353C6.6194 5.00033 6.20304 4.82473 5.89606 4.51217C5.58908 4.19961 5.41663 3.77569 5.41663 3.33366C5.41663 2.89163 5.58908 2.46771 5.89606 2.15515C6.20304 1.84259 6.6194 1.66699 7.05353 1.66699C9.3452 1.66699 9.99996 5.00033 9.99996 5.00033ZM9.99996 5.00033H12.9464C13.3805 5.00033 13.7969 4.82473 14.1039 4.51217C14.4108 4.19961 14.5833 3.77569 14.5833 3.33366C14.5833 2.89163 14.4108 2.46771 14.1039 2.15515C13.7969 1.84259 13.3805 1.66699 12.9464 1.66699C10.6547 1.66699 9.99996 5.00033 9.99996 5.00033ZM16.6666 9.16699V15.667C16.6666 16.6004 16.6666 17.0671 16.485 17.4236C16.3252 17.7372 16.0702 17.9922 15.7566 18.152C15.4001 18.3337 14.9334 18.3337 14 18.3337L5.99996 18.3337C5.06654 18.3337 4.59983 18.3337 4.24331 18.152C3.9297 17.9922 3.67474 17.7372 3.51495 17.4236C3.33329 17.0671 3.33329 16.6004 3.33329 15.667V9.16699M1.66663 6.33366L1.66663 7.83366C1.66663 8.30037 1.66663 8.53372 1.75745 8.71198C1.83735 8.86879 1.96483 8.99627 2.12163 9.07616C2.29989 9.16699 2.53325 9.16699 2.99996 9.16699L17 9.16699C17.4667 9.16699 17.7 9.16699 17.8783 9.07616C18.0351 8.99627 18.1626 8.86879 18.2425 8.71198C18.3333 8.53372 18.3333 8.30037 18.3333 7.83366V6.33366C18.3333 5.86695 18.3333 5.63359 18.2425 5.45533C18.1626 5.29853 18.0351 5.17105 17.8783 5.09115C17.7 5.00033 17.4667 5.00033 17 5.00033L2.99996 5.00033C2.53325 5.00033 2.29989 5.00033 2.12163 5.09115C1.96483 5.17105 1.83735 5.29853 1.75745 5.45533C1.66663 5.63359 1.66663 5.86695 1.66663 6.33366Z" stroke="#B1B1B1" stroke-width="1.66667" stroke-linecap="round" stroke-linejoin="round"/>
  </g>
  <defs>
    <clipPath id="clip0_3292_60547">
      <rect width="20" height="20" fill="white"/>
    </clipPath>
  </defs>
</svg>