<svg xmlns="http://www.w3.org/2000/svg" width="18" height="18" viewBox="0 0 18 18" fill="none">
  <path d="M7.5 12H10.5M6.6 16.5H11.4C12.6601 16.5 13.2902 16.5 13.7715 16.2548C14.1948 16.039 14.539 15.6948 14.7548 15.2715C15 14.7902 15 14.1601 15 12.9V5.1C15 3.83988 15 3.20982 14.7548 2.72852C14.539 2.30516 14.1948 1.96095 13.7715 1.74524C13.2902 1.5 12.6601 1.5 11.4 1.5H6.6C5.33988 1.5 4.70982 1.5 4.22852 1.74524C3.80516 1.96095 3.46095 2.30516 3.24524 2.72852C3 3.20982 3 3.83988 3 5.1V12.9C3 14.1601 3 14.7902 3.24524 15.2715C3.46095 15.6948 3.80516 16.039 4.22852 16.2548C4.70982 16.5 5.33988 16.5 6.6 16.5ZM11.25 6.75C11.25 7.99264 10.2426 9 9 9C7.75736 9 6.75 7.99264 6.75 6.75C6.75 5.50736 7.75736 4.5 9 4.5C10.2426 4.5 11.25 5.50736 11.25 6.75Z" stroke="#B1B1B1" stroke-width="1.5" stroke-linecap="round" stroke-linejoin="round"/>
</svg>