<svg width="20" height="20" viewBox="0 0 20 20" fill="none" xmlns="http://www.w3.org/2000/svg">
<g clip-path="url(#clip0_1116_30804)">
<path fill-rule="evenodd" clip-rule="evenodd" d="M10.0002 2.50016C5.85803 2.50016 2.50016 5.85803 2.50016 10.0002C2.50016 14.1423 5.85803 17.5002 10.0002 17.5002C14.1423 17.5002 17.5002 14.1423 17.5002 10.0002C17.5002 5.85803 14.1423 2.50016 10.0002 2.50016ZM0.833496 10.0002C0.833496 4.93755 4.93755 0.833496 10.0002 0.833496C15.0628 0.833496 19.1668 4.93755 19.1668 10.0002C19.1668 15.0628 15.0628 19.1668 10.0002 19.1668C4.93755 19.1668 0.833496 15.0628 0.833496 10.0002ZM9.16683 6.66683C9.16683 6.20659 9.53993 5.8335 10.0002 5.8335H10.0085C10.4687 5.8335 10.8418 6.20659 10.8418 6.66683C10.8418 7.12707 10.4687 7.50016 10.0085 7.50016H10.0002C9.53993 7.50016 9.16683 7.12707 9.16683 6.66683ZM10.0002 9.16683C10.4604 9.16683 10.8335 9.53993 10.8335 10.0002V13.3335C10.8335 13.7937 10.4604 14.1668 10.0002 14.1668C9.53993 14.1668 9.16683 13.7937 9.16683 13.3335V10.0002C9.16683 9.53993 9.53993 9.16683 10.0002 9.16683Z" fill="#323232"/>
</g>
<defs>
<clipPath id="clip0_1116_30804">
<rect width="20" height="20" fill="white"/>
</clipPath>
</defs>
</svg>
