<svg xmlns="http://www.w3.org/2000/svg" width="40" height="40" viewBox="0 0 40 40" fill="none">
  <path fill-rule="evenodd" clip-rule="evenodd" d="M14.9993 18.332C12.2379 18.332 9.99935 20.5706 9.99935 23.332C9.99935 26.0935 12.2379 28.332 14.9993 28.332C17.7608 28.332 19.9993 26.0935 19.9993 23.332C19.9993 20.5706 17.7608 18.332 14.9993 18.332ZM6.66602 23.332C6.66602 18.7297 10.397 14.9987 14.9993 14.9987C19.6017 14.9987 23.3327 18.7297 23.3327 23.332C23.3327 27.9344 19.6017 31.6654 14.9993 31.6654C10.397 31.6654 6.66602 27.9344 6.66602 23.332Z" fill="url(#paint0_linear_2966_26182)"/>
  <path fill-rule="evenodd" clip-rule="evenodd" d="M29.5112 8.82019C30.1621 9.47106 30.1621 10.5263 29.5112 11.1772L28.1897 12.4987L31.1779 15.4869C31.8287 16.1377 31.8287 17.193 31.1779 17.8439C30.527 18.4948 29.4717 18.4948 28.8208 17.8439L25.8327 14.8557L21.1779 19.5105C20.527 20.1614 19.4717 20.1614 18.8208 19.5105C18.17 18.8597 18.17 17.8044 18.8208 17.1535L27.1542 8.82019C27.805 8.16931 28.8603 8.16931 29.5112 8.82019Z" fill="url(#paint1_linear_2966_26182)"/>
  <defs>
    <linearGradient id="paint0_linear_2966_26182" x1="42.777" y1="-67.1124" x2="-31.7636" y2="-55.974" gradientUnits="userSpaceOnUse">
      <stop stop-color="#009BD2"/>
      <stop offset="1" stop-color="#3B6B7C"/>
    </linearGradient>
    <linearGradient id="paint1_linear_2966_26182" x1="42.777" y1="-67.1124" x2="-31.7636" y2="-55.974" gradientUnits="userSpaceOnUse">
      <stop stop-color="#009BD2"/>
      <stop offset="1" stop-color="#3B6B7C"/>
    </linearGradient>
  </defs>
</svg>