<svg xmlns="http://www.w3.org/2000/svg" width="20" height="21" viewBox="0 0 20 21" fill="none">
  <path d="M13.3334 3.97819C14.1084 3.97819 14.4958 3.97819 14.8138 4.06338C15.6765 4.29454 16.3504 4.96841 16.5815 5.83114C16.6667 6.14906 16.6667 6.53655 16.6667 7.31152V14.9782C16.6667 16.3783 16.6667 17.0784 16.3942 17.6132C16.1545 18.0836 15.7721 18.466 15.3017 18.7057C14.7669 18.9782 14.0668 18.9782 12.6667 18.9782H7.33337C5.93324 18.9782 5.23318 18.9782 4.6984 18.7057C4.22799 18.466 3.84554 18.0836 3.60586 17.6132C3.33337 17.0784 3.33337 16.3783 3.33337 14.9782V7.31152C3.33337 6.53655 3.33337 6.14906 3.41856 5.83114C3.64973 4.96841 4.3236 4.29454 5.18633 4.06338C5.50424 3.97819 5.89173 3.97819 6.66671 3.97819M7.50004 13.1449L9.16671 14.8115L12.9167 11.0615M8.00004 5.64486H12C12.4668 5.64486 12.7001 5.64486 12.8784 5.55403C13.0352 5.47413 13.1627 5.34665 13.2425 5.18985C13.3334 5.01159 13.3334 4.77823 13.3334 4.31152V3.64486C13.3334 3.17815 13.3334 2.94479 13.2425 2.76653C13.1627 2.60973 13.0352 2.48225 12.8784 2.40235C12.7001 2.31152 12.4668 2.31152 12 2.31152H8.00004C7.53333 2.31152 7.29997 2.31152 7.12172 2.40235C6.96491 2.48225 6.83743 2.60973 6.75754 2.76653C6.66671 2.94479 6.66671 3.17815 6.66671 3.64486V4.31152C6.66671 4.77823 6.66671 5.01159 6.75754 5.18985C6.83743 5.34665 6.96491 5.47413 7.12172 5.55403C7.29997 5.64486 7.53333 5.64486 8.00004 5.64486Z" stroke="#B1B1B1" stroke-width="1.66667" stroke-linecap="round" stroke-linejoin="round"/>
</svg>