<svg xmlns="http://www.w3.org/2000/svg" width="16" height="16" viewBox="0 0 16 16" fill="none">
  <path d="M13.3337 6.66634V4.53301C13.3337 3.4129 13.3337 2.85285 13.1157 2.42503C12.9239 2.0487 12.618 1.74274 12.2416 1.55099C11.8138 1.33301 11.2538 1.33301 10.1337 1.33301H5.86699C4.74689 1.33301 4.18683 1.33301 3.75901 1.55099C3.38269 1.74274 3.07673 2.0487 2.88498 2.42503C2.66699 2.85285 2.66699 3.4129 2.66699 4.53301V11.4663C2.66699 12.5864 2.66699 13.1465 2.88498 13.5743C3.07673 13.9506 3.38269 14.2566 3.75901 14.4484C4.18683 14.6663 4.74689 14.6663 5.86699 14.6663H7.00033M8.66699 7.33301H5.33366M7.33366 9.99967H5.33366M10.667 4.66634H5.33366M12.8337 11.333V10.1663C12.8337 9.52201 12.3113 8.99967 11.667 8.99967C11.0227 8.99967 10.5003 9.52201 10.5003 10.1663V11.333M10.4003 13.9997H12.9337C13.307 13.9997 13.4937 13.9997 13.6363 13.927C13.7618 13.8631 13.8637 13.7611 13.9277 13.6357C14.0003 13.4931 14.0003 13.3064 14.0003 12.933V12.3997C14.0003 12.0263 14.0003 11.8396 13.9277 11.697C13.8637 11.5716 13.7618 11.4696 13.6363 11.4057C13.4937 11.333 13.307 11.333 12.9337 11.333H10.4003C10.027 11.333 9.84027 11.333 9.69767 11.4057C9.57222 11.4696 9.47024 11.5716 9.40632 11.697C9.33366 11.8396 9.33366 12.0263 9.33366 12.3997V12.933C9.33366 13.3064 9.33366 13.4931 9.40632 13.6357C9.47024 13.7611 9.57222 13.8631 9.69767 13.927C9.84027 13.9997 10.027 13.9997 10.4003 13.9997Z" stroke="#E9E9E9" stroke-width="1.33333" stroke-linecap="round" stroke-linejoin="round"/>
</svg>