<svg width="20" height="20" viewBox="0 0 20 20" fill="none" xmlns="http://www.w3.org/2000/svg">
<path d="M16.2667 6.02354L16.275 6.0152L13.6167 3.35687C13.375 3.1152 12.975 3.1152 12.7333 3.35687C12.4917 3.59854 12.4917 3.99854 12.7333 4.2402L14.05 5.55687C13.175 5.8902 12.5833 6.78187 12.7333 7.8152C12.8667 8.73187 13.65 9.47353 14.5667 9.57353C14.9583 9.6152 15.3 9.54853 15.625 9.40687V15.4152C15.625 15.8735 15.25 16.2485 14.7917 16.2485C14.3333 16.2485 13.9583 15.8735 13.9583 15.4152V11.6652C13.9583 10.7485 13.2083 9.99854 12.2917 9.99854H11.4583V4.1652C11.4583 3.24854 10.7083 2.49854 9.79167 2.49854H4.79167C3.875 2.49854 3.125 3.24854 3.125 4.1652V16.6652C3.125 17.1235 3.5 17.4985 3.95833 17.4985H10.625C11.0833 17.4985 11.4583 17.1235 11.4583 16.6652V11.2485H12.7083V15.2985C12.7083 16.3902 13.4917 17.3819 14.575 17.4902C15.825 17.6152 16.875 16.6402 16.875 15.4152V7.49854C16.875 6.92353 16.6417 6.39854 16.2667 6.02354ZM9.79167 8.33187H4.79167V4.99854C4.79167 4.5402 5.16667 4.1652 5.625 4.1652H8.95833C9.41667 4.1652 9.79167 4.5402 9.79167 4.99854V8.33187ZM14.7917 8.33187C14.3333 8.33187 13.9583 7.95687 13.9583 7.49854C13.9583 7.0402 14.3333 6.6652 14.7917 6.6652C15.25 6.6652 15.625 7.0402 15.625 7.49854C15.625 7.95687 15.25 8.33187 14.7917 8.33187Z" fill="#B1B1B1"/>
</svg>
