<svg width="20" height="21" viewBox="0 0 20 21" fill="none" xmlns="http://www.w3.org/2000/svg">
<g id="log-out-02">
<path id="Icon (Stroke)" fill-rule="evenodd" clip-rule="evenodd" d="M7.93267 3.89053C7.74744 3.8409 7.4966 3.83374 6.66797 3.83374H6.2513C5.65747 3.83374 5.25384 3.83419 4.94014 3.85559C4.63393 3.87649 4.47475 3.91453 4.3635 3.96061C3.95512 4.12976 3.63066 4.45422 3.4615 4.8626C3.41542 4.97385 3.37738 5.13303 3.35649 5.43924C3.33509 5.75294 3.33464 6.15658 3.33464 6.75041V14.2504C3.33464 14.8442 3.33509 15.2479 3.35649 15.5616C3.37738 15.8678 3.41542 16.027 3.4615 16.1382C3.63066 16.5466 3.95512 16.871 4.3635 17.0402C4.47475 17.0863 4.63393 17.1243 4.94014 17.1452C5.25384 17.1666 5.65747 17.1671 6.2513 17.1671H6.66797C7.4966 17.1671 7.74744 17.1599 7.93267 17.1103C8.50782 16.9562 8.95707 16.5069 9.11118 15.9318C9.16081 15.7465 9.16797 15.4957 9.16797 14.6671C9.16797 14.2068 9.54107 13.8337 10.0013 13.8337C10.4615 13.8337 10.8346 14.2068 10.8346 14.6671C10.8346 14.7059 10.8347 14.7441 10.8347 14.7817C10.835 15.4445 10.8353 15.9368 10.7211 16.3631C10.4128 17.5134 9.51434 18.4119 8.36403 18.7202C7.93766 18.8344 7.44544 18.8341 6.78262 18.8338C6.74496 18.8338 6.70675 18.8337 6.66797 18.8337H6.22274C5.66458 18.8337 5.20386 18.8338 4.82669 18.808C4.43562 18.7813 4.07387 18.7242 3.72569 18.58C2.90893 18.2417 2.26002 17.5928 1.9217 16.776C1.77748 16.4278 1.72037 16.0661 1.69369 15.675C1.66796 15.2978 1.66796 14.8371 1.66797 14.279V6.72185C1.66796 6.16369 1.66796 5.70296 1.69369 5.32579C1.72037 4.93472 1.77748 4.57297 1.92171 4.22479C2.26002 3.40803 2.90893 2.75912 3.72569 2.42081C4.07387 2.27659 4.43562 2.21948 4.82669 2.19279C5.20386 2.16706 5.66459 2.16706 6.22275 2.16707L6.66797 2.16707C6.70675 2.16707 6.74496 2.16705 6.78262 2.16703C7.44544 2.16667 7.93766 2.16641 8.36403 2.28065C9.51434 2.58888 10.4128 3.48737 10.7211 4.63768C10.8353 5.06405 10.835 5.55627 10.8347 6.21909C10.8347 6.25675 10.8346 6.29496 10.8346 6.33374C10.8346 6.79398 10.4615 7.16707 10.0013 7.16707C9.54107 7.16707 9.16797 6.79398 9.16797 6.33374C9.16797 5.50511 9.16081 5.25427 9.11118 5.06904C8.95707 4.49389 8.50782 4.04464 7.93267 3.89053ZM12.7454 5.74448C13.0708 5.41905 13.5985 5.41905 13.9239 5.74448L18.0906 9.91115C18.416 10.2366 18.416 10.7642 18.0906 11.0897L13.9239 15.2563C13.5985 15.5818 13.0708 15.5818 12.7454 15.2563C12.4199 14.9309 12.4199 14.4033 12.7454 14.0778L15.4895 11.3337H7.5013C7.04107 11.3337 6.66797 10.9606 6.66797 10.5004C6.66797 10.0402 7.04107 9.66707 7.5013 9.66707H15.4895L12.7454 6.92299C12.4199 6.59756 12.4199 6.06992 12.7454 5.74448Z" fill="#A43C3C"/>
</g>
</svg>
