<svg width="18" height="18" viewBox="0 0 18 18" fill="none" xmlns="http://www.w3.org/2000/svg">
<path fill-rule="evenodd" clip-rule="evenodd" d="M6.93169 2.39053C6.74646 2.3409 6.49562 2.33374 5.66699 2.33374H5.25033C4.6565 2.33374 4.25286 2.33419 3.93916 2.35559C3.63295 2.37649 3.47377 2.41453 3.36252 2.46061C2.95414 2.62976 2.62968 2.95422 2.46053 3.3626C2.41445 3.47385 2.37641 3.63303 2.35551 3.93924C2.33411 4.25294 2.33366 4.65658 2.33366 5.25041V12.7504C2.33366 13.3442 2.33411 13.7479 2.35551 14.0616C2.37641 14.3678 2.41445 14.527 2.46053 14.6382C2.62968 15.0466 2.95414 15.371 3.36252 15.5402C3.47377 15.5863 3.63295 15.6243 3.93916 15.6452C4.25286 15.6666 4.6565 15.6671 5.25033 15.6671H5.66699C6.49562 15.6671 6.74646 15.6599 6.93169 15.6103C7.50684 15.4562 7.95609 15.0069 8.1102 14.4318C8.15984 14.2465 8.16699 13.9957 8.16699 13.1671C8.16699 12.7068 8.54009 12.3337 9.00033 12.3337C9.46056 12.3337 9.83366 12.7068 9.83366 13.1671C9.83366 13.2059 9.83368 13.2441 9.8337 13.2817C9.83406 13.9445 9.83433 14.4368 9.72008 14.8631C9.41186 16.0134 8.51336 16.9119 7.36306 17.2202C6.93668 17.3344 6.44446 17.3341 5.78164 17.3338C5.74398 17.3338 5.70577 17.3337 5.66699 17.3337H5.22177C4.66361 17.3337 4.20288 17.3338 3.82571 17.308C3.43464 17.2813 3.07289 17.2242 2.72471 17.08C1.90795 16.7417 1.25904 16.0928 0.920728 15.276C0.776507 14.9278 0.719396 14.5661 0.692713 14.175C0.666979 13.7978 0.666985 13.3371 0.666992 12.779V5.22185C0.666985 4.66369 0.666979 4.20296 0.692713 3.82579C0.719396 3.43472 0.776508 3.07297 0.920729 2.72479C1.25904 1.90803 1.90795 1.25912 2.72472 0.920807C3.07289 0.776587 3.43464 0.719476 3.82571 0.692793C4.20288 0.667059 4.66361 0.667065 5.22177 0.667072L5.66699 0.667073C5.70577 0.667073 5.74398 0.667052 5.78164 0.667032C6.44446 0.666673 6.93668 0.666406 7.36306 0.780653C8.51336 1.08888 9.41186 1.98737 9.72008 3.13768C9.83433 3.56405 9.83406 4.05627 9.8337 4.71909C9.83368 4.75675 9.83366 4.79496 9.83366 4.83374C9.83366 5.29398 9.46056 5.66707 9.00033 5.66707C8.54009 5.66707 8.16699 5.29398 8.16699 4.83374C8.16699 4.00511 8.15984 3.75427 8.1102 3.56904C7.95609 2.99389 7.50684 2.54464 6.93169 2.39053ZM11.7444 4.24448C12.0698 3.91905 12.5975 3.91905 12.9229 4.24448L17.0896 8.41115C17.415 8.73659 17.415 9.26423 17.0896 9.58966L12.9229 13.7563C12.5975 14.0818 12.0698 14.0818 11.7444 13.7563C11.419 13.4309 11.419 12.9033 11.7444 12.5778L14.4885 9.83374H6.50033C6.04009 9.83374 5.66699 9.46064 5.66699 9.00041C5.66699 8.54017 6.04009 8.16707 6.50033 8.16707H14.4885L11.7444 5.42299C11.419 5.09756 11.419 4.56992 11.7444 4.24448Z" fill="#B1B1B1"/>
</svg>
