<svg width="21" height="20" viewBox="0 0 21 20" fill="none" xmlns="http://www.w3.org/2000/svg">
<path d="M2.16663 5.83301L8.97072 10.5959C9.5217 10.9816 9.79719 11.1744 10.0968 11.2491C10.3615 11.3151 10.6384 11.3151 10.9031 11.2491C11.2027 11.1744 11.4782 10.9816 12.0292 10.5959L18.8333 5.83301M6.16663 16.6663H14.8333C16.2334 16.6663 16.9335 16.6663 17.4683 16.3939C17.9387 16.1542 18.3211 15.7717 18.5608 15.3013C18.8333 14.7665 18.8333 14.0665 18.8333 12.6663V7.33301C18.8333 5.93288 18.8333 5.23281 18.5608 4.69803C18.3211 4.22763 17.9387 3.84517 17.4683 3.60549C16.9335 3.33301 16.2334 3.33301 14.8333 3.33301H6.16663C4.76649 3.33301 4.06643 3.33301 3.53165 3.60549C3.06124 3.84517 2.67879 4.22763 2.43911 4.69803C2.16663 5.23281 2.16663 5.93288 2.16663 7.33301V12.6663C2.16663 14.0665 2.16663 14.7665 2.43911 15.3013C2.67879 15.7717 3.06124 16.1542 3.53165 16.3939C4.06643 16.6663 4.76649 16.6663 6.16663 16.6663Z" stroke="#B1B1B1" stroke-width="1.66667" stroke-linecap="round" stroke-linejoin="round"/>
</svg>
