<svg width="20" height="21" viewBox="0 0 20 21" fill="none" xmlns="http://www.w3.org/2000/svg">
<path d="M10 11.4411C10.4603 11.4411 10.8334 11.068 10.8334 10.6077C10.8334 10.1475 10.4603 9.77441 10 9.77441C9.5398 9.77441 9.16671 10.1475 9.16671 10.6077C9.16671 11.068 9.5398 11.4411 10 11.4411Z" stroke="#B1B1B1" stroke-width="2" stroke-linecap="round" stroke-linejoin="round"/>
<path d="M15.8334 11.4411C16.2936 11.4411 16.6667 11.068 16.6667 10.6077C16.6667 10.1475 16.2936 9.77441 15.8334 9.77441C15.3731 9.77441 15 10.1475 15 10.6077C15 11.068 15.3731 11.4411 15.8334 11.4411Z" stroke="#B1B1B1" stroke-width="2" stroke-linecap="round" stroke-linejoin="round"/>
<path d="M4.16671 11.4411C4.62694 11.4411 5.00004 11.068 5.00004 10.6077C5.00004 10.1475 4.62694 9.77441 4.16671 9.77441C3.70647 9.77441 3.33337 10.1475 3.33337 10.6077C3.33337 11.068 3.70647 11.4411 4.16671 11.4411Z" stroke="#B1B1B1" stroke-width="2" stroke-linecap="round" stroke-linejoin="round"/>
</svg>
