<svg xmlns="http://www.w3.org/2000/svg" width="16" height="16" viewBox="0 0 16 16" fill="none">
  <path d="M9.33334 14H6.66667M12 5.33337C12 4.27251 11.5786 3.25509 10.8284 2.50495C10.0783 1.7548 9.06087 1.33337 8 1.33337C6.93914 1.33337 5.92172 1.7548 5.17158 2.50495C4.42143 3.25509 4 4.27251 4 5.33337C4 7.3935 3.48032 8.80401 2.89978 9.73698C2.41009 10.524 2.16524 10.9174 2.17422 11.0272C2.18416 11.1488 2.20991 11.1951 2.30785 11.2678C2.39631 11.3334 2.79506 11.3334 3.59257 11.3334H12.4074C13.2049 11.3334 13.6037 11.3334 13.6922 11.2678C13.7901 11.1951 13.8158 11.1488 13.8258 11.0272C13.8348 10.9174 13.5899 10.524 13.1002 9.73698C12.5197 8.80401 12 7.3935 12 5.33337Z" stroke="#E9E9E9" stroke-width="1.33333" stroke-linecap="round" stroke-linejoin="round"/>
</svg>