<svg width="20" height="21" viewBox="0 0 20 21" fill="none" xmlns="http://www.w3.org/2000/svg">
<path d="M4.6 2.95228L3.3 4.68561C3.04251 5.02893 2.91377 5.20058 2.91676 5.34427C2.91936 5.46931 2.97799 5.58657 3.07646 5.66367C3.18962 5.75228 3.40419 5.75228 3.83333 5.75228H16.1667C16.5958 5.75228 16.8104 5.75228 16.9235 5.66367C17.022 5.58657 17.0806 5.46931 17.0832 5.34427C17.0862 5.20058 16.9575 5.02893 16.7 4.68561L15.4 2.95228M4.6 2.95228C4.74667 2.75672 4.82 2.65895 4.91294 2.58843C4.99525 2.52597 5.08846 2.47936 5.18782 2.45098C5.3 2.41895 5.42222 2.41895 5.66667 2.41895H14.3333C14.5778 2.41895 14.7 2.41895 14.8122 2.45098C14.9115 2.47936 15.0047 2.52597 15.0871 2.58843C15.18 2.65895 15.2533 2.75672 15.4 2.95228M4.6 2.95228L3.03333 5.04117C2.83545 5.30501 2.73651 5.43693 2.66625 5.58221C2.6039 5.71113 2.55843 5.84754 2.53096 5.98808C2.5 6.14646 2.5 6.31136 2.5 6.64117L2.5 16.4189C2.5 17.3524 2.5 17.8191 2.68166 18.1756C2.84144 18.4892 3.09641 18.7442 3.41002 18.904C3.76654 19.0856 4.23325 19.0856 5.16667 19.0856L14.8333 19.0856C15.7668 19.0856 16.2335 19.0856 16.59 18.904C16.9036 18.7442 17.1586 18.4892 17.3183 18.1756C17.5 17.8191 17.5 17.3524 17.5 16.4189V6.64117C17.5 6.31136 17.5 6.14646 17.469 5.98808C17.4416 5.84754 17.3961 5.71113 17.3338 5.58221C17.2635 5.43694 17.1646 5.30501 16.9667 5.04117L15.4 2.95228M13.3333 9.08561C13.3333 9.96967 12.9821 10.8175 12.357 11.4426C11.7319 12.0678 10.8841 12.4189 10 12.4189C9.11594 12.4189 8.2681 12.0678 7.64298 11.4426C7.01786 10.8175 6.66667 9.96967 6.66667 9.08561" stroke="#B1B1B1" stroke-width="1.66667" stroke-linecap="round" stroke-linejoin="round"/>
</svg>
