<svg width="16" height="17" viewBox="0 0 16 17" fill="none" xmlns="http://www.w3.org/2000/svg">
<path fill-rule="evenodd" clip-rule="evenodd" d="M5.83913 1.94141H10.1609C10.6975 1.9414 11.1404 1.94139 11.5012 1.97087C11.8759 2.00149 12.2204 2.0672 12.544 2.23206C13.0457 2.48772 13.4537 2.89567 13.7094 3.39743C13.8742 3.72099 13.9399 4.06546 13.9705 4.44019C14 4.80098 14 5.24388 14 5.78052V14.6081C14 14.8588 13.8593 15.0884 13.6359 15.2021C13.4124 15.3159 13.144 15.2947 12.9412 15.1472L11.5193 14.1131L10.2498 15.1287C10.0152 15.3163 9.68415 15.3239 9.44122 15.1472L8 14.0991L6.55878 15.1472C6.31585 15.3239 5.98477 15.3163 5.7502 15.1287L4.48074 14.1131L3.05878 15.1472C2.85599 15.2947 2.5876 15.3159 2.36415 15.2021C2.1407 15.0884 2 14.8588 2 14.6081L2 5.78054C1.99999 5.24389 1.99998 4.80099 2.02946 4.44019C2.06008 4.06546 2.12579 3.72099 2.29065 3.39743C2.54631 2.89567 2.95426 2.48772 3.45603 2.23206C3.77958 2.0672 4.12405 2.00149 4.49878 1.97087C4.85958 1.94139 5.30249 1.9414 5.83913 1.94141ZM4.60736 3.29977C4.31508 3.32365 4.16561 3.36694 4.06135 3.42006C3.81046 3.5479 3.60649 3.75187 3.47866 4.00275C3.42553 4.10702 3.38225 4.25649 3.35837 4.54877C3.33385 4.84882 3.33333 5.23702 3.33333 5.80807V13.2989L4.10789 12.7356C4.35082 12.5589 4.6819 12.5665 4.91646 12.7542L6.18593 13.7697L7.60789 12.7356C7.84165 12.5656 8.15835 12.5656 8.39212 12.7356L9.81407 13.7697L11.0835 12.7542C11.3181 12.5665 11.6492 12.5589 11.8921 12.7356L12.6667 13.2989V5.80807C12.6667 5.23702 12.6661 4.84882 12.6416 4.54877C12.6178 4.25649 12.5745 4.10702 12.5213 4.00275C12.3935 3.75187 12.1895 3.5479 11.9387 3.42006C11.8344 3.36694 11.6849 3.32365 11.3926 3.29977C11.0926 3.27526 10.7044 3.27474 10.1333 3.27474H5.86667C5.29561 3.27474 4.90742 3.27526 4.60736 3.29977Z" fill="#B1B1B1"/>
</svg>
