<svg width="20" height="20" viewBox="0 0 20 20" fill="none" xmlns="http://www.w3.org/2000/svg">
<path fill-rule="evenodd" clip-rule="evenodd" d="M4.14009 2C4.14894 2 4.1578 2 4.16667 2H7.33334C7.34221 2 7.35107 2 7.35992 2C7.57024 1.99998 7.77506 1.99995 7.94853 2.01413C8.13902 2.02969 8.3638 2.06641 8.58999 2.18166C8.90359 2.34145 9.15856 2.59642 9.31835 2.91002C9.4336 3.13621 9.47032 3.36098 9.48588 3.55148C9.50006 3.72495 9.50003 3.92978 9.50001 4.1401V7.3599C9.50003 7.57023 9.50006 7.77506 9.48588 7.94853C9.47032 8.13902 9.4336 8.3638 9.31835 8.58999C9.15856 8.90359 8.90359 9.15856 8.58999 9.31835C8.3638 9.4336 8.13902 9.47032 7.94853 9.48588C7.77506 9.50006 7.57023 9.50003 7.3599 9.50001H4.1401C3.92978 9.50003 3.72495 9.50006 3.55148 9.48588C3.36098 9.47032 3.13621 9.4336 2.91002 9.31835C2.59642 9.15856 2.34145 8.90359 2.18166 8.58999C2.06641 8.3638 2.02969 8.13902 2.01413 7.94853C1.99995 7.77506 1.99998 7.57024 2 7.35992C2 7.35107 2 7.34221 2 7.33334V4.16667C2 4.1578 2 4.14894 2 4.14009C1.99998 3.92977 1.99995 3.72494 2.01413 3.55148C2.02969 3.36099 2.06641 3.13621 2.18166 2.91002C2.34145 2.59642 2.59642 2.34145 2.91002 2.18166C3.13621 2.06641 3.36099 2.02969 3.55148 2.01413C3.72494 1.99995 3.92977 1.99998 4.14009 2ZM3.67621 3.67621C3.67589 3.67967 3.67557 3.68333 3.67526 3.6872C3.66732 3.78435 3.66667 3.91956 3.66667 4.16667V7.33334C3.66667 7.58044 3.66732 7.71566 3.67526 7.81281C3.67557 7.81668 3.67589 7.82034 3.67621 7.8238C3.67967 7.82412 3.68333 7.82444 3.6872 7.82475C3.78435 7.83269 3.91956 7.83334 4.16667 7.83334H7.33334C7.58044 7.83334 7.71566 7.83269 7.81281 7.82475C7.81668 7.82444 7.82034 7.82412 7.8238 7.8238C7.82412 7.82034 7.82444 7.81668 7.82475 7.81281C7.83269 7.71566 7.83334 7.58044 7.83334 7.33334V4.16667C7.83334 3.91956 7.83269 3.78435 7.82475 3.6872C7.82444 3.68333 7.82412 3.67967 7.8238 3.67621C7.82034 3.67589 7.81668 3.67557 7.81281 3.67526C7.71566 3.66732 7.58044 3.66667 7.33334 3.66667H4.16667C3.91956 3.66667 3.78435 3.66732 3.6872 3.67526C3.68333 3.67557 3.67967 3.67589 3.67621 3.67621ZM13.3068 2H16.5266C16.7369 1.99998 16.9417 1.99995 17.1152 2.01413C17.3057 2.02969 17.5305 2.06641 17.7567 2.18166C18.0703 2.34145 18.3252 2.59642 18.485 2.91002C18.6003 3.13621 18.637 3.36098 18.6525 3.55148C18.6667 3.72494 18.6667 3.92976 18.6667 4.14007V7.35993C18.6667 7.57025 18.6667 7.77507 18.6525 7.94853C18.637 8.13902 18.6003 8.3638 18.485 8.58999C18.3252 8.90359 18.0703 9.15856 17.7567 9.31835C17.5305 9.4336 17.3057 9.47032 17.1152 9.48588C16.9417 9.50006 16.7369 9.50003 16.5266 9.50001H13.3068C13.0964 9.50003 12.8916 9.50006 12.7181 9.48588C12.5277 9.47032 12.3029 9.4336 12.0767 9.31835C11.7631 9.15856 11.5081 8.90359 11.3483 8.58999C11.2331 8.3638 11.1964 8.13902 11.1808 7.94853C11.1666 7.77506 11.1666 7.57023 11.1667 7.35991V4.1401C11.1666 3.92978 11.1666 3.72495 11.1808 3.55148C11.1964 3.36098 11.2331 3.13621 11.3483 2.91002C11.5081 2.59642 11.7631 2.34145 12.0767 2.18166C12.3029 2.06641 12.5277 2.02969 12.7181 2.01413C12.8916 1.99995 13.0964 1.99998 13.3068 2ZM12.8429 3.67621C12.8426 3.67967 12.8422 3.68333 12.8419 3.6872C12.834 3.78435 12.8333 3.91956 12.8333 4.16667V7.33334C12.8333 7.58044 12.834 7.71566 12.8419 7.81281C12.8422 7.81668 12.8426 7.82034 12.8429 7.8238C12.8463 7.82412 12.85 7.82444 12.8539 7.82475C12.951 7.83269 13.0862 7.83334 13.3333 7.83334H16.5C16.7471 7.83334 16.8823 7.83269 16.9795 7.82475C16.9833 7.82444 16.987 7.82411 16.9905 7.82379C16.9908 7.82033 16.9911 7.81668 16.9914 7.81281C16.9994 7.71566 17 7.58044 17 7.33334V4.16667C17 3.91956 16.9994 3.78435 16.9914 3.6872C16.9911 3.68333 16.9908 3.67967 16.9905 3.67621C16.987 3.67589 16.9833 3.67557 16.9795 3.67526C16.8823 3.66732 16.7471 3.66667 16.5 3.66667H13.3333C13.0862 3.66667 12.951 3.66732 12.8539 3.67526C12.85 3.67557 12.8463 3.67589 12.8429 3.67621ZM4.91667 5.75C4.91667 5.28977 5.28977 4.91667 5.75 4.91667H5.75834C6.21858 4.91667 6.59167 5.28977 6.59167 5.75C6.59167 6.21024 6.21858 6.58334 5.75834 6.58334H5.75C5.28977 6.58334 4.91667 6.21024 4.91667 5.75ZM14.0833 5.75C14.0833 5.28977 14.4564 4.91667 14.9167 4.91667H14.925C15.3852 4.91667 15.7583 5.28977 15.7583 5.75C15.7583 6.21024 15.3852 6.58334 14.925 6.58334H14.9167C14.4564 6.58334 14.0833 6.21024 14.0833 5.75ZM10.3333 11.1667C10.3333 10.7064 10.7064 10.3333 11.1667 10.3333H11.175C11.6352 10.3333 12.0083 10.7064 12.0083 11.1667C12.0083 11.6269 11.6352 12 11.175 12H11.1667C10.7064 12 10.3333 11.6269 10.3333 11.1667ZM4.1401 11.1667H7.35991C7.57023 11.1666 7.77506 11.1666 7.94853 11.1808C8.13902 11.1964 8.3638 11.2331 8.58999 11.3483C8.90359 11.5081 9.15856 11.7631 9.31835 12.0767C9.4336 12.3029 9.47032 12.5277 9.48588 12.7181C9.50006 12.8916 9.50003 13.0964 9.50001 13.3068V16.5266C9.50003 16.7369 9.50006 16.9417 9.48588 17.1152C9.47032 17.3057 9.4336 17.5305 9.31835 17.7567C9.15856 18.0703 8.90359 18.3252 8.58999 18.485C8.3638 18.6003 8.13902 18.637 7.94853 18.6525C7.77507 18.6667 7.57025 18.6667 7.35993 18.6667H4.14007C3.92976 18.6667 3.72494 18.6667 3.55148 18.6525C3.36098 18.637 3.13621 18.6003 2.91002 18.485C2.59642 18.3252 2.34145 18.0703 2.18166 17.7567C2.06641 17.5305 2.02969 17.3057 2.01413 17.1152C1.99995 16.9417 1.99998 16.7369 2 16.5266V13.3068C1.99998 13.0964 1.99995 12.8916 2.01413 12.7181C2.02969 12.5277 2.06641 12.3029 2.18166 12.0767C2.34145 11.7631 2.59642 11.5081 2.91002 11.3483C3.13621 11.2331 3.36098 11.1964 3.55148 11.1808C3.72495 11.1666 3.92978 11.1666 4.1401 11.1667ZM3.67621 12.8429C3.67589 12.8463 3.67557 12.85 3.67526 12.8539C3.66732 12.951 3.66667 13.0862 3.66667 13.3333V16.5C3.66667 16.7471 3.66732 16.8823 3.67526 16.9795C3.67557 16.9833 3.67589 16.987 3.67621 16.9905C3.67967 16.9908 3.68333 16.9911 3.6872 16.9914C3.78435 16.9994 3.91956 17 4.16667 17H7.33334C7.58044 17 7.71566 16.9994 7.81281 16.9914C7.81668 16.9911 7.82034 16.9908 7.8238 16.9905C7.82412 16.987 7.82444 16.9833 7.82475 16.9795C7.83269 16.8823 7.83334 16.7471 7.83334 16.5V13.3333C7.83334 13.0862 7.83269 12.951 7.82475 12.8539C7.82444 12.85 7.82412 12.8463 7.8238 12.8429C7.82034 12.8426 7.81668 12.8422 7.81281 12.8419C7.71566 12.834 7.58044 12.8333 7.33334 12.8333H4.16667C3.91956 12.8333 3.78435 12.834 3.6872 12.8419C3.68333 12.8422 3.67967 12.8426 3.67621 12.8429ZM13.25 12C13.25 11.5398 13.6231 11.1667 14.0833 11.1667H17.8333C18.2936 11.1667 18.6667 11.5398 18.6667 12C18.6667 12.4602 18.2936 12.8333 17.8333 12.8333H14.0833C13.6231 12.8333 13.25 12.4602 13.25 12ZM12 13.25C12.4602 13.25 12.8333 13.6231 12.8333 14.0833V17.8333C12.8333 18.2936 12.4602 18.6667 12 18.6667C11.5398 18.6667 11.1667 18.2936 11.1667 17.8333V14.0833C11.1667 13.6231 11.5398 13.25 12 13.25ZM17.8333 13.6667C18.2936 13.6667 18.6667 14.0398 18.6667 14.5V17.8333C18.6667 18.2936 18.2936 18.6667 17.8333 18.6667H14.5C14.0398 18.6667 13.6667 18.2936 13.6667 17.8333C13.6667 17.3731 14.0398 17 14.5 17H17V14.5C17 14.0398 17.3731 13.6667 17.8333 13.6667ZM4.91667 14.9167C4.91667 14.4564 5.28977 14.0833 5.75 14.0833H5.75834C6.21858 14.0833 6.59167 14.4564 6.59167 14.9167C6.59167 15.3769 6.21858 15.75 5.75834 15.75H5.75C5.28977 15.75 4.91667 15.3769 4.91667 14.9167ZM14.0833 14.9167C14.0833 14.4564 14.4564 14.0833 14.9167 14.0833H14.925C15.3852 14.0833 15.7583 14.4564 15.7583 14.9167C15.7583 15.3769 15.3852 15.75 14.925 15.75H14.9167C14.4564 15.75 14.0833 15.3769 14.0833 14.9167Z" fill="#B1B1B1"/>
</svg>
