<svg width="20" height="21" viewBox="0 0 20 21" fill="none" xmlns="http://www.w3.org/2000/svg">
<path d="M6.66667 14.6663H13.3333M9.18141 2.80297L3.52949 7.1989C3.15168 7.49275 2.96278 7.63968 2.82669 7.82368C2.70614 7.98667 2.61633 8.17029 2.56169 8.36551C2.5 8.5859 2.5 8.82521 2.5 9.30384V15.333C2.5 16.2664 2.5 16.7331 2.68166 17.0896C2.84144 17.4032 3.09641 17.6582 3.41002 17.818C3.76654 17.9996 4.23325 17.9996 5.16667 17.9996H14.8333C15.7668 17.9996 16.2335 17.9996 16.59 17.818C16.9036 17.6582 17.1586 17.4032 17.3183 17.0896C17.5 16.7331 17.5 16.2664 17.5 15.333V9.30384C17.5 8.82521 17.5 8.5859 17.4383 8.36551C17.3837 8.17029 17.2939 7.98667 17.1733 7.82368C17.0372 7.63968 16.8483 7.49275 16.4705 7.19891L10.8186 2.80297C10.5258 2.57526 10.3794 2.4614 10.2178 2.41763C10.0752 2.37902 9.92484 2.37902 9.78221 2.41763C9.62057 2.4614 9.47418 2.57526 9.18141 2.80297Z" stroke="#B1B1B1" stroke-width="1.66667" stroke-linecap="round" stroke-linejoin="round"/>
</svg>
