<svg xmlns="http://www.w3.org/2000/svg" width="20" height="21" viewBox="0 0 20 21" fill="none">
  <path d="M14.3333 12.3113C14.5641 12.3113 14.6795 12.3113 14.7731 12.3625C14.8503 12.4048 14.9221 12.4842 14.9564 12.5652C14.9981 12.6634 14.9876 12.7679 14.9667 12.9768C14.858 14.0602 14.4851 15.1041 13.8764 16.0151C13.1439 17.1114 12.1027 17.9659 10.8845 18.4705C9.66634 18.975 8.3259 19.1071 7.03269 18.8498C5.73949 18.5926 4.5516 17.9577 3.61925 17.0253C2.6869 16.093 2.05196 14.9051 1.79473 13.6119C1.53749 12.3187 1.66951 10.9782 2.1741 9.76004C2.67868 8.54186 3.53317 7.50067 4.62949 6.76813C5.54043 6.15946 6.58434 5.78659 7.66772 5.67789C7.87668 5.65693 7.98117 5.64645 8.07936 5.68811C8.16037 5.72247 8.23976 5.7943 8.28204 5.87147C8.3333 5.96501 8.3333 6.08043 8.3333 6.31126V11.6446C8.3333 11.8779 8.3333 11.9946 8.37871 12.0838C8.41866 12.1622 8.4824 12.2259 8.5608 12.2658C8.64993 12.3113 8.76661 12.3113 8.99996 12.3113H14.3333Z" stroke="#B1B1B1" stroke-width="1.66667" stroke-linecap="round" stroke-linejoin="round"/>
  <path d="M11.6666 2.97793C11.6666 2.74709 11.6666 2.63167 11.7179 2.53813C11.7602 2.46096 11.8396 2.38913 11.9206 2.35477C12.0187 2.3131 12.1232 2.32358 12.3322 2.34455C13.8559 2.49738 15.2883 3.17151 16.3807 4.26388C17.473 5.35625 18.1472 6.78867 18.3 8.31234C18.321 8.52132 18.3315 8.6258 18.2898 8.724C18.2554 8.805 18.1836 8.88439 18.1064 8.92667C18.0129 8.97792 17.8975 8.97792 17.6666 8.97792L12.3333 8.97793C12.0999 8.97793 11.9833 8.97793 11.8941 8.93251C11.8157 8.89256 11.752 8.82882 11.712 8.75042C11.6666 8.66129 11.6666 8.54461 11.6666 8.31126V2.97793Z" stroke="#B1B1B1" stroke-width="1.66667" stroke-linecap="round" stroke-linejoin="round"/>
</svg>