<svg width="17" height="16" viewBox="0 0 17 16" fill="none" xmlns="http://www.w3.org/2000/svg">
<path fill-rule="evenodd" clip-rule="evenodd" d="M12.2634 4.70687C10.7237 2.94328 8.10377 2.45502 5.99973 3.66979C4.56075 4.50059 3.69055 5.93811 3.52693 7.47526C3.48796 7.84138 3.15957 8.10659 2.79344 8.06762C2.42732 8.02865 2.16212 7.70026 2.20109 7.33414C2.40787 5.39143 3.50939 3.56799 5.33306 2.51509C8.08562 0.925898 11.5353 1.63775 13.4545 4.0538L13.527 3.78349C13.6223 3.42785 13.9878 3.21679 14.3435 3.31208C14.6991 3.40738 14.9102 3.77294 14.8149 4.12858L14.3268 5.94995C14.2811 6.12074 14.1693 6.26635 14.0162 6.35475C13.8631 6.44316 13.6811 6.46712 13.5103 6.42135L11.689 5.93332C11.3333 5.83803 11.1223 5.47247 11.2176 5.11682C11.3129 4.76118 11.6784 4.55012 12.0341 4.64542L12.2634 4.70687ZM14.2058 7.93247C14.5719 7.97144 14.8371 8.29984 14.7982 8.66596C14.5914 10.6087 13.4899 12.4321 11.6662 13.485C8.91376 15.0741 5.46432 14.3624 3.54499 11.9466L3.47265 12.2166C3.37735 12.5723 3.0118 12.7833 2.65615 12.688C2.30051 12.5927 2.08945 12.2272 2.18475 11.8715L2.67278 10.0502C2.76808 9.69451 3.13363 9.48346 3.48928 9.57875L5.31064 10.0668C5.66629 10.1621 5.87734 10.5276 5.78205 10.8833C5.68675 11.2389 5.3212 11.45 4.96555 11.3547L4.73573 11.2931C6.27541 13.0568 8.89543 13.5451 10.9995 12.3303C12.4385 11.4995 13.3087 10.062 13.4723 8.52483C13.5113 8.15871 13.8397 7.8935 14.2058 7.93247Z" fill="#078BB9"/>
</svg>
