<svg width="20" height="21" viewBox="0 0 20 21" fill="none" xmlns="http://www.w3.org/2000/svg">
<path d="M6.66667 14.4182H13.3333M9.18141 2.55492L3.52949 6.95086C3.15168 7.24471 2.96278 7.39163 2.82669 7.57563C2.70614 7.73862 2.61633 7.92224 2.56169 8.11746C2.5 8.33785 2.5 8.57717 2.5 9.0558V15.0849C2.5 16.0183 2.5 16.485 2.68166 16.8416C2.84144 17.1552 3.09641 17.4101 3.41002 17.5699C3.76654 17.7516 4.23325 17.7516 5.16667 17.7516H14.8333C15.7668 17.7516 16.2335 17.7516 16.59 17.5699C16.9036 17.4101 17.1586 17.1552 17.3183 16.8416C17.5 16.485 17.5 16.0183 17.5 15.0849V9.0558C17.5 8.57717 17.5 8.33785 17.4383 8.11746C17.3837 7.92224 17.2939 7.73862 17.1733 7.57563C17.0372 7.39163 16.8483 7.24471 16.4705 6.95086L10.8186 2.55492C10.5258 2.32721 10.3794 2.21335 10.2178 2.16959C10.0752 2.13097 9.92484 2.13097 9.78221 2.16959C9.62057 2.21335 9.47418 2.32721 9.18141 2.55492Z" stroke="#E9E9E9" stroke-width="1.66667" stroke-linecap="round" stroke-linejoin="round"/>
</svg>
