<svg xmlns="http://www.w3.org/2000/svg" width="18" height="18" viewBox="0 0 18 18" fill="none">
  <path fill-rule="evenodd" clip-rule="evenodd" d="M8.58268 2.33268C5.1309 2.33268 2.33268 5.1309 2.33268 8.58268C2.33268 12.0345 5.1309 14.8327 8.58268 14.8327C10.2603 14.8327 11.7835 14.1717 12.9061 13.096C12.932 13.0601 12.9612 13.0258 12.9935 12.9934C13.0259 12.9611 13.0602 12.932 13.0961 12.906C14.1718 11.7834 14.8327 10.2602 14.8327 8.58268C14.8327 5.1309 12.0345 2.33268 8.58268 2.33268ZM14.739 13.5604C15.8399 12.2005 16.4993 10.4686 16.4993 8.58268C16.4993 4.21043 12.9549 0.666016 8.58268 0.666016C4.21043 0.666016 0.666016 4.21043 0.666016 8.58268C0.666016 12.9549 4.21043 16.4993 8.58268 16.4993C10.4687 16.4993 12.2006 15.8399 13.5605 14.7389L15.9101 17.0886C16.2355 17.414 16.7632 17.414 17.0886 17.0886C17.414 16.7632 17.414 16.2355 17.0886 15.9101L14.739 13.5604Z" fill="#B1B1B1"/>
</svg>