<svg width="18" height="14" viewBox="0 0 18 14" fill="none" xmlns="http://www.w3.org/2000/svg">
<path fill-rule="evenodd" clip-rule="evenodd" d="M14.0003 1.99967C13.0799 1.99967 12.3337 2.74587 12.3337 3.66634C12.3337 4.58682 13.0799 5.33301 14.0003 5.33301C14.9208 5.33301 15.667 4.58682 15.667 3.66634C15.667 2.74587 14.9208 1.99967 14.0003 1.99967ZM10.772 2.83301C11.142 1.39532 12.4471 0.333008 14.0003 0.333008C15.8413 0.333008 17.3337 1.82539 17.3337 3.66634C17.3337 5.50729 15.8413 6.99967 14.0003 6.99967C12.4471 6.99967 11.142 5.93736 10.772 4.49968L1.50033 4.49967C1.04009 4.49967 0.666992 4.12658 0.666992 3.66634C0.666992 3.2061 1.04009 2.83301 1.50033 2.83301L10.772 2.83301ZM4.00033 8.66634C3.07985 8.66634 2.33366 9.41253 2.33366 10.333C2.33366 11.2535 3.07985 11.9997 4.00033 11.9997C4.9208 11.9997 5.66699 11.2535 5.66699 10.333C5.66699 9.41253 4.9208 8.66634 4.00033 8.66634ZM0.666992 10.333C0.666992 8.49206 2.15938 6.99967 4.00033 6.99967C5.55352 6.99967 6.85861 8.06199 7.22864 9.49967L16.5003 9.49967C16.9606 9.49967 17.3337 9.87277 17.3337 10.333C17.3337 10.7932 16.9606 11.1663 16.5003 11.1663L7.22864 11.1663C6.85861 12.604 5.55352 13.6663 4.00033 13.6663C2.15938 13.6663 0.666992 12.174 0.666992 10.333Z" fill="#B1B1B1"/>
</svg>
