<svg xmlns="http://www.w3.org/2000/svg" width="16" height="16" viewBox="0 0 16 16" fill="none">
  <path d="M7.53451 14.4102C7.6821 14.4963 7.7559 14.5393 7.86005 14.5617C7.94088 14.579 8.0588 14.579 8.13962 14.5617C8.24377 14.5393 8.31757 14.4963 8.46516 14.4102C9.76386 13.6525 13.3332 11.2725 13.3332 8.00024V4.81197C13.3332 4.27897 13.3332 4.01246 13.246 3.78338C13.169 3.581 13.0438 3.40042 12.8814 3.25726C12.6975 3.0952 12.448 3.00162 11.9489 2.81447L8.37437 1.47402C8.23577 1.42205 8.16647 1.39606 8.09518 1.38576C8.03195 1.37662 7.96773 1.37662 7.90449 1.38576C7.8332 1.39606 7.7639 1.42205 7.62531 1.47402L4.05077 2.81447C3.5517 3.00162 3.30217 3.0952 3.11828 3.25726C2.95583 3.40042 2.83069 3.581 2.75368 3.78338C2.6665 4.01246 2.6665 4.27897 2.6665 4.81197V8.00024C2.6665 11.2725 6.23581 13.6525 7.53451 14.4102Z" stroke="#E9E9E9" stroke-width="1.33333" stroke-linecap="round" stroke-linejoin="round"/>
</svg>