<svg width="18" height="20" viewBox="0 0 18 20" fill="none" xmlns="http://www.w3.org/2000/svg">
<path fill-rule="evenodd" clip-rule="evenodd" d="M8.6639 0.987294C8.88542 0.941735 9.11389 0.941735 9.33541 0.987294C9.59147 1.03996 9.82034 1.16815 10.0023 1.27006C10.0192 1.27955 10.0358 1.28881 10.0519 1.29776L16.2185 4.72369C16.2356 4.73316 16.2532 4.74284 16.2712 4.75275C16.4638 4.85884 16.706 4.99223 16.8919 5.19405C17.0527 5.36853 17.1744 5.57533 17.2488 5.80063C17.3349 6.06121 17.3339 6.3377 17.3331 6.55758C17.3331 6.57814 17.333 6.59819 17.333 6.6177V13.382C17.333 13.4015 17.3331 13.4215 17.3331 13.4421C17.3339 13.662 17.3349 13.9384 17.2488 14.199C17.1744 14.4243 17.0527 14.6311 16.8919 14.8056C16.706 15.0074 16.4638 15.1408 16.2712 15.2469C16.2532 15.2568 16.2356 15.2665 16.2185 15.276L10.0519 18.7019C10.0358 18.7108 10.0192 18.7201 10.0023 18.7296C9.82034 18.8315 9.59147 18.9597 9.33541 19.0124C9.11389 19.0579 8.88542 19.0579 8.6639 19.0124C8.40784 18.9597 8.17898 18.8315 7.99703 18.7296C7.98008 18.7201 7.96355 18.7108 7.94743 18.7019L1.78076 15.276C1.76372 15.2665 1.74615 15.2568 1.72816 15.2469C1.53554 15.1408 1.29336 15.0074 1.10738 14.8056C0.946586 14.6311 0.824902 14.4243 0.750464 14.199C0.664367 13.9384 0.665374 13.662 0.666175 13.4421C0.66625 13.4215 0.666323 13.4015 0.666323 13.382V6.6177C0.666323 6.59819 0.66625 6.57814 0.666175 6.55759C0.665374 6.3377 0.664367 6.06121 0.750464 5.80063C0.824902 5.57533 0.946585 5.36853 1.10738 5.19405C1.29336 4.99223 1.53554 4.85884 1.72815 4.75275C1.74615 4.74284 1.76371 4.73316 1.78076 4.72369L7.94743 1.29776C7.96354 1.28881 7.98008 1.27955 7.99703 1.27006C8.17898 1.16815 8.40784 1.03996 8.6639 0.987294ZM8.99966 2.62398C8.99839 2.62459 8.99706 2.62522 8.99567 2.62589C8.94759 2.64908 8.88312 2.68453 8.75684 2.75469L2.59017 6.18062C2.45687 6.25467 2.38882 6.29287 2.34107 6.32329C2.33967 6.32419 2.33833 6.32505 2.33704 6.32588C2.33694 6.3274 2.33684 6.329 2.33674 6.33066C2.33334 6.38717 2.33299 6.46521 2.33299 6.6177V13.382C2.33299 13.5344 2.33334 13.6125 2.33674 13.669C2.33684 13.6707 2.33694 13.6722 2.33704 13.6738C2.33832 13.6746 2.33967 13.6755 2.34107 13.6764C2.38882 13.7068 2.45687 13.745 2.59017 13.819L8.75684 17.245C8.88312 17.3151 8.94758 17.3506 8.99567 17.3738C8.99706 17.3744 8.99838 17.3751 8.99966 17.3757C9.00093 17.3751 9.00226 17.3744 9.00364 17.3738C9.05173 17.3506 9.11619 17.3151 9.24248 17.245L15.4091 13.819C15.5424 13.745 15.6105 13.7068 15.6582 13.6764C15.6596 13.6755 15.661 13.6746 15.6623 13.6738C15.6624 13.6722 15.6625 13.6707 15.6626 13.669C15.666 13.6125 15.6663 13.5344 15.6663 13.382V6.6177C15.6663 6.46521 15.666 6.38717 15.6626 6.33066C15.6625 6.32899 15.6624 6.3274 15.6623 6.32588C15.661 6.32505 15.6596 6.32419 15.6582 6.32329C15.6105 6.29287 15.5424 6.25467 15.4091 6.18062L9.24248 2.75469C9.11619 2.68453 9.05173 2.64909 9.00364 2.62589C9.00226 2.62522 9.00093 2.62459 8.99966 2.62398ZM9.21473 6.68675C8.82679 6.62021 8.42783 6.69311 8.08849 6.89254C7.74916 7.09197 7.49135 7.40506 7.36074 7.77635C7.20801 8.21051 6.73225 8.43866 6.29809 8.28593C5.86393 8.1332 5.63579 7.65744 5.78852 7.22328C6.04974 6.48069 6.56535 5.85451 7.24402 5.45565C7.92269 5.05679 8.72062 4.91099 9.49649 5.04407C10.2724 5.17715 10.9761 5.58053 11.483 6.18276C11.9899 6.78486 12.2674 7.54688 12.2663 8.33391C12.2659 9.60921 11.3204 10.4514 10.6452 10.9015C10.2822 11.1435 9.92509 11.3215 9.66203 11.4384C9.52932 11.4974 9.41757 11.5422 9.33705 11.5728C9.29671 11.5882 9.26402 11.6001 9.24021 11.6086L9.21127 11.6187L9.20205 11.6218L9.19881 11.6229L9.19753 11.6234C9.19728 11.6235 9.19648 11.6237 8.93296 10.8331L9.19648 11.6237C8.75986 11.7693 8.28793 11.5333 8.14239 11.0967C7.9969 10.6602 8.23266 10.1884 8.669 10.0427L8.66803 10.0431C8.66815 10.043 8.66814 10.043 8.669 10.0427L8.68186 10.0382C8.69468 10.0336 8.71569 10.026 8.74372 10.0153C8.79991 9.99394 8.88347 9.96058 8.98514 9.91539C9.19083 9.82397 9.45874 9.68942 9.72071 9.51478C10.2954 9.13166 10.5996 8.72409 10.5996 8.33315L10.5996 8.33191C10.6002 7.93831 10.4615 7.5572 10.208 7.25609C9.95453 6.95498 9.60266 6.75329 9.21473 6.68675ZM8.16632 14.1665C8.16632 13.7063 8.53942 13.3332 8.99966 13.3332H9.00799C9.46823 13.3332 9.84132 13.7063 9.84132 14.1665C9.84132 14.6267 9.46823 14.9998 9.00799 14.9998H8.99966C8.53942 14.9998 8.16632 14.6267 8.16632 14.1665Z" fill="#B1B1B1"/>
</svg>
