<svg width="21" height="20" viewBox="0 0 21 20" fill="none" xmlns="http://www.w3.org/2000/svg">
<path d="M10.3791 14.8871L12.7041 17.2038C12.8708 17.3621 13.1291 17.3621 13.2958 17.2038L15.6208 14.8871C15.8875 14.6288 15.6958 14.1788 15.3291 14.1788L13.8291 14.1788L13.8291 9.17043C13.8291 8.71209 13.4541 8.33709 12.9958 8.33709C12.5375 8.33709 12.1625 8.71209 12.1625 9.17043L12.1625 14.1788L10.6708 14.1788C10.2958 14.1788 10.1125 14.6288 10.3791 14.8871ZM7.70413 2.79543L5.37913 5.11209C5.11247 5.37043 5.30413 5.82043 5.6708 5.82043L7.16247 5.82043L7.16247 10.8371C7.16247 11.2954 7.53747 11.6704 7.9958 11.6704C8.45413 11.6704 8.82913 11.2954 8.82913 10.8371L8.82913 5.82876L10.3208 5.82876C10.6958 5.82876 10.8791 5.37876 10.6125 5.12043L8.28747 2.80376C8.12913 2.63709 7.86247 2.63709 7.70413 2.79543Z" fill="#B1B1B1"/>
</svg>
