<svg width="25" height="24" viewBox="0 0 25 24" fill="none" xmlns="http://www.w3.org/2000/svg">
<path d="M6.63539 11.855L3.85539 14.645C3.66539 14.845 3.66539 15.155 3.85539 15.355L6.63539 18.145C6.94539 18.465 7.48539 18.235 7.48539 17.795V15.995H13.4954C14.0454 15.995 14.4954 15.545 14.4954 14.995C14.4954 14.445 14.0454 13.995 13.4954 13.995H7.48539V12.205C7.48539 11.755 6.94539 11.535 6.63539 11.855ZM21.1454 8.64496L18.3654 5.85496C18.0554 5.53496 17.5154 5.76496 17.5154 6.20496V7.99496H11.4954C10.9454 7.99496 10.4954 8.44496 10.4954 8.99496C10.4954 9.54496 10.9454 9.99496 11.4954 9.99496H17.5054V11.785C17.5054 12.235 18.0454 12.455 18.3554 12.135L21.1354 9.34496C21.3354 9.15496 21.3354 8.83496 21.1454 8.64496Z" fill="#B1B1B1"/>
</svg>
