<svg width="20" height="20" viewBox="0 0 20 20" fill="none" xmlns="http://www.w3.org/2000/svg">
<path fill-rule="evenodd" clip-rule="evenodd" d="M9.99967 2.49967C5.85754 2.49967 2.49967 5.85754 2.49967 9.99967C2.49967 14.1418 5.85754 17.4997 9.99967 17.4997C14.1418 17.4997 17.4997 14.1418 17.4997 9.99967C17.4997 5.85754 14.1418 2.49967 9.99967 2.49967ZM0.833008 9.99967C0.833008 4.93706 4.93706 0.833008 9.99967 0.833008C15.0623 0.833008 19.1663 4.93706 19.1663 9.99967C19.1663 15.0623 15.0623 19.1663 9.99967 19.1663C4.93706 19.1663 0.833008 15.0623 0.833008 9.99967ZM9.16634 4.58301C9.16634 4.12277 9.53944 3.74967 9.99967 3.74967C13.4515 3.74967 16.2497 6.54789 16.2497 9.99967C16.2497 13.4515 13.4515 16.2497 9.99967 16.2497C9.53944 16.2497 9.16634 15.8766 9.16634 15.4163V4.58301ZM10.833 5.49191V14.5074C12.9664 14.1156 14.583 12.2464 14.583 9.99967C14.583 7.75295 12.9664 5.8838 10.833 5.49191Z" fill="#B1B1B1"/>
</svg>
