<svg xmlns="http://www.w3.org/2000/svg" width="16" height="16" viewBox="0 0 16 16" fill="none">
  <path fill-rule="evenodd" clip-rule="evenodd" d="M7.52925 1.52925C7.7896 1.2689 8.21171 1.2689 8.47206 1.52925L11.8054 4.86258C12.0657 5.12293 12.0657 5.54504 11.8054 5.80539C11.545 6.06574 11.1229 6.06574 10.8626 5.80539L8.66732 3.61013V10.0007C8.66732 10.3688 8.36884 10.6673 8.00065 10.6673C7.63246 10.6673 7.33398 10.3688 7.33398 10.0007V3.61013L5.13872 5.80539C4.87837 6.06574 4.45626 6.06574 4.19591 5.80539C3.93556 5.54504 3.93556 5.12293 4.19591 4.86258L7.52925 1.52925ZM2.00065 9.33398C2.36884 9.33398 2.66732 9.63246 2.66732 10.0007V10.8007C2.66732 11.3717 2.66784 11.7599 2.69235 12.06C2.71623 12.3522 2.75952 12.5017 2.81264 12.606C2.94047 12.8569 3.14445 13.0608 3.39533 13.1887C3.4996 13.2418 3.64907 13.2851 3.94134 13.3089C4.2414 13.3335 4.6296 13.334 5.20065 13.334H10.8007C11.3717 13.334 11.7599 13.3335 12.06 13.3089C12.3522 13.2851 12.5017 13.2418 12.606 13.1887C12.8569 13.0608 13.0608 12.8569 13.1887 12.606C13.2418 12.5017 13.2851 12.3522 13.3089 12.06C13.3335 11.7599 13.334 11.3717 13.334 10.8007V10.0007C13.334 9.63246 13.6325 9.33398 14.0007 9.33398C14.3688 9.33398 14.6673 9.63246 14.6673 10.0007V10.8282C14.6673 11.3648 14.6673 11.8077 14.6379 12.1685C14.6072 12.5433 14.5415 12.8877 14.3767 13.2113C14.121 13.7131 13.7131 14.121 13.2113 14.3767C12.8877 14.5415 12.5433 14.6072 12.1685 14.6379C11.8077 14.6673 11.3648 14.6673 10.8282 14.6673H5.1731C4.63646 14.6673 4.19356 14.6673 3.83277 14.6379C3.45804 14.6072 3.11357 14.5415 2.79001 14.3767C2.28824 14.121 1.8803 13.7131 1.62463 13.2113C1.45977 12.8877 1.39406 12.5433 1.36345 12.1685C1.33397 11.8077 1.33398 11.3648 1.33398 10.8282L1.33398 10.0007C1.33398 9.63246 1.63246 9.33398 2.00065 9.33398Z" fill="#B1B1B1"/>
</svg>