<svg xmlns="http://www.w3.org/2000/svg" width="20" height="21" viewBox="0 0 20 21" fill="none">
  <path fill-rule="evenodd" clip-rule="evenodd" d="M4.16675 3.44108C3.70651 3.44108 3.33341 3.81418 3.33341 4.27441C3.33341 4.73465 3.70651 5.10775 4.16675 5.10775L15.8334 5.10775C17.2141 5.10775 18.3334 6.22704 18.3334 7.60775V15.9411C18.3334 17.3218 17.2141 18.4411 15.8334 18.4411H4.16675C2.78604 18.4411 1.66675 17.3218 1.66675 15.9411V4.27441C1.66675 2.8937 2.78604 1.77441 4.16675 1.77441H14.1667C14.627 1.77441 15.0001 2.14751 15.0001 2.60775C15.0001 3.06798 14.627 3.44108 14.1667 3.44108H4.16675ZM3.33341 6.63216V15.9411C3.33341 16.4013 3.70651 16.7744 4.16675 16.7744H15.8334C16.2937 16.7744 16.6667 16.4013 16.6667 15.9411V7.60775C16.6667 7.14751 16.2937 6.77441 15.8334 6.77441L4.16675 6.77441C3.87455 6.77441 3.59406 6.72429 3.33341 6.63216ZM12.5001 11.7744C12.5001 11.0841 13.0597 10.5244 13.7501 10.5244C14.4404 10.5244 15.0001 11.0841 15.0001 11.7744C15.0001 12.4648 14.4404 13.0244 13.7501 13.0244C13.0597 13.0244 12.5001 12.4648 12.5001 11.7744Z" fill="#E9E9E9"/>
</svg>