<svg xmlns="http://www.w3.org/2000/svg" width="20" height="20" viewBox="0 0 20 20" fill="none">
  <path d="M16.667 7.91634V5.99968C16.667 5.06625 16.667 4.59954 16.4853 4.24303C16.3255 3.92942 16.0706 3.67445 15.757 3.51467C15.4005 3.33301 14.9337 3.33301 14.0003 3.33301H4.33366C3.40024 3.33301 2.93353 3.33301 2.57701 3.51466C2.2634 3.67445 2.00844 3.92942 1.84865 4.24302C1.66699 4.59954 1.66699 5.06625 1.66699 5.99967V13.9997C1.66699 14.9331 1.66699 15.3998 1.84865 15.7563C2.00844 16.0699 2.2634 16.3249 2.57701 16.4847C2.93353 16.6663 3.40024 16.6663 4.33366 16.6663L14.0003 16.6663C14.9337 16.6663 15.4005 16.6663 15.757 16.4847C16.0706 16.3249 16.3255 16.0699 16.4853 15.7563C16.667 15.3998 16.667 14.9331 16.667 13.9997V12.083M12.5003 9.99967C12.5003 9.61246 12.5003 9.41886 12.5323 9.25786C12.6639 8.59671 13.1807 8.07988 13.8418 7.94837C14.0028 7.91634 14.1964 7.91634 14.5837 7.91634H16.2503C16.6375 7.91634 16.8311 7.91634 16.9921 7.94837C17.6533 8.07988 18.1701 8.59671 18.3016 9.25786C18.3337 9.41886 18.3337 9.61246 18.3337 9.99967C18.3337 10.3869 18.3337 10.5805 18.3016 10.7415C18.1701 11.4026 17.6533 11.9195 16.9921 12.051C16.8311 12.083 16.6375 12.083 16.2503 12.083H14.5837C14.1964 12.083 14.0028 12.083 13.8418 12.051C13.1807 11.9195 12.6639 11.4026 12.5323 10.7415C12.5003 10.5805 12.5003 10.3869 12.5003 9.99967Z" stroke="#B1B1B1" stroke-width="1.66667" stroke-linecap="round" stroke-linejoin="round"/>
</svg>