<svg width="25" height="24" viewBox="0 0 25 24" fill="none" xmlns="http://www.w3.org/2000/svg">
<g id="box-svgrepo-com 1">
<path id="Vector" fill-rule="evenodd" clip-rule="evenodd" d="M12.4 2C11.8431 2 11.3302 2.13841 10.7688 2.3706C10.2267 2.59481 9.59699 2.92527 8.81288 3.33676L6.90885 4.33595C5.94651 4.84095 5.17637 5.24509 4.58174 5.6422C3.9657 6.0536 3.49122 6.48678 3.14568 7.07357C2.80131 7.65839 2.64639 8.29165 2.5721 9.04578C2.49999 9.77779 2.49999 10.678 2.5 11.8103V11.9897C2.49999 13.1219 2.49999 14.0222 2.5721 14.7542C2.64639 15.5084 2.80131 16.1416 3.14568 16.7264C3.49122 17.3132 3.9657 17.7464 4.58174 18.1578C5.17637 18.5549 5.9465 18.959 6.90883 19.4641L8.8128 20.4632C9.59695 20.8747 10.2267 21.2052 10.7688 21.4294C11.3302 21.6616 11.8431 21.8 12.4 21.8C12.9569 21.8 13.4698 21.6616 14.0312 21.4294C14.5733 21.2052 15.203 20.8747 15.9871 20.4633L17.8911 19.4641C18.8535 18.959 19.6236 18.5549 20.2182 18.1578C20.8343 17.7464 21.3088 17.3132 21.6543 16.7264C21.9987 16.1416 22.1536 15.5084 22.2279 14.7542C22.3 14.0222 22.3 13.122 22.3 11.9898V11.8102C22.3 10.678 22.3 9.77778 22.2279 9.04578C22.1536 8.29165 21.9987 7.65839 21.6543 7.07357C21.3088 6.48678 20.8343 6.0536 20.2182 5.6422C19.6236 5.24509 18.8535 4.84095 17.8911 4.33594L15.9871 3.33677C15.203 2.92528 14.5733 2.59482 14.0312 2.3706C13.4698 2.13841 12.9569 2 12.4 2ZM9.42613 4.57499C10.2455 4.145 10.8197 3.84444 11.2967 3.64714C11.7611 3.45511 12.0873 3.3814 12.4 3.3814C12.7127 3.3814 13.0389 3.45511 13.5033 3.64714C13.9803 3.84444 14.5545 4.145 15.3739 4.57499L17.2157 5.54156C18.2193 6.06819 18.9243 6.43918 19.4511 6.79097C19.711 6.96453 19.9152 7.1257 20.0801 7.28774L17.0128 8.8214L9.18499 4.70154L9.42613 4.57499ZM7.74438 5.45753L7.58427 5.54156C6.58074 6.06818 5.8757 6.43918 5.34892 6.79097C5.08902 6.96453 4.8848 7.1257 4.71994 7.28774L12.4 11.1278L15.4917 9.58192L7.93412 5.60424C7.8607 5.56559 7.79711 5.51559 7.74438 5.45753ZM4.05424 8.49935C4.00773 8.69631 3.97258 8.91999 3.94684 9.18121C3.88217 9.83767 3.8814 10.67 3.8814 11.8461V11.9539C3.8814 13.13 3.88217 13.9623 3.94684 14.6188C4.01009 15.2608 4.13025 15.676 4.33603 16.0255C4.54066 16.373 4.83665 16.6669 5.34892 17.009C5.8757 17.3608 6.58074 17.7318 7.58427 18.2585L9.42613 19.225C10.2455 19.655 10.8197 19.9556 11.2967 20.1528C11.4474 20.2152 11.5835 20.265 11.7093 20.3039V12.3269L4.05424 8.49935ZM13.0907 20.3039C13.2165 20.265 13.3526 20.2152 13.5033 20.1528C13.9803 19.9556 14.5545 19.655 15.3739 19.225L17.2157 18.2585C18.2193 17.7318 18.9243 17.3608 19.4511 17.009C19.9633 16.6669 20.2593 16.373 20.4639 16.0255C20.6698 15.676 20.7899 15.2608 20.8531 14.6188C20.9179 13.9623 20.9186 13.13 20.9186 11.9539V11.8461C20.9186 10.67 20.9179 9.83767 20.8531 9.18121C20.8274 8.91998 20.7923 8.69631 20.7457 8.49934L17.6953 10.0245V12.8209C17.6953 13.2024 17.3861 13.5116 17.0047 13.5116C16.6232 13.5116 16.314 13.2024 16.314 12.8209V10.7152L13.0907 12.3269V20.3039Z" fill="#f6f6f6"/>
</g>
</svg>
