<svg
                  width="14"
                  height="16"
                  viewBox="0 0 14 16"
                  fill="none"
                  xmlns="http://www.w3.org/2000/svg"
                >
                  <path
                    d="M13.2667 4.02305L13.275 4.01471L10.6167 1.35638C10.375 1.11471 9.975 1.11471 9.73333 1.35638C9.49167 1.59805 9.49167 1.99805 9.73333 2.23971L11.05 3.55638C10.175 3.88971 9.58333 4.78138 9.73333 5.81471C9.86667 6.73138 10.65 7.47305 11.5667 7.57305C11.9583 7.61471 12.3 7.54805 12.625 7.40638V13.4147C12.625 13.873 12.25 14.248 11.7917 14.248C11.3333 14.248 10.9583 13.873 10.9583 13.4147V9.66471C10.9583 8.74805 10.2083 7.99805 9.29167 7.99805H8.45833V2.16471C8.45833 1.24805 7.70833 0.498047 6.79167 0.498047H1.79167C0.875 0.498047 0.125 1.24805 0.125 2.16471V14.6647C0.125 15.123 0.5 15.498 0.958333 15.498H7.625C8.08333 15.498 8.45833 15.123 8.45833 14.6647V9.24805H9.70833V13.298C9.70833 14.3897 10.4917 15.3814 11.575 15.4897C12.825 15.6147 13.875 14.6397 13.875 13.4147V5.49805C13.875 4.92305 13.6417 4.39805 13.2667 4.02305ZM6.79167 6.33138H1.79167V2.99805C1.79167 2.53971 2.16667 2.16471 2.625 2.16471H5.95833C6.41667 2.16471 6.79167 2.53971 6.79167 2.99805V6.33138ZM11.7917 6.33138C11.3333 6.33138 10.9583 5.95638 10.9583 5.49805C10.9583 5.03971 11.3333 4.66471 11.7917 4.66471C12.25 4.66471 12.625 5.03971 12.625 5.49805C12.625 5.95638 12.25 6.33138 11.7917 6.33138Z"
                    fill="#f6f6f6"
                  />
                </svg>